<svg id="Capa_1" data-name="Capa 1" xmlns="http://www.w3.org/2000/svg" viewBox="0 0 244.09 381.45"><defs><style>.cls-1,.cls-11,.cls-21{font-size:12px;}.cls-1,.cls-10,.cls-21,.cls-32{fill:#aa959b;font-family:Montserrat-Regular, Montserrat;}.cls-1,.cls-11,.cls-23{letter-spacing:0.11em;}.cls-2{letter-spacing:0.1em;}.cls-3{letter-spacing:0.11em;}.cls-4{letter-spacing:0.1em;}.cls-5{letter-spacing:0.11em;}.cls-6{letter-spacing:0.11em;}.cls-7{letter-spacing:0.1em;}.cls-8{letter-spacing:0.1em;}.cls-9{letter-spacing:0.1em;}.cls-10,.cls-32{font-size:10px;}.cls-10,.cls-34{letter-spacing:0.11em;}.cls-12{letter-spacing:0.12em;}.cls-13{letter-spacing:0.06em;}.cls-14{letter-spacing:0.11em;}.cls-15,.cls-40{font-size:14px;fill:#a9b39a;font-family:Montserrat-MediumItalic, Montserrat;font-weight:500;font-style:italic;}.cls-15,.cls-41{letter-spacing:0.1em;}.cls-16{letter-spacing:0.11em;}.cls-17{letter-spacing:0.1em;}.cls-18{letter-spacing:0.11em;}.cls-19{letter-spacing:0.1em;}.cls-20{letter-spacing:0.11em;}.cls-21,.cls-39{letter-spacing:0.11em;}.cls-22{letter-spacing:0.12em;}.cls-24{letter-spacing:0.13em;}.cls-25{letter-spacing:0.09em;}.cls-26{letter-spacing:0.13em;}.cls-27{letter-spacing:0.1em;}.cls-28{letter-spacing:0.1em;}.cls-29{letter-spacing:0.09em;}.cls-30{letter-spacing:0.11em;}.cls-31{letter-spacing:0.09em;}.cls-32,.cls-37{letter-spacing:0.09em;}.cls-33{letter-spacing:0.1em;}.cls-35{letter-spacing:0.11em;}.cls-36{letter-spacing:0.11em;}.cls-38{letter-spacing:0.12em;}.cls-40{letter-spacing:0.1em;}.cls-42{letter-spacing:0.1em;}.cls-43{letter-spacing:0.12em;}.cls-44{letter-spacing:0.11em;}.cls-45{letter-spacing:0.1em;}</style></defs><title>DatosRegalo</title><text class="cls-1" transform="translate(27.93 42.71)">pe<tspan class="cls-2" x="18.07" y="0">r</tspan><tspan class="cls-3" x="24.07" y="0">e</tspan><tspan class="cls-4" x="32.6" y="0">z</tspan><tspan x="39.96" y="0">v</tspan><tspan class="cls-5" x="47.81" y="0">h</tspan><tspan class="cls-6" x="57.3" y="0">e</tspan><tspan class="cls-7" x="65.89" y="0">r</tspan><tspan x="71.95" y="0">nan@gmail</tspan><tspan class="cls-8" x="154.27" y="0">.</tspan><tspan class="cls-9" x="157.98" y="0">c</tspan><tspan x="165.97" y="0">om</tspan></text><text class="cls-10" transform="translate(95.77 67.44)">Mensaje:<tspan class="cls-11"><tspan x="-52.75" y="22">Regalo Ab</tspan><tspan class="cls-12" x="21.22" y="22">e</tspan><tspan x="29.87" y="22">l y </tspan><tspan class="cls-13" x="51.26" y="22">V</tspan><tspan x="60.32" y="22">ales</tspan><tspan class="cls-4" x="89.12" y="22">k</tspan><tspan class="cls-14" x="97.56" y="22">a</tspan></tspan></text><text class="cls-15" transform="translate(61.14 12.98)">Z<tspan class="cls-16" x="10.6" y="0">elle o </tspan><tspan class="cls-17" x="62.92" y="0">P</tspan><tspan class="cls-18" x="74.42" y="0">aypal</tspan></text><text class="cls-10" transform="translate(92.12 160.97)">Me<tspan class="cls-19" x="17.83" y="0">r</tspan><tspan class="cls-20" x="22.83" y="0">cantil:</tspan></text><text class="cls-21" transform="translate(27.94 183.69)">0<tspan class="cls-14" x="9.26" y="0">105 0660 390660 </tspan><tspan class="cls-7" x="134.35" y="0">0</tspan><tspan class="cls-22" x="143.54" y="0">7</tspan><tspan class="cls-23" x="152.07" y="0">188 6</tspan><tspan class="cls-13"><tspan x="32.12" y="22">V</tspan><tspan class="cls-23" x="41.18" y="22">ales</tspan><tspan class="cls-4" x="69.98" y="22">k</tspan><tspan class="cls-14" x="78.42" y="22">a Gonzál</tspan><tspan class="cls-3" x="140.76" y="22">e</tspan><tspan class="cls-23" x="149.29" y="22">z</tspan></tspan><tspan class="cls-24"><tspan x="42.76" y="44">C</tspan><tspan class="cls-23" x="52.9" y="44">.I: </tspan><tspan class="cls-25" x="70.13" y="44">2</tspan><tspan class="cls-26" x="78.02" y="44">4</tspan><tspan class="cls-14" x="87.53" y="44">.56</tspan><tspan class="cls-27" x="108.21" y="44">0</tspan><tspan class="cls-23" x="117.36" y="44">.</tspan><tspan class="cls-28" x="121.25" y="44">9</tspan><tspan class="cls-29" x="129.81" y="44">7</tspan><tspan class="cls-23" x="137.99" y="44">5</tspan></tspan><tspan class="cls-23"><tspan x="49.69" y="66">0</tspan><tspan class="cls-30" x="58.98" y="66">42</tspan><tspan class="cls-6" x="76.32" y="66">651</tspan><tspan class="cls-31" x="98.78" y="66">4</tspan><tspan x="107.76" y="66">1</tspan><tspan class="cls-30" x="113.43" y="66">2</tspan><tspan x="121.55" y="66">68</tspan></tspan></text><text class="cls-32" transform="translate(90.79 288.63)">P<tspan class="cls-19" x="8.07" y="0">r</tspan><tspan class="cls-33" x="13.07" y="0">o</tspan><tspan class="cls-34" x="20.31" y="0">vi</tspan><tspan class="cls-35" x="30.66" y="0">n</tspan><tspan class="cls-34" x="38.57" y="0">cial:</tspan></text><text class="cls-21" transform="translate(28.02 311.35)">0<tspan class="cls-14" x="9.26" y="0">108 0088 </tspan><tspan class="cls-4" x="78.78" y="0">9</tspan><tspan class="cls-6" x="87.31" y="0">3</tspan><tspan x="95.42" y="0">0</tspan><tspan class="cls-14" x="104.69" y="0">100 </tspan><tspan class="cls-36" x="133.43" y="0">5</tspan><tspan class="cls-23" x="141.5" y="0">3</tspan><tspan class="cls-7" x="149.61" y="0">4</tspan><tspan class="cls-23" x="158.79" y="0">95 9</tspan><tspan class="cls-23"><tspan x="55.62" y="22">Abel </tspan><tspan class="cls-2" x="92.7" y="22">P</tspan><tspan class="cls-6" x="102.5" y="22">é</tspan><tspan class="cls-2" x="111.09" y="22">r</tspan><tspan class="cls-3" x="117.09" y="22">e</tspan><tspan x="125.63" y="22">z</tspan></tspan><tspan class="cls-24"><tspan x="45.38" y="44">C</tspan><tspan class="cls-23" x="55.52" y="44">.I: 21</tspan><tspan class="cls-22" x="86.58" y="44">.</tspan><tspan class="cls-37" x="90.59" y="44">2</tspan><tspan class="cls-38" x="98.48" y="44">48</tspan><tspan class="cls-23" x="116.99" y="44">.</tspan><tspan class="cls-39" x="120.88" y="44">9</tspan><tspan class="cls-23" x="129.51" y="44">21</tspan></tspan><tspan class="cls-23"><tspan x="47.57" y="66">0</tspan><tspan class="cls-31" x="56.85" y="66">4</tspan><tspan class="cls-14" x="65.83" y="66">1</tspan><tspan class="cls-8" x="71.51" y="66">4</tspan><tspan class="cls-6" x="80.6" y="66">386</tspan><tspan class="cls-30" x="106.37" y="66">2</tspan><tspan x="114.48" y="66">0</tspan><tspan class="cls-30" x="123.77" y="66">4</tspan><tspan x="132.99" y="66">2</tspan></tspan></text><text class="cls-40" transform="translate(0.43 132.45)">T<tspan class="cls-41" x="9.6" y="0">r</tspan><tspan class="cls-18" x="16.74" y="0">ans</tspan><tspan class="cls-42" x="47.54" y="0">f</tspan><tspan class="cls-16" x="53.94" y="0">e</tspan><tspan class="cls-41" x="64.06" y="0">r</tspan><tspan class="cls-16" x="71.2" y="0">e</tspan><tspan class="cls-43" x="81.33" y="0">n</tspan><tspan class="cls-16" x="92.47" y="0">cias y </tspan><tspan class="cls-17" x="147.26" y="0">P</tspan><tspan class="cls-18" x="158.77" y="0">ágo </tspan><tspan class="cls-44" x="196.91" y="0">m</tspan><tspan class="cls-45" x="213.32" y="0">ó</tspan><tspan class="cls-16" x="223.56" y="0">vil</tspan></text></svg>