<svg id="Capa_1" data-name="Capa 1" xmlns="http://www.w3.org/2000/svg" viewBox="0 0 244.09 495.83"><defs><style>.cls-1{fill:#aa959b;}.cls-2{fill:#a9b39a;}</style></defs><title>DatosRegalo</title><path class="cls-1" d="M34,36.76a2.77,2.77,0,0,1,1.12,1.13,3.28,3.28,0,0,1,.41,1.67,3.32,3.32,0,0,1-.41,1.68A2.83,2.83,0,0,1,34,42.37a3.21,3.21,0,0,1-1.61.4A3,3,0,0,1,31,42.46a2.73,2.73,0,0,1-1-.93V45h-.85V36.4h.81v1.25a2.61,2.61,0,0,1,1-1,3,3,0,0,1,1.42-.34A3.24,3.24,0,0,1,34,36.76Zm-.47,5a2.07,2.07,0,0,0,.84-.87,2.8,2.8,0,0,0,0-2.56,2.2,2.2,0,0,0-.84-.87,2.34,2.34,0,0,0-3.25.87,2.88,2.88,0,0,0,0,2.56,2.2,2.2,0,0,0,.84.87,2.5,2.5,0,0,0,2.41,0Z"/><path class="cls-1" d="M44.09,39.82H38.81a2.24,2.24,0,0,0,.76,1.59,2.46,2.46,0,0,0,1.72.61,2.75,2.75,0,0,0,1.09-.21,2.45,2.45,0,0,0,.85-.62l.48.55a2.71,2.71,0,0,1-1.05.77,3.83,3.83,0,0,1-3.11-.15,3,3,0,0,1-1.17-1.15A3.24,3.24,0,0,1,38,39.56a3.37,3.37,0,0,1,.4-1.66,2.9,2.9,0,0,1,1.11-1.14A3.06,3.06,0,0,1,41,36.35a3.1,3.1,0,0,1,1.58.41,2.92,2.92,0,0,1,1.09,1.14,3.42,3.42,0,0,1,.39,1.66Zm-4.58-2.15a2.31,2.31,0,0,0-.7,1.52h4.48a2.31,2.31,0,0,0-.7-1.52A2.18,2.18,0,0,0,41,37.09,2.15,2.15,0,0,0,39.51,37.67Z"/><path class="cls-1" d="M48.9,36.68a3,3,0,0,1,1.47-.33v.83h-.21a2,2,0,0,0-1.56.61A2.47,2.47,0,0,0,48,39.5v3.21h-.85V36.4H48v1.24A2,2,0,0,1,48.9,36.68Z"/><path class="cls-1" d="M58.68,39.82H53.4a2.24,2.24,0,0,0,.76,1.59,2.49,2.49,0,0,0,1.73.61A2.74,2.74,0,0,0,57,41.81a2.45,2.45,0,0,0,.85-.62l.48.55a2.71,2.71,0,0,1-1,.77,3.83,3.83,0,0,1-3.11-.15A3,3,0,0,1,53,41.21a3.24,3.24,0,0,1-.42-1.65A3.37,3.37,0,0,1,53,37.9a2.9,2.9,0,0,1,1.11-1.14,3.06,3.06,0,0,1,1.57-.41,3.1,3.1,0,0,1,1.58.41A2.85,2.85,0,0,1,58.3,37.9a3.43,3.43,0,0,1,.4,1.66Zm-4.57-2.15a2.27,2.27,0,0,0-.71,1.52h4.48a2.31,2.31,0,0,0-.7-1.52,2.18,2.18,0,0,0-1.55-.58A2.12,2.12,0,0,0,54.11,37.67Z"/><path class="cls-1" d="M66.17,42v.7H61v-.56l4-5h-3.9V36.4h5V37l-4,5Z"/><path class="cls-1" d="M74.38,36.4l-2.81,6.31H70.7L67.9,36.4h.89l2.36,5.38,2.39-5.38Z"/><path class="cls-1" d="M82,37a2.69,2.69,0,0,1,.7,2v3.66h-.85V39.14a2.11,2.11,0,0,0-.49-1.5A1.84,1.84,0,0,0,80,37.12a2.12,2.12,0,0,0-1.61.61,2.26,2.26,0,0,0-.6,1.67v3.31h-.85v-8.9h.85v3.7a2.42,2.42,0,0,1,1-.86,3.18,3.18,0,0,1,1.41-.3A2.59,2.59,0,0,1,82,37Z"/><path class="cls-1" d="M91.91,39.82H86.63a2.24,2.24,0,0,0,.76,1.59,2.46,2.46,0,0,0,1.72.61,2.67,2.67,0,0,0,1.08-.21,2.4,2.4,0,0,0,.86-.62l.48.55a2.71,2.71,0,0,1-1,.77,3.51,3.51,0,0,1-1.39.26,3.45,3.45,0,0,1-1.72-.41,3,3,0,0,1-1.17-1.15,3.24,3.24,0,0,1-.42-1.65,3.37,3.37,0,0,1,.4-1.66,2.94,2.94,0,0,1,1.1-1.14,3.13,3.13,0,0,1,1.58-.41,3,3,0,0,1,1.57.41,2.87,2.87,0,0,1,1.1,1.14,3.42,3.42,0,0,1,.39,1.66Zm-4.58-2.15a2.31,2.31,0,0,0-.7,1.52h4.48a2.27,2.27,0,0,0-.71-1.52,2.32,2.32,0,0,0-3.07,0Z"/><path class="cls-1" d="M96.72,36.68a3,3,0,0,1,1.47-.33v.83H98a2,2,0,0,0-1.56.61,2.47,2.47,0,0,0-.56,1.72v3.21H95V36.4h.81v1.24A2,2,0,0,1,96.72,36.68Z"/><path class="cls-1" d="M106.17,37a2.69,2.69,0,0,1,.7,2v3.66H106V39.14a2.07,2.07,0,0,0-.49-1.5,1.83,1.83,0,0,0-1.4-.52,2.16,2.16,0,0,0-1.62.61,2.3,2.3,0,0,0-.59,1.67v3.31h-.85V36.4h.81v1.17a2.34,2.34,0,0,1,1-.9,3.11,3.11,0,0,1,1.43-.32A2.59,2.59,0,0,1,106.17,37Z"/><path class="cls-1" d="M114.64,37a2.38,2.38,0,0,1,.66,1.83v3.91h-.82v-1a2,2,0,0,1-.84.77,3.07,3.07,0,0,1-1.33.27,2.59,2.59,0,0,1-1.68-.5,1.74,1.74,0,0,1,0-2.63,2.82,2.82,0,0,1,1.85-.49h2v-.38a1.65,1.65,0,0,0-.46-1.25,1.9,1.9,0,0,0-1.33-.42,3.16,3.16,0,0,0-1.15.2,2.84,2.84,0,0,0-1,.54l-.39-.63a3.17,3.17,0,0,1,1.16-.63,4.39,4.39,0,0,1,1.41-.23A2.68,2.68,0,0,1,114.64,37Zm-1,4.8a2,2,0,0,0,.77-1v-1h-2c-1.08,0-1.62.37-1.62,1.12a1,1,0,0,0,.42.87,1.85,1.85,0,0,0,1.17.32A2.27,2.27,0,0,0,113.68,41.77Z"/><path class="cls-1" d="M124.06,37a2.69,2.69,0,0,1,.71,2v3.66h-.86V39.14a2.07,2.07,0,0,0-.49-1.5,1.82,1.82,0,0,0-1.4-.52,2.16,2.16,0,0,0-1.62.61,2.3,2.3,0,0,0-.59,1.67v3.31H119V36.4h.81v1.17a2.4,2.4,0,0,1,1-.9,3.11,3.11,0,0,1,1.43-.32A2.55,2.55,0,0,1,124.06,37Z"/><path class="cls-1" d="M136.34,34.91a4.86,4.86,0,0,1,2,1.87,5.24,5.24,0,0,1,.71,2.75,4.51,4.51,0,0,1-.53,2.39,1.63,1.63,0,0,1-1.46.85,1.32,1.32,0,0,1-.95-.34,1.42,1.42,0,0,1-.41-1,2.51,2.51,0,0,1-1,1,2.9,2.9,0,0,1-1.42.34,2.88,2.88,0,0,1-2.58-1.51,3.23,3.23,0,0,1-.39-1.59,3.18,3.18,0,0,1,.39-1.59,2.76,2.76,0,0,1,1.07-1.1,3.07,3.07,0,0,1,2.9-.07,2.6,2.6,0,0,1,1,.93V36.63h.78v4.55a1,1,0,0,0,.2.69.7.7,0,0,0,.54.22,1,1,0,0,0,.9-.67,4.32,4.32,0,0,0,.33-1.87,4.74,4.74,0,0,0-.63-2.46A4.2,4.2,0,0,0,136,35.44a5.46,5.46,0,0,0-2.56-.59,5.4,5.4,0,0,0-2.58.61,4.25,4.25,0,0,0-1.74,1.7,5,5,0,0,0-.63,2.51,5,5,0,0,0,.62,2.5,4.34,4.34,0,0,0,1.73,1.72,5.17,5.17,0,0,0,2.55.61,5.53,5.53,0,0,0,1.18-.13,4.24,4.24,0,0,0,1.12-.4l.21.59a5,5,0,0,1-1.2.41,6,6,0,0,1-1.31.14,5.91,5.91,0,0,1-2.89-.69,5,5,0,0,1-2-1.94,5.71,5.71,0,0,1-.7-2.81,5.57,5.57,0,0,1,.71-2.82,4.91,4.91,0,0,1,2-1.92,6.48,6.48,0,0,1,5.78,0Zm-1.79,6.87a2.14,2.14,0,0,0,.81-.85,2.55,2.55,0,0,0,.3-1.26,2.58,2.58,0,0,0-.3-1.26,2.18,2.18,0,0,0-.81-.84,2.42,2.42,0,0,0-1.17-.29,2.33,2.33,0,0,0-1.18.3,2.14,2.14,0,0,0-.82.84,2.62,2.62,0,0,0-.29,1.25,2.65,2.65,0,0,0,.29,1.25,2.16,2.16,0,0,0,.82.85,2.24,2.24,0,0,0,1.18.31A2.32,2.32,0,0,0,134.55,41.78Z"/><path class="cls-1" d="M148,36.4V42a3.19,3.19,0,0,1-.79,2.38,3.26,3.26,0,0,1-2.37.77,5.11,5.11,0,0,1-1.66-.26,3.5,3.5,0,0,1-1.28-.71l.44-.65a3.18,3.18,0,0,0,1.11.64,4.15,4.15,0,0,0,1.37.23,2.41,2.41,0,0,0,1.76-.56,2.34,2.34,0,0,0,.57-1.74v-.8a2.61,2.61,0,0,1-1,.91,3.18,3.18,0,0,1-1.42.31,3.4,3.4,0,0,1-1.62-.39A2.91,2.91,0,0,1,141.94,41a3.14,3.14,0,0,1-.41-1.59,3.07,3.07,0,0,1,.41-1.58,2.82,2.82,0,0,1,1.14-1.08,3.35,3.35,0,0,1,1.62-.39,3.16,3.16,0,0,1,1.45.33,2.59,2.59,0,0,1,1,.93V36.4Zm-2,5a2.12,2.12,0,0,0,.86-.82,2.38,2.38,0,0,0,.3-1.2,2.34,2.34,0,0,0-.3-1.19,2.19,2.19,0,0,0-.86-.82,2.61,2.61,0,0,0-1.24-.29,2.54,2.54,0,0,0-1.23.29,2.07,2.07,0,0,0-.85.81,2.48,2.48,0,0,0,0,2.4,2.1,2.1,0,0,0,.85.82,2.69,2.69,0,0,0,2.47,0Z"/><path class="cls-1" d="M161.48,37a2.75,2.75,0,0,1,.68,2v3.66h-.85V39.14a2.11,2.11,0,0,0-.48-1.5,1.7,1.7,0,0,0-1.34-.52,2,2,0,0,0-1.54.61,2.33,2.33,0,0,0-.57,1.67v3.31h-.85V39.14a2.16,2.16,0,0,0-.47-1.5,1.73,1.73,0,0,0-1.35-.52,2,2,0,0,0-1.55.61,2.33,2.33,0,0,0-.57,1.67v3.31h-.85V36.4h.82v1.15a2.2,2.2,0,0,1,.93-.88,2.93,2.93,0,0,1,1.38-.32,2.77,2.77,0,0,1,1.38.34,2,2,0,0,1,.87,1,2.36,2.36,0,0,1,1-1,3,3,0,0,1,1.49-.36A2.49,2.49,0,0,1,161.48,37Z"/><path class="cls-1" d="M169.92,37a2.38,2.38,0,0,1,.66,1.83v3.91h-.81v-1a2.05,2.05,0,0,1-.85.77,3,3,0,0,1-1.33.27,2.59,2.59,0,0,1-1.68-.5,1.65,1.65,0,0,1-.62-1.33,1.61,1.61,0,0,1,.58-1.3,2.86,2.86,0,0,1,1.86-.49h2v-.38a1.62,1.62,0,0,0-.46-1.25,1.88,1.88,0,0,0-1.33-.42,3.2,3.2,0,0,0-1.15.2,2.94,2.94,0,0,0-.95.54l-.38-.63a3.13,3.13,0,0,1,1.15-.63,4.45,4.45,0,0,1,1.42-.23A2.67,2.67,0,0,1,169.92,37Zm-1,4.8a2,2,0,0,0,.77-1v-1h-2c-1.08,0-1.62.37-1.62,1.12a1,1,0,0,0,.42.87,1.86,1.86,0,0,0,1.18.32A2.22,2.22,0,0,0,169,41.77Z"/><path class="cls-1" d="M174.23,34.84a.58.58,0,0,1-.18-.43.58.58,0,0,1,.18-.42.6.6,0,0,1,.44-.18.64.64,0,0,1,.45.17.58.58,0,0,1,.18.42.6.6,0,0,1-.18.44.61.61,0,0,1-.45.18A.6.6,0,0,1,174.23,34.84Zm0,1.56h.85v6.31h-.85Z"/><path class="cls-1" d="M178.81,33.81h.86v8.9h-.86Z"/><path class="cls-1" d="M183,42.58a.66.66,0,0,1,0-.93.61.61,0,0,1,.45-.18.65.65,0,0,1,.46.18.66.66,0,0,1,0,.93.62.62,0,0,1-.46.19A.58.58,0,0,1,183,42.58Z"/><path class="cls-1" d="M188,42.37a3,3,0,0,1-1.16-1.15,3.49,3.49,0,0,1,0-3.32A2.89,2.89,0,0,1,188,36.76a3.41,3.41,0,0,1,1.67-.41,3.3,3.3,0,0,1,1.46.32,2.39,2.39,0,0,1,1,.93l-.63.43a2.07,2.07,0,0,0-.8-.7,2.4,2.4,0,0,0-1-.23,2.49,2.49,0,0,0-1.23.3,2.22,2.22,0,0,0-.85.87,2.62,2.62,0,0,0-.31,1.29,2.57,2.57,0,0,0,.31,1.29,2.13,2.13,0,0,0,.85.86,2.53,2.53,0,0,0,2.27.08,1.92,1.92,0,0,0,.8-.7l.63.44a2.55,2.55,0,0,1-1,.93,3.25,3.25,0,0,1-1.45.31A3.41,3.41,0,0,1,188,42.37Z"/><path class="cls-1" d="M196,42.36a3,3,0,0,1-1.15-1.15,3.24,3.24,0,0,1-.42-1.65,3.28,3.28,0,0,1,.42-1.66A2.93,2.93,0,0,1,196,36.76a3.51,3.51,0,0,1,3.29,0,2.93,2.93,0,0,1,1.15,1.14,3.38,3.38,0,0,1,.41,1.66,3.34,3.34,0,0,1-.41,1.65,3,3,0,0,1-1.15,1.15,3.51,3.51,0,0,1-3.29,0Zm2.85-.65a2.07,2.07,0,0,0,.84-.87,2.66,2.66,0,0,0,.3-1.28,2.73,2.73,0,0,0-.3-1.29,2.2,2.2,0,0,0-.84-.87,2.4,2.4,0,0,0-1.2-.3,2.44,2.44,0,0,0-1.21.3,2.2,2.2,0,0,0-.84.87,2.73,2.73,0,0,0-.31,1.29,2.66,2.66,0,0,0,.31,1.28,2.07,2.07,0,0,0,.84.87,2.34,2.34,0,0,0,1.21.31A2.31,2.31,0,0,0,198.87,41.71Z"/><path class="cls-1" d="M213.69,37a2.75,2.75,0,0,1,.68,2v3.66h-.85V39.14a2.11,2.11,0,0,0-.48-1.5,1.69,1.69,0,0,0-1.33-.52,2,2,0,0,0-1.55.61,2.33,2.33,0,0,0-.57,1.67v3.31h-.85V39.14a2.16,2.16,0,0,0-.47-1.5,1.73,1.73,0,0,0-1.35-.52,2,2,0,0,0-1.54.61,2.33,2.33,0,0,0-.57,1.67v3.31H204V36.4h.82v1.15a2.22,2.22,0,0,1,.94-.88,2.93,2.93,0,0,1,1.38-.32,2.75,2.75,0,0,1,1.37.34,2,2,0,0,1,.87,1,2.42,2.42,0,0,1,1-1,3.08,3.08,0,0,1,1.5-.36A2.48,2.48,0,0,1,213.69,37Z"/><path class="cls-1" d="M104.18,60.44v7h-.71v-5.6l-2.75,4.71h-.35l-2.75-4.68v5.57h-.71v-7h.61l3,5.19,3-5.19Z"/><path class="cls-1" d="M112,65h-4.4a1.87,1.87,0,0,0,.63,1.32,2.08,2.08,0,0,0,1.44.51,2.26,2.26,0,0,0,.9-.18,2,2,0,0,0,.71-.51l.4.46a2.36,2.36,0,0,1-.88.64,3.06,3.06,0,0,1-1.15.22,3,3,0,0,1-1.44-.35,2.53,2.53,0,0,1-1-1,2.67,2.67,0,0,1-.35-1.38,2.82,2.82,0,0,1,.33-1.38,2.4,2.4,0,0,1,.92-1,2.71,2.71,0,0,1,2.63,0,2.42,2.42,0,0,1,.91.94,2.88,2.88,0,0,1,.33,1.39Zm-3.82-1.8a1.91,1.91,0,0,0-.58,1.27h3.73a1.92,1.92,0,0,0-.59-1.27,1.95,1.95,0,0,0-2.56,0Z"/><path class="cls-1" d="M118.84,62.71a2.26,2.26,0,0,1,.59,1.68v3h-.71v-3a1.74,1.74,0,0,0-.41-1.25,1.55,1.55,0,0,0-1.17-.43,1.83,1.83,0,0,0-1.35.5,1.91,1.91,0,0,0-.49,1.4v2.76h-.71V62.18h.68v1a2,2,0,0,1,.8-.75,2.68,2.68,0,0,1,1.2-.26A2.15,2.15,0,0,1,118.84,62.71Z"/><path class="cls-1" d="M122.66,67.3a2.66,2.66,0,0,1-.91-.46l.32-.56a2.69,2.69,0,0,0,.83.42,3.29,3.29,0,0,0,1,.17,2,2,0,0,0,1.06-.23.72.72,0,0,0,.35-.63.59.59,0,0,0-.19-.46,1.37,1.37,0,0,0-.48-.25c-.2,0-.45-.11-.77-.16a7.43,7.43,0,0,1-1-.25,1.53,1.53,0,0,1-.67-.42,1.2,1.2,0,0,1-.27-.83,1.29,1.29,0,0,1,.55-1.08,2.44,2.44,0,0,1,1.53-.42,4,4,0,0,1,1,.13,2.72,2.72,0,0,1,.84.36l-.31.57a2.67,2.67,0,0,0-1.55-.45,1.8,1.8,0,0,0-1,.24.73.73,0,0,0-.34.63.62.62,0,0,0,.19.48,1.1,1.1,0,0,0,.49.26,6.69,6.69,0,0,0,.8.18,9.6,9.6,0,0,1,1,.24,1.44,1.44,0,0,1,.65.41,1.12,1.12,0,0,1,.27.8,1.25,1.25,0,0,1-.58,1.09,2.71,2.71,0,0,1-1.59.41A3.86,3.86,0,0,1,122.66,67.3Z"/><path class="cls-1" d="M131.91,62.65a2,2,0,0,1,.55,1.53v3.26h-.68v-.82a1.7,1.7,0,0,1-.71.64,2.51,2.51,0,0,1-1.1.23,2.14,2.14,0,0,1-1.4-.42,1.45,1.45,0,0,1,0-2.19,2.36,2.36,0,0,1,1.55-.41h1.67v-.32a1.37,1.37,0,0,0-.38-1,1.62,1.62,0,0,0-1.11-.35,2.76,2.76,0,0,0-1,.16,2.29,2.29,0,0,0-.79.46l-.32-.53a2.78,2.78,0,0,1,1-.53,3.79,3.79,0,0,1,1.18-.18A2.26,2.26,0,0,1,131.91,62.65Zm-.8,4a1.68,1.68,0,0,0,.64-.79V65H130.1c-.9,0-1.35.31-1.35.94a.83.83,0,0,0,.35.72,1.57,1.57,0,0,0,1,.27A1.83,1.83,0,0,0,131.11,66.65Z"/><path class="cls-1" d="M134.1,69.34a1.15,1.15,0,0,1-.48-.25l.25-.54a1.19,1.19,0,0,0,.82.27.83.83,0,0,0,.64-.25,1.09,1.09,0,0,0,.23-.74V62.18h.71v5.65a1.69,1.69,0,0,1-.4,1.17,1.51,1.51,0,0,1-1.14.43A2.18,2.18,0,0,1,134.1,69.34Zm1.45-8.47a.49.49,0,0,1-.15-.36.47.47,0,0,1,.15-.35.5.5,0,0,1,.37-.15.55.55,0,0,1,.37.14.47.47,0,0,1,.15.35.51.51,0,0,1-.52.52A.5.5,0,0,1,135.55,60.87Z"/><path class="cls-1" d="M144,65h-4.4a1.87,1.87,0,0,0,.63,1.32,2.08,2.08,0,0,0,1.44.51,2.26,2.26,0,0,0,.9-.18,2,2,0,0,0,.71-.51l.4.46a2.36,2.36,0,0,1-.88.64,3.06,3.06,0,0,1-1.15.22,3,3,0,0,1-1.44-.35,2.53,2.53,0,0,1-1-1,2.67,2.67,0,0,1-.35-1.38,2.82,2.82,0,0,1,.33-1.38,2.4,2.4,0,0,1,.92-1,2.71,2.71,0,0,1,2.63,0,2.42,2.42,0,0,1,.91.94,2.88,2.88,0,0,1,.33,1.39Zm-3.82-1.8a1.91,1.91,0,0,0-.58,1.27h3.73a1.92,1.92,0,0,0-.59-1.27,1.95,1.95,0,0,0-2.56,0Z"/><path class="cls-1" d="M146.22,63.07a.56.56,0,0,1-.15-.39.54.54,0,0,1,.15-.39.54.54,0,0,1,.38-.15.53.53,0,0,1,.54.54.55.55,0,0,1-.54.55A.55.55,0,0,1,146.22,63.07Zm0,4.26a.56.56,0,0,1-.15-.39.54.54,0,0,1,.15-.39.54.54,0,0,1,.38-.15.53.53,0,0,1,.54.54.55.55,0,0,1-.54.55A.55.55,0,0,1,146.22,67.33Z"/><path class="cls-1" d="M50.12,89.44l-1.92-2.7c-.21,0-.44,0-.67,0H45.27v2.67h-.89V81h3.15a3.76,3.76,0,0,1,2.52.77A2.59,2.59,0,0,1,51,83.92,2.61,2.61,0,0,1,49,86.56l2.05,2.88Zm-.71-4a2.17,2.17,0,0,0,0-3.12,2.94,2.94,0,0,0-1.91-.54H45.27V86H47.5A2.94,2.94,0,0,0,49.41,85.47Z"/><path class="cls-1" d="M59.72,86.55H54.44a2.27,2.27,0,0,0,.76,1.59,2.5,2.5,0,0,0,1.72.6A2.67,2.67,0,0,0,58,88.53a2.29,2.29,0,0,0,.86-.62l.48.56a2.68,2.68,0,0,1-1.05.76,3.72,3.72,0,0,1-3.11-.15A2.92,2.92,0,0,1,54,87.94a3.28,3.28,0,0,1-.42-1.66,3.33,3.33,0,0,1,.4-1.65,2.9,2.9,0,0,1,1.11-1.14,3,3,0,0,1,1.57-.41,3,3,0,0,1,1.58.41,3,3,0,0,1,1.09,1.13,3.45,3.45,0,0,1,.39,1.66Zm-4.58-2.16a2.33,2.33,0,0,0-.7,1.52h4.48a2.29,2.29,0,0,0-.71-1.52,2.32,2.32,0,0,0-3.07,0Z"/><path class="cls-1" d="M68.66,83.13v5.54a3.22,3.22,0,0,1-.78,2.38,3.26,3.26,0,0,1-2.38.78,5.39,5.39,0,0,1-1.66-.26,3.26,3.26,0,0,1-1.27-.72l.43-.64a3.16,3.16,0,0,0,1.11.63,4.15,4.15,0,0,0,1.37.23,2.46,2.46,0,0,0,1.77-.56,2.37,2.37,0,0,0,.56-1.73V88a2.63,2.63,0,0,1-1,.92,3.32,3.32,0,0,1-1.42.31,3.4,3.4,0,0,1-1.62-.39,3,3,0,0,1-1.14-1.09,3.29,3.29,0,0,1,0-3.18,3,3,0,0,1,1.14-1.08,3.46,3.46,0,0,1,1.62-.38,3.28,3.28,0,0,1,1.45.32,2.62,2.62,0,0,1,1,.94V83.13Zm-2,5a2.19,2.19,0,0,0,.86-.82,2.43,2.43,0,0,0,.3-1.2,2.38,2.38,0,0,0-.3-1.2,2.1,2.1,0,0,0-.86-.81,2.5,2.5,0,0,0-1.24-.3,2.66,2.66,0,0,0-1.23.29,2,2,0,0,0-.85.82,2.38,2.38,0,0,0-.31,1.2,2.44,2.44,0,0,0,.31,1.2,2.16,2.16,0,0,0,.85.82,2.77,2.77,0,0,0,2.47,0Z"/><path class="cls-1" d="M76.5,83.7a2.38,2.38,0,0,1,.66,1.83v3.91h-.82v-1a1.91,1.91,0,0,1-.84.77,2.93,2.93,0,0,1-1.33.28A2.55,2.55,0,0,1,72.49,89a1.71,1.71,0,0,1,0-2.62,2.82,2.82,0,0,1,1.85-.5h2v-.38a1.62,1.62,0,0,0-.45-1.24,1.87,1.87,0,0,0-1.33-.43,3.49,3.49,0,0,0-1.16.2,2.74,2.74,0,0,0-.94.55L72,83.93a3.55,3.55,0,0,1,1.15-.63,4.44,4.44,0,0,1,1.42-.22A2.65,2.65,0,0,1,76.5,83.7Zm-1,4.8a1.93,1.93,0,0,0,.76-1v-1h-2c-1.08,0-1.62.38-1.62,1.13a1,1,0,0,0,.42.87,1.89,1.89,0,0,0,1.17.32A2.27,2.27,0,0,0,75.54,88.5Z"/><path class="cls-1" d="M80.82,80.53h.85v8.91h-.85Z"/><path class="cls-1" d="M86.32,89.08a3,3,0,0,1-1.15-1.14,3.28,3.28,0,0,1-.42-1.66,3.24,3.24,0,0,1,.42-1.65,3,3,0,0,1,1.15-1.14A3.26,3.26,0,0,1,88,83.08a3.22,3.22,0,0,1,1.64.41,2.93,2.93,0,0,1,1.15,1.14,3.34,3.34,0,0,1,.41,1.65,3.38,3.38,0,0,1-.41,1.66,2.93,2.93,0,0,1-1.15,1.14A3.23,3.23,0,0,1,88,89.5,3.27,3.27,0,0,1,86.32,89.08Zm2.85-.64a2.2,2.2,0,0,0,.84-.87,2.73,2.73,0,0,0,.3-1.29A2.66,2.66,0,0,0,90,85a2.07,2.07,0,0,0-.84-.87,2.28,2.28,0,0,0-1.2-.31,2.34,2.34,0,0,0-1.21.31,2.2,2.2,0,0,0-.84.87,2.66,2.66,0,0,0-.3,1.28,2.73,2.73,0,0,0,.3,1.29,2.34,2.34,0,0,0,.84.87,2.44,2.44,0,0,0,1.21.3A2.38,2.38,0,0,0,89.17,88.44Z"/><path class="cls-1" d="M104.19,87.19H99.51l-1,2.25h-.92l3.84-8.4h.88l3.84,8.4h-.94Zm-.32-.72-2-4.51-2,4.51Z"/><path class="cls-1" d="M113.55,83.48a2.92,2.92,0,0,1,1.13,1.13,3.61,3.61,0,0,1,0,3.34,2.88,2.88,0,0,1-1.13,1.14,3.21,3.21,0,0,1-1.61.41,2.92,2.92,0,0,1-1.42-.34,2.54,2.54,0,0,1-1-1v1.25h-.82V80.53h.85v3.8a2.67,2.67,0,0,1,1-.93,2.87,2.87,0,0,1,1.38-.32A3.21,3.21,0,0,1,113.55,83.48Zm-.47,5a2.22,2.22,0,0,0,.85-.87,2.73,2.73,0,0,0,.31-1.29,2.66,2.66,0,0,0-.31-1.28,2.1,2.1,0,0,0-.85-.87,2.33,2.33,0,0,0-1.2-.31,2.31,2.31,0,0,0-1.2.31,2.07,2.07,0,0,0-.84.87,2.55,2.55,0,0,0-.31,1.28,2.62,2.62,0,0,0,.31,1.29,2.2,2.2,0,0,0,.84.87,2.4,2.4,0,0,0,1.2.3A2.43,2.43,0,0,0,113.08,88.44Z"/><path class="cls-1" d="M123.67,86.55h-5.28a2.31,2.31,0,0,0,.75,1.59,2.55,2.55,0,0,0,1.73.6,2.74,2.74,0,0,0,1.08-.21,2.25,2.25,0,0,0,.85-.62l.48.56a2.68,2.68,0,0,1-1,.76,3.7,3.7,0,0,1-3.1-.15A2.92,2.92,0,0,1,118,87.94a3.28,3.28,0,0,1-.42-1.66,3.33,3.33,0,0,1,.4-1.65,2.87,2.87,0,0,1,1.1-1.14,3,3,0,0,1,1.58-.41,3,3,0,0,1,1.57.41,2.82,2.82,0,0,1,1.09,1.13,3.34,3.34,0,0,1,.4,1.66Zm-4.58-2.16a2.28,2.28,0,0,0-.7,1.52h4.47a2.28,2.28,0,0,0-.7-1.52,2.32,2.32,0,0,0-3.07,0Z"/><path class="cls-1" d="M126.82,80.53h.86v8.91h-.86Z"/><path class="cls-1" d="M141.19,83.13,138,90.19a2.84,2.84,0,0,1-.89,1.26,2,2,0,0,1-1.21.38,2.37,2.37,0,0,1-.85-.15,1.79,1.79,0,0,1-.68-.43l.39-.64a1.58,1.58,0,0,0,1.15.48,1.15,1.15,0,0,0,.74-.24,2.05,2.05,0,0,0,.57-.81l.28-.61-2.82-6.3h.89L138,88.49l2.38-5.36Z"/><path class="cls-1" d="M155.38,81l-3.72,8.4h-.87L147.07,81h1l3.21,7.29L154.48,81Z"/><path class="cls-1" d="M161.38,83.7a2.38,2.38,0,0,1,.66,1.83v3.91h-.81v-1a1.93,1.93,0,0,1-.85.77,2.86,2.86,0,0,1-1.32.28,2.55,2.55,0,0,1-1.68-.51,1.72,1.72,0,0,1,0-2.62,2.85,2.85,0,0,1,1.86-.5h2v-.38a1.62,1.62,0,0,0-.45-1.24,1.88,1.88,0,0,0-1.34-.43,3.43,3.43,0,0,0-1.15.2,2.79,2.79,0,0,0-.95.55l-.38-.64a3.45,3.45,0,0,1,1.15-.63,4.44,4.44,0,0,1,1.42-.22A2.63,2.63,0,0,1,161.38,83.7Zm-1,4.8a2,2,0,0,0,.77-1v-1h-2c-1.08,0-1.62.38-1.62,1.13a1,1,0,0,0,.42.87,1.93,1.93,0,0,0,1.18.32A2.22,2.22,0,0,0,160.42,88.5Z"/><path class="cls-1" d="M165.7,80.53h.86v8.91h-.86Z"/><path class="cls-1" d="M175.77,86.55h-5.28a2.27,2.27,0,0,0,.76,1.59,2.51,2.51,0,0,0,1.73.6,2.74,2.74,0,0,0,1.08-.21,2.33,2.33,0,0,0,.85-.62l.48.56a2.68,2.68,0,0,1-1,.76,3.72,3.72,0,0,1-3.11-.15,2.92,2.92,0,0,1-1.17-1.14,3.28,3.28,0,0,1-.42-1.66,3.33,3.33,0,0,1,.4-1.65,2.9,2.9,0,0,1,1.11-1.14,3,3,0,0,1,1.57-.41,3,3,0,0,1,1.58.41,3,3,0,0,1,1.09,1.13,3.45,3.45,0,0,1,.39,1.66Zm-4.58-2.16a2.33,2.33,0,0,0-.7,1.52H175a2.33,2.33,0,0,0-.7-1.52,2.33,2.33,0,0,0-3.08,0Z"/><path class="cls-1" d="M179.09,89.28a3.32,3.32,0,0,1-1.1-.56l.39-.67a3.53,3.53,0,0,0,1,.51,4,4,0,0,0,1.25.19,2.39,2.39,0,0,0,1.28-.27.86.86,0,0,0,.41-.76.65.65,0,0,0-.23-.54,1.3,1.3,0,0,0-.57-.3,6.85,6.85,0,0,0-.93-.2,11.13,11.13,0,0,1-1.23-.3,1.83,1.83,0,0,1-.8-.51,1.41,1.41,0,0,1-.33-1,1.57,1.57,0,0,1,.66-1.3,3,3,0,0,1,1.84-.5,4.7,4.7,0,0,1,1.22.16,3.37,3.37,0,0,1,1,.43l-.37.68a3.19,3.19,0,0,0-1.86-.54,2.15,2.15,0,0,0-1.23.29.87.87,0,0,0-.42.75.74.74,0,0,0,.24.58,1.48,1.48,0,0,0,.58.32,8.23,8.23,0,0,0,1,.21,9,9,0,0,1,1.21.29,1.79,1.79,0,0,1,.78.49,1.33,1.33,0,0,1,.32,1,1.52,1.52,0,0,1-.69,1.31,3.21,3.21,0,0,1-1.91.49A5.13,5.13,0,0,1,179.09,89.28Z"/><path class="cls-1" d="M188.42,86.27l-1.49,1.37v1.8h-.85V80.53h.85v6l3.77-3.44h1.06l-2.7,2.58L192,89.44h-1Z"/><path class="cls-1" d="M198.62,83.7a2.38,2.38,0,0,1,.66,1.83v3.91h-.82v-1a1.91,1.91,0,0,1-.84.77,2.9,2.9,0,0,1-1.33.28,2.59,2.59,0,0,1-1.68-.51,1.63,1.63,0,0,1-.62-1.33,1.59,1.59,0,0,1,.58-1.29,2.84,2.84,0,0,1,1.85-.5h2v-.38a1.59,1.59,0,0,0-.46-1.24,1.85,1.85,0,0,0-1.33-.43,3.43,3.43,0,0,0-1.15.2,2.7,2.7,0,0,0-1,.55l-.38-.64a3.45,3.45,0,0,1,1.15-.63,4.43,4.43,0,0,1,1.41-.22A2.64,2.64,0,0,1,198.62,83.7Zm-1,4.8a2,2,0,0,0,.77-1v-1h-2c-1.08,0-1.62.38-1.62,1.13a1,1,0,0,0,.42.87,1.91,1.91,0,0,0,1.17.32A2.25,2.25,0,0,0,197.66,88.5Z"/><path class="cls-2" d="M111.22,4.13l-7.61,7.63h6.25L109.61,13h-8.2l.2-1,7.6-7.64h-5.95l.25-1.22h7.9Z"/><path class="cls-2" d="M114,9.69v.08c0,1.36.76,2.12,2.36,2.12a3.3,3.3,0,0,0,2.29-.86l.58,1a4.4,4.4,0,0,1-3,1.06c-2.19,0-3.55-1.26-3.55-3.22a4.13,4.13,0,0,1,4.19-4.35,3,3,0,0,1,3.32,3.2,6.27,6.27,0,0,1-.1,1Zm.14-1h4.79a1.88,1.88,0,0,0-2.11-2.1A2.67,2.67,0,0,0,114.15,8.71Z"/><path class="cls-2" d="M124.91,2.59h1.34L124.18,13h-1.35Z"/><path class="cls-2" d="M130.38,2.59h1.34L129.65,13h-1.34Z"/><path class="cls-2" d="M135.08,9.69v.08c0,1.36.76,2.12,2.36,2.12a3.3,3.3,0,0,0,2.29-.86l.58,1a4.4,4.4,0,0,1-3,1.06c-2.19,0-3.55-1.26-3.55-3.22A4.13,4.13,0,0,1,138,5.49a3,3,0,0,1,3.31,3.2,6.3,6.3,0,0,1-.09,1Zm.14-1H140a1.88,1.88,0,0,0-2.11-2.1A2.67,2.67,0,0,0,135.22,8.71Z"/><path class="cls-1" d="M27.39,154.22a2.88,2.88,0,0,1,1.13,1.14,3.39,3.39,0,0,1,.41,1.67,3.43,3.43,0,0,1-.41,1.68,2.9,2.9,0,0,1-1.12,1.13,3.23,3.23,0,0,1-1.61.4,2.88,2.88,0,0,1-1.39-.32,2.67,2.67,0,0,1-1-.93v3.52h-.85v-8.64h.82v1.25a2.58,2.58,0,0,1,1-1,2.93,2.93,0,0,1,1.43-.34A3.3,3.3,0,0,1,27.39,154.22Zm-.47,5a2,2,0,0,0,.85-.87,2.69,2.69,0,0,0,.31-1.28,2.66,2.66,0,0,0-.31-1.28,2.16,2.16,0,0,0-.85-.87,2.28,2.28,0,0,0-1.2-.31,2.33,2.33,0,0,0-1.2.31,2.2,2.2,0,0,0-.84.87,2.55,2.55,0,0,0-.31,1.28,2.58,2.58,0,0,0,.31,1.28,2.07,2.07,0,0,0,.84.87,2.44,2.44,0,0,0,1.2.31A2.38,2.38,0,0,0,26.92,159.18Z"/><path class="cls-1" d="M37.51,157.29H32.23a2.27,2.27,0,0,0,.75,1.59,2.55,2.55,0,0,0,1.73.61,2.74,2.74,0,0,0,1.08-.21,2.4,2.4,0,0,0,.86-.62l.48.55a2.78,2.78,0,0,1-1.05.77,3.7,3.7,0,0,1-1.39.26,3.56,3.56,0,0,1-1.72-.41,3,3,0,0,1-1.17-1.15,3.27,3.27,0,0,1-.42-1.65,3.37,3.37,0,0,1,.4-1.66,2.94,2.94,0,0,1,1.1-1.14,3.13,3.13,0,0,1,1.58-.41,3.06,3.06,0,0,1,1.57.41,2.91,2.91,0,0,1,1.1,1.13,3.49,3.49,0,0,1,.39,1.67Zm-4.58-2.15a2.28,2.28,0,0,0-.7,1.51h4.48a2.25,2.25,0,0,0-.71-1.51,2.29,2.29,0,0,0-3.07,0Z"/><path class="cls-1" d="M42.31,154.15a3,3,0,0,1,1.47-.33v.83h-.2a2,2,0,0,0-1.56.61,2.43,2.43,0,0,0-.56,1.72v3.21H40.6v-6.31h.82v1.24A2,2,0,0,1,42.31,154.15Z"/><path class="cls-1" d="M52.1,157.29H46.82a2.24,2.24,0,0,0,.76,1.59,2.51,2.51,0,0,0,1.72.61,2.67,2.67,0,0,0,1.08-.21,2.4,2.4,0,0,0,.86-.62l.48.55a2.71,2.71,0,0,1-1,.77,3.7,3.7,0,0,1-1.39.26,3.56,3.56,0,0,1-1.72-.41,3,3,0,0,1-1.17-1.15A3.27,3.27,0,0,1,46,157a3.37,3.37,0,0,1,.4-1.66,2.94,2.94,0,0,1,1.1-1.14,3.25,3.25,0,0,1,3.16,0,3,3,0,0,1,1.09,1.13,3.49,3.49,0,0,1,.39,1.67Zm-4.58-2.15a2.28,2.28,0,0,0-.7,1.51H51.3a2.25,2.25,0,0,0-.71-1.51,2.29,2.29,0,0,0-3.07,0Z"/><path class="cls-1" d="M59.59,159.47v.71H54.45v-.56l4-5h-3.9v-.72h5v.56l-4,5Z"/><path class="cls-1" d="M67.8,153.87,65,160.18h-.88l-2.79-6.31h.88l2.37,5.38L67,153.87Z"/><path class="cls-1" d="M70.33,152.31a.58.58,0,0,1-.18-.43.58.58,0,0,1,.18-.42.6.6,0,0,1,.44-.18.64.64,0,0,1,.45.17.58.58,0,0,1,.18.42.6.6,0,0,1-.18.44.61.61,0,0,1-.45.18A.6.6,0,0,1,70.33,152.31Zm0,1.56h.85v6.31h-.85Z"/><path class="cls-1" d="M74.91,151.28h.85v8.9h-.85Z"/><path class="cls-1" d="M79.48,151.28h.86v8.9h-.86Z"/><path class="cls-1" d="M88.16,154.44a2.38,2.38,0,0,1,.66,1.83v3.91H88v-1a2,2,0,0,1-.84.77,3,3,0,0,1-1.33.27,2.65,2.65,0,0,1-1.68-.5,1.65,1.65,0,0,1-.62-1.33,1.61,1.61,0,0,1,.58-1.3,2.84,2.84,0,0,1,1.85-.49h2v-.39a1.61,1.61,0,0,0-.46-1.24,1.9,1.9,0,0,0-1.33-.42,3.43,3.43,0,0,0-1.15.19,3,3,0,0,0-1,.55l-.38-.64a3.45,3.45,0,0,1,1.15-.63,4.72,4.72,0,0,1,1.41-.22A2.68,2.68,0,0,1,88.16,154.44Zm-1,4.8a2,2,0,0,0,.77-1v-1H86c-1.08,0-1.62.38-1.62,1.13a1,1,0,0,0,.42.87,1.91,1.91,0,0,0,1.17.32A2.25,2.25,0,0,0,87.2,159.24Z"/><path class="cls-1" d="M92.7,160a3.14,3.14,0,0,1-1.1-.56l.39-.67a3.07,3.07,0,0,0,1,.51,4,4,0,0,0,1.25.2,2.39,2.39,0,0,0,1.28-.27.85.85,0,0,0,.41-.76.68.68,0,0,0-.22-.55,1.68,1.68,0,0,0-.58-.3,9.15,9.15,0,0,0-.92-.2,9.27,9.27,0,0,1-1.24-.29,1.83,1.83,0,0,1-.8-.51,1.42,1.42,0,0,1-.33-1,1.54,1.54,0,0,1,.66-1.29,2.94,2.94,0,0,1,1.84-.51,5.11,5.11,0,0,1,1.22.16,3.27,3.27,0,0,1,1,.43l-.37.68a3.19,3.19,0,0,0-1.86-.54,2.15,2.15,0,0,0-1.23.29.89.89,0,0,0-.42.76.72.72,0,0,0,.24.57,1.36,1.36,0,0,0,.58.32,8.23,8.23,0,0,0,1,.21,10.93,10.93,0,0,1,1.21.29,1.76,1.76,0,0,1,.78.49,1.33,1.33,0,0,1,.33,1,1.55,1.55,0,0,1-.69,1.32,3.32,3.32,0,0,1-1.92.48A4.8,4.8,0,0,1,92.7,160Z"/><path class="cls-1" d="M103.8,154.44a2.38,2.38,0,0,1,.66,1.83v3.91h-.82v-1a1.94,1.94,0,0,1-.85.77,3,3,0,0,1-1.32.27,2.61,2.61,0,0,1-1.68-.5,1.72,1.72,0,0,1,0-2.63,2.81,2.81,0,0,1,1.85-.49h2v-.39a1.64,1.64,0,0,0-.45-1.24,1.91,1.91,0,0,0-1.33-.42,3.48,3.48,0,0,0-1.16.19,3.11,3.11,0,0,0-.94.55l-.39-.64a3.55,3.55,0,0,1,1.15-.63,4.74,4.74,0,0,1,1.42-.22A2.7,2.7,0,0,1,103.8,154.44Zm-1,4.8a2,2,0,0,0,.76-1v-1h-2c-1.08,0-1.62.38-1.62,1.13a1,1,0,0,0,.42.87,2,2,0,0,0,1.18.32A2.27,2.27,0,0,0,102.84,159.24Z"/><path class="cls-1" d="M113.22,154.51a2.69,2.69,0,0,1,.7,2v3.66h-.85v-3.57a2.07,2.07,0,0,0-.49-1.5,1.83,1.83,0,0,0-1.4-.52,2.16,2.16,0,0,0-1.62.61,2.3,2.3,0,0,0-.59,1.67v3.31h-.85v-6.31h.81V155a2.39,2.39,0,0,1,1-.89,3.11,3.11,0,0,1,1.43-.32A2.59,2.59,0,0,1,113.22,154.51Z"/><path class="cls-1" d="M121.69,154.44a2.38,2.38,0,0,1,.66,1.83v3.91h-.82v-1a2,2,0,0,1-.84.77,3.07,3.07,0,0,1-1.33.27,2.65,2.65,0,0,1-1.68-.5,1.74,1.74,0,0,1,0-2.63,2.82,2.82,0,0,1,1.85-.49h2v-.39A1.64,1.64,0,0,0,121,155a1.9,1.9,0,0,0-1.33-.42,3.38,3.38,0,0,0-1.15.19,3,3,0,0,0-1,.55l-.39-.64a3.5,3.5,0,0,1,1.16-.63,4.67,4.67,0,0,1,1.41-.22A2.68,2.68,0,0,1,121.69,154.44Zm-1,4.8a2,2,0,0,0,.77-1v-1h-2c-1.08,0-1.62.38-1.62,1.13a1,1,0,0,0,.42.87,1.91,1.91,0,0,0,1.17.32A2.27,2.27,0,0,0,120.73,159.24Z"/><path class="cls-1" d="M131.47,156.57a1.93,1.93,0,0,1,.43,1.27,2.08,2.08,0,0,1-.4,1.28,2.53,2.53,0,0,1-1.13.84,4.58,4.58,0,0,1-1.73.29,3.91,3.91,0,0,1-2.38-.64,2.09,2.09,0,0,1-.86-1.77,2,2,0,0,1,.41-1.28,2.53,2.53,0,0,1,1.21-.78,2.1,2.1,0,0,1-1-.73,1.9,1.9,0,0,1-.33-1.12,1.92,1.92,0,0,1,.79-1.62,3.51,3.51,0,0,1,2.15-.6,4.09,4.09,0,0,1,1.55.27,2.43,2.43,0,0,1,1,.77,1.93,1.93,0,0,1,.37,1.18,1.84,1.84,0,0,1-.35,1.12,2.15,2.15,0,0,1-1,.73A2.52,2.52,0,0,1,131.47,156.57Zm-1.09,2.5a1.46,1.46,0,0,0,.63-1.24,1.43,1.43,0,0,0-.63-1.23,3.59,3.59,0,0,0-3.48,0,1.53,1.53,0,0,0,0,2.47,2.91,2.91,0,0,0,1.74.45A3,3,0,0,0,130.38,159.07Zm-3.27-4a2.55,2.55,0,0,0,1.53.41,2.59,2.59,0,0,0,1.53-.41,1.37,1.37,0,0,0,0-2.21,3,3,0,0,0-3,0,1.38,1.38,0,0,0,0,2.21Z"/><path class="cls-1" d="M142.92,152.38a4.82,4.82,0,0,1,2,1.87,5.33,5.33,0,0,1,.7,2.75,4.54,4.54,0,0,1-.52,2.38,1.64,1.64,0,0,1-1.47.86,1.28,1.28,0,0,1-1-.35,1.33,1.33,0,0,1-.4-1,2.5,2.5,0,0,1-1,1,2.86,2.86,0,0,1-1.41.34,2.88,2.88,0,0,1-2.59-1.51,3.46,3.46,0,0,1,0-3.19,2.87,2.87,0,0,1,1.07-1.09,2.9,2.9,0,0,1,1.52-.4,2.87,2.87,0,0,1,1.38.33,2.6,2.6,0,0,1,1,.93V154.1H143v4.55a1,1,0,0,0,.21.69.67.67,0,0,0,.54.22,1,1,0,0,0,.89-.67A4.37,4.37,0,0,0,145,157a4.82,4.82,0,0,0-.62-2.45,4.29,4.29,0,0,0-1.75-1.65,5.46,5.46,0,0,0-2.56-.59,5.29,5.29,0,0,0-2.58.61,4.31,4.31,0,0,0-1.74,1.7,4.94,4.94,0,0,0-.63,2.5,5,5,0,0,0,.62,2.51,4.34,4.34,0,0,0,1.73,1.72A5.17,5.17,0,0,0,140,162a5.46,5.46,0,0,0,1.18-.13,4.24,4.24,0,0,0,1.12-.4l.21.59a4.83,4.83,0,0,1-1.2.41,6.72,6.72,0,0,1-1.31.14,5.91,5.91,0,0,1-2.89-.69,4.94,4.94,0,0,1-2-1.94,5.62,5.62,0,0,1-.71-2.82,5.56,5.56,0,0,1,.71-2.81,5,5,0,0,1,2-1.92,6.48,6.48,0,0,1,5.78,0Zm-1.79,6.87a2.21,2.21,0,0,0,.81-.85,2.59,2.59,0,0,0,.3-1.27,2.54,2.54,0,0,0-.3-1.25,2.18,2.18,0,0,0-.81-.84,2.28,2.28,0,0,0-1.17-.29,2.33,2.33,0,0,0-1.18.3,2,2,0,0,0-.81.84,2.5,2.5,0,0,0-.3,1.24,2.58,2.58,0,0,0,.3,1.26,2.07,2.07,0,0,0,.81.85,2.33,2.33,0,0,0,1.18.31A2.29,2.29,0,0,0,141.13,159.25Z"/><path class="cls-1" d="M154.59,153.87v5.54a3.24,3.24,0,0,1-.78,2.39,3.3,3.3,0,0,1-2.37.77,5.41,5.41,0,0,1-1.67-.26,3.37,3.37,0,0,1-1.27-.71l.43-.65a3.34,3.34,0,0,0,1.11.64,4.14,4.14,0,0,0,1.37.22,2.45,2.45,0,0,0,1.77-.55,2.39,2.39,0,0,0,.56-1.74v-.8a2.54,2.54,0,0,1-1,.91,3.18,3.18,0,0,1-1.42.31,3.33,3.33,0,0,1-1.61-.39,2.79,2.79,0,0,1-1.14-1.09,3,3,0,0,1-.42-1.59,3,3,0,0,1,.42-1.58,2.73,2.73,0,0,1,1.13-1.08,3.35,3.35,0,0,1,1.62-.39,3.13,3.13,0,0,1,1.45.33,2.61,2.61,0,0,1,1.05.93v-1.21Zm-2,5a2.12,2.12,0,0,0,.86-.82,2.38,2.38,0,0,0,.3-1.2,2.31,2.31,0,0,0-.3-1.19,2.23,2.23,0,0,0-.85-.82,2.56,2.56,0,0,0-1.25-.29,2.65,2.65,0,0,0-1.23.28,2.23,2.23,0,0,0-.85.82,2.55,2.55,0,0,0,0,2.4,2.16,2.16,0,0,0,.85.82,2.69,2.69,0,0,0,2.47,0Z"/><path class="cls-1" d="M168.06,154.51a2.73,2.73,0,0,1,.68,2v3.66h-.85v-3.57a2.11,2.11,0,0,0-.48-1.5,1.69,1.69,0,0,0-1.33-.52,2,2,0,0,0-1.55.61,2.33,2.33,0,0,0-.57,1.67v3.31h-.85v-3.57a2.16,2.16,0,0,0-.47-1.5,1.73,1.73,0,0,0-1.35-.52,2,2,0,0,0-1.54.61,2.33,2.33,0,0,0-.57,1.67v3.31h-.86v-6.31h.82V155a2.31,2.31,0,0,1,.94-.89,3,3,0,0,1,1.38-.31,2.65,2.65,0,0,1,1.37.34,2,2,0,0,1,.87,1,2.46,2.46,0,0,1,1-1,3.08,3.08,0,0,1,1.5-.36A2.48,2.48,0,0,1,168.06,154.51Z"/><path class="cls-1" d="M176.5,154.44a2.38,2.38,0,0,1,.66,1.83v3.91h-.81v-1a2,2,0,0,1-.85.77,3,3,0,0,1-1.32.27,2.61,2.61,0,0,1-1.68-.5,1.73,1.73,0,0,1-.05-2.63,2.86,2.86,0,0,1,1.86-.49h2v-.39a1.64,1.64,0,0,0-.45-1.24,1.92,1.92,0,0,0-1.34-.42,3.43,3.43,0,0,0-1.15.19,3.16,3.16,0,0,0-1,.55l-.38-.64a3.45,3.45,0,0,1,1.15-.63,4.74,4.74,0,0,1,1.42-.22A2.67,2.67,0,0,1,176.5,154.44Zm-1,4.8a2,2,0,0,0,.77-1v-1h-2c-1.08,0-1.62.38-1.62,1.13a1,1,0,0,0,.42.87,1.93,1.93,0,0,0,1.18.32A2.22,2.22,0,0,0,175.54,159.24Z"/><path class="cls-1" d="M180.81,152.31a.58.58,0,0,1-.18-.43.58.58,0,0,1,.18-.42.61.61,0,0,1,.45-.18.64.64,0,0,1,.44.17.58.58,0,0,1,.18.42.61.61,0,0,1-.62.62A.61.61,0,0,1,180.81,152.31Zm0,1.56h.86v6.31h-.86Z"/><path class="cls-1" d="M185.4,151.28h.85v8.9h-.85Z"/><path class="cls-1" d="M189.6,160.05a.66.66,0,0,1-.18-.47.63.63,0,0,1,.18-.46.64.64,0,0,1,.91,0,.6.6,0,0,1,.19.46.63.63,0,0,1-.19.47.62.62,0,0,1-.46.19A.61.61,0,0,1,189.6,160.05Z"/><path class="cls-1" d="M194.62,159.83a3,3,0,0,1-1.16-1.14,3.49,3.49,0,0,1,0-3.32,3,3,0,0,1,1.16-1.14,3.41,3.41,0,0,1,1.67-.41,3.27,3.27,0,0,1,1.46.32,2.33,2.33,0,0,1,1,.93l-.63.43a2,2,0,0,0-.79-.7,2.31,2.31,0,0,0-1.05-.23,2.54,2.54,0,0,0-1.23.3,2.22,2.22,0,0,0-.85.87,2.84,2.84,0,0,0,0,2.58,2.13,2.13,0,0,0,.85.86,2.55,2.55,0,0,0,1.23.31,2.45,2.45,0,0,0,1.05-.23,2,2,0,0,0,.79-.7l.63.43a2.3,2.3,0,0,1-1,.93,3.12,3.12,0,0,1-1.45.32A3.31,3.31,0,0,1,194.62,159.83Z"/><path class="cls-1" d="M202.6,159.83a3.1,3.1,0,0,1-1.15-1.15,3.47,3.47,0,0,1,0-3.31,3,3,0,0,1,1.15-1.14,3.36,3.36,0,0,1,1.65-.41,3.33,3.33,0,0,1,1.64.41,2.93,2.93,0,0,1,1.15,1.14,3.55,3.55,0,0,1,0,3.31,3,3,0,0,1-1.15,1.15,3.33,3.33,0,0,1-1.64.41A3.36,3.36,0,0,1,202.6,159.83Zm2.85-.65a2.07,2.07,0,0,0,.84-.87,2.69,2.69,0,0,0,.3-1.28,2.73,2.73,0,0,0-.3-1.29,2.2,2.2,0,0,0-.84-.87,2.38,2.38,0,0,0-1.2-.3,2.44,2.44,0,0,0-1.21.3,2.34,2.34,0,0,0-.84.87,2.73,2.73,0,0,0-.3,1.29,2.69,2.69,0,0,0,.3,1.28,2.2,2.2,0,0,0,.84.87,2.45,2.45,0,0,0,1.21.31A2.38,2.38,0,0,0,205.45,159.18Z"/><path class="cls-1" d="M220.27,154.51a2.69,2.69,0,0,1,.68,2v3.66h-.85v-3.57a2.16,2.16,0,0,0-.47-1.5,1.73,1.73,0,0,0-1.34-.52,2,2,0,0,0-1.55.61,2.33,2.33,0,0,0-.56,1.67v3.31h-.86v-3.57a2.11,2.11,0,0,0-.47-1.5,1.73,1.73,0,0,0-1.35-.52,2,2,0,0,0-1.54.61,2.33,2.33,0,0,0-.57,1.67v3.31h-.85v-6.31h.81V155a2.37,2.37,0,0,1,.94-.89,3,3,0,0,1,1.38-.31,2.63,2.63,0,0,1,1.37.34,2,2,0,0,1,.87,1,2.46,2.46,0,0,1,1-1,3.08,3.08,0,0,1,1.5-.36A2.48,2.48,0,0,1,220.27,154.51Z"/><path class="cls-1" d="M104.18,177.9v7h-.71v-5.6L100.72,184h-.35l-2.75-4.68v5.57h-.71v-7h.61l3,5.19,3-5.19Z"/><path class="cls-1" d="M112,182.49h-4.4a1.89,1.89,0,0,0,.63,1.33,2.07,2.07,0,0,0,1.44.5,2.25,2.25,0,0,0,.9-.17,2,2,0,0,0,.71-.52l.4.46a2.25,2.25,0,0,1-.88.64,2.88,2.88,0,0,1-1.15.22,3,3,0,0,1-1.44-.34,2.49,2.49,0,0,1-1-1,2.62,2.62,0,0,1-.35-1.38,2.87,2.87,0,0,1,.33-1.38,2.54,2.54,0,0,1,.92-.95,2.71,2.71,0,0,1,2.63,0,2.52,2.52,0,0,1,.91.95,2.82,2.82,0,0,1,.33,1.38Zm-3.82-1.79a1.87,1.87,0,0,0-.58,1.26h3.73a1.88,1.88,0,0,0-.59-1.26,1.92,1.92,0,0,0-2.56,0Z"/><path class="cls-1" d="M118.84,180.18a2.24,2.24,0,0,1,.59,1.67v3.05h-.71v-3a1.78,1.78,0,0,0-.41-1.25,1.59,1.59,0,0,0-1.17-.43,1.79,1.79,0,0,0-1.35.51,1.9,1.9,0,0,0-.49,1.39v2.76h-.71v-5.26h.68v1a2,2,0,0,1,.8-.74,2.56,2.56,0,0,1,1.2-.27A2.15,2.15,0,0,1,118.84,180.18Z"/><path class="cls-1" d="M122.66,184.77a2.5,2.5,0,0,1-.91-.47l.32-.56a2.5,2.5,0,0,0,.83.43,3.28,3.28,0,0,0,1,.16,2,2,0,0,0,1.06-.22.72.72,0,0,0,.35-.64.59.59,0,0,0-.19-.45,1.37,1.37,0,0,0-.48-.25c-.2-.06-.45-.11-.77-.17a9.54,9.54,0,0,1-1-.24,1.55,1.55,0,0,1-.67-.43,1.18,1.18,0,0,1-.27-.83,1.29,1.29,0,0,1,.55-1.08,2.44,2.44,0,0,1,1.53-.42,4,4,0,0,1,1,.14,3,3,0,0,1,.84.35l-.31.57a2.67,2.67,0,0,0-1.55-.45,1.8,1.8,0,0,0-1,.24.73.73,0,0,0-.34.63.62.62,0,0,0,.19.48,1.22,1.22,0,0,0,.49.27,7,7,0,0,0,.8.17,9.6,9.6,0,0,1,1,.24,1.53,1.53,0,0,1,.65.41,1.14,1.14,0,0,1,.27.8,1.27,1.27,0,0,1-.58,1.1,2.71,2.71,0,0,1-1.59.4A4.16,4.16,0,0,1,122.66,184.77Z"/><path class="cls-1" d="M131.91,180.12a2,2,0,0,1,.55,1.52v3.26h-.68v-.82a1.58,1.58,0,0,1-.71.64,2.38,2.38,0,0,1-1.1.23,2.14,2.14,0,0,1-1.4-.42,1.35,1.35,0,0,1-.52-1.11,1.37,1.37,0,0,1,.48-1.08,2.42,2.42,0,0,1,1.55-.41h1.67v-.32a1.36,1.36,0,0,0-.38-1,1.58,1.58,0,0,0-1.11-.36,2.77,2.77,0,0,0-1,.17,2.43,2.43,0,0,0-.79.45l-.32-.53a2.76,2.76,0,0,1,1-.52,3.79,3.79,0,0,1,1.18-.19A2.26,2.26,0,0,1,131.91,180.12Zm-.8,4a1.66,1.66,0,0,0,.64-.8v-.86H130.1c-.9,0-1.35.32-1.35.94a.85.85,0,0,0,.35.73,1.57,1.57,0,0,0,1,.26A1.91,1.91,0,0,0,131.11,184.12Z"/><path class="cls-1" d="M134.1,186.81a1.17,1.17,0,0,1-.48-.26l.25-.54a1.19,1.19,0,0,0,.82.27.8.8,0,0,0,.64-.25,1.06,1.06,0,0,0,.23-.74v-5.65h.71v5.65a1.66,1.66,0,0,1-.4,1.17,1.48,1.48,0,0,1-1.14.43A2.18,2.18,0,0,1,134.1,186.81Zm1.45-8.48a.49.49,0,0,1-.15-.36.49.49,0,0,1,.15-.35.5.5,0,0,1,.37-.15.51.51,0,0,1,.37.15.46.46,0,0,1,.15.34.5.5,0,0,1-.15.37.51.51,0,0,1-.37.15A.5.5,0,0,1,135.55,178.33Z"/><path class="cls-1" d="M144,182.49h-4.4a1.89,1.89,0,0,0,.63,1.33,2.07,2.07,0,0,0,1.44.5,2.25,2.25,0,0,0,.9-.17,2,2,0,0,0,.71-.52l.4.46a2.25,2.25,0,0,1-.88.64,2.88,2.88,0,0,1-1.15.22,3,3,0,0,1-1.44-.34,2.49,2.49,0,0,1-1-1,2.62,2.62,0,0,1-.35-1.38,2.87,2.87,0,0,1,.33-1.38,2.54,2.54,0,0,1,.92-.95,2.71,2.71,0,0,1,2.63,0,2.52,2.52,0,0,1,.91.95,2.82,2.82,0,0,1,.33,1.38Zm-3.82-1.79a1.87,1.87,0,0,0-.58,1.26h3.73a1.88,1.88,0,0,0-.59-1.26,1.92,1.92,0,0,0-2.56,0Z"/><path class="cls-1" d="M146.22,180.53a.53.53,0,0,1-.15-.39.52.52,0,0,1,.15-.38.55.55,0,0,1,.38-.16.57.57,0,0,1,.38.16.53.53,0,0,1,.16.38.53.53,0,0,1-.16.39.52.52,0,0,1-.38.16A.51.51,0,0,1,146.22,180.53Zm0,4.26a.53.53,0,0,1-.15-.39.52.52,0,0,1,.15-.38.55.55,0,0,1,.38-.16.57.57,0,0,1,.38.16.53.53,0,0,1,.16.38.53.53,0,0,1-.16.39.52.52,0,0,1-.38.16A.51.51,0,0,1,146.22,184.79Z"/><path class="cls-1" d="M50.12,206.9l-1.92-2.7a4.83,4.83,0,0,1-.67,0H45.27v2.66h-.89v-8.4h3.15a3.81,3.81,0,0,1,2.52.77,2.61,2.61,0,0,1,.91,2.11,2.78,2.78,0,0,1-.5,1.67A2.73,2.73,0,0,1,49,204l2.05,2.88Zm-.71-4a2.16,2.16,0,0,0,0-3.11,2.88,2.88,0,0,0-1.91-.55H45.27v4.21H47.5A2.88,2.88,0,0,0,49.41,202.93Z"/><path class="cls-1" d="M59.72,204H54.44a2.24,2.24,0,0,0,.76,1.59,2.46,2.46,0,0,0,1.72.61A2.67,2.67,0,0,0,58,206a2.4,2.4,0,0,0,.86-.62l.48.55a2.71,2.71,0,0,1-1.05.77,3.83,3.83,0,0,1-3.11-.15A3,3,0,0,1,54,205.4a3.24,3.24,0,0,1-.42-1.65,3.37,3.37,0,0,1,.4-1.66A2.9,2.9,0,0,1,55.1,201a3.06,3.06,0,0,1,1.57-.41,3.1,3.1,0,0,1,1.58.41,2.92,2.92,0,0,1,1.09,1.14,3.42,3.42,0,0,1,.39,1.66Zm-4.58-2.15a2.31,2.31,0,0,0-.7,1.52h4.48a2.27,2.27,0,0,0-.71-1.52,2.32,2.32,0,0,0-3.07,0Z"/><path class="cls-1" d="M68.66,200.59v5.55a3.23,3.23,0,0,1-.78,2.38,3.31,3.31,0,0,1-2.38.77,5.11,5.11,0,0,1-1.66-.26,3.37,3.37,0,0,1-1.27-.71l.43-.65a3.18,3.18,0,0,0,1.11.64,4.15,4.15,0,0,0,1.37.23,2.46,2.46,0,0,0,1.77-.56,2.38,2.38,0,0,0,.56-1.74v-.8a2.61,2.61,0,0,1-1,.91,3.18,3.18,0,0,1-1.42.31,3.4,3.4,0,0,1-1.62-.39,2.91,2.91,0,0,1-1.14-1.09,3.14,3.14,0,0,1-.41-1.59,3.07,3.07,0,0,1,.41-1.58,2.82,2.82,0,0,1,1.14-1.08,3.35,3.35,0,0,1,1.62-.39,3.16,3.16,0,0,1,1.45.33,2.59,2.59,0,0,1,1,.93v-1.21Zm-2,5a2.12,2.12,0,0,0,.86-.82,2.38,2.38,0,0,0,.3-1.2,2.34,2.34,0,0,0-.3-1.19,2.19,2.19,0,0,0-.86-.82,2.61,2.61,0,0,0-1.24-.29,2.54,2.54,0,0,0-1.23.29,2.07,2.07,0,0,0-.85.81,2.48,2.48,0,0,0,0,2.4,2.1,2.1,0,0,0,.85.82,2.69,2.69,0,0,0,2.47,0Z"/><path class="cls-1" d="M76.5,201.16a2.38,2.38,0,0,1,.66,1.83v3.91h-.82v-1a2,2,0,0,1-.84.77,3.07,3.07,0,0,1-1.33.27,2.55,2.55,0,0,1-1.68-.5,1.72,1.72,0,0,1,0-2.63,2.82,2.82,0,0,1,1.85-.49h2V203a1.65,1.65,0,0,0-.45-1.25,1.91,1.91,0,0,0-1.33-.42,3.26,3.26,0,0,0-1.16.2,2.89,2.89,0,0,0-.94.54L72,201.4a3.21,3.21,0,0,1,1.15-.63,4.45,4.45,0,0,1,1.42-.23A2.7,2.7,0,0,1,76.5,201.16Zm-1,4.8a2,2,0,0,0,.76-1v-1h-2c-1.08,0-1.62.37-1.62,1.12a1,1,0,0,0,.42.87,1.83,1.83,0,0,0,1.17.32A2.27,2.27,0,0,0,75.54,206Z"/><path class="cls-1" d="M80.82,198h.85v8.9h-.85Z"/><path class="cls-1" d="M86.32,206.55a3.1,3.1,0,0,1-1.15-1.15,3.24,3.24,0,0,1-.42-1.65,3.28,3.28,0,0,1,.42-1.66A3,3,0,0,1,86.32,201a3.36,3.36,0,0,1,1.65-.41,3.33,3.33,0,0,1,1.64.41,2.93,2.93,0,0,1,1.15,1.14,3.38,3.38,0,0,1,.41,1.66,3.34,3.34,0,0,1-.41,1.65,3,3,0,0,1-1.15,1.15A3.22,3.22,0,0,1,88,207,3.26,3.26,0,0,1,86.32,206.55Zm2.85-.65A2.07,2.07,0,0,0,90,205a2.66,2.66,0,0,0,.3-1.28,2.73,2.73,0,0,0-.3-1.29,2.2,2.2,0,0,0-.84-.87,2.38,2.38,0,0,0-1.2-.3,2.44,2.44,0,0,0-1.21.3,2.34,2.34,0,0,0-.84.87,2.73,2.73,0,0,0-.3,1.29,2.66,2.66,0,0,0,.3,1.28,2.2,2.2,0,0,0,.84.87,2.34,2.34,0,0,0,1.21.31A2.28,2.28,0,0,0,89.17,205.9Z"/><path class="cls-1" d="M104.19,204.66H99.51l-1,2.24h-.92l3.84-8.4h.88l3.84,8.4h-.94Zm-.32-.72-2-4.51-2,4.51Z"/><path class="cls-1" d="M113.55,201a2.79,2.79,0,0,1,1.13,1.13,3.61,3.61,0,0,1,0,3.34,3,3,0,0,1-1.13,1.14,3.21,3.21,0,0,1-1.61.4,3,3,0,0,1-1.42-.33,2.61,2.61,0,0,1-1-1v1.24h-.82V198h.85v3.79a2.67,2.67,0,0,1,1-.93,3,3,0,0,1,1.38-.32A3.21,3.21,0,0,1,113.55,201Zm-.47,5a2.1,2.1,0,0,0,.85-.87,2.66,2.66,0,0,0,.31-1.28,2.73,2.73,0,0,0-.31-1.29,2.22,2.22,0,0,0-.85-.87,2.43,2.43,0,0,0-1.2-.3,2.4,2.4,0,0,0-1.2.3,2.2,2.2,0,0,0-.84.87,2.62,2.62,0,0,0-.31,1.29,2.55,2.55,0,0,0,.31,1.28,2.07,2.07,0,0,0,.84.87,2.31,2.31,0,0,0,1.2.31A2.33,2.33,0,0,0,113.08,205.9Z"/><path class="cls-1" d="M123.67,204h-5.28a2.27,2.27,0,0,0,.75,1.59,2.51,2.51,0,0,0,1.73.61A2.74,2.74,0,0,0,122,206a2.36,2.36,0,0,0,.85-.62l.48.55a2.71,2.71,0,0,1-1,.77,3.8,3.8,0,0,1-3.1-.15A3,3,0,0,1,118,205.4a3.24,3.24,0,0,1-.42-1.65,3.37,3.37,0,0,1,.4-1.66A2.87,2.87,0,0,1,119,201a3.13,3.13,0,0,1,1.58-.41,3.06,3.06,0,0,1,1.57.41,2.79,2.79,0,0,1,1.09,1.14,3.32,3.32,0,0,1,.4,1.66Zm-4.58-2.15a2.26,2.26,0,0,0-.7,1.52h4.47a2.26,2.26,0,0,0-.7-1.52,2.32,2.32,0,0,0-3.07,0Z"/><path class="cls-1" d="M126.82,198h.86v8.9h-.86Z"/><path class="cls-1" d="M141.19,200.59,138,207.66a3,3,0,0,1-.89,1.26,2,2,0,0,1-1.21.37,2.61,2.61,0,0,1-.85-.14,1.92,1.92,0,0,1-.68-.43l.39-.64a1.58,1.58,0,0,0,1.15.48,1.15,1.15,0,0,0,.74-.24,2,2,0,0,0,.57-.82l.28-.61-2.82-6.3h.89L138,206l2.38-5.37Z"/><path class="cls-1" d="M155.38,198.5l-3.72,8.4h-.87l-3.72-8.4h1l3.21,7.3,3.24-7.3Z"/><path class="cls-1" d="M161.38,201.16A2.38,2.38,0,0,1,162,203v3.91h-.81v-1a2,2,0,0,1-.85.77,3,3,0,0,1-1.32.27,2.55,2.55,0,0,1-1.68-.5,1.73,1.73,0,0,1,0-2.63,2.86,2.86,0,0,1,1.86-.49h2V203a1.65,1.65,0,0,0-.45-1.25,1.92,1.92,0,0,0-1.34-.42,3.2,3.2,0,0,0-1.15.2,2.94,2.94,0,0,0-.95.54l-.38-.63a3.13,3.13,0,0,1,1.15-.63,4.45,4.45,0,0,1,1.42-.23A2.67,2.67,0,0,1,161.38,201.16Zm-1,4.8a2,2,0,0,0,.77-1v-1h-2c-1.08,0-1.62.37-1.62,1.12a1,1,0,0,0,.42.87,1.86,1.86,0,0,0,1.18.32A2.22,2.22,0,0,0,160.42,206Z"/><path class="cls-1" d="M165.7,198h.86v8.9h-.86Z"/><path class="cls-1" d="M175.77,204h-5.28a2.24,2.24,0,0,0,.76,1.59,2.47,2.47,0,0,0,1.73.61,2.74,2.74,0,0,0,1.08-.21,2.45,2.45,0,0,0,.85-.62l.48.55a2.71,2.71,0,0,1-1,.77,3.83,3.83,0,0,1-3.11-.15,3,3,0,0,1-1.17-1.15,3.24,3.24,0,0,1-.42-1.65,3.37,3.37,0,0,1,.4-1.66,2.9,2.9,0,0,1,1.11-1.14,3.06,3.06,0,0,1,1.57-.41,3.1,3.1,0,0,1,1.58.41,2.92,2.92,0,0,1,1.09,1.14,3.42,3.42,0,0,1,.39,1.66Zm-4.58-2.15a2.31,2.31,0,0,0-.7,1.52H175a2.31,2.31,0,0,0-.7-1.52,2.33,2.33,0,0,0-3.08,0Z"/><path class="cls-1" d="M179.09,206.74a3.14,3.14,0,0,1-1.1-.56l.39-.67a3.07,3.07,0,0,0,1,.51,4,4,0,0,0,1.25.2,2.39,2.39,0,0,0,1.28-.27.86.86,0,0,0,.41-.76.67.67,0,0,0-.23-.55,1.54,1.54,0,0,0-.57-.3,8.84,8.84,0,0,0-.93-.2,9.46,9.46,0,0,1-1.23-.29,1.83,1.83,0,0,1-.8-.51,1.42,1.42,0,0,1-.33-1,1.55,1.55,0,0,1,.66-1.29,2.94,2.94,0,0,1,1.84-.51,4.72,4.72,0,0,1,1.22.17,3.37,3.37,0,0,1,1,.42l-.37.69a3.19,3.19,0,0,0-1.86-.54,2.15,2.15,0,0,0-1.23.28.9.9,0,0,0-.42.76.75.75,0,0,0,.24.58,1.35,1.35,0,0,0,.58.31,8.23,8.23,0,0,0,1,.21c.5.1.91.2,1.21.29a1.88,1.88,0,0,1,.78.49,1.36,1.36,0,0,1,.32,1,1.53,1.53,0,0,1-.69,1.32,3.29,3.29,0,0,1-1.91.48A4.8,4.8,0,0,1,179.09,206.74Z"/><path class="cls-1" d="M188.42,203.74l-1.49,1.36v1.8h-.85V198h.85v6l3.77-3.45h1.06l-2.7,2.58L192,206.9h-1Z"/><path class="cls-1" d="M198.62,201.16a2.38,2.38,0,0,1,.66,1.83v3.91h-.82v-1a2,2,0,0,1-.84.77,3,3,0,0,1-1.33.27,2.59,2.59,0,0,1-1.68-.5,1.65,1.65,0,0,1-.62-1.33,1.61,1.61,0,0,1,.58-1.3,2.84,2.84,0,0,1,1.85-.49h2V203a1.62,1.62,0,0,0-.46-1.25,1.9,1.9,0,0,0-1.33-.42,3.2,3.2,0,0,0-1.15.2,2.84,2.84,0,0,0-1,.54l-.38-.63a3.13,3.13,0,0,1,1.15-.63,4.43,4.43,0,0,1,1.41-.23A2.68,2.68,0,0,1,198.62,201.16Zm-1,4.8a2,2,0,0,0,.77-1v-1h-2c-1.08,0-1.62.37-1.62,1.12a1,1,0,0,0,.42.87,1.85,1.85,0,0,0,1.17.32A2.25,2.25,0,0,0,197.66,206Z"/><path class="cls-2" d="M102.53,123.51c0,2.51-1.76,4-4.59,4H95.32l-.59,3h-1.4l2-9.81h3.64C101.21,120.64,102.53,121.69,102.53,123.51Zm-1.4.13c0-1.18-.84-1.78-2.32-1.78H96.45l-.88,4.4H98C100,126.26,101.13,125.36,101.13,123.64Z"/><path class="cls-2" d="M113.11,123l-1.47,7.43h-1.28l.18-.91a3.71,3.71,0,0,1-2.62,1,3.06,3.06,0,0,1-3.28-3.21,4.16,4.16,0,0,1,4.2-4.37,2.83,2.83,0,0,1,2.68,1.34l.25-1.27Zm-2,3.2a2,2,0,0,0-2.21-2.09,2.92,2.92,0,0,0-2.9,3.14,2,2,0,0,0,2.21,2.09A2.92,2.92,0,0,0,111.11,126.22Z"/><path class="cls-2" d="M123.81,123l-5.27,8.24c-1,1.51-1.72,2-2.88,2a2.69,2.69,0,0,1-1.87-.66l.71-1a1.69,1.69,0,0,0,1.26.5c.61,0,1.06-.28,1.59-1.11l.38-.58L115.94,123h1.34l1.43,5.94,3.74-5.94Z"/><path class="cls-2" d="M133.64,126.15a4.16,4.16,0,0,1-4.2,4.38,2.84,2.84,0,0,1-2.69-1.34l-.79,4h-1.34l2-10.15h1.29l-.18.93a3.68,3.68,0,0,1,2.62-1A3.05,3.05,0,0,1,133.64,126.15Zm-1.36.07a2,2,0,0,0-2.21-2.09,2.92,2.92,0,0,0-2.9,3.14,2,2,0,0,0,2.21,2.09A2.93,2.93,0,0,0,132.28,126.22Z"/><path class="cls-2" d="M144.74,123l-1.47,7.43H142l.18-.91a3.69,3.69,0,0,1-2.62,1,3.05,3.05,0,0,1-3.27-3.21,4.16,4.16,0,0,1,4.2-4.37,2.82,2.82,0,0,1,2.67,1.34l.26-1.27Zm-2,3.2a2,2,0,0,0-2.22-2.09,2.93,2.93,0,0,0-2.9,3.14,2,2,0,0,0,2.22,2.09A2.92,2.92,0,0,0,142.74,126.22Z"/><path class="cls-2" d="M149.47,120.05h1.34l-2.07,10.4H147.4Z"/><path class="cls-1" d="M100.53,269.44v7h-.71v-5.6l-2.75,4.71h-.35L94,270.87v5.57h-.71v-7h.61l3,5.19,3-5.19Z"/><path class="cls-1" d="M108.36,274H104a1.89,1.89,0,0,0,.63,1.32,2.08,2.08,0,0,0,1.44.51,2.19,2.19,0,0,0,.9-.18,2.11,2.11,0,0,0,.71-.51l.4.46a2.32,2.32,0,0,1-.87.64,3.15,3.15,0,0,1-1.16.22,3,3,0,0,1-1.44-.35,2.53,2.53,0,0,1-1-.95,2.77,2.77,0,0,1-.35-1.38,2.72,2.72,0,0,1,.34-1.38,2.32,2.32,0,0,1,.91-.95,2.55,2.55,0,0,1,1.32-.34,2.51,2.51,0,0,1,1.31.34,2.35,2.35,0,0,1,.91.94,2.86,2.86,0,0,1,.33,1.39Zm-3.82-1.8a1.94,1.94,0,0,0-.58,1.27h3.73a1.9,1.9,0,0,0-.59-1.27,1.95,1.95,0,0,0-2.56,0Z"/><path class="cls-1" d="M112.36,271.41a2.54,2.54,0,0,1,1.23-.27v.69h-.17a1.68,1.68,0,0,0-1.3.51,2,2,0,0,0-.47,1.43v2.68h-.71v-5.26h.68v1A1.7,1.7,0,0,1,112.36,271.41Z"/><path class="cls-1" d="M116.72,276.15a2.46,2.46,0,0,1-1-1,2.77,2.77,0,0,1-.35-1.38,2.72,2.72,0,0,1,.35-1.38,2.37,2.37,0,0,1,1-.95,2.82,2.82,0,0,1,1.4-.34,2.7,2.7,0,0,1,1.22.26,2.1,2.1,0,0,1,.84.78l-.53.36A1.63,1.63,0,0,0,119,272a2,2,0,0,0-.87-.19,2.09,2.09,0,0,0-1,.25,1.78,1.78,0,0,0-.71.73,2.41,2.41,0,0,0,0,2.14,1.82,1.82,0,0,0,.71.72,2.1,2.1,0,0,0,1,.26,2.13,2.13,0,0,0,.87-.19,1.6,1.6,0,0,0,.66-.58l.53.36a2,2,0,0,1-.85.77,2.66,2.66,0,0,1-1.21.27A2.93,2.93,0,0,1,116.72,276.15Z"/><path class="cls-1" d="M126.11,271.65a2,2,0,0,1,.55,1.53v3.26H126v-.82a1.7,1.7,0,0,1-.71.64,2.48,2.48,0,0,1-1.1.23,2.16,2.16,0,0,1-1.4-.42,1.45,1.45,0,0,1,0-2.19,2.36,2.36,0,0,1,1.55-.41H126v-.32a1.37,1.37,0,0,0-.38-1,1.54,1.54,0,0,0-1.11-.35,2.85,2.85,0,0,0-1,.16,2.29,2.29,0,0,0-.79.46l-.32-.53a2.8,2.8,0,0,1,1-.53,3.83,3.83,0,0,1,1.18-.18A2.24,2.24,0,0,1,126.11,271.65Zm-.8,4a1.63,1.63,0,0,0,.64-.79V274H124.3c-.9,0-1.35.31-1.35.94a.87.87,0,0,0,.35.72,1.57,1.57,0,0,0,1,.27A1.91,1.91,0,0,0,125.31,275.65Z"/><path class="cls-1" d="M134,271.71a2.24,2.24,0,0,1,.59,1.68v3.05h-.71v-3a1.74,1.74,0,0,0-.41-1.25,1.52,1.52,0,0,0-1.17-.43,1.79,1.79,0,0,0-1.35.5,1.91,1.91,0,0,0-.49,1.4v2.76h-.71v-5.26h.68v1a2,2,0,0,1,.8-.75,2.58,2.58,0,0,1,1.2-.26A2.15,2.15,0,0,1,134,271.71Z"/><path class="cls-1" d="M140.37,276.12a1.26,1.26,0,0,1-.5.27,2.05,2.05,0,0,1-.61.1,1.58,1.58,0,0,1-1.14-.4,1.53,1.53,0,0,1-.4-1.13v-3.18h-.94v-.6h.94V270h.71v1.15H140v.6h-1.6v3.14a1,1,0,0,0,.23.71.93.93,0,0,0,.68.25,1.42,1.42,0,0,0,.42-.07,1.25,1.25,0,0,0,.36-.2Z"/><path class="cls-1" d="M142.77,269.88a.49.49,0,0,1-.15-.36.47.47,0,0,1,.15-.35.5.5,0,0,1,.37-.15.49.49,0,0,1,.37.14.47.47,0,0,1,.15.35.51.51,0,0,1-.15.37.53.53,0,0,1-.74,0Zm0,1.3h.71v5.26h-.71Z"/><path class="cls-1" d="M146.59,269h.71v7.42h-.71Z"/><path class="cls-1" d="M150.09,272.07a.56.56,0,0,1-.15-.39.53.53,0,0,1,.15-.39.56.56,0,0,1,.76,0,.5.5,0,0,1,.16.39.53.53,0,0,1-.16.39.53.53,0,0,1-.76,0Zm0,4.26a.56.56,0,0,1-.15-.39.53.53,0,0,1,.15-.39.56.56,0,0,1,.76,0,.5.5,0,0,1,.16.39.53.53,0,0,1-.16.39.53.53,0,0,1-.76,0Z"/><path class="cls-1" d="M30.18,298.71A3.28,3.28,0,0,1,29,297.23a5.64,5.64,0,0,1-.43-2.27,5.72,5.72,0,0,1,.43-2.28,3.39,3.39,0,0,1,1.19-1.48,3,3,0,0,1,1.73-.51,3.06,3.06,0,0,1,1.74.51,3.54,3.54,0,0,1,1.19,1.48,5.55,5.55,0,0,1,.43,2.28,5.47,5.47,0,0,1-.43,2.27,3.42,3.42,0,0,1-1.19,1.48,3,3,0,0,1-1.74.52A3,3,0,0,1,30.18,298.71Zm3-.68a2.66,2.66,0,0,0,.87-1.19,5.89,5.89,0,0,0,0-3.77,2.63,2.63,0,0,0-.87-1.18,2.23,2.23,0,0,0-2.58,0,2.63,2.63,0,0,0-.87,1.18,5.89,5.89,0,0,0,0,3.77,2.66,2.66,0,0,0,.87,1.19,2.23,2.23,0,0,0,2.58,0Z"/><path class="cls-1" d="M40.16,290.76v8.4h-.87v-7.63h-2v-.77Z"/><path class="cls-1" d="M45.12,298.71a3.28,3.28,0,0,1-1.19-1.48A5.64,5.64,0,0,1,43.5,295a5.72,5.72,0,0,1,.43-2.28,3.39,3.39,0,0,1,1.19-1.48,3,3,0,0,1,1.73-.51,3.06,3.06,0,0,1,1.74.51,3.54,3.54,0,0,1,1.19,1.48,5.55,5.55,0,0,1,.43,2.28,5.47,5.47,0,0,1-.43,2.27,3.42,3.42,0,0,1-1.19,1.48,3,3,0,0,1-1.74.52A3,3,0,0,1,45.12,298.71Zm3-.68a2.66,2.66,0,0,0,.87-1.19,5.89,5.89,0,0,0,0-3.77,2.63,2.63,0,0,0-.87-1.18,2.23,2.23,0,0,0-2.58,0,2.63,2.63,0,0,0-.87,1.18,5.89,5.89,0,0,0,0,3.77,2.66,2.66,0,0,0,.87,1.19,2.23,2.23,0,0,0,2.58,0Z"/><path class="cls-1" d="M57.66,294.86a2.19,2.19,0,0,1,.83,1.83,2.47,2.47,0,0,1-.34,1.3,2.3,2.3,0,0,1-1,.91,3.81,3.81,0,0,1-1.68.33,5.12,5.12,0,0,1-1.71-.29,3.53,3.53,0,0,1-1.3-.79l.42-.68a3.2,3.2,0,0,0,1.11.7,3.92,3.92,0,0,0,1.47.27,2.5,2.5,0,0,0,1.62-.47,1.53,1.53,0,0,0,.57-1.25,1.5,1.5,0,0,0-.65-1.31,4,4,0,0,0-2.16-.44H53l.43-4.21h4.6v.77H54.21l-.29,2.67H55A4.3,4.3,0,0,1,57.66,294.86Z"/><path class="cls-1" d="M67,298.71a3.35,3.35,0,0,1-1.19-1.48,5.64,5.64,0,0,1-.42-2.27,5.73,5.73,0,0,1,.42-2.28A3.47,3.47,0,0,1,67,291.2a3.21,3.21,0,0,1,3.47,0,3.47,3.47,0,0,1,1.19,1.48,5.55,5.55,0,0,1,.43,2.28,5.47,5.47,0,0,1-.43,2.27,3.35,3.35,0,0,1-1.19,1.48,3.15,3.15,0,0,1-3.47,0Zm3-.68a2.52,2.52,0,0,0,.87-1.19,5.71,5.71,0,0,0,0-3.77,2.49,2.49,0,0,0-.87-1.18,2.07,2.07,0,0,0-1.29-.41,2.11,2.11,0,0,0-1.29.41,2.63,2.63,0,0,0-.87,1.18,5.89,5.89,0,0,0,0,3.77,2.66,2.66,0,0,0,.87,1.19,2.18,2.18,0,0,0,1.29.41A2.13,2.13,0,0,0,70.05,298Z"/><path class="cls-1" d="M79.65,294.44a2.41,2.41,0,0,1,1,.88,2.45,2.45,0,0,1,.36,1.33,2.51,2.51,0,0,1-.38,1.36,2.41,2.41,0,0,1-1,.9,3.37,3.37,0,0,1-1.47.32,3.11,3.11,0,0,1-2.56-1.1,4.81,4.81,0,0,1-.89-3.1,5.34,5.34,0,0,1,.48-2.38,3.44,3.44,0,0,1,1.35-1.47,4,4,0,0,1,2-.49,3.85,3.85,0,0,1,2,.45l-.35.7a2.89,2.89,0,0,0-1.63-.4,2.82,2.82,0,0,0-2.19.88,3.73,3.73,0,0,0-.79,2.57,5.83,5.83,0,0,0,0,.68,2.21,2.21,0,0,1,1-1.06,3.53,3.53,0,0,1,3-.07ZM79.59,298a1.83,1.83,0,0,0,0-2.65,2.31,2.31,0,0,0-1.54-.49,2.49,2.49,0,0,0-1.12.24,1.89,1.89,0,0,0-.76.66,1.62,1.62,0,0,0-.28.94,1.68,1.68,0,0,0,.26.89,1.9,1.9,0,0,0,.76.66,2.79,2.79,0,0,0,1.2.25A2.17,2.17,0,0,0,79.59,298Z"/><path class="cls-1" d="M88.31,294.44a2.35,2.35,0,0,1,1.36,2.21,2.51,2.51,0,0,1-.38,1.36,2.36,2.36,0,0,1-1,.9,3.37,3.37,0,0,1-1.47.32,3.12,3.12,0,0,1-2.56-1.1,4.81,4.81,0,0,1-.88-3.1,5.34,5.34,0,0,1,.48-2.38,3.42,3.42,0,0,1,1.34-1.47,4,4,0,0,1,2-.49,3.83,3.83,0,0,1,2,.45l-.35.7a2.87,2.87,0,0,0-1.63-.4,2.82,2.82,0,0,0-2.19.88,3.78,3.78,0,0,0-.79,2.57,5.83,5.83,0,0,0,0,.68,2.26,2.26,0,0,1,1-1.06,3.24,3.24,0,0,1,1.58-.38A3.31,3.31,0,0,1,88.31,294.44ZM88.25,298a1.83,1.83,0,0,0,0-2.65,2.34,2.34,0,0,0-1.55-.49,2.52,2.52,0,0,0-1.12.24,1.89,1.89,0,0,0-.76.66,1.62,1.62,0,0,0-.28.94,1.68,1.68,0,0,0,.26.89,1.9,1.9,0,0,0,.76.66,2.79,2.79,0,0,0,1.2.25A2.2,2.2,0,0,0,88.25,298Z"/><path class="cls-1" d="M93.62,298.71a3.35,3.35,0,0,1-1.19-1.48A5.64,5.64,0,0,1,92,295a5.73,5.73,0,0,1,.42-2.28,3.47,3.47,0,0,1,1.19-1.48,3.21,3.21,0,0,1,3.47,0,3.39,3.39,0,0,1,1.19,1.48,5.55,5.55,0,0,1,.43,2.28,5.47,5.47,0,0,1-.43,2.27,3.28,3.28,0,0,1-1.19,1.48,3.15,3.15,0,0,1-3.47,0Zm3-.68a2.66,2.66,0,0,0,.87-1.19,5.89,5.89,0,0,0,0-3.77,2.63,2.63,0,0,0-.87-1.18,2.11,2.11,0,0,0-1.29-.41,2.07,2.07,0,0,0-1.29.41,2.49,2.49,0,0,0-.87,1.18,5.71,5.71,0,0,0,0,3.77,2.52,2.52,0,0,0,.87,1.19,2.13,2.13,0,0,0,1.29.41A2.18,2.18,0,0,0,96.65,298Z"/><path class="cls-1" d="M110.65,295.07a2.19,2.19,0,0,1,.69,1.68A2.35,2.35,0,0,1,111,298a2.32,2.32,0,0,1-1,.89,4,4,0,0,1-1.67.32,5.13,5.13,0,0,1-1.72-.29,3.45,3.45,0,0,1-1.3-.79l.42-.68a3.2,3.2,0,0,0,1.11.7,4.1,4.1,0,0,0,1.49.27,2.52,2.52,0,0,0,1.6-.45,1.52,1.52,0,0,0,.56-1.24,1.5,1.5,0,0,0-.56-1.23,2.8,2.8,0,0,0-1.71-.44h-.6v-.64l2.33-2.91h-4.29v-.77H111v.61l-2.37,3A3.11,3.11,0,0,1,110.65,295.07Z"/><path class="cls-1" d="M119.07,291.78a4.86,4.86,0,0,1,.89,3.11,5.32,5.32,0,0,1-.49,2.37,3.31,3.31,0,0,1-1.34,1.47,4,4,0,0,1-2,.5,3.74,3.74,0,0,1-2-.46l.35-.69a3,3,0,0,0,1.63.39,2.79,2.79,0,0,0,2.19-.88,3.75,3.75,0,0,0,.79-2.56,5.49,5.49,0,0,0,0-.68,2.26,2.26,0,0,1-1,1.06,3.24,3.24,0,0,1-1.58.38,3.31,3.31,0,0,1-1.47-.32,2.38,2.38,0,0,1-1-.88,2.42,2.42,0,0,1-.36-1.32A2.43,2.43,0,0,1,115,291a3.37,3.37,0,0,1,1.47-.31A3.12,3.12,0,0,1,119.07,291.78Zm-1.34,3a1.89,1.89,0,0,0,.76-.66,1.69,1.69,0,0,0,.28-.93,1.65,1.65,0,0,0-.26-.89,1.9,1.9,0,0,0-.76-.66,2.65,2.65,0,0,0-1.2-.25,2.15,2.15,0,0,0-1.49.5,1.84,1.84,0,0,0,0,2.64,2.29,2.29,0,0,0,1.55.49A2.52,2.52,0,0,0,117.73,294.81Z"/><path class="cls-1" d="M124.16,298.71a3.35,3.35,0,0,1-1.19-1.48,5.64,5.64,0,0,1-.42-2.27,5.73,5.73,0,0,1,.42-2.28,3.47,3.47,0,0,1,1.19-1.48,3.21,3.21,0,0,1,3.47,0,3.39,3.39,0,0,1,1.19,1.48,5.55,5.55,0,0,1,.43,2.28,5.47,5.47,0,0,1-.43,2.27,3.28,3.28,0,0,1-1.19,1.48,3.15,3.15,0,0,1-3.47,0Zm3-.68a2.52,2.52,0,0,0,.87-1.19,5.71,5.71,0,0,0,0-3.77,2.49,2.49,0,0,0-.87-1.18,2.07,2.07,0,0,0-1.29-.41,2.11,2.11,0,0,0-1.29.41,2.63,2.63,0,0,0-.87,1.18,5.89,5.89,0,0,0,0,3.77,2.66,2.66,0,0,0,.87,1.19,2.18,2.18,0,0,0,1.29.41A2.13,2.13,0,0,0,127.18,298Z"/><path class="cls-1" d="M136.78,294.44a2.41,2.41,0,0,1,1,.88,2.45,2.45,0,0,1,.36,1.33,2.51,2.51,0,0,1-.38,1.36,2.41,2.41,0,0,1-1,.9,3.37,3.37,0,0,1-1.47.32,3.11,3.11,0,0,1-2.56-1.1,4.81,4.81,0,0,1-.88-3.1,5.35,5.35,0,0,1,.47-2.38,3.44,3.44,0,0,1,1.35-1.47,4,4,0,0,1,2-.49,3.85,3.85,0,0,1,2,.45l-.35.7a2.89,2.89,0,0,0-1.63-.4,2.82,2.82,0,0,0-2.19.88,3.73,3.73,0,0,0-.79,2.57,5.83,5.83,0,0,0,0,.68,2.21,2.21,0,0,1,1-1.06,3.53,3.53,0,0,1,3-.07Zm-.06,3.56a1.83,1.83,0,0,0,0-2.65,2.31,2.31,0,0,0-1.54-.49,2.49,2.49,0,0,0-1.12.24,1.89,1.89,0,0,0-.76.66,1.62,1.62,0,0,0-.28.94,1.68,1.68,0,0,0,.26.89,1.9,1.9,0,0,0,.76.66,2.79,2.79,0,0,0,1.2.25A2.17,2.17,0,0,0,136.72,298Z"/><path class="cls-1" d="M145.44,294.44a2.35,2.35,0,0,1,1.36,2.21,2.59,2.59,0,0,1-.37,1.36,2.44,2.44,0,0,1-1,.9,3.37,3.37,0,0,1-1.47.32,3.12,3.12,0,0,1-2.56-1.1,4.81,4.81,0,0,1-.88-3.1,5.34,5.34,0,0,1,.48-2.38,3.42,3.42,0,0,1,1.34-1.47,4,4,0,0,1,2-.49,3.83,3.83,0,0,1,2,.45l-.35.7a2.87,2.87,0,0,0-1.63-.4,2.82,2.82,0,0,0-2.19.88,3.78,3.78,0,0,0-.79,2.57,5.83,5.83,0,0,0,0,.68,2.26,2.26,0,0,1,1-1.06,3.24,3.24,0,0,1,1.58-.38A3.31,3.31,0,0,1,145.44,294.44Zm-.06,3.56a1.83,1.83,0,0,0,0-2.65,2.34,2.34,0,0,0-1.55-.49,2.52,2.52,0,0,0-1.12.24,1.89,1.89,0,0,0-.76.66,1.7,1.7,0,0,0-.28.94,1.68,1.68,0,0,0,.26.89,1.9,1.9,0,0,0,.76.66,2.79,2.79,0,0,0,1.2.25A2.2,2.2,0,0,0,145.38,298Z"/><path class="cls-1" d="M150.75,298.71a3.35,3.35,0,0,1-1.19-1.48,5.64,5.64,0,0,1-.42-2.27,5.73,5.73,0,0,1,.42-2.28,3.47,3.47,0,0,1,1.19-1.48,3.21,3.21,0,0,1,3.47,0,3.39,3.39,0,0,1,1.19,1.48,5.55,5.55,0,0,1,.44,2.28,5.47,5.47,0,0,1-.44,2.27,3.28,3.28,0,0,1-1.19,1.48,3.15,3.15,0,0,1-3.47,0Zm3-.68a2.66,2.66,0,0,0,.87-1.19,5.89,5.89,0,0,0,0-3.77,2.63,2.63,0,0,0-.87-1.18,2.11,2.11,0,0,0-1.29-.41,2.07,2.07,0,0,0-1.29.41,2.49,2.49,0,0,0-.87,1.18,5.71,5.71,0,0,0,0,3.77,2.52,2.52,0,0,0,.87,1.19,2.13,2.13,0,0,0,1.29.41A2.18,2.18,0,0,0,153.78,298Z"/><path class="cls-1" d="M164.53,298.71a3.28,3.28,0,0,1-1.19-1.48,5.64,5.64,0,0,1-.43-2.27,5.72,5.72,0,0,1,.43-2.28,3.39,3.39,0,0,1,1.19-1.48,3,3,0,0,1,1.73-.51,3.06,3.06,0,0,1,1.74.51,3.54,3.54,0,0,1,1.19,1.48,5.55,5.55,0,0,1,.43,2.28,5.47,5.47,0,0,1-.43,2.27,3.42,3.42,0,0,1-1.19,1.48,3,3,0,0,1-1.74.52A3,3,0,0,1,164.53,298.71Zm3-.68a2.66,2.66,0,0,0,.87-1.19,5.89,5.89,0,0,0,0-3.77,2.63,2.63,0,0,0-.87-1.18,2.23,2.23,0,0,0-2.58,0,2.63,2.63,0,0,0-.87,1.18,5.89,5.89,0,0,0,0,3.77A2.66,2.66,0,0,0,165,298a2.23,2.23,0,0,0,2.58,0Z"/><path class="cls-1" d="M178,290.76v.61l-3.51,7.79h-.94l3.46-7.63h-4.32v1.57h-.85v-2.34Z"/><path class="cls-1" d="M183,290.76v8.4h-.87v-7.63h-2v-.77Z"/><path class="cls-1" d="M192.34,295.55a1.92,1.92,0,0,1,.43,1.27,2.1,2.1,0,0,1-.4,1.28,2.53,2.53,0,0,1-1.13.84,4.78,4.78,0,0,1-1.73.29,3.91,3.91,0,0,1-2.38-.65,2.07,2.07,0,0,1-.86-1.76,2,2,0,0,1,.41-1.28,2.54,2.54,0,0,1,1.21-.79,2.08,2.08,0,0,1-1-.72,2.06,2.06,0,0,1,.46-2.74,3.51,3.51,0,0,1,2.15-.6,4.09,4.09,0,0,1,1.55.27,2.35,2.35,0,0,1,1,.77,1.93,1.93,0,0,1,.37,1.18,1.87,1.87,0,0,1-.35,1.12,2.13,2.13,0,0,1-1,.72A2.53,2.53,0,0,1,192.34,295.55ZM191.25,298a1.52,1.52,0,0,0,0-2.46,3.59,3.59,0,0,0-3.48,0,1.43,1.43,0,0,0-.63,1.23,1.45,1.45,0,0,0,.63,1.24,2.91,2.91,0,0,0,1.74.45A2.88,2.88,0,0,0,191.25,298ZM188,294a2.48,2.48,0,0,0,1.53.41A2.52,2.52,0,0,0,191,294a1.27,1.27,0,0,0,.55-1.09,1.29,1.29,0,0,0-.57-1.11,3,3,0,0,0-3,0,1.37,1.37,0,0,0,0,2.2Z"/><path class="cls-1" d="M201.34,295.55a1.92,1.92,0,0,1,.43,1.27,2.1,2.1,0,0,1-.4,1.28,2.53,2.53,0,0,1-1.13.84,4.78,4.78,0,0,1-1.73.29,3.91,3.91,0,0,1-2.38-.65,2.07,2.07,0,0,1-.86-1.76,2,2,0,0,1,.41-1.28,2.54,2.54,0,0,1,1.21-.79,2.08,2.08,0,0,1-1-.72,2.06,2.06,0,0,1,.46-2.74,3.51,3.51,0,0,1,2.15-.6,4.09,4.09,0,0,1,1.55.27,2.35,2.35,0,0,1,1,.77,1.93,1.93,0,0,1,.37,1.18,1.87,1.87,0,0,1-.35,1.12,2.13,2.13,0,0,1-1,.72A2.53,2.53,0,0,1,201.34,295.55ZM200.25,298a1.52,1.52,0,0,0,0-2.46,3.59,3.59,0,0,0-3.48,0,1.43,1.43,0,0,0-.63,1.23,1.45,1.45,0,0,0,.63,1.24,2.91,2.91,0,0,0,1.74.45A2.88,2.88,0,0,0,200.25,298ZM197,294a2.48,2.48,0,0,0,1.53.41A2.52,2.52,0,0,0,200,294a1.27,1.27,0,0,0,.55-1.09,1.29,1.29,0,0,0-.57-1.11,3,3,0,0,0-3,0,1.37,1.37,0,0,0,0,2.2Z"/><path class="cls-1" d="M213.75,294.44a2.38,2.38,0,0,1,1,.88,2.45,2.45,0,0,1,.36,1.33,2.5,2.5,0,0,1-.37,1.36,2.48,2.48,0,0,1-1,.9,3.37,3.37,0,0,1-1.47.32,3.1,3.1,0,0,1-2.56-1.1,4.81,4.81,0,0,1-.89-3.1,5.34,5.34,0,0,1,.48-2.38,3.44,3.44,0,0,1,1.35-1.47,3.94,3.94,0,0,1,2-.49,3.81,3.81,0,0,1,2,.45l-.34.7a2.91,2.91,0,0,0-1.64-.4,2.82,2.82,0,0,0-2.18.88,3.73,3.73,0,0,0-.79,2.57c0,.2,0,.42,0,.68a2.23,2.23,0,0,1,1-1.06,3.23,3.23,0,0,1,1.57-.38A3.31,3.31,0,0,1,213.75,294.44Zm-.06,3.56a1.83,1.83,0,0,0,0-2.65,2.31,2.31,0,0,0-1.54-.49,2.49,2.49,0,0,0-1.12.24,1.82,1.82,0,0,0-.76.66,1.62,1.62,0,0,0-.28.94,1.68,1.68,0,0,0,.26.89,1.84,1.84,0,0,0,.76.66,2.79,2.79,0,0,0,1.2.25A2.17,2.17,0,0,0,213.69,298Z"/><path class="cls-1" d="M68.42,312.76l-3.72,8.4h-.88l-3.72-8.4h1l3.21,7.29,3.24-7.29Z"/><path class="cls-1" d="M74.42,315.42a2.38,2.38,0,0,1,.66,1.83v3.91h-.82v-1a1.88,1.88,0,0,1-.85.77,2.86,2.86,0,0,1-1.32.28,2.55,2.55,0,0,1-1.68-.51,1.71,1.71,0,0,1,0-2.62,2.8,2.8,0,0,1,1.85-.5h2v-.38a1.62,1.62,0,0,0-.45-1.24,1.87,1.87,0,0,0-1.33-.43,3.49,3.49,0,0,0-1.16.2,2.74,2.74,0,0,0-.94.55l-.39-.64A3.55,3.55,0,0,1,71.1,315a4.44,4.44,0,0,1,1.42-.22A2.65,2.65,0,0,1,74.42,315.42Zm-1,4.8a2,2,0,0,0,.76-1v-1h-2c-1.08,0-1.62.38-1.62,1.13a1,1,0,0,0,.42.87,1.93,1.93,0,0,0,1.18.32A2.27,2.27,0,0,0,73.46,320.22Z"/><path class="cls-1" d="M78.74,312.25h.85v8.91h-.85Z"/><path class="cls-1" d="M88.8,318.27H83.52a2.27,2.27,0,0,0,.76,1.59,2.51,2.51,0,0,0,1.73.6,2.74,2.74,0,0,0,1.08-.21,2.25,2.25,0,0,0,.85-.62l.48.56a2.68,2.68,0,0,1-1,.76,3.72,3.72,0,0,1-3.11-.15,2.92,2.92,0,0,1-1.17-1.14,3.28,3.28,0,0,1-.42-1.66,3.33,3.33,0,0,1,.4-1.65,2.9,2.9,0,0,1,1.11-1.14,3,3,0,0,1,1.57-.41,3,3,0,0,1,1.58.41,3,3,0,0,1,1.09,1.13,3.45,3.45,0,0,1,.4,1.66Zm-4.58-2.16a2.33,2.33,0,0,0-.7,1.52H88a2.33,2.33,0,0,0-.7-1.52,2.33,2.33,0,0,0-3.08,0Z"/><path class="cls-1" d="M92.12,321a3.32,3.32,0,0,1-1.1-.56l.39-.67a3.53,3.53,0,0,0,1,.51,4,4,0,0,0,1.25.19,2.39,2.39,0,0,0,1.28-.27.84.84,0,0,0,.41-.76.67.67,0,0,0-.22-.54,1.4,1.4,0,0,0-.58-.3,7,7,0,0,0-.92-.2,10.84,10.84,0,0,1-1.24-.3,1.83,1.83,0,0,1-.8-.51,1.41,1.41,0,0,1-.33-1,1.57,1.57,0,0,1,.66-1.3,3,3,0,0,1,1.84-.5A4.65,4.65,0,0,1,95,315a3.37,3.37,0,0,1,1,.43l-.37.68a3.19,3.19,0,0,0-1.86-.54,2.15,2.15,0,0,0-1.23.29.87.87,0,0,0-.42.75.74.74,0,0,0,.24.58,1.48,1.48,0,0,0,.58.32,8.23,8.23,0,0,0,1,.21,9,9,0,0,1,1.21.29,1.73,1.73,0,0,1,.78.49,1.33,1.33,0,0,1,.32,1,1.52,1.52,0,0,1-.69,1.31,3.21,3.21,0,0,1-1.91.49A5.13,5.13,0,0,1,92.12,321Z"/><path class="cls-1" d="M101.45,318,100,319.36v1.8h-.85v-8.91H100v6l3.77-3.44h1.06l-2.7,2.58,3,3.73h-1Z"/><path class="cls-1" d="M111.65,315.42a2.38,2.38,0,0,1,.66,1.83v3.91h-.81v-1a2,2,0,0,1-.85.77,2.87,2.87,0,0,1-1.33.28,2.59,2.59,0,0,1-1.68-.51,1.63,1.63,0,0,1-.62-1.33,1.59,1.59,0,0,1,.58-1.29,2.85,2.85,0,0,1,1.86-.5h2v-.38A1.59,1.59,0,0,0,111,316a1.85,1.85,0,0,0-1.33-.43,3.43,3.43,0,0,0-1.15.2,2.79,2.79,0,0,0-1,.55l-.38-.64a3.45,3.45,0,0,1,1.15-.63,4.43,4.43,0,0,1,1.41-.22A2.64,2.64,0,0,1,111.65,315.42Zm-1,4.8a2,2,0,0,0,.77-1v-1h-2c-1.08,0-1.62.38-1.62,1.13a1,1,0,0,0,.42.87,1.93,1.93,0,0,0,1.18.32A2.24,2.24,0,0,0,110.69,320.22Z"/><path class="cls-1" d="M126.55,317h.86v3.2a4,4,0,0,1-1.4.79,5,5,0,0,1-1.69.28,4.65,4.65,0,0,1-2.27-.55,4.08,4.08,0,0,1-1.58-1.53,4.42,4.42,0,0,1,0-4.38,4.08,4.08,0,0,1,1.58-1.53,4.7,4.7,0,0,1,2.29-.55,5,5,0,0,1,1.76.3,3.66,3.66,0,0,1,1.36.91l-.56.56a3.47,3.47,0,0,0-2.53-1,3.77,3.77,0,0,0-1.84.45,3.23,3.23,0,0,0-1.29,1.25,3.45,3.45,0,0,0-.47,1.78,3.42,3.42,0,0,0,.47,1.77,3.34,3.34,0,0,0,1.28,1.25,4,4,0,0,0,4-.19Z"/><path class="cls-1" d="M132,320.8a3,3,0,0,1-1.15-1.14,3.28,3.28,0,0,1-.42-1.66,3.24,3.24,0,0,1,.42-1.65,3,3,0,0,1,1.15-1.14,3.26,3.26,0,0,1,1.65-.41,3.22,3.22,0,0,1,1.64.41,2.93,2.93,0,0,1,1.15,1.14,3.34,3.34,0,0,1,.41,1.65,3.38,3.38,0,0,1-.41,1.66,2.93,2.93,0,0,1-1.15,1.14,3.23,3.23,0,0,1-1.64.42A3.27,3.27,0,0,1,132,320.8Zm2.85-.64a2.2,2.2,0,0,0,.84-.87A2.73,2.73,0,0,0,136,318a2.66,2.66,0,0,0-.3-1.28,2.07,2.07,0,0,0-.84-.87,2.28,2.28,0,0,0-1.2-.31,2.34,2.34,0,0,0-1.21.31,2.2,2.2,0,0,0-.84.87,2.66,2.66,0,0,0-.3,1.28,2.73,2.73,0,0,0,.3,1.29,2.34,2.34,0,0,0,.84.87,2.44,2.44,0,0,0,1.21.3A2.38,2.38,0,0,0,134.86,320.16Z"/><path class="cls-1" d="M145.05,315.49a2.69,2.69,0,0,1,.7,2v3.66h-.85v-3.58a2.1,2.1,0,0,0-.49-1.5,1.87,1.87,0,0,0-1.4-.51,2.19,2.19,0,0,0-1.62.6,2.32,2.32,0,0,0-.59,1.68v3.31H140v-6.31h.81V316a2.39,2.39,0,0,1,1-.89,3,3,0,0,1,1.43-.32A2.55,2.55,0,0,1,145.05,315.49Z"/><path class="cls-1" d="M153.87,320.45v.71h-5.14v-.57l4-5h-3.9v-.72h5v.56l-4,5Z"/><path class="cls-1" d="M161,315.42a2.38,2.38,0,0,1,.66,1.83v3.91h-.81v-1a1.93,1.93,0,0,1-.85.77,2.86,2.86,0,0,1-1.32.28,2.55,2.55,0,0,1-1.68-.51,1.72,1.72,0,0,1-.05-2.62,2.85,2.85,0,0,1,1.86-.5h2v-.38a1.62,1.62,0,0,0-.45-1.24,1.88,1.88,0,0,0-1.34-.43,3.43,3.43,0,0,0-1.15.2,2.79,2.79,0,0,0-1,.55l-.38-.64a3.45,3.45,0,0,1,1.15-.63,4.44,4.44,0,0,1,1.42-.22A2.63,2.63,0,0,1,161,315.42Zm-1,4.8a2,2,0,0,0,.77-1v-1h-2c-1.08,0-1.62.38-1.62,1.13a1,1,0,0,0,.42.87,1.93,1.93,0,0,0,1.18.32A2.22,2.22,0,0,0,160,320.22Zm0-7.85h1.14l-1.95,1.49h-.84Z"/><path class="cls-1" d="M165.31,312.25h.86v8.91h-.86Z"/><path class="cls-1" d="M175.38,318.27H170.1a2.27,2.27,0,0,0,.76,1.59,2.51,2.51,0,0,0,1.73.6,2.74,2.74,0,0,0,1.08-.21,2.33,2.33,0,0,0,.85-.62l.48.56A2.68,2.68,0,0,1,174,321a3.72,3.72,0,0,1-3.11-.15,2.92,2.92,0,0,1-1.17-1.14,3.28,3.28,0,0,1-.42-1.66,3.33,3.33,0,0,1,.4-1.65,2.9,2.9,0,0,1,1.11-1.14,3,3,0,0,1,1.57-.41,3,3,0,0,1,1.58.41,3,3,0,0,1,1.09,1.13,3.45,3.45,0,0,1,.39,1.66Zm-4.58-2.16a2.33,2.33,0,0,0-.7,1.52h4.48a2.33,2.33,0,0,0-.7-1.52,2.33,2.33,0,0,0-3.08,0Z"/><path class="cls-1" d="M182.87,320.45v.71h-5.14v-.57l4-5h-3.9v-.72h5v.56l-4,5Z"/><path class="cls-1" d="M73.47,342.68a4.05,4.05,0,0,1-1.57-1.53,4.49,4.49,0,0,1,0-4.38,4.05,4.05,0,0,1,1.57-1.53,4.95,4.95,0,0,1,4-.24,3.59,3.59,0,0,1,1.34.91l-.56.56a3.38,3.38,0,0,0-2.49-1,3.71,3.71,0,0,0-1.81.45,3.41,3.41,0,0,0-1.28,1.25A3.55,3.55,0,0,0,72.2,339a3.51,3.51,0,0,0,.46,1.77A3.34,3.34,0,0,0,73.94,342a3.61,3.61,0,0,0,1.81.46,3.32,3.32,0,0,0,2.49-1l.56.56a3.65,3.65,0,0,1-1.35.92,4.67,4.67,0,0,1-1.73.32A4.57,4.57,0,0,1,73.47,342.68Z"/><path class="cls-1" d="M81.66,343a.67.67,0,0,1-.18-.47.64.64,0,0,1,1.09-.46.59.59,0,0,1,.19.46.64.64,0,0,1-.19.47.64.64,0,0,1-.91,0Z"/><path class="cls-1" d="M86.1,334.76H87v8.4H86.1Z"/><path class="cls-1" d="M90.52,337.91a.6.6,0,0,1-.19-.46.63.63,0,0,1,.19-.47.61.61,0,0,1,.45-.18.63.63,0,0,1,.45.18.63.63,0,0,1,.2.47.69.69,0,0,1-.65.66A.59.59,0,0,1,90.52,337.91Zm0,5.12a.64.64,0,0,1-.19-.47.59.59,0,0,1,.19-.46.58.58,0,0,1,.45-.19.67.67,0,0,1,.65.65.65.65,0,0,1-.2.47.64.64,0,0,1-.45.19A.62.62,0,0,1,90.52,343Z"/><path class="cls-1" d="M104.43,342.39v.77H98.54v-.61l3.49-3.42a4.76,4.76,0,0,0,.9-1.13,2.18,2.18,0,0,0,.23-.95,1.41,1.41,0,0,0-.51-1.16,2.31,2.31,0,0,0-1.46-.41,2.88,2.88,0,0,0-2.29.93l-.61-.52a3.17,3.17,0,0,1,1.25-.89,4.47,4.47,0,0,1,1.72-.31,3.18,3.18,0,0,1,2,.6,2,2,0,0,1,.75,1.66,2.86,2.86,0,0,1-.29,1.25,5.3,5.3,0,0,1-1.09,1.38l-2.86,2.81Z"/><path class="cls-1" d="M113.72,341H112v2.21h-.86V341h-4.74v-.62l4.45-5.57h1l-4.3,5.42h3.65v-1.94H112v1.94h1.68Z"/><path class="cls-1" d="M116.29,343a.67.67,0,0,1-.18-.47.64.64,0,0,1,1.09-.46.59.59,0,0,1,.19.46.64.64,0,0,1-.19.47.64.64,0,0,1-.91,0Z"/><path class="cls-1" d="M124.85,338.86a2.16,2.16,0,0,1,.83,1.83,2.47,2.47,0,0,1-.34,1.3,2.33,2.33,0,0,1-1,.91,3.87,3.87,0,0,1-1.68.33,5.12,5.12,0,0,1-1.71-.29,3.58,3.58,0,0,1-1.31-.79l.42-.68a3.2,3.2,0,0,0,1.11.7,4,4,0,0,0,1.47.27,2.5,2.5,0,0,0,1.62-.47,1.66,1.66,0,0,0-.07-2.56A4,4,0,0,0,122,339h-1.79l.43-4.21h4.6v.77H121.4l-.29,2.67h1.08A4.3,4.3,0,0,1,124.85,338.86Z"/><path class="cls-1" d="M133.07,338.44a2.38,2.38,0,0,1,1,.88,2.45,2.45,0,0,1,.36,1.33,2.5,2.5,0,0,1-.37,1.36,2.44,2.44,0,0,1-1,.9,3.31,3.31,0,0,1-1.47.32,3.09,3.09,0,0,1-2.55-1.1,4.81,4.81,0,0,1-.89-3.1,5.34,5.34,0,0,1,.48-2.38,3.48,3.48,0,0,1,1.34-1.47,4,4,0,0,1,2-.49,3.81,3.81,0,0,1,2,.45l-.35.7a2.87,2.87,0,0,0-1.63-.4,2.8,2.8,0,0,0-2.18.88,3.73,3.73,0,0,0-.79,2.57c0,.2,0,.42,0,.68a2.23,2.23,0,0,1,1-1.06,3.2,3.2,0,0,1,1.57-.38A3.31,3.31,0,0,1,133.07,338.44ZM133,342a1.83,1.83,0,0,0,0-2.65,2.31,2.31,0,0,0-1.54-.49,2.46,2.46,0,0,0-1.12.24,1.91,1.91,0,0,0-.77.66,1.69,1.69,0,0,0-.27.94,1.59,1.59,0,0,0,.26.89,1.84,1.84,0,0,0,.76.66,2.73,2.73,0,0,0,1.2.25A2.17,2.17,0,0,0,133,342Z"/><path class="cls-1" d="M138.39,342.71a3.28,3.28,0,0,1-1.19-1.48,5.47,5.47,0,0,1-.43-2.27,5.55,5.55,0,0,1,.43-2.28,3.39,3.39,0,0,1,1.19-1.48,3.19,3.19,0,0,1,3.46,0,3.49,3.49,0,0,1,1.2,1.48,5.55,5.55,0,0,1,.43,2.28,5.47,5.47,0,0,1-.43,2.27,3.37,3.37,0,0,1-1.2,1.48,3.14,3.14,0,0,1-3.46,0Zm3-.68a2.66,2.66,0,0,0,.87-1.19,5.89,5.89,0,0,0,0-3.77,2.63,2.63,0,0,0-.87-1.18,2.23,2.23,0,0,0-2.58,0,2.63,2.63,0,0,0-.87,1.18,5.89,5.89,0,0,0,0,3.77,2.66,2.66,0,0,0,.87,1.19,2.23,2.23,0,0,0,2.58,0Z"/><path class="cls-1" d="M146.13,343a.64.64,0,0,1-.19-.47.59.59,0,0,1,.19-.46.58.58,0,0,1,.45-.19.61.61,0,0,1,.45.19.59.59,0,0,1,.19.46.64.64,0,0,1-.19.47.65.65,0,0,1-.45.19A.62.62,0,0,1,146.13,343Z"/><path class="cls-1" d="M155,335.78a4.86,4.86,0,0,1,.89,3.11,5.33,5.33,0,0,1-.48,2.37,3.33,3.33,0,0,1-1.35,1.47,4,4,0,0,1-2,.5,3.75,3.75,0,0,1-2-.46l.35-.69a3,3,0,0,0,1.63.39,2.79,2.79,0,0,0,2.19-.88A3.7,3.7,0,0,0,155,339a5.49,5.49,0,0,0,0-.68,2.26,2.26,0,0,1-1,1.06,3.48,3.48,0,0,1-3,.06,2.34,2.34,0,0,1-1-.88,2.42,2.42,0,0,1-.36-1.32,2.46,2.46,0,0,1,.38-1.36,2.51,2.51,0,0,1,1-.91,3.37,3.37,0,0,1,1.47-.31A3.11,3.11,0,0,1,155,335.78Zm-1.34,3a1.89,1.89,0,0,0,.76-.66,1.62,1.62,0,0,0,.28-.93,1.65,1.65,0,0,0-.26-.89,1.9,1.9,0,0,0-.76-.66,2.65,2.65,0,0,0-1.2-.25,2.12,2.12,0,0,0-1.48.5,1.81,1.81,0,0,0,0,2.64,2.26,2.26,0,0,0,1.54.49A2.49,2.49,0,0,0,153.65,338.81Z"/><path class="cls-1" d="M164.3,334.76v.61l-3.52,7.79h-.93l3.45-7.63H159v1.57h-.85v-2.34Z"/><path class="cls-1" d="M171.42,338.86a2.17,2.17,0,0,1,.84,1.83,2.48,2.48,0,0,1-.35,1.3,2.27,2.27,0,0,1-1,.91,3.87,3.87,0,0,1-1.68.33,5.12,5.12,0,0,1-1.71-.29,3.45,3.45,0,0,1-1.3-.79l.42-.68a3.15,3.15,0,0,0,1.1.7,4,4,0,0,0,1.48.27,2.49,2.49,0,0,0,1.61-.47,1.53,1.53,0,0,0,.57-1.25,1.5,1.5,0,0,0-.64-1.31,4,4,0,0,0-2.17-.44h-1.79l.44-4.21h4.59v.77H168l-.29,2.67h1.08A4.28,4.28,0,0,1,171.42,338.86Z"/><path class="cls-1" d="M79.87,364.71a3.28,3.28,0,0,1-1.19-1.48,5.64,5.64,0,0,1-.43-2.27,5.72,5.72,0,0,1,.43-2.28,3.39,3.39,0,0,1,1.19-1.48,3.21,3.21,0,0,1,3.47,0,3.54,3.54,0,0,1,1.19,1.48A5.55,5.55,0,0,1,85,361a5.47,5.47,0,0,1-.43,2.27,3.42,3.42,0,0,1-1.19,1.48,3.15,3.15,0,0,1-3.47,0Zm3-.68a2.59,2.59,0,0,0,.87-1.19,5.71,5.71,0,0,0,0-3.77,2.56,2.56,0,0,0-.87-1.18,2.07,2.07,0,0,0-1.29-.41,2.11,2.11,0,0,0-1.29.41,2.63,2.63,0,0,0-.87,1.18,5.89,5.89,0,0,0,0,3.77,2.66,2.66,0,0,0,.87,1.19,2.18,2.18,0,0,0,1.29.41A2.13,2.13,0,0,0,82.89,364Z"/><path class="cls-1" d="M94.68,363H93v2.21h-.86V363H87.4v-.62l4.45-5.57h1l-4.3,5.42h3.65v-1.94H93v1.94h1.68Z"/><path class="cls-1" d="M102.51,364.39v.77H96.62v-.61l3.49-3.42A4.67,4.67,0,0,0,101,360a2,2,0,0,0,.23-.95,1.38,1.38,0,0,0-.51-1.16,2.28,2.28,0,0,0-1.45-.41,2.91,2.91,0,0,0-2.3.93l-.61-.52a3.21,3.21,0,0,1,1.26-.89,4.47,4.47,0,0,1,1.72-.31,3.17,3.17,0,0,1,2,.6,2,2,0,0,1,.75,1.66,2.85,2.85,0,0,1-.28,1.25,5.38,5.38,0,0,1-1.1,1.38l-2.85,2.81Z"/><path class="cls-1" d="M109.83,360.44a2.47,2.47,0,0,1,1,.88,2.54,2.54,0,0,1,.35,1.33,2.5,2.5,0,0,1-.37,1.36,2.48,2.48,0,0,1-1,.9,3.37,3.37,0,0,1-1.47.32,3.1,3.1,0,0,1-2.56-1.1,4.81,4.81,0,0,1-.89-3.1,5.34,5.34,0,0,1,.48-2.38,3.44,3.44,0,0,1,1.35-1.47,4,4,0,0,1,2-.49,3.81,3.81,0,0,1,2,.45l-.34.7a2.91,2.91,0,0,0-1.64-.4,2.82,2.82,0,0,0-2.18.88,3.73,3.73,0,0,0-.79,2.57c0,.2,0,.42,0,.68a2.28,2.28,0,0,1,1-1.06,3.23,3.23,0,0,1,1.57-.38A3.28,3.28,0,0,1,109.83,360.44Zm-.06,3.56a1.83,1.83,0,0,0,0-2.65,2.31,2.31,0,0,0-1.54-.49,2.49,2.49,0,0,0-1.12.24,1.82,1.82,0,0,0-.76.66,1.62,1.62,0,0,0-.28.94,1.68,1.68,0,0,0,.26.89,1.84,1.84,0,0,0,.76.66,2.79,2.79,0,0,0,1.2.25A2.17,2.17,0,0,0,109.77,364Z"/><path class="cls-1" d="M118.4,360.86a2.16,2.16,0,0,1,.83,1.83,2.47,2.47,0,0,1-.34,1.3,2.27,2.27,0,0,1-1,.91,3.87,3.87,0,0,1-1.68.33,5.12,5.12,0,0,1-1.71-.29,3.58,3.58,0,0,1-1.31-.79l.42-.68a3.3,3.3,0,0,0,1.11.7,4,4,0,0,0,1.47.27,2.5,2.5,0,0,0,1.62-.47,1.66,1.66,0,0,0-.07-2.56,4,4,0,0,0-2.17-.44h-1.79l.43-4.21h4.6v.77H115l-.29,2.67h1.08A4.3,4.3,0,0,1,118.4,360.86Z"/><path class="cls-1" d="M124,356.76v8.4h-.87v-7.63h-2v-.77Z"/><path class="cls-1" d="M134.49,363h-1.68v2.21h-.87V363H127.2v-.62l4.45-5.57h1l-4.29,5.42H132v-1.94h.84v1.94h1.68Z"/><path class="cls-1" d="M138.65,356.76v8.4h-.86v-7.63h-2v-.77Z"/><path class="cls-1" d="M147.73,364.39v.77h-5.89v-.61l3.49-3.42a4.76,4.76,0,0,0,.9-1.13,2.18,2.18,0,0,0,.23-.95,1.41,1.41,0,0,0-.51-1.16,2.29,2.29,0,0,0-1.46-.41,2.9,2.9,0,0,0-2.29.93l-.61-.52a3.25,3.25,0,0,1,1.25-.89,4.52,4.52,0,0,1,1.73-.31,3.17,3.17,0,0,1,2,.6,2,2,0,0,1,.75,1.66,2.86,2.86,0,0,1-.29,1.25,5.1,5.1,0,0,1-1.09,1.38l-2.86,2.81Z"/><path class="cls-1" d="M155.06,360.44a2.38,2.38,0,0,1,1,.88,2.45,2.45,0,0,1,.36,1.33,2.5,2.5,0,0,1-.37,1.36,2.44,2.44,0,0,1-1,.9,3.31,3.31,0,0,1-1.47.32,3.09,3.09,0,0,1-2.55-1.1,4.81,4.81,0,0,1-.89-3.1,5.34,5.34,0,0,1,.48-2.38,3.48,3.48,0,0,1,1.34-1.47,4,4,0,0,1,2-.49,3.81,3.81,0,0,1,2,.45l-.35.7a2.87,2.87,0,0,0-1.63-.4,2.8,2.8,0,0,0-2.18.88,3.73,3.73,0,0,0-.79,2.57c0,.2,0,.42,0,.68a2.23,2.23,0,0,1,1-1.06,3.2,3.2,0,0,1,1.57-.38A3.31,3.31,0,0,1,155.06,360.44ZM155,364a1.83,1.83,0,0,0,0-2.65,2.31,2.31,0,0,0-1.54-.49,2.46,2.46,0,0,0-1.12.24,1.91,1.91,0,0,0-.77.66,1.69,1.69,0,0,0-.27.94,1.59,1.59,0,0,0,.26.89,1.84,1.84,0,0,0,.76.66,2.73,2.73,0,0,0,1.2.25A2.17,2.17,0,0,0,155,364Z"/><path class="cls-1" d="M164.79,361.55a1.92,1.92,0,0,1,.43,1.27,2.1,2.1,0,0,1-.4,1.28,2.53,2.53,0,0,1-1.13.84,4.8,4.8,0,0,1-1.74.29,3.88,3.88,0,0,1-2.37-.65,2.08,2.08,0,0,1-.87-1.76,2,2,0,0,1,.42-1.28,2.51,2.51,0,0,1,1.2-.79,2.05,2.05,0,0,1-1-.72,2,2,0,0,1,.46-2.74,3.48,3.48,0,0,1,2.14-.6,4.14,4.14,0,0,1,1.56.27,2.35,2.35,0,0,1,1,.77,2,2,0,0,1,.37,1.18,1.87,1.87,0,0,1-.35,1.12,2.11,2.11,0,0,1-1,.72A2.51,2.51,0,0,1,164.79,361.55ZM163.7,364a1.52,1.52,0,0,0,0-2.46,3.59,3.59,0,0,0-3.48,0,1.43,1.43,0,0,0-.63,1.23,1.46,1.46,0,0,0,.62,1.24,3,3,0,0,0,1.74.45A2.89,2.89,0,0,0,163.7,364Zm-3.27-4a3,3,0,0,0,3,0,1.26,1.26,0,0,0,.56-1.09,1.29,1.29,0,0,0-.57-1.11,2.49,2.49,0,0,0-1.52-.41,2.44,2.44,0,0,0-1.51.41,1.28,1.28,0,0,0-.56,1.1A1.29,1.29,0,0,0,160.43,360Z"/><path class="cls-1" d="M96.64,397.73a2.19,2.19,0,0,1,.76,1.77,2.15,2.15,0,0,1-.76,1.75,3.17,3.17,0,0,1-2.1.63H92.66v2.21h-.74v-7h2.62A3.17,3.17,0,0,1,96.64,397.73Zm-.53,3a1.55,1.55,0,0,0,.55-1.28,1.59,1.59,0,0,0-.55-1.31,2.43,2.43,0,0,0-1.59-.46H92.66v3.5h1.86A2.43,2.43,0,0,0,96.11,400.78Z"/><path class="cls-1" d="M101.27,399.06a2.53,2.53,0,0,1,1.22-.27v.69h-.17a1.69,1.69,0,0,0-1.3.51,2.08,2.08,0,0,0-.47,1.44v2.67h-.71v-5.26h.68v1A1.81,1.81,0,0,1,101.27,399.06Z"/><path class="cls-1" d="M105.62,403.8a2.6,2.6,0,0,1-1-1,2.72,2.72,0,0,1-.35-1.38,2.77,2.77,0,0,1,.35-1.38,2.65,2.65,0,0,1,1-.95,2.87,2.87,0,0,1,1.37-.34,2.81,2.81,0,0,1,1.37.34,2.5,2.5,0,0,1,1,.95,2.77,2.77,0,0,1,.34,1.38,2.72,2.72,0,0,1-.34,1.38,2.46,2.46,0,0,1-1,1,2.7,2.7,0,0,1-1.37.34A2.76,2.76,0,0,1,105.62,403.8Zm2.38-.54a1.71,1.71,0,0,0,.69-.72,2.26,2.26,0,0,0,.25-1.08,2.22,2.22,0,0,0-.25-1.07,1.71,1.71,0,0,0-.69-.72,2.15,2.15,0,0,0-2,0,1.8,1.8,0,0,0-.7.72,2.23,2.23,0,0,0-.26,1.07,2.27,2.27,0,0,0,.26,1.08,1.8,1.8,0,0,0,.7.72,2.15,2.15,0,0,0,2,0Z"/><path class="cls-1" d="M116.5,398.83l-2.34,5.26h-.73l-2.33-5.26h.74l2,4.48,2-4.48Z"/><path class="cls-1" d="M118.61,397.54a.53.53,0,0,1-.15-.37.45.45,0,0,1,.15-.34.49.49,0,0,1,.37-.16.5.5,0,0,1,.37.15.47.47,0,0,1,.15.35.5.5,0,0,1-.52.51A.55.55,0,0,1,118.61,397.54Zm0,1.29h.71v5.26h-.71Z"/><path class="cls-1" d="M126.69,399.37a2.23,2.23,0,0,1,.58,1.67v3h-.71v-3a1.73,1.73,0,0,0-.41-1.25,1.56,1.56,0,0,0-1.17-.43,1.79,1.79,0,0,0-1.34.51,1.91,1.91,0,0,0-.5,1.39v2.76h-.71v-5.26h.68v1a2.07,2.07,0,0,1,.81-.74,2.52,2.52,0,0,1,1.19-.27A2.18,2.18,0,0,1,126.69,399.37Z"/><path class="cls-1" d="M131.13,403.8a2.46,2.46,0,0,1-1-.95,2.92,2.92,0,0,1,0-2.77,2.6,2.6,0,0,1,1-.95,2.89,2.89,0,0,1,1.39-.34,2.67,2.67,0,0,1,1.22.27,2,2,0,0,1,.84.77l-.53.36a1.6,1.6,0,0,0-.66-.58,1.92,1.92,0,0,0-.87-.19,2,2,0,0,0-1,.25,1.82,1.82,0,0,0-.71.72,2.35,2.35,0,0,0,0,2.15,1.82,1.82,0,0,0,.71.72,2,2,0,0,0,1,.25,2.05,2.05,0,0,0,.87-.18,1.68,1.68,0,0,0,.66-.58l.53.35a2,2,0,0,1-.85.78,2.65,2.65,0,0,1-1.21.26A2.78,2.78,0,0,1,131.13,403.8Z"/><path class="cls-1" d="M137.08,397.54a.53.53,0,0,1-.15-.37.45.45,0,0,1,.15-.34.49.49,0,0,1,.37-.16.5.5,0,0,1,.37.15.47.47,0,0,1,.15.35.5.5,0,0,1-.52.51A.55.55,0,0,1,137.08,397.54Zm0,1.29h.71v5.26h-.71Z"/><path class="cls-1" d="M144.32,399.31a2,2,0,0,1,.55,1.52v3.26h-.68v-.82a1.64,1.64,0,0,1-.7.65,2.53,2.53,0,0,1-1.11.22,2.18,2.18,0,0,1-1.4-.42,1.36,1.36,0,0,1-.52-1.11,1.34,1.34,0,0,1,.49-1.07,2.32,2.32,0,0,1,1.54-.42h1.67v-.32a1.32,1.32,0,0,0-.38-1,1.54,1.54,0,0,0-1.11-.35,2.85,2.85,0,0,0-1,.16,2.38,2.38,0,0,0-.79.46l-.32-.54a3,3,0,0,1,1-.52,3.89,3.89,0,0,1,1.18-.19A2.23,2.23,0,0,1,144.32,399.31Zm-.8,4a1.61,1.61,0,0,0,.64-.8v-.86h-1.65c-.9,0-1.35.32-1.35.94a.88.88,0,0,0,.35.73,1.58,1.58,0,0,0,1,.26A1.88,1.88,0,0,0,143.52,403.31Z"/><path class="cls-1" d="M147.92,396.67h.71v7.42h-.71Z"/><path class="cls-1" d="M151.43,399.72a.53.53,0,0,1-.16-.39.53.53,0,0,1,.16-.38.52.52,0,0,1,.37-.16.53.53,0,0,1,.38.16.49.49,0,0,1,.16.38.5.5,0,0,1-.16.39.49.49,0,0,1-.38.16A.49.49,0,0,1,151.43,399.72Zm0,4.26a.53.53,0,0,1-.16-.39.53.53,0,0,1,.16-.38.52.52,0,0,1,.37-.16.53.53,0,0,1,.38.16.49.49,0,0,1,.16.38.5.5,0,0,1-.16.39.49.49,0,0,1-.38.16A.49.49,0,0,1,151.43,404Z"/><path class="cls-1" d="M30.26,426.37a3.35,3.35,0,0,1-1.19-1.48,5.64,5.64,0,0,1-.42-2.27,5.73,5.73,0,0,1,.42-2.28,3.47,3.47,0,0,1,1.19-1.48,3.21,3.21,0,0,1,3.47,0,3.39,3.39,0,0,1,1.19,1.48,5.55,5.55,0,0,1,.44,2.28,5.47,5.47,0,0,1-.44,2.27,3.28,3.28,0,0,1-1.19,1.48,3.15,3.15,0,0,1-3.47,0Zm3-.68a2.66,2.66,0,0,0,.87-1.19,5.89,5.89,0,0,0,0-3.77,2.63,2.63,0,0,0-.87-1.18,2.11,2.11,0,0,0-1.29-.41,2.07,2.07,0,0,0-1.29.41,2.49,2.49,0,0,0-.87,1.18,5.71,5.71,0,0,0,0,3.77,2.52,2.52,0,0,0,.87,1.19,2.13,2.13,0,0,0,1.29.41A2.18,2.18,0,0,0,33.29,425.69Z"/><path class="cls-1" d="M40.24,418.42v8.4h-.86v-7.63h-2v-.77Z"/><path class="cls-1" d="M45.2,426.37A3.35,3.35,0,0,1,44,424.89a5.64,5.64,0,0,1-.42-2.27,5.73,5.73,0,0,1,.42-2.28,3.47,3.47,0,0,1,1.19-1.48,3.21,3.21,0,0,1,3.47,0,3.39,3.39,0,0,1,1.19,1.48,5.55,5.55,0,0,1,.44,2.28,5.47,5.47,0,0,1-.44,2.27,3.28,3.28,0,0,1-1.19,1.48,3.15,3.15,0,0,1-3.47,0Zm3-.68a2.66,2.66,0,0,0,.87-1.19,5.89,5.89,0,0,0,0-3.77,2.63,2.63,0,0,0-.87-1.18,2.11,2.11,0,0,0-1.29-.41,2.07,2.07,0,0,0-1.29.41,2.49,2.49,0,0,0-.87,1.18,5.71,5.71,0,0,0,0,3.77,2.52,2.52,0,0,0,.87,1.19,2.13,2.13,0,0,0,1.29.41A2.18,2.18,0,0,0,48.23,425.69Z"/><path class="cls-1" d="M58.91,423.21a2,2,0,0,1,.42,1.27,2.16,2.16,0,0,1-.39,1.28,2.62,2.62,0,0,1-1.14.84,4.78,4.78,0,0,1-1.73.29,3.91,3.91,0,0,1-2.38-.65,2.09,2.09,0,0,1-.86-1.76,2,2,0,0,1,.41-1.28,2.54,2.54,0,0,1,1.21-.79,2.13,2.13,0,0,1-1-.72,2,2,0,0,1,.47-2.74,3.46,3.46,0,0,1,2.14-.6,4.09,4.09,0,0,1,1.55.27,2.3,2.3,0,0,1,1,.77,1.93,1.93,0,0,1,.37,1.18,1.8,1.8,0,0,1-.35,1.12,2.13,2.13,0,0,1-1,.72A2.56,2.56,0,0,1,58.91,423.21Zm-1.1,2.49a1.52,1.52,0,0,0,0-2.46,3.59,3.59,0,0,0-3.48,0,1.43,1.43,0,0,0-.63,1.23,1.45,1.45,0,0,0,.63,1.24,2.91,2.91,0,0,0,1.74.45A2.88,2.88,0,0,0,57.81,425.7Zm-3.27-4a3.06,3.06,0,0,0,3.06,0,1.35,1.35,0,0,0,0-2.2,2.51,2.51,0,0,0-1.52-.41,2.47,2.47,0,0,0-1.52.41,1.3,1.3,0,0,0-.56,1.1A1.32,1.32,0,0,0,54.54,421.69Z"/><path class="cls-1" d="M68,426.37a3.28,3.28,0,0,1-1.19-1.48,5.47,5.47,0,0,1-.43-2.27,5.55,5.55,0,0,1,.43-2.28A3.39,3.39,0,0,1,68,418.86a3,3,0,0,1,1.73-.51,3.06,3.06,0,0,1,1.74.51,3.54,3.54,0,0,1,1.19,1.48,5.55,5.55,0,0,1,.43,2.28,5.47,5.47,0,0,1-.43,2.27,3.42,3.42,0,0,1-1.19,1.48,3,3,0,0,1-1.74.52A3,3,0,0,1,68,426.37Zm3-.68a2.66,2.66,0,0,0,.87-1.19,5.89,5.89,0,0,0,0-3.77,2.63,2.63,0,0,0-.87-1.18,2.23,2.23,0,0,0-2.58,0,2.63,2.63,0,0,0-.87,1.18,5.89,5.89,0,0,0,0,3.77,2.66,2.66,0,0,0,.87,1.19,2.23,2.23,0,0,0,2.58,0Z"/><path class="cls-1" d="M77.27,426.37a3.28,3.28,0,0,1-1.19-1.48,5.47,5.47,0,0,1-.43-2.27,5.55,5.55,0,0,1,.43-2.28,3.39,3.39,0,0,1,1.19-1.48,3.19,3.19,0,0,1,3.46,0,3.49,3.49,0,0,1,1.2,1.48,5.72,5.72,0,0,1,.43,2.28,5.64,5.64,0,0,1-.43,2.27,3.37,3.37,0,0,1-1.2,1.48,3.14,3.14,0,0,1-3.46,0Zm3-.68a2.66,2.66,0,0,0,.87-1.19,5.89,5.89,0,0,0,0-3.77,2.63,2.63,0,0,0-.87-1.18,2.23,2.23,0,0,0-2.58,0,2.63,2.63,0,0,0-.87,1.18,5.89,5.89,0,0,0,0,3.77,2.66,2.66,0,0,0,.87,1.19,2.23,2.23,0,0,0,2.58,0Z"/><path class="cls-1" d="M91,423.21a2,2,0,0,1,.43,1.27,2.16,2.16,0,0,1-.4,1.28,2.59,2.59,0,0,1-1.13.84,4.88,4.88,0,0,1-1.74.29,3.91,3.91,0,0,1-2.38-.65,2.09,2.09,0,0,1-.86-1.76,2,2,0,0,1,.41-1.28,2.54,2.54,0,0,1,1.21-.79,2.05,2.05,0,0,1-1-.72,1.86,1.86,0,0,1-.34-1.12A1.93,1.93,0,0,1,86,419a3.46,3.46,0,0,1,2.14-.6,4.18,4.18,0,0,1,1.56.27,2.32,2.32,0,0,1,1,.77,1.93,1.93,0,0,1,.37,1.18,1.86,1.86,0,0,1-.34,1.12,2.21,2.21,0,0,1-1,.72A2.56,2.56,0,0,1,91,423.21Zm-1.09,2.49a1.52,1.52,0,0,0,0-2.46,3,3,0,0,0-1.75-.45,2.91,2.91,0,0,0-1.73.45,1.53,1.53,0,0,0,0,2.47,3,3,0,0,0,1.74.45A2.89,2.89,0,0,0,89.88,425.7Zm-3.27-4a2.43,2.43,0,0,0,1.52.41,2.48,2.48,0,0,0,1.53-.41,1.35,1.35,0,0,0,0-2.2,2.51,2.51,0,0,0-1.52-.41,2.47,2.47,0,0,0-1.52.41,1.36,1.36,0,0,0,0,2.2Z"/><path class="cls-1" d="M100,423.21a2,2,0,0,1,.42,1.27,2.16,2.16,0,0,1-.39,1.28,2.56,2.56,0,0,1-1.14.84,4.78,4.78,0,0,1-1.73.29,3.91,3.91,0,0,1-2.38-.65,2.09,2.09,0,0,1-.86-1.76,2,2,0,0,1,.41-1.28,2.54,2.54,0,0,1,1.21-.79,2.05,2.05,0,0,1-1-.72,1.86,1.86,0,0,1-.34-1.12A1.93,1.93,0,0,1,95,419a3.46,3.46,0,0,1,2.14-.6,4.09,4.09,0,0,1,1.55.27,2.3,2.3,0,0,1,1,.77,1.93,1.93,0,0,1,.37,1.18,1.86,1.86,0,0,1-.34,1.12,2.21,2.21,0,0,1-1,.72A2.56,2.56,0,0,1,100,423.21Zm-1.09,2.49a1.52,1.52,0,0,0,0-2.46,3,3,0,0,0-1.75-.45,2.91,2.91,0,0,0-1.73.45,1.53,1.53,0,0,0,0,2.47,3,3,0,0,0,1.74.45A2.89,2.89,0,0,0,98.88,425.7Zm-3.27-4a2.43,2.43,0,0,0,1.52.41,2.48,2.48,0,0,0,1.53-.41,1.35,1.35,0,0,0,0-2.2,2.51,2.51,0,0,0-1.52-.41,2.47,2.47,0,0,0-1.52.41,1.36,1.36,0,0,0,0,2.2Z"/><path class="cls-1" d="M112.6,419.44a4.86,4.86,0,0,1,.89,3.11,5.33,5.33,0,0,1-.48,2.37,3.33,3.33,0,0,1-1.35,1.47,4,4,0,0,1-2,.5,3.75,3.75,0,0,1-2-.46l.35-.69a3,3,0,0,0,1.63.39,2.79,2.79,0,0,0,2.19-.88,3.7,3.7,0,0,0,.79-2.56,5.49,5.49,0,0,0,0-.68,2.26,2.26,0,0,1-1,1.06,3.48,3.48,0,0,1-3,.06,2.34,2.34,0,0,1-1-.88,2.42,2.42,0,0,1-.36-1.32,2.46,2.46,0,0,1,.38-1.36,2.51,2.51,0,0,1,1-.91,3.37,3.37,0,0,1,1.47-.31A3.11,3.11,0,0,1,112.6,419.44Zm-1.34,3a1.89,1.89,0,0,0,.76-.66,1.62,1.62,0,0,0,.28-.93A1.65,1.65,0,0,0,112,420a1.9,1.9,0,0,0-.76-.66,2.65,2.65,0,0,0-1.2-.25,2.12,2.12,0,0,0-1.48.5,1.81,1.81,0,0,0,0,2.64,2.26,2.26,0,0,0,1.54.49A2.49,2.49,0,0,0,111.26,422.47Z"/><path class="cls-1" d="M120.82,422.73a2.19,2.19,0,0,1,.69,1.68,2.34,2.34,0,0,1-.34,1.27,2.41,2.41,0,0,1-1,.89,3.93,3.93,0,0,1-1.66.32,5.19,5.19,0,0,1-1.73-.29,3.53,3.53,0,0,1-1.3-.79l.42-.68a3.16,3.16,0,0,0,1.12.7,4.07,4.07,0,0,0,1.49.27,2.49,2.49,0,0,0,1.59-.45,1.5,1.5,0,0,0,.57-1.24,1.48,1.48,0,0,0-.57-1.23,2.74,2.74,0,0,0-1.7-.44h-.6v-.64l2.33-2.91h-4.3v-.77h5.4V419l-2.38,3A3.11,3.11,0,0,1,120.82,422.73Z"/><path class="cls-1" d="M125.68,426.37a3.33,3.33,0,0,1-1.18-1.48,5.47,5.47,0,0,1-.43-2.27,5.55,5.55,0,0,1,.43-2.28,3.45,3.45,0,0,1,1.18-1.48,3.06,3.06,0,0,1,1.74-.51,3,3,0,0,1,1.73.51,3.49,3.49,0,0,1,1.2,1.48,5.72,5.72,0,0,1,.43,2.28,5.64,5.64,0,0,1-.43,2.27,3.37,3.37,0,0,1-1.2,1.48,3,3,0,0,1-1.73.52A3,3,0,0,1,125.68,426.37Zm3-.68a2.66,2.66,0,0,0,.87-1.19,5.89,5.89,0,0,0,0-3.77,2.63,2.63,0,0,0-.87-1.18,2.23,2.23,0,0,0-2.58,0,2.63,2.63,0,0,0-.87,1.18,5.89,5.89,0,0,0,0,3.77,2.66,2.66,0,0,0,.87,1.19,2.23,2.23,0,0,0,2.58,0Z"/><path class="cls-1" d="M135.66,418.42v8.4h-.86v-7.63h-2v-.77Z"/><path class="cls-1" d="M140.62,426.37a3.33,3.33,0,0,1-1.18-1.48,5.47,5.47,0,0,1-.43-2.27,5.55,5.55,0,0,1,.43-2.28,3.45,3.45,0,0,1,1.18-1.48,3.06,3.06,0,0,1,1.74-.51,3,3,0,0,1,1.73.51,3.49,3.49,0,0,1,1.2,1.48,5.72,5.72,0,0,1,.43,2.28,5.64,5.64,0,0,1-.43,2.27,3.37,3.37,0,0,1-1.2,1.48,3,3,0,0,1-1.73.52A3,3,0,0,1,140.62,426.37Zm3-.68a2.66,2.66,0,0,0,.87-1.19,5.89,5.89,0,0,0,0-3.77,2.63,2.63,0,0,0-.87-1.18,2.23,2.23,0,0,0-2.58,0,2.63,2.63,0,0,0-.87,1.18,5.89,5.89,0,0,0,0,3.77,2.66,2.66,0,0,0,.87,1.19,2.23,2.23,0,0,0,2.58,0Z"/><path class="cls-1" d="M149.91,426.37a3.35,3.35,0,0,1-1.19-1.48,5.64,5.64,0,0,1-.42-2.27,5.73,5.73,0,0,1,.42-2.28,3.47,3.47,0,0,1,1.19-1.48,3.21,3.21,0,0,1,3.47,0,3.39,3.39,0,0,1,1.19,1.48,5.55,5.55,0,0,1,.44,2.28,5.47,5.47,0,0,1-.44,2.27,3.28,3.28,0,0,1-1.19,1.48,3.15,3.15,0,0,1-3.47,0Zm3-.68a2.66,2.66,0,0,0,.87-1.19,5.89,5.89,0,0,0,0-3.77,2.63,2.63,0,0,0-.87-1.18,2.11,2.11,0,0,0-1.29-.41,2.07,2.07,0,0,0-1.29.41,2.49,2.49,0,0,0-.87,1.18,5.71,5.71,0,0,0,0,3.77,2.52,2.52,0,0,0,.87,1.19,2.13,2.13,0,0,0,1.29.41A2.18,2.18,0,0,0,152.94,425.69Z"/><path class="cls-1" d="M166.94,422.52a2.16,2.16,0,0,1,.83,1.83,2.47,2.47,0,0,1-.34,1.3,2.33,2.33,0,0,1-1,.91,3.87,3.87,0,0,1-1.68.33,5.12,5.12,0,0,1-1.71-.29,3.58,3.58,0,0,1-1.31-.79l.42-.68a3.2,3.2,0,0,0,1.11.7,4,4,0,0,0,1.47.27,2.5,2.5,0,0,0,1.62-.47,1.66,1.66,0,0,0-.07-2.56,4,4,0,0,0-2.17-.44H162.3l.43-4.21h4.6v.77h-3.84l-.29,2.67h1.08A4.3,4.3,0,0,1,166.94,422.52Z"/><path class="cls-1" d="M175,422.73a2.19,2.19,0,0,1,.69,1.68,2.35,2.35,0,0,1-.35,1.27,2.38,2.38,0,0,1-1,.89,4,4,0,0,1-1.67.32,5.13,5.13,0,0,1-1.72-.29,3.58,3.58,0,0,1-1.31-.79l.42-.68a3.25,3.25,0,0,0,1.12.7,4.07,4.07,0,0,0,1.49.27,2.47,2.47,0,0,0,1.59-.45,1.5,1.5,0,0,0,.57-1.24,1.48,1.48,0,0,0-.57-1.23,2.74,2.74,0,0,0-1.7-.44H172v-.64l2.33-2.91H170v-.77h5.4V419L173,422A3.11,3.11,0,0,1,175,422.73Z"/><path class="cls-1" d="M185.4,424.61h-1.68v2.21h-.86v-2.21h-4.74V424l4.45-5.57h1l-4.3,5.42h3.65V421.9h.84v1.94h1.68Z"/><path class="cls-1" d="M192.61,419.44a4.8,4.8,0,0,1,.89,3.11,5.33,5.33,0,0,1-.48,2.37,3.37,3.37,0,0,1-1.34,1.47,4,4,0,0,1-2,.5,3.74,3.74,0,0,1-2-.46l.35-.69a3,3,0,0,0,1.63.39,2.75,2.75,0,0,0,2.18-.88,3.7,3.7,0,0,0,.8-2.56c0-.21,0-.44,0-.68a2.28,2.28,0,0,1-1,1.06,3.2,3.2,0,0,1-1.57.38,3.31,3.31,0,0,1-1.47-.32,2.32,2.32,0,0,1-1-.88,2.42,2.42,0,0,1-.36-1.32,2.45,2.45,0,0,1,.37-1.36,2.53,2.53,0,0,1,1-.91,3.31,3.31,0,0,1,1.47-.31A3.08,3.08,0,0,1,192.61,419.44Zm-1.33,3a2,2,0,0,0,.76-.66,1.68,1.68,0,0,0,.27-.93,1.64,1.64,0,0,0-.25-.89,1.93,1.93,0,0,0-.77-.66,2.6,2.6,0,0,0-1.2-.25,2.14,2.14,0,0,0-1.48.5,1.81,1.81,0,0,0,0,2.64,2.28,2.28,0,0,0,1.54.49A2.54,2.54,0,0,0,191.28,422.47Z"/><path class="cls-1" d="M201,422.52a2.16,2.16,0,0,1,.83,1.83,2.47,2.47,0,0,1-.34,1.3,2.33,2.33,0,0,1-1,.91,3.87,3.87,0,0,1-1.68.33,5.12,5.12,0,0,1-1.71-.29,3.58,3.58,0,0,1-1.31-.79l.42-.68a3.2,3.2,0,0,0,1.11.7,4,4,0,0,0,1.47.27,2.5,2.5,0,0,0,1.62-.47,1.66,1.66,0,0,0-.07-2.56,4,4,0,0,0-2.17-.44h-1.79l.43-4.21h4.6v.77h-3.84l-.29,2.67h1.08A4.3,4.3,0,0,1,201,422.52Z"/><path class="cls-1" d="M213.89,419.44a4.86,4.86,0,0,1,.89,3.11,5.33,5.33,0,0,1-.48,2.37,3.33,3.33,0,0,1-1.35,1.47,3.94,3.94,0,0,1-2,.5,3.71,3.71,0,0,1-2-.46l.34-.69a3,3,0,0,0,1.64.39,2.78,2.78,0,0,0,2.18-.88,3.7,3.7,0,0,0,.79-2.56c0-.21,0-.44,0-.68a2.28,2.28,0,0,1-1,1.06,3.23,3.23,0,0,1-1.57.38,3.31,3.31,0,0,1-1.47-.32,2.32,2.32,0,0,1-1-.88,2.42,2.42,0,0,1-.36-1.32,2.45,2.45,0,0,1,.37-1.36,2.57,2.57,0,0,1,1-.91,3.37,3.37,0,0,1,1.47-.31A3.09,3.09,0,0,1,213.89,419.44Zm-1.34,3a1.82,1.82,0,0,0,.76-.66,1.62,1.62,0,0,0,.28-.93,1.65,1.65,0,0,0-.26-.89,1.84,1.84,0,0,0-.76-.66,2.65,2.65,0,0,0-1.2-.25,2.12,2.12,0,0,0-1.48.5,1.81,1.81,0,0,0,0,2.64,2.26,2.26,0,0,0,1.54.49A2.49,2.49,0,0,0,212.55,422.47Z"/><path class="cls-1" d="M90.28,446.57H85.6l-1,2.25h-.92l3.84-8.4h.87l3.84,8.4h-.93Zm-.32-.72-2-4.51-2,4.51Z"/><path class="cls-1" d="M99.64,442.86a2.92,2.92,0,0,1,1.13,1.13,3.69,3.69,0,0,1,0,3.34,2.88,2.88,0,0,1-1.13,1.14,3.24,3.24,0,0,1-1.61.41,2.9,2.9,0,0,1-1.42-.34,2.64,2.64,0,0,1-1-1v1.25h-.81v-8.91h.85v3.8a2.6,2.6,0,0,1,1-.93,2.87,2.87,0,0,1,1.38-.32A3.23,3.23,0,0,1,99.64,442.86Zm-.47,5A2.29,2.29,0,0,0,100,447a2.73,2.73,0,0,0,.3-1.29,2.66,2.66,0,0,0-.3-1.28,2.16,2.16,0,0,0-.85-.87,2.33,2.33,0,0,0-1.2-.31,2.28,2.28,0,0,0-1.2.31,2.16,2.16,0,0,0-.85.87,2.66,2.66,0,0,0-.3,1.28,2.73,2.73,0,0,0,.3,1.29,2.29,2.29,0,0,0,.85.87,2.38,2.38,0,0,0,1.2.3A2.43,2.43,0,0,0,99.17,447.82Z"/><path class="cls-1" d="M109.75,445.93h-5.27a2.27,2.27,0,0,0,.75,1.59,2.53,2.53,0,0,0,1.73.6,2.74,2.74,0,0,0,1.08-.21,2.25,2.25,0,0,0,.85-.62l.48.56a2.68,2.68,0,0,1-1.05.76,3.72,3.72,0,0,1-3.11-.15,2.92,2.92,0,0,1-1.17-1.14,3.28,3.28,0,0,1-.42-1.66A3.34,3.34,0,0,1,104,444a2.81,2.81,0,0,1,1.1-1.14,3,3,0,0,1,1.58-.41,3,3,0,0,1,1.57.41,2.89,2.89,0,0,1,1.09,1.13,3.45,3.45,0,0,1,.4,1.66Zm-4.57-2.16a2.24,2.24,0,0,0-.7,1.52H109a2.28,2.28,0,0,0-.7-1.52,2.15,2.15,0,0,0-1.54-.58A2.13,2.13,0,0,0,105.18,443.77Z"/><path class="cls-1" d="M112.85,439.91h.85v8.91h-.85Z"/><path class="cls-1" d="M127.75,441.19a2.87,2.87,0,0,1,0,4.21,3.78,3.78,0,0,1-2.52.77H123v2.65h-.89v-8.4h3.14A3.72,3.72,0,0,1,127.75,441.19Zm-.63,3.65a1.89,1.89,0,0,0,.66-1.54,1.93,1.93,0,0,0-.66-1.57,3,3,0,0,0-1.91-.54H123v4.2h2.23A3,3,0,0,0,127.12,444.84Z"/><path class="cls-1" d="M137.21,445.93h-5.28a2.27,2.27,0,0,0,.76,1.59,2.5,2.5,0,0,0,1.72.6,2.67,2.67,0,0,0,1.08-.21,2.29,2.29,0,0,0,.86-.62l.48.56a2.68,2.68,0,0,1-1.05.76,3.52,3.52,0,0,1-1.39.27,3.45,3.45,0,0,1-1.72-.42,2.92,2.92,0,0,1-1.17-1.14,3.28,3.28,0,0,1-.42-1.66,3.33,3.33,0,0,1,.4-1.65,2.9,2.9,0,0,1,1.11-1.14,3.21,3.21,0,0,1,3.14,0,2.91,2.91,0,0,1,1.1,1.13,3.45,3.45,0,0,1,.39,1.66Zm-4.58-2.16a2.33,2.33,0,0,0-.7,1.52h4.48a2.29,2.29,0,0,0-.71-1.52,2.32,2.32,0,0,0-3.07,0ZM135,440h1.14l-1.95,1.49h-.84Z"/><path class="cls-1" d="M142,442.78a3.08,3.08,0,0,1,1.47-.32v.83l-.21,0a2,2,0,0,0-1.56.62,2.45,2.45,0,0,0-.56,1.71v3.22h-.85v-6.31h.81v1.23A2.09,2.09,0,0,1,142,442.78Z"/><path class="cls-1" d="M151.8,445.93h-5.28a2.27,2.27,0,0,0,.76,1.59,2.51,2.51,0,0,0,1.73.6,2.74,2.74,0,0,0,1.08-.21,2.33,2.33,0,0,0,.85-.62l.48.56a2.68,2.68,0,0,1-1,.76,3.72,3.72,0,0,1-3.11-.15,2.92,2.92,0,0,1-1.17-1.14,3.28,3.28,0,0,1-.42-1.66,3.33,3.33,0,0,1,.4-1.65,2.9,2.9,0,0,1,1.11-1.14,3,3,0,0,1,1.57-.41,3,3,0,0,1,1.58.41,3,3,0,0,1,1.09,1.13,3.45,3.45,0,0,1,.39,1.66Zm-4.58-2.16a2.33,2.33,0,0,0-.7,1.52H151a2.33,2.33,0,0,0-.7-1.52,2.33,2.33,0,0,0-3.08,0Z"/><path class="cls-1" d="M159.29,448.11v.71h-5.14v-.57l4-5h-3.9v-.72h5v.56l-4,5Z"/><path class="cls-1" d="M76.17,470.34a4.05,4.05,0,0,1-1.57-1.53,4.49,4.49,0,0,1,0-4.38,4.05,4.05,0,0,1,1.57-1.53,4.95,4.95,0,0,1,4-.24,3.59,3.59,0,0,1,1.34.91l-.56.56a3.38,3.38,0,0,0-2.49-1,3.71,3.71,0,0,0-1.81.45,3.41,3.41,0,0,0-1.28,1.25,3.55,3.55,0,0,0-.46,1.78,3.51,3.51,0,0,0,.46,1.77,3.34,3.34,0,0,0,1.28,1.25,3.61,3.61,0,0,0,1.81.46,3.32,3.32,0,0,0,2.49-1l.56.56a3.65,3.65,0,0,1-1.35.92,4.67,4.67,0,0,1-1.73.32A4.57,4.57,0,0,1,76.17,470.34Z"/><path class="cls-1" d="M84.36,470.69a.67.67,0,0,1-.18-.47.64.64,0,0,1,1.09-.46.59.59,0,0,1,.19.46.64.64,0,0,1-.19.47.64.64,0,0,1-.91,0Z"/><path class="cls-1" d="M88.8,462.42h.89v8.4H88.8Z"/><path class="cls-1" d="M93.22,465.57a.6.6,0,0,1-.19-.46.63.63,0,0,1,.19-.47.61.61,0,0,1,.45-.18.63.63,0,0,1,.65.65.67.67,0,0,1-.65.66A.59.59,0,0,1,93.22,465.57Zm0,5.12a.64.64,0,0,1-.19-.47.59.59,0,0,1,.19-.46.58.58,0,0,1,.45-.19.63.63,0,0,1,.46.19.63.63,0,0,1,.19.46.65.65,0,0,1-.65.66A.62.62,0,0,1,93.22,470.69Z"/><path class="cls-1" d="M107.13,470.05v.77h-5.89v-.61l3.49-3.42a4.76,4.76,0,0,0,.9-1.13,2.18,2.18,0,0,0,.23-1,1.41,1.41,0,0,0-.51-1.16,2.31,2.31,0,0,0-1.46-.41,2.88,2.88,0,0,0-2.29.93l-.61-.52a3.17,3.17,0,0,1,1.25-.89,4.47,4.47,0,0,1,1.72-.31,3.18,3.18,0,0,1,2,.6,2,2,0,0,1,.75,1.66,2.86,2.86,0,0,1-.29,1.25,5.3,5.3,0,0,1-1.09,1.38l-2.86,2.81Z"/><path class="cls-1" d="M111.88,462.42v8.4H111v-7.63h-2v-.77Z"/><path class="cls-1" d="M115.43,470.69a.67.67,0,0,1-.18-.47.62.62,0,0,1,.18-.46.6.6,0,0,1,.45-.19.65.65,0,0,1,.65.65.68.68,0,0,1-.19.47.66.66,0,0,1-.46.19A.64.64,0,0,1,115.43,470.69Z"/><path class="cls-1" d="M125,470.05v.77h-5.89v-.61l3.49-3.42a4.67,4.67,0,0,0,.89-1.13,2,2,0,0,0,.23-1,1.41,1.41,0,0,0-.51-1.16,2.28,2.28,0,0,0-1.45-.41,2.91,2.91,0,0,0-2.3.93l-.61-.52a3.21,3.21,0,0,1,1.26-.89,4.43,4.43,0,0,1,1.72-.31,3.17,3.17,0,0,1,2,.6,2,2,0,0,1,.75,1.66,2.73,2.73,0,0,1-.29,1.25,5.1,5.1,0,0,1-1.09,1.38l-2.85,2.81Z"/><path class="cls-1" d="M134.26,468.61h-1.68v2.21h-.86v-2.21H127V468l4.45-5.57h1l-4.29,5.42h3.64V465.9h.84v1.94h1.68Z"/><path class="cls-1" d="M142.55,467.21a2,2,0,0,1,.43,1.27,2.16,2.16,0,0,1-.4,1.28,2.53,2.53,0,0,1-1.13.84,4.84,4.84,0,0,1-1.74.29,3.86,3.86,0,0,1-2.37-.65,2.08,2.08,0,0,1-.87-1.76,2,2,0,0,1,.42-1.28,2.46,2.46,0,0,1,1.2-.79,2.05,2.05,0,0,1-1-.72,1.86,1.86,0,0,1-.34-1.12,1.93,1.93,0,0,1,.8-1.62,3.48,3.48,0,0,1,2.14-.6,4.18,4.18,0,0,1,1.56.27,2.27,2.27,0,0,1,1,.77,1.94,1.94,0,0,1,.38,1.18,1.87,1.87,0,0,1-.35,1.12,2.16,2.16,0,0,1-1,.72A2.51,2.51,0,0,1,142.55,467.21Zm-1.09,2.49a1.52,1.52,0,0,0,0-2.46,3.59,3.59,0,0,0-3.48,0,1.43,1.43,0,0,0-.63,1.23,1.46,1.46,0,0,0,.62,1.24,3,3,0,0,0,1.74.45A2.89,2.89,0,0,0,141.46,469.7Zm-3.27-4a2.45,2.45,0,0,0,1.52.41,2.48,2.48,0,0,0,1.53-.41,1.35,1.35,0,0,0,0-2.2,3,3,0,0,0-3,0,1.38,1.38,0,0,0,0,2.2Z"/><path class="cls-1" d="M145.84,470.69a.64.64,0,0,1-.19-.47.59.59,0,0,1,.19-.46.58.58,0,0,1,.45-.19.67.67,0,0,1,.65.65.65.65,0,0,1-.2.47.64.64,0,0,1-.45.19A.62.62,0,0,1,145.84,470.69Z"/><path class="cls-1" d="M154.7,463.44a4.86,4.86,0,0,1,.89,3.11,5.33,5.33,0,0,1-.48,2.37,3.33,3.33,0,0,1-1.35,1.47,3.94,3.94,0,0,1-2,.5,3.71,3.71,0,0,1-2-.46l.34-.69a3,3,0,0,0,1.64.39,2.78,2.78,0,0,0,2.18-.88,3.7,3.7,0,0,0,.79-2.56c0-.21,0-.44,0-.68a2.28,2.28,0,0,1-1,1.06,3.23,3.23,0,0,1-1.57.38,3.31,3.31,0,0,1-1.47-.32,2.32,2.32,0,0,1-1-.88,2.42,2.42,0,0,1-.36-1.32,2.45,2.45,0,0,1,.37-1.36,2.57,2.57,0,0,1,1-.91,3.37,3.37,0,0,1,1.47-.31A3.09,3.09,0,0,1,154.7,463.44Zm-1.34,3a1.82,1.82,0,0,0,.76-.66,1.62,1.62,0,0,0,.28-.93,1.65,1.65,0,0,0-.26-.89,1.84,1.84,0,0,0-.76-.66,2.65,2.65,0,0,0-1.2-.25,2.12,2.12,0,0,0-1.48.5,1.81,1.81,0,0,0,0,2.64,2.26,2.26,0,0,0,1.54.49A2.49,2.49,0,0,0,153.36,466.47Z"/><path class="cls-1" d="M163.89,470.05v.77H158v-.61l3.49-3.42a4.76,4.76,0,0,0,.9-1.13,2.18,2.18,0,0,0,.23-1,1.41,1.41,0,0,0-.51-1.16,2.31,2.31,0,0,0-1.46-.41,2.88,2.88,0,0,0-2.29.93l-.61-.52a3.17,3.17,0,0,1,1.25-.89,4.47,4.47,0,0,1,1.72-.31,3.18,3.18,0,0,1,2,.6,2,2,0,0,1,.75,1.66,2.86,2.86,0,0,1-.29,1.25,5.3,5.3,0,0,1-1.09,1.38l-2.86,2.81Z"/><path class="cls-1" d="M168.64,462.42v8.4h-.86v-7.63h-2v-.77Z"/><path class="cls-1" d="M77.83,492.37a3.28,3.28,0,0,1-1.19-1.48,5.64,5.64,0,0,1-.43-2.27,5.72,5.72,0,0,1,.43-2.28,3.39,3.39,0,0,1,1.19-1.48,3.21,3.21,0,0,1,3.47,0,3.54,3.54,0,0,1,1.19,1.48,5.55,5.55,0,0,1,.43,2.28,5.47,5.47,0,0,1-.43,2.27,3.42,3.42,0,0,1-1.19,1.48,3.15,3.15,0,0,1-3.47,0Zm3-.68a2.59,2.59,0,0,0,.87-1.19,5.71,5.71,0,0,0,0-3.77,2.56,2.56,0,0,0-.87-1.18,2.07,2.07,0,0,0-1.29-.41,2.11,2.11,0,0,0-1.29.41,2.63,2.63,0,0,0-.87,1.18,5.89,5.89,0,0,0,0,3.77,2.66,2.66,0,0,0,.87,1.19,2.18,2.18,0,0,0,1.29.41A2.13,2.13,0,0,0,80.85,491.69Z"/><path class="cls-1" d="M92.64,490.61H91v2.21H90.1v-2.21H85.36V490l4.45-5.57h1l-4.3,5.42h3.65V487.9H91v1.94h1.68Z"/><path class="cls-1" d="M96.81,484.42v8.4h-.87v-7.63H94v-.77Z"/><path class="cls-1" d="M107.29,490.61h-1.68v2.21h-.86v-2.21H100V490l4.45-5.57h1l-4.29,5.42h3.64V487.9h.84v1.94h1.68Z"/><path class="cls-1" d="M114.12,488.73a2.19,2.19,0,0,1,.69,1.68,2.35,2.35,0,0,1-.35,1.27,2.38,2.38,0,0,1-1,.89,4,4,0,0,1-1.67.32,5.13,5.13,0,0,1-1.72-.29,3.58,3.58,0,0,1-1.31-.79l.42-.68a3.25,3.25,0,0,0,1.12.7,4.07,4.07,0,0,0,1.49.27,2.47,2.47,0,0,0,1.59-.45,1.5,1.5,0,0,0,.57-1.24,1.48,1.48,0,0,0-.57-1.23,2.74,2.74,0,0,0-1.7-.44h-.6v-.64l2.33-2.91h-4.3v-.77h5.4V485l-2.37,3A3.11,3.11,0,0,1,114.12,488.73Z"/><path class="cls-1" d="M123.39,489.21a1.92,1.92,0,0,1,.43,1.27,2.1,2.1,0,0,1-.4,1.28,2.53,2.53,0,0,1-1.13.84,4.8,4.8,0,0,1-1.74.29,3.88,3.88,0,0,1-2.37-.65,2.08,2.08,0,0,1-.87-1.76,2,2,0,0,1,.42-1.28,2.51,2.51,0,0,1,1.2-.79,2.05,2.05,0,0,1-1-.72,2,2,0,0,1,.46-2.74,3.48,3.48,0,0,1,2.14-.6,4.11,4.11,0,0,1,1.56.27,2.35,2.35,0,0,1,1,.77,2,2,0,0,1,.37,1.18,1.87,1.87,0,0,1-.35,1.12,2.11,2.11,0,0,1-1,.72A2.51,2.51,0,0,1,123.39,489.21Zm-1.09,2.49a1.52,1.52,0,0,0,0-2.46,3.59,3.59,0,0,0-3.48,0,1.43,1.43,0,0,0-.63,1.23,1.46,1.46,0,0,0,.62,1.24,3,3,0,0,0,1.74.45A2.89,2.89,0,0,0,122.3,491.7Zm-3.27-4a2.47,2.47,0,0,0,1.52.41,2.53,2.53,0,0,0,1.54-.41,1.27,1.27,0,0,0,.55-1.09,1.29,1.29,0,0,0-.57-1.11,2.49,2.49,0,0,0-1.52-.41,2.44,2.44,0,0,0-1.51.41,1.37,1.37,0,0,0,0,2.2Z"/><path class="cls-1" d="M131.31,488.1a2.38,2.38,0,0,1,1,.88,2.45,2.45,0,0,1,.36,1.33,2.5,2.5,0,0,1-.37,1.36,2.48,2.48,0,0,1-1,.9,3.37,3.37,0,0,1-1.47.32,3.1,3.1,0,0,1-2.56-1.1,4.81,4.81,0,0,1-.89-3.1,5.34,5.34,0,0,1,.48-2.38,3.44,3.44,0,0,1,1.35-1.47,3.94,3.94,0,0,1,2-.49,3.81,3.81,0,0,1,2,.45l-.34.7a2.91,2.91,0,0,0-1.64-.4A2.82,2.82,0,0,0,128,486a3.73,3.73,0,0,0-.79,2.57c0,.2,0,.42,0,.68a2.23,2.23,0,0,1,1-1.06,3.23,3.23,0,0,1,1.57-.38A3.31,3.31,0,0,1,131.31,488.1Zm-.06,3.56a1.83,1.83,0,0,0,0-2.65,2.31,2.31,0,0,0-1.54-.49,2.49,2.49,0,0,0-1.12.24,1.82,1.82,0,0,0-.76.66,1.62,1.62,0,0,0-.28.94,1.68,1.68,0,0,0,.26.89,1.84,1.84,0,0,0,.76.66,2.79,2.79,0,0,0,1.2.25A2.17,2.17,0,0,0,131.25,491.66Z"/><path class="cls-1" d="M140.75,492.05v.77h-5.89v-.61l3.49-3.42a4.43,4.43,0,0,0,.89-1.13,2.06,2.06,0,0,0,.24-1,1.41,1.41,0,0,0-.51-1.16,2.31,2.31,0,0,0-1.46-.41,2.88,2.88,0,0,0-2.29.93l-.61-.52a3.1,3.1,0,0,1,1.25-.89,4.47,4.47,0,0,1,1.72-.31,3.18,3.18,0,0,1,2,.6,2,2,0,0,1,.75,1.66,2.86,2.86,0,0,1-.29,1.25,5.3,5.3,0,0,1-1.09,1.38l-2.86,2.81Z"/><path class="cls-1" d="M144.74,492.37a3.35,3.35,0,0,1-1.19-1.48,5.64,5.64,0,0,1-.42-2.27,5.73,5.73,0,0,1,.42-2.28,3.47,3.47,0,0,1,1.19-1.48,3.21,3.21,0,0,1,3.47,0,3.47,3.47,0,0,1,1.19,1.48,5.55,5.55,0,0,1,.43,2.28,5.47,5.47,0,0,1-.43,2.27,3.35,3.35,0,0,1-1.19,1.48,3.15,3.15,0,0,1-3.47,0Zm3-.68a2.52,2.52,0,0,0,.87-1.19,5.71,5.71,0,0,0,0-3.77,2.49,2.49,0,0,0-.87-1.18,2.07,2.07,0,0,0-1.29-.41,2.11,2.11,0,0,0-1.29.41,2.63,2.63,0,0,0-.87,1.18,5.89,5.89,0,0,0,0,3.77,2.66,2.66,0,0,0,.87,1.19,2.18,2.18,0,0,0,1.29.41A2.13,2.13,0,0,0,147.76,491.69Z"/><path class="cls-1" d="M159.55,490.61h-1.68v2.21H157v-2.21h-4.74V490l4.45-5.57h1l-4.29,5.42H157V487.9h.84v1.94h1.68Z"/><path class="cls-1" d="M167.38,492.05v.77h-5.89v-.61l3.49-3.42a4.43,4.43,0,0,0,.89-1.13,2.06,2.06,0,0,0,.24-1,1.41,1.41,0,0,0-.51-1.16,2.31,2.31,0,0,0-1.46-.41,2.87,2.87,0,0,0-2.29.93l-.62-.52a3.21,3.21,0,0,1,1.26-.89,4.47,4.47,0,0,1,1.72-.31,3.15,3.15,0,0,1,2,.6,2,2,0,0,1,.75,1.66,2.85,2.85,0,0,1-.28,1.25,5.38,5.38,0,0,1-1.1,1.38l-2.85,2.81Z"/><path class="cls-2" d="M4.82,239.33H1.47l.24-1.22H9.82l-.26,1.22H6.22l-1.73,8.59H3.11Z"/><path class="cls-2" d="M16.07,240.42l-.25,1.3h-.35a2.68,2.68,0,0,0-2.8,2.49l-.74,3.72H10.58l1.47-7.43h1.29l-.21,1.11A3.44,3.44,0,0,1,16.07,240.42Z"/><path class="cls-2" d="M26.18,240.49l-1.47,7.43H23.42l.19-.92A3.72,3.72,0,0,1,21,248a3.06,3.06,0,0,1-3.28-3.21,4.15,4.15,0,0,1,4.2-4.37,2.84,2.84,0,0,1,2.68,1.33l.25-1.26Zm-2,3.19A2,2,0,0,0,22,241.6a2.92,2.92,0,0,0-2.9,3.14,2,2,0,0,0,2.21,2.08A2.92,2.92,0,0,0,24.18,243.68Z"/><path class="cls-2" d="M36.79,242.89a4.44,4.44,0,0,1-.08.86l-.83,4.17H34.54l.83-4.17a3.57,3.57,0,0,0,.07-.61c0-1-.56-1.51-1.73-1.51A2.61,2.61,0,0,0,31,244l-.79,3.93H28.84l1.47-7.43H31.6l-.18.95a3.62,3.62,0,0,1,2.68-1C35.79,240.42,36.79,241.3,36.79,242.89Z"/><path class="cls-2" d="M39.23,247.14l.6-1.06a4.34,4.34,0,0,0,2.58.76c1.28,0,1.94-.41,1.94-1.1,0-1.44-4.12-.4-4.12-2.91,0-1.47,1.33-2.41,3.37-2.41a4.82,4.82,0,0,1,2.59.67l-.53,1.07a3.94,3.94,0,0,0-2.19-.59c-1.25,0-1.89.46-1.89,1.11,0,1.49,4.1.44,4.1,2.91,0,1.54-1.38,2.41-3.4,2.41A5.2,5.2,0,0,1,39.23,247.14Z"/><path class="cls-2" d="M51.63,239.9l-.12.59h2.15l-.22,1.11H51.32l-1.27,6.32H48.7L50,241.6H48.7l.21-1.11H50.2l.14-.7a2.63,2.63,0,0,1,2.75-2.35,2.55,2.55,0,0,1,1.55.46l-.56,1a1.47,1.47,0,0,0-1-.35C52.28,238.54,51.83,239,51.63,239.9Z"/><path class="cls-2" d="M56.22,244.62v.09c0,1.36.76,2.11,2.36,2.11a3.3,3.3,0,0,0,2.29-.85l.58,1a4.41,4.41,0,0,1-3,1.07c-2.2,0-3.55-1.26-3.55-3.22a4.14,4.14,0,0,1,4.18-4.36,3,3,0,0,1,3.32,3.21,6.07,6.07,0,0,1-.09,1Zm.14-1h4.79a1.89,1.89,0,0,0-2.11-2.1A2.67,2.67,0,0,0,56.36,243.64Z"/><path class="cls-2" d="M70.53,240.42l-.25,1.3h-.35a2.67,2.67,0,0,0-2.8,2.49l-.74,3.72H65l1.47-7.43H67.8l-.21,1.11A3.44,3.44,0,0,1,70.53,240.42Z"/><path class="cls-2" d="M73.48,244.62v.09c0,1.36.76,2.11,2.36,2.11a3.3,3.3,0,0,0,2.29-.85l.58,1a4.4,4.4,0,0,1-3,1.07c-2.2,0-3.56-1.26-3.56-3.22a4.14,4.14,0,0,1,4.19-4.36,3,3,0,0,1,3.32,3.21,6,6,0,0,1-.1,1Zm.14-1h4.8a1.9,1.9,0,0,0-2.12-2.1A2.67,2.67,0,0,0,73.62,243.64Z"/><path class="cls-2" d="M90.26,242.89a5.4,5.4,0,0,1-.08.86l-.83,4.17H88l.83-4.17a3.57,3.57,0,0,0,.07-.61c0-1-.56-1.51-1.72-1.51A2.62,2.62,0,0,0,84.43,244l-.78,3.93H82.3l1.47-7.43h1.29l-.18.95a3.66,3.66,0,0,1,2.69-1C89.25,240.42,90.26,241.3,90.26,242.89Z"/><path class="cls-2" d="M93.43,244.79a4.23,4.23,0,0,1,4.37-4.37,3.19,3.19,0,0,1,3.06,1.61l-1.14.63a2.1,2.1,0,0,0-2-1.06,2.93,2.93,0,0,0-2.92,3.14A2,2,0,0,0,97,246.82a2.68,2.68,0,0,0,2.21-1l1,.7A4,4,0,0,1,97,248C94.81,248,93.43,246.72,93.43,244.79Z"/><path class="cls-2" d="M104.48,240.49h1.34l-1.47,7.43H103Zm.22-2.24a.93.93,0,0,1,1-.94.83.83,0,0,1,.86.79.93.93,0,0,1-1,1A.81.81,0,0,1,104.7,238.25Z"/><path class="cls-2" d="M116.94,240.49l-1.47,7.43h-1.29l.19-.92a3.72,3.72,0,0,1-2.62,1,3.07,3.07,0,0,1-3.28-3.21,4.15,4.15,0,0,1,4.2-4.37,2.83,2.83,0,0,1,2.68,1.33l.25-1.26Zm-2,3.19a2,2,0,0,0-2.21-2.08,2.92,2.92,0,0,0-2.9,3.14,2,2,0,0,0,2.21,2.08A2.92,2.92,0,0,0,114.94,243.68Z"/><path class="cls-2" d="M118.88,247.14l.61-1.06a4.33,4.33,0,0,0,2.57.76c1.29,0,2-.41,2-1.1,0-1.44-4.12-.4-4.12-2.91,0-1.47,1.33-2.41,3.36-2.41a4.86,4.86,0,0,1,2.6.67l-.54,1.07a3.88,3.88,0,0,0-2.18-.59c-1.25,0-1.89.46-1.89,1.11,0,1.49,4.1.44,4.1,2.91,0,1.54-1.38,2.41-3.4,2.41A5.25,5.25,0,0,1,118.88,247.14Z"/><path class="cls-2" d="M141.56,240.49l-5.27,8.24c-1,1.51-1.72,2-2.89,2a2.67,2.67,0,0,1-1.86-.66l.7-1a1.73,1.73,0,0,0,1.26.51c.62,0,1.07-.28,1.6-1.11l.38-.59-1.8-7.38H135l1.43,5.94,3.74-5.94Z"/><path class="cls-2" d="M157.63,241c0,2.51-1.77,4-4.6,4h-2.62l-.58,3h-1.41l2-9.81H154C156.31,238.11,157.63,239.16,157.63,241Zm-1.4.13c0-1.18-.84-1.78-2.33-1.78h-2.35l-.88,4.4h2.39C155.06,243.73,156.23,242.83,156.23,241.11Z"/><path class="cls-2" d="M168.21,240.49l-1.47,7.43h-1.29l.18-.92a3.68,3.68,0,0,1-2.62,1,3.06,3.06,0,0,1-3.27-3.21,4.15,4.15,0,0,1,4.2-4.37,2.81,2.81,0,0,1,2.67,1.33l.26-1.26Zm-2,3.19A2,2,0,0,0,164,241.6a2.92,2.92,0,0,0-2.9,3.14,2,2,0,0,0,2.21,2.08A2.92,2.92,0,0,0,166.21,243.68Zm-1.14-4.27h-1.31l2.11-1.82h1.75Z"/><path class="cls-2" d="M179.44,240.49l-1.28,6.42c-.53,2.69-2,3.81-4.44,3.81a5.24,5.24,0,0,1-3.39-1.05l.75-1a4.12,4.12,0,0,0,2.74.9,2.66,2.66,0,0,0,3-2.41l.11-.54a3.75,3.75,0,0,1-2.69,1,3,3,0,0,1-3.31-3,4.08,4.08,0,0,1,4.24-4.16,2.92,2.92,0,0,1,2.77,1.43l.26-1.36Zm-2.06,3c0-1.19-.81-1.92-2.21-1.92a2.81,2.81,0,0,0-2.92,2.9c0,1.2.83,1.93,2.22,1.93A2.81,2.81,0,0,0,177.38,243.52Z"/><path class="cls-2" d="M182.08,244.79a4.23,4.23,0,0,1,4.36-4.37c2.11,0,3.47,1.25,3.47,3.19a4.22,4.22,0,0,1-4.34,4.39A3.16,3.16,0,0,1,182.08,244.79Zm6.47-1.11a2,2,0,0,0-2.21-2.08,2.92,2.92,0,0,0-2.9,3.14,2,2,0,0,0,2.21,2.08A2.92,2.92,0,0,0,188.55,243.68Z"/><path class="cls-2" d="M211.12,242.87a5.84,5.84,0,0,1-.09.88l-.83,4.17h-1.35l.83-4.17a3.79,3.79,0,0,0,.07-.64c0-1-.53-1.48-1.64-1.48a2.52,2.52,0,0,0-2.6,2.32l-.8,4h-1.35l.84-4.17a2.83,2.83,0,0,0,.07-.63c0-1-.53-1.49-1.65-1.49A2.53,2.53,0,0,0,200,244l-.79,3.93h-1.34l1.47-7.43h1.29l-.19.93a3.49,3.49,0,0,1,2.58-1,2.39,2.39,0,0,1,2.38,1.32,3.83,3.83,0,0,1,3-1.32C210.13,240.42,211.12,241.3,211.12,242.87Z"/><path class="cls-2" d="M214.28,244.79a4.23,4.23,0,0,1,4.36-4.37c2.11,0,3.47,1.25,3.47,3.19a4.22,4.22,0,0,1-4.34,4.39A3.16,3.16,0,0,1,214.28,244.79Zm6.47-1.11a2,2,0,0,0-2.21-2.08,2.92,2.92,0,0,0-2.9,3.14,2,2,0,0,0,2.21,2.08A2.92,2.92,0,0,0,220.75,243.68Zm-.6-6.09h1.75l-2.55,1.82H218Z"/><path class="cls-2" d="M232.58,240.49l-4.72,7.43h-1.37l-1.78-7.43h1.34l1.39,5.95,3.78-5.95Z"/><path class="cls-2" d="M235.41,240.49h1.34l-1.47,7.43h-1.34Zm.22-2.24a.93.93,0,0,1,1-.94.82.82,0,0,1,.85.79.92.92,0,0,1-1,1A.81.81,0,0,1,235.63,238.25Z"/><path class="cls-2" d="M241.48,237.52h1.35l-2.08,10.4h-1.34Z"/></svg>