<?xml version="1.0" encoding="utf-8"?>
<!-- Generator: Adobe Illustrator 24.0.0, SVG Export Plug-In . SVG Version: 6.00 Build 0)  -->
<svg version="1.1" id="Capa_1" xmlns="http://www.w3.org/2000/svg" xmlns:xlink="http://www.w3.org/1999/xlink" x="0px" y="0px"
	 viewBox="0 0 364.9 143.4" style="enable-background:new 0 0 364.9 143.4;" xml:space="preserve">
<style type="text/css">
	.st0{fill:#A8B59E;}
</style>
<title>Branch</title>
<path class="st0" d="M156.7,65.3L125.3,95c11.5-1.7,22.5-10.8,40.3-33.2c-2.7,8.6-7.5,16.3-14,22.5c-9.4,9.4-21.3,15.8-34.3,18.5
	c-1.1,0.2-2.6,0.8-3.3-0.3c-0.9-1.3,0.4-2.2,1.3-2.8c13.9-11.4,26.6-24.1,41-34.9C156.4,65,156.6,65.1,156.7,65.3z"/>
<g>
	<path class="st0" d="M166.6,59.2C166.7,58.9,166.7,58.9,166.6,59.2L166.6,59.2z"/>
	<path class="st0" d="M173.1,53.5C173.3,53.7,173.4,53.5,173.1,53.5L173.1,53.5z"/>
	<path class="st0" d="M252.8,41.6c-1.4-0.7-2.8-1.6-4.1-2.4c-0.3,0-0.7,0-1,0c-10.1-0.3-27.3-1-31.5-0.4c-20.2,2.7-28.2,6-41.2,11.3
		c-9.8,4-19.5,8.4-29.2,12.5c-0.1-0.1-0.2-0.1-0.2-0.2c0.4-0.3,0.6-0.8,0.3-1.4c-4.5-7.8-12.8-10.7-20.9-13.4
		c-4.7-1.6-13.9-2.7-19.5-3.2c-5-0.4-12.1-2.2-12.2-3.5c-0.3,0.6,0.9,2,1,2c5.2,8,10.9,14.9,20.1,18.7c8.3,3.4,17.2,3.8,26.1,3.3
		c-7.9,3.3-15.9,6.4-24,9c-10.2,3.2-20.8,5.6-31.4,6.5c-0.8-0.3-3.6-1-5.8-1.3c0.6-0.4,1-1.2,0.4-1.9c-4.8-6.3-9.7-12.7-16.6-16.8
		c-7.7-4.6-18.8-7.3-28.4-14.8c-0.9-0.7,1.7,3.7,2.3,4.9c7.9,14.1,14.7,29.7,40.4,30.3c-3.4,0.1-6.7,0-10.1-0.2
		c-10.1-0.8-23.5-3.5-33.6-9.7c0.2-0.3,0.3-0.7,0.1-1.1c-2.5-6.2-3-12.8-4.6-19.3c-1.2-5.2-2.8-10.4-4.8-15.4
		c-4.2-10.6-10.1-20.2-18-28.4c0,0-6.2-6.5-6.2-6.5c-1.4-1.5,3.4,6.1,3.9,7.6c3,8.4,5.2,17.8,4,26.6c-1.2,8,9.2,30.4,21.6,36.8
		c0.9,0.4,14.9,10.1,25.9,10.2c0.9,0,1.7,0.3,2.6,0.4c-14.5,2.3-35.3,0.1-46.3,9.7c-1.2,1,2.5,0.2,3.8-0.3c15-5,37.3,5.4,47.4-7.4
		c0.7,0,1.1-0.5,1.2-1.1c13,1.4,26.4,0.1,39.1-2.7c1.1-0.3,7.2-2.2,8.3-2.5C90.6,91.4,70,113.9,62.8,138.1c-0.8,1.1-1.2,2.4-1,4
		c0.1,1.2,2.1,1.4,2.4,0.2c0.3-1,8.4-8.3,10.5-9.7c3-1.9,5.9-3.9,8.8-6c6.3-4.5,12.3-9.5,17.4-15.4c7.9-9.1,12.3-20.6,13.1-32.7
		c0-0.4,0.2-1,0.4-1.5c15.4-4.7,41.1-16.2,55.3-22.4c-15.5,10.4-38.3,32.4-53.2,44c-1,0.8-4.4,4.4-3.2,4.2
		c27.1-3.8,47.1-23.4,53-42.6c0.2-0.5,0.3-0.9,0.4-1.2c-0.1,0.1-0.2,0.4-0.3,0.7c-9.1,17.9-24.8,31.2-43.9,37
		c16.3-14.3,29.7-29.4,50.2-43.2c0.2-0.1,0.4-0.2,0.5-0.2c0,0-0.1,0-0.1-0.1c16.2-7.1,33.1-12.8,51-12.6
		C224.1,40.8,236.3,41.2,252.8,41.6z M12.1,34c-1-5.8-1.9-15.7-4.3-22c6.6,7.8,11.6,16.7,15.1,26.3c3.7,10,4.3,20.8,7.9,30.7
		C25.7,65.3,13.5,42.6,12.1,34z M34.2,87.3c11.6-4.1,13-1.5,25.3-3.1C51.2,93.5,46,83.5,34.2,87.3z M76.9,78.9
		c-17,1.3-27.8-12.5-35.6-25.7c5.4,2.8,11,4.9,16.7,7.5c8.6,3.9,14.2,10.9,19.7,18.2c0,0,0.1,0.1,0.1,0.1
		C77.4,78.9,77.1,78.9,76.9,78.9z M112.4,78.9c-1.1,16.5-13.5,25.2-25.8,35.5c-6.6,5.5-11.6,15-18.8,19.7c-0.4,0.3-0.9,0.6-1.3,0.9
		c8.1-23.6,24.4-43.7,46.1-56.4c0,0,0,0,0,0C112.5,78.6,112.4,78.8,112.4,78.9z M123.1,62c-8.4-3-20.1-10.8-24.9-17.6
		c6.4,1.9,13.3,1.9,19.8,3.7c9,2.5,20.6,5.4,25.5,14c0,0,0,0,0.1,0.1C134.7,63,131.7,65.1,123.1,62z"/>
	<path class="st0" d="M363.6,39.2c-24.6,0.6-87.7,0.2-114.8,0c-1,0.9,1.8,1.8,4.1,2.4c16.1,0.3,59.8,1.1,71.8,1
		c10.1-0.1,28.8-0.3,38.9-0.5C365.4,42,365.4,39.2,363.6,39.2z"/>
	<path class="st0" d="M113.1,77.4C113.1,77.4,113.2,77.4,113.1,77.4C113.1,77.4,113.1,77.5,113.1,77.4z"/>
</g>
</svg>
