<svg version="1.1" id="Capa_1" xmlns="http://www.w3.org/2000/svg" xmlns:xlink="http://www.w3.org/1999/xlink" x="0px" y="0px"
	 viewBox="0 0 364.9 143.4" style="enable-background:new 0 0 364.9 143.4;" xml:space="preserve"><defs><style>.cls-1{fill:#a8b59e;}</style></defs><title>Branch2</title><path class="cls-1" d="M8.78,53.18A392.47,392.47,0,0,0,141.91,83.81a390.25,390.25,0,0,0,68.17-2.37c11.2-1.38,22.31-3.5,33.36-5.81,11.81-2.47,23.55-5.14,33.19-12.75C287.92,54,299,46.34,312.86,42a94.07,94.07,0,0,1,41-3.29c-.38-1.12-.76-2.23-1.13-3.35-22.27,20.76-53.58,40.39-85.15,29.84a1.18,1.18,0,0,0-.77,2.22C300,79.39,331.16,60,355.24,38.26a1.94,1.94,0,0,0-1.13-3.35,97,97,0,0,0-65.89,13.26c-10.78,6.73-19.46,16.73-31.92,20.4a230.7,230.7,0,0,1-34.24,6.79C176.19,81.53,130.17,81.54,84.68,73A407.9,407.9,0,0,1,9.49,51.13c-1.3-.52-2,1.5-.71,2Z"/><path class="cls-1" d="M222.55,79.41c27.88-4.67,52.82,7.77,77.06,19.48.06-.71.11-1.42.16-2.13-23.7,4.24-46.59-7.61-65.63-20.17l.15,2.17a129.26,129.26,0,0,0,44.54-62.57,1.38,1.38,0,0,0-2.2-1.46C256.76,30.53,237.75,49,233.45,75.05c-.32,2,2.79,2.18,3.1.22,3.77-24.44,22.54-44.35,41.89-58.5l-2.2-1.46a143.83,143.83,0,0,1-43.77,61.4,1.37,1.37,0,0,0,.15,2.16c20.54,12.06,42.95,23.55,67.56,20.06a1.12,1.12,0,0,0,.41-2C277.45,83.32,249.37,72.15,222,76.56c-1.86.3-1.32,3.16.53,2.85Z"/><path class="cls-1" d="M196.26,81.51c27.23,6.78,49,24.69,69.65,42.61l1-2.1a111.33,111.33,0,0,1-65.69-40.2c-1.31-1.68-3.91.57-2.52,2.22a119.28,119.28,0,0,0,67.73,40.27c1.3.26,1.52-1.51.75-2.15-21-17.54-43-36.24-70.24-42.76-1.39-.33-2.13,1.76-.73,2.11Z"/><path class="cls-1" d="M195.86,80.65c22.9-16.76,38.41-42.78,44.21-70.27a2.08,2.08,0,0,0-3.33-2.21c-21.24,16.79-37.9,43.16-41.9,70-.29,2,3,2.65,3.43.69,3-13.23,7.09-26,14.27-37.65a115.85,115.85,0,0,1,26.94-30L236,9.57c-5.41,27.31-20.63,51.3-41.41,69.7-.91.81.28,2.08,1.23,1.38Z"/><path class="cls-1" d="M159.25,82.19c25.39,14.42,46.83,33.3,61.67,58.63l1.63-1.84c-28-8.8-51-29-61.23-56.66-.76-2-4.12-.5-3.12,1.53,12.82,26.18,35.68,48,63.48,57.64,1,.35,2.25-.83,1.64-1.84C208.4,115,186.17,93.3,159.6,81.47c-.41-.19-.75.49-.35.72Z"/><path class="cls-1" d="M143.62,81.32c16.42-7.08,31.31-15.47,42.89-29.41,9.87-11.89,16.3-26.39,17.15-41.83a1.77,1.77,0,0,0-2.91-1.43c-24.81,17.93-45.42,42.69-56.82,71.15-.79,2,2.27,3,3.11,1.06,12.25-27.9,30.86-52,56-69.59l-2.91-1.44c-2.35,32.36-28.83,57.51-56.92,70.71-.51.24-.13,1,.38.78Z"/><path class="cls-1" d="M104.72,79c12.48,6.77,24.34,14.38,34.63,24.22,9.94,9.5,19.57,21.23,24.9,34l1.78-2c-7-2.82-13.84-5.29-20.31-9.25a120.12,120.12,0,0,1-18.4-13.86c-10.77-9.84-20.25-22.24-25.12-36.07-.61-1.74-3.56-.38-2.62,1.28,7.65,13.53,16,26.11,27.41,36.84a109.25,109.25,0,0,0,17.63,13.45c6.4,3.93,13.29,8,20.46,10.36,1.13.37,2.44-.89,1.79-2-7.49-12.83-15.06-24.69-26-35-10.29-9.73-22.36-18-35.8-22.7-.45-.16-.82.53-.38.77Z"/><path class="cls-1" d="M92.6,76.23C99,77.71,104.72,75.17,110,71.64a149.7,149.7,0,0,0,20.95-17.31c11.13-10.9,19.75-24.18,22.49-39.65a1.64,1.64,0,0,0-2.35-1.57C125,25.79,103.72,49.89,96.34,78c-.61,2.33,2.9,3.57,3.58,1.22,8-27.61,26.29-50.83,52.57-63.19l-2.34-1.57c-2.67,14-10.78,26.06-20.5,36.22a170.84,170.84,0,0,1-16.51,14.84c-5.5,4.43-12.12,9.85-19.68,8.26-1.62-.34-2.5,2.07-.86,2.46Z"/><path class="cls-1" d="M51.18,68.26a94,94,0,0,1,26.28,17.8,80.93,80.93,0,0,1,9.7,11.3c2.92,4.13,7.1,9.82,7.48,15l1.87-1.23c-4.33-2.67-9-4.67-13.28-7.51A82.36,82.36,0,0,1,70.64,93c-7.51-7.56-13.75-15.73-17.77-25.65-.7-1.72-3.44-.41-2.62,1.28A89,89,0,0,0,69.19,95a117.72,117.72,0,0,0,12.15,9.65c4.42,3.12,9,6.64,14.1,8.67,1.17.47,2-1.07,1.31-2-1.88-2.23-2.85-5.18-4.24-7.73-1.3-2.39-2.7-4.73-4.22-7A80.55,80.55,0,0,0,78.1,84.22,69.61,69.61,0,0,0,51.42,67.56c-.46-.16-.67.5-.24.7Z"/><path class="cls-1" d="M50,67.11c24.93-8.9,54.2-24.06,59.32-52.77.23-1.29-1.31-2-2.34-1.57-12.53,5.49-24.38,11.65-34.57,21A81.48,81.48,0,0,0,50.27,66.49c-.65,1.83,2.07,2.7,2.82,1,9.8-22.89,29.51-46,54.9-51.64l-1.84-2.11c-6.36,28.11-33.62,39.89-56.85,52a.8.8,0,0,0,.7,1.44Z"/><path class="cls-1" d="M131.73,37.6l-16.11,18a235.2,235.2,0,0,0-15.2,18,.78.78,0,0,0,1.16,1A233.73,233.73,0,0,0,117.23,57L132.7,38.44c.47-.56-.48-1.39-1-.84Z"/><path class="cls-1" d="M105.67,15.5C86.32,29.09,70.16,46,53.73,62.85c-1.17,1.2.59,3.17,1.72,1.94,15.84-17.2,32.19-34.37,50.8-48.64.45-.34-.13-1-.58-.65Z"/><path class="cls-1" d="M163.36,133.15c-17.19-21.73-44.94-32.9-59.53-56.83-.73-1.19-2.71-.2-2,1,15.35,23.64,42.81,35.29,59.81,57.35.88,1.13,2.57-.35,1.68-1.48Z"/><path class="cls-1" d="M218.25,136c-8.34-10-17.58-19.12-28.61-26.18a.84.84,0,0,0-.93,1.4c10.26,7.6,19.9,16.3,27.45,26.63,1,1.43,3.25-.45,2.09-1.85Z"/><path class="cls-1" d="M177,97.76a74,74,0,0,1-6.62-6.27,83.58,83.58,0,0,1-5.69-7c-1.13-1.55-3.61.54-2.28,2A120.06,120.06,0,0,0,176,99.3c.93.76,1.92-.78,1-1.54Z"/><path class="cls-1" d="M196.26,19.47c-12.9,22.62-35.3,37.6-49.46,59.17-1.45,2.2,2,4.48,3.4,2.25,7.17-11.15,15.91-20.8,24.89-30.49,8.58-9.26,16.74-18.75,22.46-30.07.44-.87-.79-1.74-1.29-.86Z"/><path class="cls-1" d="M234.06,14.48c-6.5,10.12-13.19,20.13-19,30.68s-13.22,20.11-19.23,30.52a1.24,1.24,0,0,0,2.07,1.37c6.67-10,11.93-20.93,18.8-30.8s12.87-20.32,19.05-30.64c.67-1.13-1-2.25-1.71-1.13Z"/><path class="cls-1" d="M260.65,119.65c-3.17-2.15-6.22-4.47-9.41-6.58s-6.31-4.32-9.38-6.6c-.64-.48-1.3.54-.68,1q4.47,3.6,9.14,6.94a97.26,97.26,0,0,0,9.84,5.93c.49.27,1-.4.49-.72Z"/><path class="cls-1" d="M223,97.17c-7.68-4.08-15.08-9-21-15.49-1.07-1.17-2.77.68-1.46,1.67,7,5.3,14.14,10.43,22,14.44.42.21.84-.39.41-.62Z"/><path class="cls-1" d="M297.23,95.51a160.24,160.24,0,0,1-30.86-6c-9.91-3-19.94-6.9-28.9-12.12a1.08,1.08,0,1,0-1,1.93c9.75,4.47,19.43,8.63,29.78,11.6a177.6,177.6,0,0,0,30.82,6.14c1,.11,1.11-1.44.12-1.54Z"/><path class="cls-1" d="M273.72,20.38c-14.53,14.89-26,32.12-36.83,49.77-.58.94.85,1.9,1.45.95,10.91-17.44,23.92-33.5,36.44-49.8.49-.63-.5-1.5-1.06-.92Z"/><path class="cls-1" d="M348.81,36.5c-25.6,8.23-48.49,27.45-76.5,26.1-1.88-.1-2.09,2.86-.22,2.89,28.11.44,51.41-17.72,77.34-25.65,2.1-.64,1.46-4-.62-3.34Z"/><path class="cls-1" d="M94.76,108.46c-1.62-1.7-3-3.48-4.75-5.11s-3.34-3.27-5-4.9c-3.23-3.15-6.52-6.23-9.71-9.43-6.49-6.54-12.74-13.23-18.59-20.34-1-1.2-2.86.44-1.82,1.6,6.25,7,12.48,13.94,19,20.67,3.24,3.37,6.48,6.76,9.91,9.93,1.72,1.59,3.46,3.16,5.2,4.73,1.59,1.42,3.32,2.48,5,3.77.55.43,1.29-.42.81-.92Z"/></svg>