<svg id="Capa_1" data-name="Capa 1" xmlns="http://www.w3.org/2000/svg" viewBox="0 0 244.09 519.06"><defs><style>.cls-1{fill:#aa959b;}.cls-2{fill:#a9b39a;}</style></defs><title>DatosRegalo</title><path class="cls-1" d="M33.63,55.76a2.79,2.79,0,0,1,1.13,1.13,3.39,3.39,0,0,1,.41,1.67,3.43,3.43,0,0,1-.41,1.68,2.83,2.83,0,0,1-1.12,1.13,3.21,3.21,0,0,1-1.61.4,3,3,0,0,1-1.39-.31,2.73,2.73,0,0,1-1-.93V64h-.86V55.4h.82v1.25a2.58,2.58,0,0,1,1-1A3,3,0,0,1,32,55.35,3.2,3.2,0,0,1,33.63,55.76Zm-.46,5a2.07,2.07,0,0,0,.84-.87,2.8,2.8,0,0,0,0-2.56,2.2,2.2,0,0,0-.84-.87,2.5,2.5,0,0,0-2.41,0,2.2,2.2,0,0,0-.84.87,2.8,2.8,0,0,0,0,2.56,2.07,2.07,0,0,0,.84.87,2.5,2.5,0,0,0,2.41,0Z"/><path class="cls-1" d="M43.75,58.82H38.47a2.24,2.24,0,0,0,.76,1.59A2.46,2.46,0,0,0,41,61,2.67,2.67,0,0,0,42,60.81a2.4,2.4,0,0,0,.86-.62l.48.55a2.71,2.71,0,0,1-1,.77,3.51,3.51,0,0,1-1.39.26,3.45,3.45,0,0,1-1.72-.41A3,3,0,0,1,38,60.21a3.24,3.24,0,0,1-.42-1.65A3.37,3.37,0,0,1,38,56.9a2.94,2.94,0,0,1,1.1-1.14,3.13,3.13,0,0,1,1.58-.41,3,3,0,0,1,1.57.41,2.87,2.87,0,0,1,1.1,1.14,3.42,3.42,0,0,1,.39,1.66Zm-4.58-2.15a2.31,2.31,0,0,0-.7,1.52H43a2.27,2.27,0,0,0-.71-1.52,2.32,2.32,0,0,0-3.07,0Z"/><path class="cls-1" d="M48.56,55.68A3,3,0,0,1,50,55.35v.83h-.21a2,2,0,0,0-1.56.61,2.43,2.43,0,0,0-.56,1.72v3.21h-.85V55.4h.81v1.24A2,2,0,0,1,48.56,55.68Z"/><path class="cls-1" d="M58.34,58.82H53.06a2.24,2.24,0,0,0,.76,1.59,2.46,2.46,0,0,0,1.72.61,2.75,2.75,0,0,0,1.09-.21,2.45,2.45,0,0,0,.85-.62l.48.55a2.71,2.71,0,0,1-1.05.77,3.83,3.83,0,0,1-3.11-.15,3,3,0,0,1-1.17-1.15,3.24,3.24,0,0,1-.42-1.65,3.37,3.37,0,0,1,.4-1.66,2.9,2.9,0,0,1,1.11-1.14,3.06,3.06,0,0,1,1.57-.41,3.1,3.1,0,0,1,1.58.41A2.92,2.92,0,0,1,58,56.9a3.42,3.42,0,0,1,.39,1.66Zm-4.58-2.15a2.31,2.31,0,0,0-.7,1.52h4.48a2.31,2.31,0,0,0-.7-1.52,2.18,2.18,0,0,0-1.55-.58A2.15,2.15,0,0,0,53.76,56.67Z"/><path class="cls-1" d="M65.83,61v.7H60.69v-.56l4-5h-3.9V55.4h5V56l-4,5Z"/><path class="cls-1" d="M74,55.4l-2.81,6.31h-.88L67.56,55.4h.89l2.36,5.38L73.2,55.4Z"/><path class="cls-1" d="M81.69,56a2.69,2.69,0,0,1,.7,2v3.66h-.85V58.14a2.07,2.07,0,0,0-.5-1.5,1.8,1.8,0,0,0-1.4-.52,2.12,2.12,0,0,0-1.61.61,2.26,2.26,0,0,0-.6,1.67v3.31h-.85v-8.9h.85v3.7a2.42,2.42,0,0,1,1-.86,3.18,3.18,0,0,1,1.41-.3A2.59,2.59,0,0,1,81.69,56Z"/><path class="cls-1" d="M91.57,58.82H86.29A2.27,2.27,0,0,0,87,60.41a2.51,2.51,0,0,0,1.73.61,2.74,2.74,0,0,0,1.08-.21,2.49,2.49,0,0,0,.86-.62l.47.55a2.71,2.71,0,0,1-1.05.77,3.8,3.8,0,0,1-3.1-.15,3,3,0,0,1-1.17-1.15,3.24,3.24,0,0,1-.42-1.65,3.37,3.37,0,0,1,.4-1.66,2.87,2.87,0,0,1,1.1-1.14,3.13,3.13,0,0,1,1.58-.41,3.06,3.06,0,0,1,1.57.41,2.79,2.79,0,0,1,1.09,1.14,3.32,3.32,0,0,1,.4,1.66ZM87,56.67a2.26,2.26,0,0,0-.7,1.52h4.47a2.26,2.26,0,0,0-.7-1.52,2.32,2.32,0,0,0-3.07,0Z"/><path class="cls-1" d="M96.38,55.68a3,3,0,0,1,1.46-.33v.83h-.2a2,2,0,0,0-1.56.61,2.43,2.43,0,0,0-.56,1.72v3.21h-.85V55.4h.81v1.24A2,2,0,0,1,96.38,55.68Z"/><path class="cls-1" d="M105.83,56a2.69,2.69,0,0,1,.7,2v3.66h-.85V58.14a2.07,2.07,0,0,0-.49-1.5,1.84,1.84,0,0,0-1.41-.52,2.13,2.13,0,0,0-1.61.61,2.26,2.26,0,0,0-.59,1.67v3.31h-.86V55.4h.82v1.17a2.28,2.28,0,0,1,1-.9,3.11,3.11,0,0,1,1.43-.32A2.59,2.59,0,0,1,105.83,56Z"/><path class="cls-1" d="M114.3,56A2.38,2.38,0,0,1,115,57.8v3.91h-.82v-1a1.94,1.94,0,0,1-.85.77,3,3,0,0,1-1.32.27,2.55,2.55,0,0,1-1.68-.5,1.72,1.72,0,0,1,0-2.63,2.81,2.81,0,0,1,1.85-.49h2v-.38a1.65,1.65,0,0,0-.45-1.25,1.91,1.91,0,0,0-1.33-.42,3.26,3.26,0,0,0-1.16.2,2.89,2.89,0,0,0-.94.54l-.39-.63a3.21,3.21,0,0,1,1.15-.63,4.45,4.45,0,0,1,1.42-.23A2.7,2.7,0,0,1,114.3,56Zm-1,4.8a2,2,0,0,0,.76-1v-1h-2c-1.08,0-1.62.37-1.62,1.12a1,1,0,0,0,.42.87,1.88,1.88,0,0,0,1.18.32A2.27,2.27,0,0,0,113.34,60.77Z"/><path class="cls-1" d="M123.72,56a2.69,2.69,0,0,1,.7,2v3.66h-.85V58.14a2.07,2.07,0,0,0-.49-1.5,1.83,1.83,0,0,0-1.4-.52,2.16,2.16,0,0,0-1.62.61,2.3,2.3,0,0,0-.59,1.67v3.31h-.85V55.4h.81v1.17a2.34,2.34,0,0,1,1-.9,3.11,3.11,0,0,1,1.43-.32A2.59,2.59,0,0,1,123.72,56Z"/><path class="cls-1" d="M136,53.91a4.86,4.86,0,0,1,2,1.87,5.34,5.34,0,0,1,.71,2.75,4.6,4.6,0,0,1-.53,2.39,1.63,1.63,0,0,1-1.46.85,1.36,1.36,0,0,1-1-.34,1.46,1.46,0,0,1-.4-1,2.58,2.58,0,0,1-1,1,2.9,2.9,0,0,1-1.42.34,2.85,2.85,0,0,1-2.58-1.51,3.23,3.23,0,0,1-.39-1.59,3.18,3.18,0,0,1,.39-1.59,2.81,2.81,0,0,1,1.06-1.1,3.09,3.09,0,0,1,2.91-.07,2.6,2.6,0,0,1,1,.93V55.63h.78v4.55a1,1,0,0,0,.2.69.7.7,0,0,0,.54.22,1,1,0,0,0,.9-.67,4.32,4.32,0,0,0,.33-1.87,4.74,4.74,0,0,0-.63-2.46,4.26,4.26,0,0,0-1.74-1.65,5.5,5.5,0,0,0-2.57-.59,5.39,5.39,0,0,0-2.57.61,4.34,4.34,0,0,0-1.75,1.7,5.37,5.37,0,0,0,0,5,4.34,4.34,0,0,0,1.73,1.72,5.17,5.17,0,0,0,2.55.61,5.53,5.53,0,0,0,1.18-.13,4.37,4.37,0,0,0,1.12-.4l.2.59a4.75,4.75,0,0,1-1.19.41,6,6,0,0,1-1.31.14,6,6,0,0,1-2.9-.69,5,5,0,0,1-2-1.94,6,6,0,0,1,0-5.63,5,5,0,0,1,2-1.92,6.5,6.5,0,0,1,5.79,0Zm-1.8,6.87a2.1,2.1,0,0,0,.82-.85,2.55,2.55,0,0,0,.3-1.26,2.58,2.58,0,0,0-.3-1.26,2.14,2.14,0,0,0-.82-.84,2.47,2.47,0,0,0-2.34,0,2.14,2.14,0,0,0-.82.84,2.62,2.62,0,0,0-.29,1.25,2.65,2.65,0,0,0,.29,1.25,2.16,2.16,0,0,0,.82.85,2.4,2.4,0,0,0,2.34,0Z"/><path class="cls-1" d="M147.67,55.4V61a3.19,3.19,0,0,1-.79,2.38,3.26,3.26,0,0,1-2.37.77,5.06,5.06,0,0,1-1.66-.26,3.5,3.5,0,0,1-1.28-.71l.43-.65a3.37,3.37,0,0,0,1.11.64,4.25,4.25,0,0,0,1.38.23,2.41,2.41,0,0,0,1.76-.56,2.34,2.34,0,0,0,.57-1.74v-.8a2.61,2.61,0,0,1-1,.91,3.18,3.18,0,0,1-1.42.31,3.37,3.37,0,0,1-1.62-.39A2.91,2.91,0,0,1,141.6,60a3.14,3.14,0,0,1-.41-1.59,3.07,3.07,0,0,1,.41-1.58,2.82,2.82,0,0,1,1.14-1.08,3.35,3.35,0,0,1,1.62-.39,3.16,3.16,0,0,1,1.45.33,2.59,2.59,0,0,1,1,.93V55.4Zm-2,5a2.1,2.1,0,0,0,.85-.82,2.28,2.28,0,0,0,.31-1.2,2.25,2.25,0,0,0-.31-1.19,2.1,2.1,0,0,0-.85-.82,2.64,2.64,0,0,0-1.24-.29,2.48,2.48,0,0,0-1.23.29,2.07,2.07,0,0,0-.85.81,2.48,2.48,0,0,0,0,2.4,2.1,2.1,0,0,0,.85.82,2.49,2.49,0,0,0,1.23.3A2.56,2.56,0,0,0,145.68,60.42Z"/><path class="cls-1" d="M161.14,56a2.75,2.75,0,0,1,.68,2v3.66H161V58.14a2.11,2.11,0,0,0-.47-1.5,1.71,1.71,0,0,0-1.34-.52,2,2,0,0,0-1.55.61A2.37,2.37,0,0,0,157,58.4v3.31h-.85V58.14a2.11,2.11,0,0,0-.48-1.5,1.71,1.71,0,0,0-1.35-.52,2,2,0,0,0-1.54.61,2.33,2.33,0,0,0-.57,1.67v3.31h-.85V55.4h.82v1.15a2.2,2.2,0,0,1,.93-.88,2.93,2.93,0,0,1,1.38-.32,2.77,2.77,0,0,1,1.38.34,2.14,2.14,0,0,1,.87,1,2.36,2.36,0,0,1,1-1,3,3,0,0,1,1.49-.36A2.51,2.51,0,0,1,161.14,56Z"/><path class="cls-1" d="M169.58,56a2.38,2.38,0,0,1,.66,1.83v3.91h-.82v-1a2,2,0,0,1-.84.77,3,3,0,0,1-1.33.27,2.59,2.59,0,0,1-1.68-.5,1.65,1.65,0,0,1-.62-1.33,1.61,1.61,0,0,1,.58-1.3,2.84,2.84,0,0,1,1.85-.49h2v-.38a1.62,1.62,0,0,0-.46-1.25,1.9,1.9,0,0,0-1.33-.42,3.2,3.2,0,0,0-1.15.2,2.84,2.84,0,0,0-.95.54l-.38-.63a3.13,3.13,0,0,1,1.15-.63,4.43,4.43,0,0,1,1.41-.23A2.68,2.68,0,0,1,169.58,56Zm-1,4.8a2,2,0,0,0,.77-1v-1h-2c-1.08,0-1.62.37-1.62,1.12a1,1,0,0,0,.42.87,1.85,1.85,0,0,0,1.17.32A2.25,2.25,0,0,0,168.62,60.77Z"/><path class="cls-1" d="M173.89,53.84a.58.58,0,0,1-.18-.43.58.58,0,0,1,.18-.42.6.6,0,0,1,.44-.18.64.64,0,0,1,.45.17.58.58,0,0,1,.18.42.6.6,0,0,1-.18.44.61.61,0,0,1-.45.18A.6.6,0,0,1,173.89,53.84Zm0,1.56h.85v6.31h-.85Z"/><path class="cls-1" d="M178.47,52.81h.85v8.9h-.85Z"/><path class="cls-1" d="M182.68,61.58a.63.63,0,0,1-.19-.47.62.62,0,0,1,.19-.46.61.61,0,0,1,.45-.18.65.65,0,0,1,.65.64.63.63,0,0,1-.2.47.6.6,0,0,1-.45.19A.58.58,0,0,1,182.68,61.58Z"/><path class="cls-1" d="M187.69,61.37a3,3,0,0,1-1.15-1.15,3.49,3.49,0,0,1,0-3.32,2.93,2.93,0,0,1,1.15-1.14,3.45,3.45,0,0,1,1.68-.41,3.3,3.3,0,0,1,1.46.32,2.44,2.44,0,0,1,1,.93l-.64.43a2,2,0,0,0-.79-.7,2.43,2.43,0,0,0-1-.23,2.49,2.49,0,0,0-1.23.3,2.16,2.16,0,0,0-.85.87,2.62,2.62,0,0,0-.31,1.29,2.57,2.57,0,0,0,.31,1.29,2.07,2.07,0,0,0,.85.86,2.39,2.39,0,0,0,1.23.31,2.43,2.43,0,0,0,1-.23,1.83,1.83,0,0,0,.79-.7l.64.44a2.55,2.55,0,0,1-1,.93,3.28,3.28,0,0,1-1.45.31A3.45,3.45,0,0,1,187.69,61.37Z"/><path class="cls-1" d="M195.68,61.36a3,3,0,0,1-1.15-1.15,3.24,3.24,0,0,1-.42-1.65,3.28,3.28,0,0,1,.42-1.66,2.93,2.93,0,0,1,1.15-1.14,3.51,3.51,0,0,1,3.29,0,2.84,2.84,0,0,1,1.14,1.14,3.28,3.28,0,0,1,.42,1.66,3.24,3.24,0,0,1-.42,1.65A2.93,2.93,0,0,1,199,61.36a3.51,3.51,0,0,1-3.29,0Zm2.85-.65a2.05,2.05,0,0,0,.83-.87,2.66,2.66,0,0,0,.3-1.28,2.73,2.73,0,0,0-.3-1.29,2.17,2.17,0,0,0-.83-.87,2.44,2.44,0,0,0-1.21-.3,2.4,2.4,0,0,0-1.2.3,2.2,2.2,0,0,0-.84.87,2.62,2.62,0,0,0-.31,1.29,2.55,2.55,0,0,0,.31,1.28,2.07,2.07,0,0,0,.84.87,2.31,2.31,0,0,0,1.2.31A2.34,2.34,0,0,0,198.53,60.71Z"/><path class="cls-1" d="M213.35,56a2.75,2.75,0,0,1,.68,2v3.66h-.85V58.14a2.11,2.11,0,0,0-.48-1.5,1.7,1.7,0,0,0-1.34-.52,2,2,0,0,0-1.54.61,2.33,2.33,0,0,0-.57,1.67v3.31h-.85V58.14a2.16,2.16,0,0,0-.47-1.5,1.73,1.73,0,0,0-1.35-.52,2,2,0,0,0-1.55.61,2.33,2.33,0,0,0-.57,1.67v3.31h-.85V55.4h.82v1.15a2.2,2.2,0,0,1,.93-.88,2.93,2.93,0,0,1,1.38-.32,2.77,2.77,0,0,1,1.38.34,2,2,0,0,1,.87,1,2.36,2.36,0,0,1,1-1,3,3,0,0,1,1.49-.36A2.49,2.49,0,0,1,213.35,56Z"/><path class="cls-1" d="M81.43,31.12v8.4h-.88V35.65H75.3v3.87h-.89v-8.4h.89v3.75h5.25V31.12Z"/><path class="cls-1" d="M90.83,36.63H85.54a2.24,2.24,0,0,0,.76,1.59,2.54,2.54,0,0,0,1.73.61,2.74,2.74,0,0,0,1.08-.21A2.36,2.36,0,0,0,90,38l.48.55a2.71,2.71,0,0,1-1,.77,3.66,3.66,0,0,1-1.39.26,3.58,3.58,0,0,1-1.72-.41A3,3,0,0,1,85.11,38a3.27,3.27,0,0,1-.42-1.65,3.48,3.48,0,0,1,.4-1.66,2.9,2.9,0,0,1,1.11-1.14,3.23,3.23,0,0,1,3.15,0,2.89,2.89,0,0,1,1.09,1.13,3.38,3.38,0,0,1,.4,1.67Zm-4.58-2.15A2.29,2.29,0,0,0,85.54,36H90a2.28,2.28,0,0,0-.7-1.51,2.16,2.16,0,0,0-1.54-.59A2.14,2.14,0,0,0,86.25,34.48Z"/><path class="cls-1" d="M95.63,33.49a3,3,0,0,1,1.47-.33V34h-.2a2,2,0,0,0-1.56.61,2.43,2.43,0,0,0-.57,1.72v3.21h-.85V33.21h.82v1.24A2,2,0,0,1,95.63,33.49Z"/><path class="cls-1" d="M105.09,33.85a2.73,2.73,0,0,1,.7,2v3.66h-.85V36a2.07,2.07,0,0,0-.5-1.5,1.8,1.8,0,0,0-1.4-.52,2.12,2.12,0,0,0-1.61.61,2.26,2.26,0,0,0-.6,1.67v3.31H100V33.21h.82v1.16a2.36,2.36,0,0,1,1-.89,3.12,3.12,0,0,1,1.44-.32A2.59,2.59,0,0,1,105.09,33.85Z"/><path class="cls-1" d="M113.55,33.78a2.38,2.38,0,0,1,.66,1.83v3.91h-.81v-1a2.05,2.05,0,0,1-.85.77,3,3,0,0,1-1.33.27,2.65,2.65,0,0,1-1.68-.5,1.65,1.65,0,0,1-.62-1.33,1.61,1.61,0,0,1,.58-1.3,2.86,2.86,0,0,1,1.86-.49h2v-.39a1.61,1.61,0,0,0-.46-1.24,1.88,1.88,0,0,0-1.33-.42,3.43,3.43,0,0,0-1.15.19,3.16,3.16,0,0,0-1,.55l-.38-.64a3.45,3.45,0,0,1,1.15-.63,4.74,4.74,0,0,1,1.42-.22A2.67,2.67,0,0,1,113.55,33.78Zm-1,4.8a2,2,0,0,0,.77-.95v-1h-2c-1.08,0-1.62.38-1.62,1.13a1,1,0,0,0,.42.87,1.93,1.93,0,0,0,1.18.32A2.22,2.22,0,0,0,112.59,38.58Z"/><path class="cls-1" d="M123,33.85a2.69,2.69,0,0,1,.7,2v3.66h-.85V36a2.11,2.11,0,0,0-.49-1.5,1.84,1.84,0,0,0-1.41-.52,2.12,2.12,0,0,0-1.61.61,2.26,2.26,0,0,0-.6,1.67v3.31h-.85V33.21h.82v1.16a2.36,2.36,0,0,1,1-.89,3.15,3.15,0,0,1,1.44-.32A2.59,2.59,0,0,1,123,33.85Z"/><path class="cls-1" d="M137.67,31.89a2.9,2.9,0,0,1,0,4.22,3.81,3.81,0,0,1-2.52.76H132.9v2.65H132v-8.4h3.14A3.81,3.81,0,0,1,137.67,31.89ZM137,35.54A1.87,1.87,0,0,0,137.7,34a1.9,1.9,0,0,0-.66-1.56,2.9,2.9,0,0,0-1.91-.55H132.9v4.2h2.23A2.9,2.9,0,0,0,137,35.54Z"/><path class="cls-1" d="M147.13,36.63h-5.28a2.27,2.27,0,0,0,.75,1.59,2.55,2.55,0,0,0,1.73.61,2.74,2.74,0,0,0,1.08-.21,2.36,2.36,0,0,0,.85-.62l.48.55a2.71,2.71,0,0,1-1.05.77,3.65,3.65,0,0,1-1.38.26,3.56,3.56,0,0,1-1.72-.41A3,3,0,0,1,141.42,38a3.27,3.27,0,0,1-.42-1.65,3.37,3.37,0,0,1,.4-1.66,2.87,2.87,0,0,1,1.1-1.14,3.13,3.13,0,0,1,1.58-.41,3.06,3.06,0,0,1,1.57.41,2.82,2.82,0,0,1,1.09,1.13,3.38,3.38,0,0,1,.4,1.67Zm-4.58-2.15a2.24,2.24,0,0,0-.7,1.51h4.47a2.24,2.24,0,0,0-.7-1.51,2.29,2.29,0,0,0-3.07,0Z"/><path class="cls-1" d="M151.93,33.49a3,3,0,0,1,1.47-.33V34h-.2a2,2,0,0,0-1.56.61,2.43,2.43,0,0,0-.56,1.72v3.21h-.86V33.21H151v1.24A2,2,0,0,1,151.93,33.49Z"/><path class="cls-1" d="M161.72,36.63h-5.28a2.24,2.24,0,0,0,.76,1.59,2.51,2.51,0,0,0,1.72.61,2.67,2.67,0,0,0,1.08-.21,2.4,2.4,0,0,0,.86-.62l.48.55a2.71,2.71,0,0,1-1.05.77,3.7,3.7,0,0,1-1.39.26,3.56,3.56,0,0,1-1.72-.41A3,3,0,0,1,156,38a3.27,3.27,0,0,1-.42-1.65,3.37,3.37,0,0,1,.4-1.66,2.94,2.94,0,0,1,1.1-1.14,3.13,3.13,0,0,1,1.58-.41,3,3,0,0,1,1.57.41,2.91,2.91,0,0,1,1.1,1.13,3.49,3.49,0,0,1,.39,1.67Zm-4.58-2.15a2.28,2.28,0,0,0-.7,1.51h4.48a2.25,2.25,0,0,0-.71-1.51,2.29,2.29,0,0,0-3.07,0Z"/><path class="cls-1" d="M169.21,38.81v.71h-5.14V39l4-5h-3.9v-.72h5v.56l-4,5Z"/><path class="cls-1" d="M103.84,82.44v7h-.71v-5.6l-2.75,4.71H100l-2.75-4.68v5.57h-.71v-7h.61l3,5.19,3-5.19Z"/><path class="cls-1" d="M111.67,87h-4.4a1.89,1.89,0,0,0,.63,1.32,2.08,2.08,0,0,0,1.44.51,2.26,2.26,0,0,0,.9-.18,2,2,0,0,0,.71-.51l.4.46a2.36,2.36,0,0,1-.88.64,3.06,3.06,0,0,1-1.15.22,3,3,0,0,1-1.44-.35,2.46,2.46,0,0,1-1-1,2.67,2.67,0,0,1-.35-1.38,2.82,2.82,0,0,1,.33-1.38,2.34,2.34,0,0,1,.92-1,2.71,2.71,0,0,1,2.63,0,2.42,2.42,0,0,1,.91.94,2.88,2.88,0,0,1,.33,1.39Zm-3.82-1.8a1.89,1.89,0,0,0-.58,1.27H111a2,2,0,0,0-.59-1.27,1.95,1.95,0,0,0-2.56,0Z"/><path class="cls-1" d="M118.5,84.71a2.24,2.24,0,0,1,.59,1.68v3h-.71v-3a1.74,1.74,0,0,0-.41-1.25,1.55,1.55,0,0,0-1.17-.43,1.83,1.83,0,0,0-1.35.5,1.91,1.91,0,0,0-.49,1.4v2.76h-.71V84.18h.68v1a2,2,0,0,1,.8-.75,2.53,2.53,0,0,1,1.2-.26A2.15,2.15,0,0,1,118.5,84.71Z"/><path class="cls-1" d="M122.32,89.3a2.66,2.66,0,0,1-.91-.46l.32-.56a2.69,2.69,0,0,0,.83.42,3.29,3.29,0,0,0,1,.17,2,2,0,0,0,1.06-.23A.72.72,0,0,0,125,88a.59.59,0,0,0-.19-.46,1.37,1.37,0,0,0-.48-.25c-.2,0-.45-.11-.77-.16a9.22,9.22,0,0,1-1-.25,1.47,1.47,0,0,1-.67-.42,1.2,1.2,0,0,1-.27-.83,1.29,1.29,0,0,1,.55-1.08,2.44,2.44,0,0,1,1.53-.42,4,4,0,0,1,1,.13,2.72,2.72,0,0,1,.84.36l-.31.57a2.67,2.67,0,0,0-1.55-.45,1.8,1.8,0,0,0-1,.24.73.73,0,0,0-.34.63.62.62,0,0,0,.19.48,1.21,1.21,0,0,0,.49.26,6.69,6.69,0,0,0,.8.18,9.6,9.6,0,0,1,1,.24,1.44,1.44,0,0,1,.65.41,1.12,1.12,0,0,1,.27.8,1.28,1.28,0,0,1-.58,1.09,2.71,2.71,0,0,1-1.59.41A4.16,4.16,0,0,1,122.32,89.3Z"/><path class="cls-1" d="M131.57,84.65a2,2,0,0,1,.55,1.53v3.26h-.68v-.82a1.7,1.7,0,0,1-.71.64,2.51,2.51,0,0,1-1.1.23,2.14,2.14,0,0,1-1.4-.42,1.45,1.45,0,0,1,0-2.19,2.34,2.34,0,0,1,1.55-.41h1.67v-.32a1.37,1.37,0,0,0-.38-1,1.57,1.57,0,0,0-1.11-.35,2.76,2.76,0,0,0-1,.16,2.29,2.29,0,0,0-.79.46l-.32-.53a2.78,2.78,0,0,1,1-.53,3.79,3.79,0,0,1,1.18-.18A2.26,2.26,0,0,1,131.57,84.65Zm-.8,4a1.68,1.68,0,0,0,.64-.79V87h-1.65c-.9,0-1.35.31-1.35.94a.83.83,0,0,0,.35.72,1.57,1.57,0,0,0,1,.27A1.91,1.91,0,0,0,130.77,88.65Z"/><path class="cls-1" d="M133.76,91.34a1.1,1.1,0,0,1-.48-.25l.25-.54a1.19,1.19,0,0,0,.82.27.83.83,0,0,0,.64-.25,1.09,1.09,0,0,0,.23-.74V84.18h.71v5.65a1.69,1.69,0,0,1-.4,1.17,1.51,1.51,0,0,1-1.14.43A2.18,2.18,0,0,1,133.76,91.34Zm1.45-8.47a.49.49,0,0,1-.15-.36.47.47,0,0,1,.15-.35.5.5,0,0,1,.37-.15.5.5,0,0,1,.37.14.47.47,0,0,1,.15.35.51.51,0,0,1-.52.52A.5.5,0,0,1,135.21,82.87Z"/><path class="cls-1" d="M143.61,87h-4.4a1.89,1.89,0,0,0,.63,1.32,2.06,2.06,0,0,0,1.44.51,2.18,2.18,0,0,0,.89-.18,1.93,1.93,0,0,0,.72-.51l.4.46a2.36,2.36,0,0,1-.88.64,3.11,3.11,0,0,1-1.16.22,2.91,2.91,0,0,1-1.43-.35,2.46,2.46,0,0,1-1-1,2.67,2.67,0,0,1-.35-1.38,2.82,2.82,0,0,1,.33-1.38,2.34,2.34,0,0,1,.92-1,2.71,2.71,0,0,1,2.63,0,2.42,2.42,0,0,1,.91.94,3,3,0,0,1,.33,1.39Zm-3.82-1.8a1.89,1.89,0,0,0-.58,1.27h3.73a2,2,0,0,0-.59-1.27,1.95,1.95,0,0,0-2.56,0Z"/><path class="cls-1" d="M145.88,85.07a.56.56,0,0,1-.15-.39.53.53,0,0,1,.15-.39.51.51,0,0,1,.37-.15.52.52,0,0,1,.38.15.5.5,0,0,1,.16.39.53.53,0,0,1-.91.39Zm0,4.26a.56.56,0,0,1-.15-.39.54.54,0,0,1,.15-.39.51.51,0,0,1,.37-.15.52.52,0,0,1,.38.15.51.51,0,0,1,.16.39.53.53,0,0,1-.91.39Z"/><path class="cls-1" d="M49.78,111.44l-1.92-2.7c-.22,0-.44,0-.67,0H44.93v2.67H44V103h3.15a3.81,3.81,0,0,1,2.52.76,2.63,2.63,0,0,1,.91,2.12,2.61,2.61,0,0,1-1.92,2.64l2,2.88Zm-.71-4a1.89,1.89,0,0,0,.66-1.54,1.92,1.92,0,0,0-.66-1.57,2.94,2.94,0,0,0-1.91-.55H44.93V108h2.23A2.88,2.88,0,0,0,49.07,107.46Z"/><path class="cls-1" d="M59.38,108.54H54.1a2.24,2.24,0,0,0,.76,1.59,2.46,2.46,0,0,0,1.72.61,2.7,2.7,0,0,0,1.08-.21,2.4,2.4,0,0,0,.86-.62l.48.55a2.68,2.68,0,0,1-1,.77,3.52,3.52,0,0,1-1.39.27,3.45,3.45,0,0,1-1.72-.42,3,3,0,0,1-1.17-1.14,3.28,3.28,0,0,1-.42-1.66,3.4,3.4,0,0,1,.4-1.66,3.09,3.09,0,0,1,1.1-1.14,3.12,3.12,0,0,1,1.58-.4,3,3,0,0,1,1.57.4,2.94,2.94,0,0,1,1.1,1.14,3.45,3.45,0,0,1,.39,1.66Zm-4.58-2.15a2.31,2.31,0,0,0-.7,1.52h4.48a2.27,2.27,0,0,0-.71-1.52,2.32,2.32,0,0,0-3.07,0Z"/><path class="cls-1" d="M68.32,105.12v5.55a2.77,2.77,0,0,1-3.16,3.15,5.34,5.34,0,0,1-1.66-.25,3.51,3.51,0,0,1-1.28-.72l.43-.65a3.2,3.2,0,0,0,1.11.64,4.25,4.25,0,0,0,1.38.23,2.41,2.41,0,0,0,1.76-.56,2.33,2.33,0,0,0,.57-1.73V110a2.54,2.54,0,0,1-1,.91,3.18,3.18,0,0,1-1.42.32,3.4,3.4,0,0,1-1.62-.39,2.94,2.94,0,0,1-1.14-1.1,3.27,3.27,0,0,1,0-3.17,3,3,0,0,1,1.14-1.08,3.34,3.34,0,0,1,1.62-.38,3.15,3.15,0,0,1,1.45.32,2.62,2.62,0,0,1,1,.94v-1.22Zm-2,5a2.12,2.12,0,0,0,.85-.83,2.46,2.46,0,0,0,0-2.39,2.1,2.1,0,0,0-.85-.82,2.64,2.64,0,0,0-1.24-.29,2.6,2.6,0,0,0-1.23.29,2.07,2.07,0,0,0-.85.81,2.33,2.33,0,0,0-.31,1.2,2.28,2.28,0,0,0,.31,1.2,2.12,2.12,0,0,0,.85.83,2.6,2.6,0,0,0,1.23.29A2.67,2.67,0,0,0,66.33,110.15Z"/><path class="cls-1" d="M76.15,105.69a2.41,2.41,0,0,1,.66,1.83v3.92H76v-1a1.93,1.93,0,0,1-.85.77,3,3,0,0,1-1.32.28,2.55,2.55,0,0,1-1.68-.51,1.61,1.61,0,0,1-.63-1.33,1.64,1.64,0,0,1,.58-1.3,2.92,2.92,0,0,1,1.86-.49h2v-.38a1.61,1.61,0,0,0-.45-1.24,1.88,1.88,0,0,0-1.34-.43A3.43,3.43,0,0,0,73,106a2.94,2.94,0,0,0-1,.54l-.38-.63a3.45,3.45,0,0,1,1.15-.63,4.44,4.44,0,0,1,1.42-.22A2.67,2.67,0,0,1,76.15,105.69Zm-1,4.8a1.92,1.92,0,0,0,.77-.95v-1H74c-1.08,0-1.62.37-1.62,1.13a1.05,1.05,0,0,0,.42.87,2,2,0,0,0,1.18.31A2.22,2.22,0,0,0,75.19,110.49Z"/><path class="cls-1" d="M80.47,102.53h.86v8.91h-.86Z"/><path class="cls-1" d="M86,111.08a3,3,0,0,1-1.15-1.14,3.49,3.49,0,0,1,0-3.32A3.07,3.07,0,0,1,86,105.48a3.58,3.58,0,0,1,3.29,0,3.07,3.07,0,0,1,1.15,1.14,3.57,3.57,0,0,1,0,3.32,3,3,0,0,1-1.15,1.14,3.43,3.43,0,0,1-3.29,0Zm2.85-.65a2.07,2.07,0,0,0,.84-.87,2.88,2.88,0,0,0,0-2.56,2.07,2.07,0,0,0-.84-.87,2.31,2.31,0,0,0-1.2-.31,2.34,2.34,0,0,0-1.21.31,2.07,2.07,0,0,0-.84.87,2.8,2.8,0,0,0,0,2.56,2.07,2.07,0,0,0,.84.87,2.34,2.34,0,0,0,1.21.31A2.31,2.31,0,0,0,88.83,110.43Z"/><path class="cls-1" d="M103.85,109.19H99.17l-1,2.25h-.92l3.84-8.4H102l3.84,8.4h-.93Zm-.32-.72-2-4.51-2,4.51Z"/><path class="cls-1" d="M113.21,105.48a2.86,2.86,0,0,1,1.13,1.13,3.61,3.61,0,0,1,0,3.34,2.88,2.88,0,0,1-1.13,1.14,3.24,3.24,0,0,1-1.61.41,3,3,0,0,1-1.42-.34,2.54,2.54,0,0,1-1-1v1.25h-.82v-8.91h.85v3.79a2.76,2.76,0,0,1,1-.93,3,3,0,0,1,1.38-.31A3.23,3.23,0,0,1,113.21,105.48Zm-.47,5a2.16,2.16,0,0,0,.85-.87,2.88,2.88,0,0,0,0-2.56,2.16,2.16,0,0,0-.85-.87,2.33,2.33,0,0,0-1.2-.31,2.28,2.28,0,0,0-1.2.31,2.07,2.07,0,0,0-.84.87,2.8,2.8,0,0,0,0,2.56,2.07,2.07,0,0,0,.84.87,2.28,2.28,0,0,0,1.2.31A2.33,2.33,0,0,0,112.74,110.43Z"/><path class="cls-1" d="M123.33,108.54h-5.28a2.23,2.23,0,0,0,.75,1.59,2.49,2.49,0,0,0,1.73.61,2.74,2.74,0,0,0,1.08-.21,2.36,2.36,0,0,0,.85-.62l.48.55a2.61,2.61,0,0,1-1,.77,3.72,3.72,0,0,1-3.11-.15,3,3,0,0,1-1.17-1.14,3.28,3.28,0,0,1-.42-1.66,3.4,3.4,0,0,1,.41-1.66,2.94,2.94,0,0,1,1.1-1.14,3.09,3.09,0,0,1,1.58-.4,3.06,3.06,0,0,1,1.57.4,2.92,2.92,0,0,1,1.09,1.14,3.34,3.34,0,0,1,.4,1.66Zm-4.58-2.15a2.26,2.26,0,0,0-.7,1.52h4.47a2.26,2.26,0,0,0-.7-1.52,2.15,2.15,0,0,0-1.54-.58A2.13,2.13,0,0,0,118.75,106.39Z"/><path class="cls-1" d="M126.48,102.53h.85v8.91h-.85Z"/><path class="cls-1" d="M140.85,105.12l-3.16,7.07a3,3,0,0,1-.89,1.26,2,2,0,0,1-1.21.37,2.37,2.37,0,0,1-.85-.14,2,2,0,0,1-.69-.43l.4-.64a1.56,1.56,0,0,0,1.15.48,1.15,1.15,0,0,0,.74-.24,2.28,2.28,0,0,0,.57-.81l.28-.62-2.82-6.3h.88l2.38,5.37,2.38-5.37Z"/><path class="cls-1" d="M155,103l-3.72,8.4h-.87l-3.72-8.4h1l3.21,7.29,3.24-7.29Z"/><path class="cls-1" d="M161,105.69a2.41,2.41,0,0,1,.66,1.83v3.92h-.81v-1a2,2,0,0,1-.85.77,3,3,0,0,1-1.33.28A2.59,2.59,0,0,1,157,111a1.63,1.63,0,0,1-.62-1.33,1.61,1.61,0,0,1,.58-1.3,2.92,2.92,0,0,1,1.86-.49h2v-.38a1.58,1.58,0,0,0-.46-1.24,1.84,1.84,0,0,0-1.33-.43,3.43,3.43,0,0,0-1.15.2,2.94,2.94,0,0,0-.95.54l-.38-.63a3.45,3.45,0,0,1,1.15-.63,4.44,4.44,0,0,1,1.42-.22A2.67,2.67,0,0,1,161,105.69Zm-1,4.8a1.92,1.92,0,0,0,.77-.95v-1h-2c-1.08,0-1.62.37-1.62,1.13a1.05,1.05,0,0,0,.42.87,1.93,1.93,0,0,0,1.18.31A2.22,2.22,0,0,0,160.08,110.49Z"/><path class="cls-1" d="M165.36,102.53h.85v8.91h-.85Z"/><path class="cls-1" d="M175.43,108.54h-5.28a2.24,2.24,0,0,0,.76,1.59,2.46,2.46,0,0,0,1.72.61,2.67,2.67,0,0,0,1.08-.21,2.4,2.4,0,0,0,.86-.62l.48.55a2.61,2.61,0,0,1-1.05.77,3.52,3.52,0,0,1-1.39.27,3.45,3.45,0,0,1-1.72-.42,3,3,0,0,1-1.17-1.14,3.28,3.28,0,0,1-.42-1.66,3.4,3.4,0,0,1,.4-1.66,3.09,3.09,0,0,1,1.1-1.14,3.12,3.12,0,0,1,1.58-.4,3,3,0,0,1,1.57.4,2.94,2.94,0,0,1,1.1,1.14,3.45,3.45,0,0,1,.39,1.66Zm-4.58-2.15a2.31,2.31,0,0,0-.7,1.52h4.48a2.27,2.27,0,0,0-.71-1.52,2.32,2.32,0,0,0-3.07,0Z"/><path class="cls-1" d="M178.75,111.27a3.05,3.05,0,0,1-1.1-.55L178,110a3.24,3.24,0,0,0,1,.51,3.76,3.76,0,0,0,1.25.2,2.42,2.42,0,0,0,1.28-.27.86.86,0,0,0,.41-.76.72.72,0,0,0-.23-.55,1.54,1.54,0,0,0-.57-.3c-.24-.06-.54-.13-.93-.19a11.13,11.13,0,0,1-1.23-.3,1.78,1.78,0,0,1-.8-.51,1.41,1.41,0,0,1-.33-1,1.57,1.57,0,0,1,.66-1.3,2.93,2.93,0,0,1,1.83-.5,4.72,4.72,0,0,1,1.23.16,3.66,3.66,0,0,1,1,.42l-.38.69a3.19,3.19,0,0,0-1.86-.54,2.11,2.11,0,0,0-1.23.29.88.88,0,0,0-.41.75.78.78,0,0,0,.23.58,1.52,1.52,0,0,0,.59.32l1,.21a11.86,11.86,0,0,1,1.21.28,1.81,1.81,0,0,1,.78.5,1.37,1.37,0,0,1,.32,1,1.52,1.52,0,0,1-.69,1.31,3.31,3.31,0,0,1-1.91.49A4.81,4.81,0,0,1,178.75,111.27Z"/><path class="cls-1" d="M188.08,108.27l-1.49,1.37v1.8h-.85v-8.91h.85v6l3.77-3.45h1l-2.7,2.58,3,3.74h-1Z"/><path class="cls-1" d="M198.28,105.69a2.41,2.41,0,0,1,.66,1.83v3.92h-.82v-1a1.91,1.91,0,0,1-.84.77,3.07,3.07,0,0,1-1.33.28,2.59,2.59,0,0,1-1.68-.51,1.74,1.74,0,0,1,0-2.63,2.88,2.88,0,0,1,1.85-.49h2v-.38a1.61,1.61,0,0,0-.46-1.24,1.85,1.85,0,0,0-1.33-.43,3.39,3.39,0,0,0-1.15.2,2.84,2.84,0,0,0-1,.54l-.39-.63a3.5,3.5,0,0,1,1.16-.63,4.38,4.38,0,0,1,1.41-.22A2.68,2.68,0,0,1,198.28,105.69Zm-1,4.8a2,2,0,0,0,.77-.95v-1h-2c-1.08,0-1.62.37-1.62,1.13a1.05,1.05,0,0,0,.42.87,1.91,1.91,0,0,0,1.17.31A2.27,2.27,0,0,0,197.32,110.49Z"/><path class="cls-2" d="M110.88,4.13l-7.61,7.63h6.25L109.26,13h-8.19l.2-1,7.6-7.64h-6l.25-1.22h7.9Z"/><path class="cls-2" d="M113.67,9.69v.08c0,1.36.76,2.12,2.35,2.12a3.31,3.31,0,0,0,2.3-.86l.58,1a4.4,4.4,0,0,1-3,1.06c-2.2,0-3.56-1.26-3.56-3.22a4.14,4.14,0,0,1,4.19-4.35,3,3,0,0,1,3.32,3.2,5.3,5.3,0,0,1-.1,1Zm.14-1h4.79a1.89,1.89,0,0,0-2.11-2.1A2.67,2.67,0,0,0,113.81,8.71Z"/><path class="cls-2" d="M124.56,2.59h1.35L123.84,13h-1.35Z"/><path class="cls-2" d="M130,2.59h1.34L129.31,13H128Z"/><path class="cls-2" d="M134.74,9.69v.08c0,1.36.76,2.12,2.35,2.12a3.31,3.31,0,0,0,2.3-.86l.58,1a4.4,4.4,0,0,1-3,1.06c-2.2,0-3.56-1.26-3.56-3.22a4.14,4.14,0,0,1,4.19-4.35,3,3,0,0,1,3.32,3.2,5.3,5.3,0,0,1-.1,1Zm.14-1h4.79a1.89,1.89,0,0,0-2.11-2.1A2.67,2.67,0,0,0,134.88,8.71Z"/><path class="cls-1" d="M27.05,174.22a2.88,2.88,0,0,1,1.13,1.14,3.35,3.35,0,0,1,.41,1.66,3.44,3.44,0,0,1-.41,1.69,3,3,0,0,1-1.12,1.13,3.24,3.24,0,0,1-1.62.4,3,3,0,0,1-1.38-.32,2.67,2.67,0,0,1-1-.93v3.52h-.85v-8.64H23v1.25a2.52,2.52,0,0,1,1-1,2.92,2.92,0,0,1,1.42-.34A3.31,3.31,0,0,1,27.05,174.22Zm-.47,5a2.22,2.22,0,0,0,.85-.87,2.73,2.73,0,0,0,.31-1.29,2.62,2.62,0,0,0-.31-1.27,2.1,2.1,0,0,0-.85-.87,2.34,2.34,0,0,0-1.2-.32,2.32,2.32,0,0,0-1.2.32,2.07,2.07,0,0,0-.84.87A2.52,2.52,0,0,0,23,177a2.62,2.62,0,0,0,.31,1.29,2.2,2.2,0,0,0,.84.87,2.4,2.4,0,0,0,1.2.3A2.43,2.43,0,0,0,26.58,179.18Z"/><path class="cls-1" d="M37.17,177.29H31.89a2.31,2.31,0,0,0,.75,1.59,2.53,2.53,0,0,0,1.73.6,2.57,2.57,0,0,0,1.08-.21,2.34,2.34,0,0,0,.85-.61l.48.55a2.81,2.81,0,0,1-1.05.77,3.65,3.65,0,0,1-1.38.26,3.56,3.56,0,0,1-1.72-.41,3,3,0,0,1-1.17-1.15A3.18,3.18,0,0,1,31,177a3.36,3.36,0,0,1,.4-1.65,2.87,2.87,0,0,1,1.1-1.14,3.13,3.13,0,0,1,1.58-.41,3.06,3.06,0,0,1,1.57.41,2.82,2.82,0,0,1,1.09,1.13,3.37,3.37,0,0,1,.4,1.66Zm-4.58-2.16a2.28,2.28,0,0,0-.7,1.52h4.47a2.28,2.28,0,0,0-.7-1.52,2.32,2.32,0,0,0-3.07,0Z"/><path class="cls-1" d="M42,174.14a3.13,3.13,0,0,1,1.47-.32v.83h-.2a2,2,0,0,0-1.56.61,2.42,2.42,0,0,0-.56,1.71v3.22h-.86v-6.31h.82v1.23A2.13,2.13,0,0,1,42,174.14Z"/><path class="cls-1" d="M51.76,177.29H46.48a2.31,2.31,0,0,0,.75,1.59,2.83,2.83,0,0,0,2.81.39,2.37,2.37,0,0,0,.86-.61l.48.55a2.89,2.89,0,0,1-1.05.77,3.7,3.7,0,0,1-1.39.26,3.56,3.56,0,0,1-1.72-.41,3,3,0,0,1-1.17-1.15,3.28,3.28,0,0,1-.42-1.66,3.36,3.36,0,0,1,.4-1.65,2.94,2.94,0,0,1,1.1-1.14,3.13,3.13,0,0,1,1.58-.41,3.06,3.06,0,0,1,1.57.41,2.91,2.91,0,0,1,1.1,1.13,3.48,3.48,0,0,1,.39,1.66Zm-4.58-2.16a2.33,2.33,0,0,0-.7,1.52H51a2.29,2.29,0,0,0-.71-1.52,2.32,2.32,0,0,0-3.07,0Z"/><path class="cls-1" d="M59.25,179.47v.71H54.11v-.56l4-5h-3.9v-.72h5v.56l-4,5Z"/><path class="cls-1" d="M67.46,173.87l-2.81,6.31h-.88L61,173.87h.89l2.37,5.38,2.39-5.38Z"/><path class="cls-1" d="M70,172.31a.6.6,0,0,1-.18-.43.58.58,0,0,1,.18-.42.59.59,0,0,1,.44-.18.62.62,0,0,1,.45.17.56.56,0,0,1,.17.41.6.6,0,0,1-.17.45.63.63,0,0,1-.45.18A.59.59,0,0,1,70,172.31Zm0,1.56h.85v6.31H70Z"/><path class="cls-1" d="M74.57,171.28h.85v8.9h-.85Z"/><path class="cls-1" d="M79.14,171.28H80v8.9h-.85Z"/><path class="cls-1" d="M87.82,174.44a2.38,2.38,0,0,1,.66,1.83v3.91h-.82v-1a2,2,0,0,1-.84.76,2.93,2.93,0,0,1-1.33.28,2.65,2.65,0,0,1-1.68-.5,1.62,1.62,0,0,1-.62-1.34,1.61,1.61,0,0,1,.58-1.29,2.82,2.82,0,0,1,1.85-.49h2v-.39a1.63,1.63,0,0,0-.46-1.24,1.9,1.9,0,0,0-1.33-.43,3.39,3.39,0,0,0-1.15.2,2.86,2.86,0,0,0-1,.55l-.39-.64a3.5,3.5,0,0,1,1.16-.63,4.38,4.38,0,0,1,1.41-.22A2.68,2.68,0,0,1,87.82,174.44Zm-1,4.8a2,2,0,0,0,.77-1v-1h-2c-1.08,0-1.62.38-1.62,1.13a1,1,0,0,0,.42.87,1.91,1.91,0,0,0,1.17.32A2.27,2.27,0,0,0,86.86,179.24Z"/><path class="cls-1" d="M92.36,180a3.32,3.32,0,0,1-1.1-.56l.39-.67a3.07,3.07,0,0,0,1,.51,4,4,0,0,0,1.25.2,2.39,2.39,0,0,0,1.28-.27.88.88,0,0,0,.41-.77.65.65,0,0,0-.23-.54,1.54,1.54,0,0,0-.57-.3,6.85,6.85,0,0,0-.93-.2,11.45,11.45,0,0,1-1.23-.29,1.83,1.83,0,0,1-.8-.51,1.44,1.44,0,0,1-.33-1,1.57,1.57,0,0,1,.66-1.3,3,3,0,0,1,1.84-.5,4.7,4.7,0,0,1,1.22.16,3.37,3.37,0,0,1,1,.43l-.37.68a3.19,3.19,0,0,0-1.86-.54,2.15,2.15,0,0,0-1.23.29.87.87,0,0,0-.42.76.72.72,0,0,0,.24.57,1.36,1.36,0,0,0,.58.32,8.23,8.23,0,0,0,1,.21,10.93,10.93,0,0,1,1.21.29,1.79,1.79,0,0,1,.78.49,1.33,1.33,0,0,1,.32,1,1.52,1.52,0,0,1-.69,1.31,3.21,3.21,0,0,1-1.91.49A4.8,4.8,0,0,1,92.36,180Z"/><path class="cls-1" d="M103.45,174.44a2.38,2.38,0,0,1,.66,1.83v3.91h-.81v-1a2,2,0,0,1-.85.76,2.86,2.86,0,0,1-1.32.28,2.61,2.61,0,0,1-1.68-.5,1.73,1.73,0,0,1,0-2.63,2.86,2.86,0,0,1,1.86-.49h2v-.39a1.62,1.62,0,0,0-.45-1.24,1.92,1.92,0,0,0-1.34-.43,3.43,3.43,0,0,0-1.15.2,3,3,0,0,0-.95.55l-.38-.64a3.45,3.45,0,0,1,1.15-.63,4.44,4.44,0,0,1,1.42-.22A2.67,2.67,0,0,1,103.45,174.44Zm-1,4.8a2,2,0,0,0,.77-1v-1h-2c-1.08,0-1.62.38-1.62,1.13a1,1,0,0,0,.42.87,1.93,1.93,0,0,0,1.18.32A2.22,2.22,0,0,0,102.49,179.24Z"/><path class="cls-1" d="M112.88,174.51a2.69,2.69,0,0,1,.7,2v3.66h-.85V176.6a2.1,2.1,0,0,0-.49-1.5,1.87,1.87,0,0,0-1.4-.51,2.17,2.17,0,0,0-1.62.6,2.3,2.3,0,0,0-.59,1.68v3.31h-.86v-6.31h.82V175a2.32,2.32,0,0,1,1-.89,3.11,3.11,0,0,1,1.43-.32A2.59,2.59,0,0,1,112.88,174.51Z"/><path class="cls-1" d="M121.35,174.44a2.38,2.38,0,0,1,.66,1.83v3.91h-.82v-1a1.92,1.92,0,0,1-.85.76,2.86,2.86,0,0,1-1.32.28,2.61,2.61,0,0,1-1.68-.5,1.63,1.63,0,0,1-.63-1.34,1.61,1.61,0,0,1,.59-1.29,2.81,2.81,0,0,1,1.85-.49h2v-.39a1.62,1.62,0,0,0-.45-1.24,1.91,1.91,0,0,0-1.33-.43,3.49,3.49,0,0,0-1.16.2,2.91,2.91,0,0,0-.94.55l-.39-.64A3.55,3.55,0,0,1,118,174a4.44,4.44,0,0,1,1.42-.22A2.7,2.7,0,0,1,121.35,174.44Zm-1,4.8a1.93,1.93,0,0,0,.76-1v-1h-2c-1.08,0-1.62.38-1.62,1.13a1,1,0,0,0,.42.87,2,2,0,0,0,1.18.32A2.27,2.27,0,0,0,120.39,179.24Z"/><path class="cls-1" d="M131.13,176.57a1.92,1.92,0,0,1,.43,1.27,2.1,2.1,0,0,1-.4,1.28A2.53,2.53,0,0,1,130,180a4.6,4.6,0,0,1-1.74.29,3.81,3.81,0,0,1-2.37-.65,2.08,2.08,0,0,1-.87-1.76,2,2,0,0,1,.42-1.28,2.42,2.42,0,0,1,1.2-.78,2.07,2.07,0,0,1-1-.73,2,2,0,0,1,.46-2.74,3.48,3.48,0,0,1,2.14-.6,4.14,4.14,0,0,1,1.56.27,2.43,2.43,0,0,1,1,.77,2,2,0,0,1,.37,1.18,1.87,1.87,0,0,1-.35,1.12,2.13,2.13,0,0,1-1,.73A2.5,2.5,0,0,1,131.13,176.57ZM130,179.06a1.52,1.52,0,0,0,0-2.46,3.59,3.59,0,0,0-3.48,0,1.43,1.43,0,0,0-.63,1.23,1.45,1.45,0,0,0,.62,1.24,3,3,0,0,0,1.74.45A2.89,2.89,0,0,0,130,179.06Zm-3.27-4a3.11,3.11,0,0,0,3,0,1.28,1.28,0,0,0,.56-1.1,1.29,1.29,0,0,0-.57-1.11,2.56,2.56,0,0,0-1.52-.41,2.51,2.51,0,0,0-1.51.41,1.28,1.28,0,0,0-.56,1.1A1.3,1.3,0,0,0,126.77,175.06Z"/><path class="cls-1" d="M142.58,172.37a4.89,4.89,0,0,1,2,1.88,5.24,5.24,0,0,1,.71,2.75,4.44,4.44,0,0,1-.53,2.38,1.62,1.62,0,0,1-1.46.86,1.32,1.32,0,0,1-1-.35,1.38,1.38,0,0,1-.41-1,2.47,2.47,0,0,1-1,1,2.9,2.9,0,0,1-1.42.34,2.88,2.88,0,0,1-2.58-1.51,3.27,3.27,0,0,1-.39-1.6,3.23,3.23,0,0,1,.39-1.59,2.83,2.83,0,0,1,1.07-1.1,3,3,0,0,1,1.51-.39,2.88,2.88,0,0,1,1.39.33,2.6,2.6,0,0,1,1,.93V174.1h.78v4.54a1,1,0,0,0,.2.7.74.74,0,0,0,.54.22,1,1,0,0,0,.9-.68,4.29,4.29,0,0,0,.33-1.87,4.7,4.7,0,0,0-.63-2.45,4.2,4.2,0,0,0-1.74-1.65,5.46,5.46,0,0,0-2.56-.59,5.29,5.29,0,0,0-2.58.61,4.25,4.25,0,0,0-1.74,1.7,4.94,4.94,0,0,0-.63,2.5,5.08,5.08,0,0,0,.62,2.51,4.34,4.34,0,0,0,1.73,1.72,5.28,5.28,0,0,0,2.55.61,6.26,6.26,0,0,0,1.18-.13,4.24,4.24,0,0,0,1.12-.4l.21.59a5.45,5.45,0,0,1-1.2.41,6.72,6.72,0,0,1-1.31.14,5.81,5.81,0,0,1-2.89-.7,5,5,0,0,1-2-1.93,5.72,5.72,0,0,1-.7-2.82,5.56,5.56,0,0,1,.71-2.81,4.91,4.91,0,0,1,2-1.92,6,6,0,0,1,2.91-.69A6.1,6.1,0,0,1,142.58,172.37Zm-1.79,6.88a2.28,2.28,0,0,0,.81-.85,2.59,2.59,0,0,0,.3-1.27,2.54,2.54,0,0,0-.3-1.25,2.05,2.05,0,0,0-.81-.84,2.53,2.53,0,0,0-2.35,0,2.21,2.21,0,0,0-.82.84,2.68,2.68,0,0,0-.29,1.25,2.72,2.72,0,0,0,.29,1.26,2.23,2.23,0,0,0,.82.85,2.33,2.33,0,0,0,1.18.3A2.42,2.42,0,0,0,140.79,179.25Z"/><path class="cls-1" d="M154.25,173.87v5.54a3.18,3.18,0,0,1-.79,2.38,3.22,3.22,0,0,1-2.37.78,5.39,5.39,0,0,1-1.66-.26,3.5,3.5,0,0,1-1.28-.71l.44-.65a3.16,3.16,0,0,0,1.11.63,3.9,3.9,0,0,0,1.37.23,2.37,2.37,0,0,0,1.76-.56,2.33,2.33,0,0,0,.57-1.73v-.8a2.61,2.61,0,0,1-1,.91,3.18,3.18,0,0,1-1.42.31,3.4,3.4,0,0,1-1.62-.39,2.91,2.91,0,0,1-1.14-1.09,3.29,3.29,0,0,1,0-3.18,2.86,2.86,0,0,1,1.14-1.07,3.35,3.35,0,0,1,1.62-.39,3.28,3.28,0,0,1,1.45.32,2.62,2.62,0,0,1,1,.94v-1.21Zm-2,5a2.19,2.19,0,0,0,.86-.82,2.55,2.55,0,0,0,0-2.4,2.17,2.17,0,0,0-.86-.81,2.5,2.5,0,0,0-1.24-.3,2.66,2.66,0,0,0-1.23.29,2.1,2.1,0,0,0-.85.82,2.48,2.48,0,0,0,0,2.4,2.16,2.16,0,0,0,.85.82,2.77,2.77,0,0,0,2.47,0Z"/><path class="cls-1" d="M167.72,174.5a2.77,2.77,0,0,1,.68,2v3.66h-.85V176.6a2.15,2.15,0,0,0-.48-1.5,1.73,1.73,0,0,0-1.34-.51,2,2,0,0,0-1.54.6,2.37,2.37,0,0,0-.57,1.68v3.31h-.85V176.6a2.19,2.19,0,0,0-.47-1.5,1.76,1.76,0,0,0-1.35-.51,2,2,0,0,0-1.55.6,2.37,2.37,0,0,0-.57,1.68v3.31H158v-6.31h.82V175a2.28,2.28,0,0,1,.93-.89,2.92,2.92,0,0,1,1.38-.31,2.67,2.67,0,0,1,1.38.34,2,2,0,0,1,.87,1,2.48,2.48,0,0,1,1-1,3.15,3.15,0,0,1,1.49-.35A2.52,2.52,0,0,1,167.72,174.5Z"/><path class="cls-1" d="M176.16,174.44a2.38,2.38,0,0,1,.66,1.83v3.91H176v-1a2,2,0,0,1-.85.76,2.87,2.87,0,0,1-1.33.28,2.65,2.65,0,0,1-1.68-.5,1.65,1.65,0,0,1-.62-1.34,1.61,1.61,0,0,1,.58-1.29,2.86,2.86,0,0,1,1.86-.49h2v-.39a1.59,1.59,0,0,0-.46-1.24,1.88,1.88,0,0,0-1.33-.43,3.43,3.43,0,0,0-1.15.2,3,3,0,0,0-.95.55l-.38-.64a3.45,3.45,0,0,1,1.15-.63,4.44,4.44,0,0,1,1.42-.22A2.67,2.67,0,0,1,176.16,174.44Zm-1,4.8a2,2,0,0,0,.77-1v-1h-2c-1.08,0-1.62.38-1.62,1.13a1,1,0,0,0,.42.87,1.93,1.93,0,0,0,1.18.32A2.22,2.22,0,0,0,175.2,179.24Z"/><path class="cls-1" d="M180.47,172.31a.6.6,0,0,1-.18-.43.58.58,0,0,1,.18-.42.65.65,0,0,1,.89,0,.57.57,0,0,1,.18.41.62.62,0,0,1-.63.63A.6.6,0,0,1,180.47,172.31Zm0,1.56h.85v6.31h-.85Z"/><path class="cls-1" d="M185.05,171.28h.86v8.9h-.86Z"/><path class="cls-1" d="M189.26,180.05a.68.68,0,0,1-.19-.47.64.64,0,0,1,.19-.46.62.62,0,0,1,.45-.19.66.66,0,0,1,.46.19.64.64,0,0,1,.19.46.68.68,0,0,1-.19.47.62.62,0,0,1-.46.19A.58.58,0,0,1,189.26,180.05Z"/><path class="cls-1" d="M194.28,179.83a2.89,2.89,0,0,1-1.16-1.14,3.34,3.34,0,0,1-.42-1.67,3.27,3.27,0,0,1,.42-1.65,2.89,2.89,0,0,1,1.16-1.14,3.41,3.41,0,0,1,1.67-.41,3.3,3.3,0,0,1,1.46.32,2.39,2.39,0,0,1,1,.93l-.63.43a2.07,2.07,0,0,0-.8-.7,2.27,2.27,0,0,0-1-.24,2.5,2.5,0,0,0-1.23.31,2.1,2.1,0,0,0-.85.87,2.82,2.82,0,0,0,0,2.57,2.16,2.16,0,0,0,.85.87,2.49,2.49,0,0,0,1.23.3,2.4,2.4,0,0,0,1-.22,2.07,2.07,0,0,0,.8-.7l.63.43a2.41,2.41,0,0,1-1,.93,3.25,3.25,0,0,1-1.45.32A3.41,3.41,0,0,1,194.28,179.83Z"/><path class="cls-1" d="M202.26,179.83a3,3,0,0,1-1.15-1.15,3.47,3.47,0,0,1,0-3.31,2.93,2.93,0,0,1,1.15-1.14,3.51,3.51,0,0,1,3.29,0,2.93,2.93,0,0,1,1.15,1.14,3.55,3.55,0,0,1,0,3.31,3,3,0,0,1-1.15,1.15,3.51,3.51,0,0,1-3.29,0Zm2.85-.65a2.2,2.2,0,0,0,.84-.87,2.73,2.73,0,0,0,.3-1.29,2.69,2.69,0,0,0-.3-1.28,2.07,2.07,0,0,0-.84-.87,2.41,2.41,0,0,0-1.2-.31,2.45,2.45,0,0,0-1.21.31,2.07,2.07,0,0,0-.84.87,2.69,2.69,0,0,0-.31,1.28,2.73,2.73,0,0,0,.31,1.29,2.2,2.2,0,0,0,.84.87,2.44,2.44,0,0,0,1.21.3A2.4,2.4,0,0,0,205.11,179.18Z"/><path class="cls-1" d="M219.93,174.5a2.77,2.77,0,0,1,.68,2v3.66h-.85V176.6a2.15,2.15,0,0,0-.48-1.5,1.72,1.72,0,0,0-1.33-.51,2,2,0,0,0-1.55.6,2.37,2.37,0,0,0-.57,1.68v3.31H215V176.6a2.19,2.19,0,0,0-.47-1.5,1.76,1.76,0,0,0-1.35-.51,2,2,0,0,0-1.54.6,2.37,2.37,0,0,0-.57,1.68v3.31h-.86v-6.31H211V175a2.31,2.31,0,0,1,.94-.89,2.92,2.92,0,0,1,1.38-.31,2.65,2.65,0,0,1,1.37.34,2,2,0,0,1,.87,1,2.55,2.55,0,0,1,1-1,3.19,3.19,0,0,1,1.5-.35A2.52,2.52,0,0,1,219.93,174.5Z"/><path class="cls-1" d="M103.84,197.9v7h-.71v-5.6L100.38,204H100l-2.75-4.68v5.57h-.71v-7h.61l3,5.19,3-5.19Z"/><path class="cls-1" d="M111.67,202.49h-4.4a1.89,1.89,0,0,0,.63,1.33,2.07,2.07,0,0,0,1.44.5,2.25,2.25,0,0,0,.9-.17,2,2,0,0,0,.71-.52l.4.46a2.25,2.25,0,0,1-.88.64,2.88,2.88,0,0,1-1.15.22,3,3,0,0,1-1.44-.34,2.42,2.42,0,0,1-1-1,2.62,2.62,0,0,1-.35-1.38,2.87,2.87,0,0,1,.33-1.38,2.47,2.47,0,0,1,.92-.95,2.71,2.71,0,0,1,2.63,0,2.52,2.52,0,0,1,.91.95,2.82,2.82,0,0,1,.33,1.38Zm-3.82-1.79a1.87,1.87,0,0,0-.58,1.26H111a1.92,1.92,0,0,0-.59-1.26,1.92,1.92,0,0,0-2.56,0Z"/><path class="cls-1" d="M118.5,200.18a2.24,2.24,0,0,1,.59,1.67v3.05h-.71v-3a1.78,1.78,0,0,0-.41-1.25,1.59,1.59,0,0,0-1.17-.43,1.79,1.79,0,0,0-1.35.51,1.9,1.9,0,0,0-.49,1.39v2.76h-.71v-5.26h.68v1a2,2,0,0,1,.8-.74,2.53,2.53,0,0,1,1.2-.27A2.15,2.15,0,0,1,118.5,200.18Z"/><path class="cls-1" d="M122.32,204.77a2.5,2.5,0,0,1-.91-.47l.32-.56a2.5,2.5,0,0,0,.83.43,3.28,3.28,0,0,0,1,.16,2,2,0,0,0,1.06-.22.72.72,0,0,0,.35-.64.59.59,0,0,0-.19-.45,1.37,1.37,0,0,0-.48-.25c-.2-.06-.45-.11-.77-.17a9.54,9.54,0,0,1-1-.24,1.49,1.49,0,0,1-.67-.43,1.18,1.18,0,0,1-.27-.83,1.29,1.29,0,0,1,.55-1.08,2.44,2.44,0,0,1,1.53-.42,4,4,0,0,1,1,.14,3,3,0,0,1,.84.35l-.31.57a2.67,2.67,0,0,0-1.55-.45,1.8,1.8,0,0,0-1,.24.73.73,0,0,0-.34.63.62.62,0,0,0,.19.48,1.22,1.22,0,0,0,.49.27,7,7,0,0,0,.8.17,9.6,9.6,0,0,1,1,.24,1.53,1.53,0,0,1,.65.41,1.14,1.14,0,0,1,.27.8,1.29,1.29,0,0,1-.58,1.1,2.71,2.71,0,0,1-1.59.4A4.16,4.16,0,0,1,122.32,204.77Z"/><path class="cls-1" d="M131.57,200.12a2,2,0,0,1,.55,1.52v3.26h-.68v-.82a1.58,1.58,0,0,1-.71.64,2.38,2.38,0,0,1-1.1.23,2.14,2.14,0,0,1-1.4-.42,1.35,1.35,0,0,1-.52-1.11,1.37,1.37,0,0,1,.48-1.08,2.4,2.4,0,0,1,1.55-.41h1.67v-.32a1.36,1.36,0,0,0-.38-1,1.58,1.58,0,0,0-1.11-.36,2.77,2.77,0,0,0-1,.17,2.43,2.43,0,0,0-.79.45l-.32-.53a2.76,2.76,0,0,1,1-.52,3.79,3.79,0,0,1,1.18-.19A2.26,2.26,0,0,1,131.57,200.12Zm-.8,4a1.66,1.66,0,0,0,.64-.8v-.86h-1.65c-.9,0-1.35.32-1.35.94a.85.85,0,0,0,.35.73,1.57,1.57,0,0,0,1,.26A1.91,1.91,0,0,0,130.77,204.12Z"/><path class="cls-1" d="M133.76,206.81a1.11,1.11,0,0,1-.48-.26l.25-.54a1.19,1.19,0,0,0,.82.27A.8.8,0,0,0,135,206a1.06,1.06,0,0,0,.23-.74v-5.65h.71v5.65a1.66,1.66,0,0,1-.4,1.17,1.48,1.48,0,0,1-1.14.43A2.18,2.18,0,0,1,133.76,206.81Zm1.45-8.48a.49.49,0,0,1-.15-.36.49.49,0,0,1,.15-.35.5.5,0,0,1,.37-.15.51.51,0,0,1,.37.15.46.46,0,0,1,.15.34.5.5,0,0,1-.15.37.51.51,0,0,1-.37.15A.5.5,0,0,1,135.21,198.33Z"/><path class="cls-1" d="M143.61,202.49h-4.4a1.89,1.89,0,0,0,.63,1.33,2.06,2.06,0,0,0,1.44.5,2.17,2.17,0,0,0,.89-.17,2,2,0,0,0,.72-.52l.4.46a2.25,2.25,0,0,1-.88.64,3.17,3.17,0,0,1-2.59-.12,2.42,2.42,0,0,1-1-1,2.62,2.62,0,0,1-.35-1.38,2.87,2.87,0,0,1,.33-1.38,2.47,2.47,0,0,1,.92-.95,2.71,2.71,0,0,1,2.63,0,2.52,2.52,0,0,1,.91.95,2.93,2.93,0,0,1,.33,1.38Zm-3.82-1.79a1.87,1.87,0,0,0-.58,1.26h3.73a1.92,1.92,0,0,0-.59-1.26,1.92,1.92,0,0,0-2.56,0Z"/><path class="cls-1" d="M145.88,200.53a.53.53,0,0,1-.15-.39.53.53,0,0,1,.52-.54.53.53,0,0,1,.38.16.49.49,0,0,1,.16.38.5.5,0,0,1-.16.39.49.49,0,0,1-.38.16A.49.49,0,0,1,145.88,200.53Zm0,4.26a.53.53,0,0,1-.15-.39.53.53,0,0,1,.52-.54.53.53,0,0,1,.38.16.49.49,0,0,1,.16.38.5.5,0,0,1-.16.39.49.49,0,0,1-.38.16A.49.49,0,0,1,145.88,204.79Z"/><path class="cls-1" d="M49.78,226.9l-1.92-2.7a4.92,4.92,0,0,1-.67,0H44.93v2.66H44v-8.4h3.15a3.81,3.81,0,0,1,2.52.77,2.61,2.61,0,0,1,.91,2.11,2.78,2.78,0,0,1-.5,1.67,2.73,2.73,0,0,1-1.42,1l2,2.88Zm-.71-4a2.16,2.16,0,0,0,0-3.11,2.88,2.88,0,0,0-1.91-.55H44.93v4.21h2.23A2.88,2.88,0,0,0,49.07,222.93Z"/><path class="cls-1" d="M59.38,224H54.1a2.24,2.24,0,0,0,.76,1.59,2.46,2.46,0,0,0,1.72.61,2.7,2.7,0,0,0,1.08-.21,2.4,2.4,0,0,0,.86-.62l.48.55a2.78,2.78,0,0,1-1,.77,3.51,3.51,0,0,1-1.39.26,3.45,3.45,0,0,1-1.72-.41,3,3,0,0,1-1.17-1.15,3.24,3.24,0,0,1-.42-1.65,3.37,3.37,0,0,1,.4-1.66,2.94,2.94,0,0,1,1.1-1.14,3.13,3.13,0,0,1,1.58-.41,3,3,0,0,1,1.57.41,2.87,2.87,0,0,1,1.1,1.14,3.42,3.42,0,0,1,.39,1.66Zm-4.58-2.15a2.31,2.31,0,0,0-.7,1.52h4.48a2.27,2.27,0,0,0-.71-1.52,2.32,2.32,0,0,0-3.07,0Z"/><path class="cls-1" d="M68.32,220.59v5.55a3.19,3.19,0,0,1-.79,2.38,3.26,3.26,0,0,1-2.37.77A5.06,5.06,0,0,1,63.5,229a3.5,3.5,0,0,1-1.28-.71l.43-.65a3.37,3.37,0,0,0,1.11.64,4.25,4.25,0,0,0,1.38.23A2.41,2.41,0,0,0,66.9,228a2.34,2.34,0,0,0,.57-1.74v-.8a2.61,2.61,0,0,1-1,.91,3.18,3.18,0,0,1-1.42.31,3.4,3.4,0,0,1-1.62-.39,2.91,2.91,0,0,1-1.14-1.09,3.14,3.14,0,0,1-.41-1.59,3.07,3.07,0,0,1,.41-1.58,2.82,2.82,0,0,1,1.14-1.08,3.35,3.35,0,0,1,1.62-.39,3.16,3.16,0,0,1,1.45.33,2.59,2.59,0,0,1,1,.93v-1.21Zm-2,5a2.1,2.1,0,0,0,.85-.82,2.28,2.28,0,0,0,.31-1.2,2.25,2.25,0,0,0-.31-1.19,2.1,2.1,0,0,0-.85-.82,2.64,2.64,0,0,0-1.24-.29,2.48,2.48,0,0,0-1.23.29,2.07,2.07,0,0,0-.85.81,2.48,2.48,0,0,0,0,2.4,2.1,2.1,0,0,0,.85.82,2.49,2.49,0,0,0,1.23.3A2.56,2.56,0,0,0,66.33,225.61Z"/><path class="cls-1" d="M76.15,221.16a2.38,2.38,0,0,1,.66,1.83v3.91H76v-1a2,2,0,0,1-.85.77,3,3,0,0,1-1.32.27,2.55,2.55,0,0,1-1.68-.5,1.73,1.73,0,0,1-.05-2.63,2.86,2.86,0,0,1,1.86-.49h2V223a1.65,1.65,0,0,0-.45-1.25,1.92,1.92,0,0,0-1.34-.42,3.2,3.2,0,0,0-1.15.2,2.94,2.94,0,0,0-1,.54l-.38-.63a3.13,3.13,0,0,1,1.15-.63,4.45,4.45,0,0,1,1.42-.23A2.67,2.67,0,0,1,76.15,221.16Zm-1,4.8a2,2,0,0,0,.77-1v-1H74c-1.08,0-1.62.37-1.62,1.12a1,1,0,0,0,.42.87,1.88,1.88,0,0,0,1.18.32A2.22,2.22,0,0,0,75.19,226Z"/><path class="cls-1" d="M80.47,218h.86v8.9h-.86Z"/><path class="cls-1" d="M86,226.55a3,3,0,0,1-1.15-1.15,3.24,3.24,0,0,1-.42-1.65,3.28,3.28,0,0,1,.42-1.66A2.93,2.93,0,0,1,86,221a3.51,3.51,0,0,1,3.29,0,2.93,2.93,0,0,1,1.15,1.14,3.38,3.38,0,0,1,.41,1.66,3.34,3.34,0,0,1-.41,1.65,3,3,0,0,1-1.15,1.15,3.51,3.51,0,0,1-3.29,0Zm2.85-.65a2.07,2.07,0,0,0,.84-.87,2.66,2.66,0,0,0,.3-1.28,2.73,2.73,0,0,0-.3-1.29,2.2,2.2,0,0,0-.84-.87,2.4,2.4,0,0,0-1.2-.3,2.44,2.44,0,0,0-1.21.3,2.2,2.2,0,0,0-.84.87,2.73,2.73,0,0,0-.31,1.29,2.66,2.66,0,0,0,.31,1.28,2.07,2.07,0,0,0,.84.87,2.34,2.34,0,0,0,1.21.31A2.31,2.31,0,0,0,88.83,225.9Z"/><path class="cls-1" d="M103.85,224.66H99.17l-1,2.24h-.92l3.84-8.4H102l3.84,8.4h-.93Zm-.32-.72-2-4.51-2,4.51Z"/><path class="cls-1" d="M113.21,221a2.79,2.79,0,0,1,1.13,1.13,3.61,3.61,0,0,1,0,3.34,3,3,0,0,1-1.13,1.14,3.23,3.23,0,0,1-1.61.4,3,3,0,0,1-1.42-.33,2.61,2.61,0,0,1-1-1v1.24h-.82V218h.85v3.79a2.6,2.6,0,0,1,1-.93,3,3,0,0,1,1.38-.32A3.24,3.24,0,0,1,113.21,221Zm-.47,5a2.16,2.16,0,0,0,.85-.87,2.66,2.66,0,0,0,.3-1.28,2.73,2.73,0,0,0-.3-1.29,2.29,2.29,0,0,0-.85-.87,2.43,2.43,0,0,0-1.2-.3,2.38,2.38,0,0,0-1.2.3,2.2,2.2,0,0,0-.84.87,2.62,2.62,0,0,0-.31,1.29,2.55,2.55,0,0,0,.31,1.28,2.07,2.07,0,0,0,.84.87,2.28,2.28,0,0,0,1.2.31A2.33,2.33,0,0,0,112.74,225.9Z"/><path class="cls-1" d="M123.33,224h-5.28a2.23,2.23,0,0,0,.75,1.59,2.49,2.49,0,0,0,1.73.61,2.74,2.74,0,0,0,1.08-.21,2.36,2.36,0,0,0,.85-.62l.48.55a2.71,2.71,0,0,1-1,.77,3.83,3.83,0,0,1-3.11-.15,3,3,0,0,1-1.17-1.15,3.24,3.24,0,0,1-.42-1.65,3.38,3.38,0,0,1,.41-1.66,2.81,2.81,0,0,1,1.1-1.14,3.1,3.1,0,0,1,1.58-.41,3.06,3.06,0,0,1,1.57.41,2.85,2.85,0,0,1,1.09,1.14,3.32,3.32,0,0,1,.4,1.66Zm-4.58-2.15a2.26,2.26,0,0,0-.7,1.52h4.47a2.26,2.26,0,0,0-.7-1.52,2.15,2.15,0,0,0-1.54-.58A2.13,2.13,0,0,0,118.75,221.86Z"/><path class="cls-1" d="M126.48,218h.85v8.9h-.85Z"/><path class="cls-1" d="M140.85,220.59l-3.16,7.07a3,3,0,0,1-.89,1.26,2,2,0,0,1-1.21.37,2.61,2.61,0,0,1-.85-.14,2,2,0,0,1-.69-.43l.4-.64a1.56,1.56,0,0,0,1.15.48,1.15,1.15,0,0,0,.74-.24,2.24,2.24,0,0,0,.57-.82l.28-.61-2.82-6.3h.88l2.38,5.37,2.38-5.37Z"/><path class="cls-1" d="M155,218.5l-3.72,8.4h-.87l-3.72-8.4h1l3.21,7.3,3.24-7.3Z"/><path class="cls-1" d="M161,221.16a2.38,2.38,0,0,1,.66,1.83v3.91h-.81v-1a2.05,2.05,0,0,1-.85.77,3,3,0,0,1-1.33.27,2.59,2.59,0,0,1-1.68-.5,1.65,1.65,0,0,1-.62-1.33,1.61,1.61,0,0,1,.58-1.3,2.86,2.86,0,0,1,1.86-.49h2V223a1.62,1.62,0,0,0-.46-1.25,1.88,1.88,0,0,0-1.33-.42,3.2,3.2,0,0,0-1.15.2,2.94,2.94,0,0,0-.95.54l-.38-.63a3.13,3.13,0,0,1,1.15-.63,4.45,4.45,0,0,1,1.42-.23A2.67,2.67,0,0,1,161,221.16Zm-1,4.8a2,2,0,0,0,.77-1v-1h-2c-1.08,0-1.62.37-1.62,1.12a1,1,0,0,0,.42.87,1.86,1.86,0,0,0,1.18.32A2.22,2.22,0,0,0,160.08,226Z"/><path class="cls-1" d="M165.36,218h.85v8.9h-.85Z"/><path class="cls-1" d="M175.43,224h-5.28a2.24,2.24,0,0,0,.76,1.59,2.46,2.46,0,0,0,1.72.61,2.67,2.67,0,0,0,1.08-.21,2.4,2.4,0,0,0,.86-.62l.48.55a2.71,2.71,0,0,1-1.05.77,3.51,3.51,0,0,1-1.39.26,3.45,3.45,0,0,1-1.72-.41,3,3,0,0,1-1.17-1.15,3.24,3.24,0,0,1-.42-1.65,3.37,3.37,0,0,1,.4-1.66,2.94,2.94,0,0,1,1.1-1.14,3.13,3.13,0,0,1,1.58-.41A3,3,0,0,1,174,221a2.87,2.87,0,0,1,1.1,1.14,3.42,3.42,0,0,1,.39,1.66Zm-4.58-2.15a2.31,2.31,0,0,0-.7,1.52h4.48a2.27,2.27,0,0,0-.71-1.52,2.32,2.32,0,0,0-3.07,0Z"/><path class="cls-1" d="M178.75,226.74a3.06,3.06,0,0,1-1.1-.56l.38-.67a3.24,3.24,0,0,0,1,.51,4,4,0,0,0,1.25.2,2.42,2.42,0,0,0,1.28-.27.86.86,0,0,0,.41-.76.7.7,0,0,0-.23-.55,1.54,1.54,0,0,0-.57-.3,9.44,9.44,0,0,0-.93-.2,9.46,9.46,0,0,1-1.23-.29,1.78,1.78,0,0,1-.8-.51,1.42,1.42,0,0,1-.33-1,1.55,1.55,0,0,1,.66-1.29,2.93,2.93,0,0,1,1.83-.51,4.74,4.74,0,0,1,1.23.17,3.37,3.37,0,0,1,1,.42l-.38.69a3.19,3.19,0,0,0-1.86-.54,2.2,2.2,0,0,0-1.23.28.91.91,0,0,0-.41.76.78.78,0,0,0,.23.58,1.39,1.39,0,0,0,.59.31,8.23,8.23,0,0,0,1,.21c.5.1.9.2,1.21.29a1.88,1.88,0,0,1,.78.49,1.41,1.41,0,0,1,.32,1,1.53,1.53,0,0,1-.69,1.32,3.31,3.31,0,0,1-1.91.48A4.8,4.8,0,0,1,178.75,226.74Z"/><path class="cls-1" d="M188.08,223.74l-1.49,1.36v1.8h-.85V218h.85v6l3.77-3.45h1l-2.7,2.58,3,3.73h-1Z"/><path class="cls-1" d="M198.28,221.16a2.38,2.38,0,0,1,.66,1.83v3.91h-.82v-1a2,2,0,0,1-.84.77A3.07,3.07,0,0,1,196,227a2.59,2.59,0,0,1-1.68-.5,1.74,1.74,0,0,1,0-2.63,2.82,2.82,0,0,1,1.85-.49h2V223a1.65,1.65,0,0,0-.46-1.25,1.9,1.9,0,0,0-1.33-.42,3.16,3.16,0,0,0-1.15.2,2.84,2.84,0,0,0-1,.54l-.39-.63a3.17,3.17,0,0,1,1.16-.63,4.39,4.39,0,0,1,1.41-.23A2.68,2.68,0,0,1,198.28,221.16Zm-1,4.8a2,2,0,0,0,.77-1v-1h-2c-1.08,0-1.62.37-1.62,1.12a1,1,0,0,0,.42.87,1.85,1.85,0,0,0,1.17.32A2.27,2.27,0,0,0,197.32,226Z"/><path class="cls-2" d="M102.11,143.51c0,2.51-1.76,4-4.59,4H94.9l-.59,3h-1.4l2-9.81h3.64C100.8,140.64,102.11,141.69,102.11,143.51Zm-1.4.13c0-1.18-.84-1.78-2.32-1.78H96l-.88,4.4h2.4C99.55,146.26,100.71,145.36,100.71,143.64Z"/><path class="cls-2" d="M112.7,143l-1.48,7.43h-1.28l.18-.91a3.71,3.71,0,0,1-2.62,1,3.06,3.06,0,0,1-3.28-3.21,4.15,4.15,0,0,1,4.2-4.37,2.85,2.85,0,0,1,2.68,1.33l.25-1.26Zm-2,3.2a2,2,0,0,0-2.21-2.09,2.92,2.92,0,0,0-2.9,3.14,2,2,0,0,0,2.21,2.08A2.91,2.91,0,0,0,110.69,146.22Z"/><path class="cls-2" d="M123.39,143l-5.27,8.24c-1,1.51-1.72,2-2.88,2a2.65,2.65,0,0,1-1.86-.66l.7-1a1.73,1.73,0,0,0,1.26.5c.61,0,1.06-.28,1.59-1.11l.38-.58L115.52,143h1.34l1.43,5.94L122,143Z"/><path class="cls-2" d="M133.22,146.15a4.16,4.16,0,0,1-4.2,4.38,2.86,2.86,0,0,1-2.69-1.34l-.79,4H124.2l2-10.15h1.28l-.18.93a3.68,3.68,0,0,1,2.62-1A3.05,3.05,0,0,1,133.22,146.15Zm-1.36.07a2,2,0,0,0-2.21-2.09,2.92,2.92,0,0,0-2.9,3.14,2,2,0,0,0,2.21,2.08A2.92,2.92,0,0,0,131.86,146.22Z"/><path class="cls-2" d="M144.32,143l-1.47,7.43h-1.29l.18-.91a3.68,3.68,0,0,1-2.62,1,3.05,3.05,0,0,1-3.27-3.21,4.15,4.15,0,0,1,4.2-4.37,2.83,2.83,0,0,1,2.67,1.33L143,143Zm-2,3.2a2,2,0,0,0-2.21-2.09,2.92,2.92,0,0,0-2.9,3.14,2,2,0,0,0,2.21,2.08A2.91,2.91,0,0,0,142.32,146.22Z"/><path class="cls-2" d="M149.05,140.05h1.34l-2.07,10.4H147Z"/><path class="cls-1" d="M100.19,289.43v7h-.71v-5.6l-2.75,4.71h-.35l-2.75-4.68v5.57h-.71v-7h.61l3,5.19,3-5.19Z"/><path class="cls-1" d="M108,294h-4.4a1.89,1.89,0,0,0,.63,1.33,2.07,2.07,0,0,0,1.44.5,2.25,2.25,0,0,0,.9-.17,2.11,2.11,0,0,0,.71-.51l.4.45a2.25,2.25,0,0,1-.88.64,2.88,2.88,0,0,1-1.15.22,3,3,0,0,1-1.44-.34,2.49,2.49,0,0,1-1-1,2.62,2.62,0,0,1-.35-1.38,2.87,2.87,0,0,1,.33-1.38,2.54,2.54,0,0,1,.92-.95,2.71,2.71,0,0,1,2.63,0,2.52,2.52,0,0,1,.91.95,2.82,2.82,0,0,1,.33,1.38Zm-3.82-1.79a1.87,1.87,0,0,0-.58,1.26h3.73a1.88,1.88,0,0,0-.59-1.26,1.92,1.92,0,0,0-2.56,0Z"/><path class="cls-1" d="M112,291.4a2.54,2.54,0,0,1,1.23-.27v.69h-.17a1.67,1.67,0,0,0-1.3.51,2,2,0,0,0-.47,1.43v2.68h-.71v-5.26h.68v1A1.69,1.69,0,0,1,112,291.4Z"/><path class="cls-1" d="M116.38,296.14a2.37,2.37,0,0,1-1-.95,2.92,2.92,0,0,1,0-2.77,2.5,2.5,0,0,1,1-.95,2.93,2.93,0,0,1,1.4-.34,2.63,2.63,0,0,1,1.21.27,2,2,0,0,1,.85.77l-.53.36a1.74,1.74,0,0,0-.66-.58,2,2,0,0,0-.87-.2,2.1,2.1,0,0,0-1,.26,1.82,1.82,0,0,0-.71.72,2.44,2.44,0,0,0,0,2.15,1.82,1.82,0,0,0,.71.72,2.09,2.09,0,0,0,1,.25,2.12,2.12,0,0,0,.87-.18,1.77,1.77,0,0,0,.66-.59l.53.36a2.06,2.06,0,0,1-.85.78,2.68,2.68,0,0,1-1.21.26A2.82,2.82,0,0,1,116.38,296.14Z"/><path class="cls-1" d="M125.77,291.65a2,2,0,0,1,.55,1.52v3.26h-.68v-.82a1.58,1.58,0,0,1-.71.64,2.38,2.38,0,0,1-1.1.23,2.14,2.14,0,0,1-1.4-.42,1.33,1.33,0,0,1-.52-1.11,1.37,1.37,0,0,1,.48-1.08,2.42,2.42,0,0,1,1.55-.41h1.67v-.32a1.36,1.36,0,0,0-.38-1,1.58,1.58,0,0,0-1.11-.36,2.77,2.77,0,0,0-1,.17,2.43,2.43,0,0,0-.79.45l-.32-.53a2.76,2.76,0,0,1,1-.52,3.79,3.79,0,0,1,1.18-.19A2.26,2.26,0,0,1,125.77,291.65Zm-.8,4a1.66,1.66,0,0,0,.64-.8V294H124c-.9,0-1.35.32-1.35.94a.85.85,0,0,0,.35.73,1.57,1.57,0,0,0,1,.26A1.91,1.91,0,0,0,125,295.65Z"/><path class="cls-1" d="M133.62,291.71a2.24,2.24,0,0,1,.59,1.67v3.05h-.71v-3a1.78,1.78,0,0,0-.41-1.25,1.59,1.59,0,0,0-1.17-.43,1.79,1.79,0,0,0-1.35.51,1.9,1.9,0,0,0-.49,1.39v2.76h-.71v-5.26h.68v1a2,2,0,0,1,.8-.74,2.56,2.56,0,0,1,1.2-.27A2.15,2.15,0,0,1,133.62,291.71Z"/><path class="cls-1" d="M140,296.11a1.35,1.35,0,0,1-.5.28,2,2,0,0,1-.61.09,1.39,1.39,0,0,1-1.54-1.53v-3.18h-.94v-.6h.94V290h.71v1.15h1.6v.6h-1.6v3.15a1,1,0,0,0,.23.71.91.91,0,0,0,.68.24,1.2,1.2,0,0,0,.42-.07.91.91,0,0,0,.36-.2Z"/><path class="cls-1" d="M142.43,289.87a.49.49,0,0,1-.15-.36.45.45,0,0,1,.15-.34.47.47,0,0,1,.37-.16.51.51,0,0,1,.37.15.46.46,0,0,1,.15.34.5.5,0,0,1-.15.37.51.51,0,0,1-.37.15A.5.5,0,0,1,142.43,289.87Zm0,1.3h.71v5.26h-.71Z"/><path class="cls-1" d="M146.25,289H147v7.42h-.71Z"/><path class="cls-1" d="M149.75,292.06a.53.53,0,0,1-.15-.39.52.52,0,0,1,.15-.38.55.55,0,0,1,.38-.16.57.57,0,0,1,.38.16.53.53,0,0,1,.16.38.53.53,0,0,1-.16.39.52.52,0,0,1-.38.16A.51.51,0,0,1,149.75,292.06Zm0,4.26a.53.53,0,0,1-.15-.39.52.52,0,0,1,.15-.38.55.55,0,0,1,.38-.16.57.57,0,0,1,.38.16.53.53,0,0,1,.16.38.53.53,0,0,1-.16.39.52.52,0,0,1-.38.16A.51.51,0,0,1,149.75,296.32Z"/><path class="cls-1" d="M29.84,318.71a3.28,3.28,0,0,1-1.19-1.48,5.47,5.47,0,0,1-.43-2.27,5.55,5.55,0,0,1,.43-2.28,3.39,3.39,0,0,1,1.19-1.48,3.19,3.19,0,0,1,3.46,0,3.49,3.49,0,0,1,1.2,1.48,5.55,5.55,0,0,1,.43,2.28,5.47,5.47,0,0,1-.43,2.27,3.37,3.37,0,0,1-1.2,1.48,3.14,3.14,0,0,1-3.46,0Zm3-.68a2.66,2.66,0,0,0,.87-1.19,5.89,5.89,0,0,0,0-3.77,2.63,2.63,0,0,0-.87-1.18,2.23,2.23,0,0,0-2.58,0,2.63,2.63,0,0,0-.87,1.18,5.89,5.89,0,0,0,0,3.77,2.66,2.66,0,0,0,.87,1.19,2.23,2.23,0,0,0,2.58,0Z"/><path class="cls-1" d="M39.81,310.76v8.4H39v-7.63H37v-.77Z"/><path class="cls-1" d="M44.78,318.71a3.28,3.28,0,0,1-1.19-1.48,5.47,5.47,0,0,1-.43-2.27,5.55,5.55,0,0,1,.43-2.28,3.39,3.39,0,0,1,1.19-1.48,3.19,3.19,0,0,1,3.46,0,3.49,3.49,0,0,1,1.2,1.48,5.55,5.55,0,0,1,.43,2.28,5.47,5.47,0,0,1-.43,2.27,3.37,3.37,0,0,1-1.2,1.48,3.14,3.14,0,0,1-3.46,0Zm3-.68a2.66,2.66,0,0,0,.87-1.19,5.89,5.89,0,0,0,0-3.77,2.63,2.63,0,0,0-.87-1.18,2.23,2.23,0,0,0-2.58,0,2.63,2.63,0,0,0-.87,1.18,5.89,5.89,0,0,0,0,3.77,2.66,2.66,0,0,0,.87,1.19,2.23,2.23,0,0,0,2.58,0Z"/><path class="cls-1" d="M57.32,314.86a2.19,2.19,0,0,1,.83,1.83,2.47,2.47,0,0,1-.34,1.3,2.3,2.3,0,0,1-1,.91,3.81,3.81,0,0,1-1.68.33,5.12,5.12,0,0,1-1.71-.29,3.53,3.53,0,0,1-1.3-.79l.42-.68a3.25,3.25,0,0,0,1.1.7,4,4,0,0,0,1.48.27A2.47,2.47,0,0,0,56.7,318a1.53,1.53,0,0,0,.57-1.25,1.5,1.5,0,0,0-.64-1.31,4,4,0,0,0-2.16-.44H52.68l.43-4.21h4.6v.77H53.87l-.29,2.67h1.08A4.32,4.32,0,0,1,57.32,314.86Z"/><path class="cls-1" d="M66.69,318.71a3.28,3.28,0,0,1-1.19-1.48,5.64,5.64,0,0,1-.43-2.27,5.72,5.72,0,0,1,.43-2.28,3.39,3.39,0,0,1,1.19-1.48,3,3,0,0,1,1.73-.51,3.06,3.06,0,0,1,1.74.51,3.54,3.54,0,0,1,1.19,1.48,5.55,5.55,0,0,1,.43,2.28,5.47,5.47,0,0,1-.43,2.27,3.42,3.42,0,0,1-1.19,1.48,3,3,0,0,1-1.74.52A3,3,0,0,1,66.69,318.71Zm3-.68a2.66,2.66,0,0,0,.87-1.19,5.89,5.89,0,0,0,0-3.77,2.63,2.63,0,0,0-.87-1.18,2.23,2.23,0,0,0-2.58,0,2.63,2.63,0,0,0-.87,1.18,5.89,5.89,0,0,0,0,3.77,2.66,2.66,0,0,0,.87,1.19,2.23,2.23,0,0,0,2.58,0Z"/><path class="cls-1" d="M79.31,314.44a2.38,2.38,0,0,1,1,.88,2.45,2.45,0,0,1,.36,1.33A2.5,2.5,0,0,1,80.3,318a2.48,2.48,0,0,1-1,.9,3.37,3.37,0,0,1-1.47.32,3.1,3.1,0,0,1-2.56-1.1,4.81,4.81,0,0,1-.89-3.1,5.34,5.34,0,0,1,.48-2.38,3.44,3.44,0,0,1,1.35-1.47,3.94,3.94,0,0,1,2-.49,3.81,3.81,0,0,1,2,.45l-.34.7a2.91,2.91,0,0,0-1.64-.4,2.82,2.82,0,0,0-2.18.88,3.73,3.73,0,0,0-.79,2.57c0,.2,0,.42,0,.68a2.23,2.23,0,0,1,1-1.06,3.23,3.23,0,0,1,1.57-.38A3.31,3.31,0,0,1,79.31,314.44ZM79.25,318a1.83,1.83,0,0,0,0-2.65,2.31,2.31,0,0,0-1.54-.49,2.49,2.49,0,0,0-1.12.24,1.82,1.82,0,0,0-.76.66,1.62,1.62,0,0,0-.28.94,1.68,1.68,0,0,0,.26.89,1.84,1.84,0,0,0,.76.66,2.79,2.79,0,0,0,1.2.25A2.17,2.17,0,0,0,79.25,318Z"/><path class="cls-1" d="M88,314.44a2.32,2.32,0,0,1,1,.88,2.38,2.38,0,0,1,.37,1.33A2.51,2.51,0,0,1,89,318a2.41,2.41,0,0,1-1,.9,3.37,3.37,0,0,1-1.47.32,3.11,3.11,0,0,1-2.56-1.1A4.81,4.81,0,0,1,83,315a5.34,5.34,0,0,1,.48-2.38,3.44,3.44,0,0,1,1.35-1.47,4,4,0,0,1,2-.49,3.85,3.85,0,0,1,2,.45l-.35.7a2.89,2.89,0,0,0-1.63-.4,2.82,2.82,0,0,0-2.19.88,3.73,3.73,0,0,0-.79,2.57c0,.2,0,.42,0,.68a2.23,2.23,0,0,1,1-1.06,3.23,3.23,0,0,1,1.57-.38A3.28,3.28,0,0,1,88,314.44ZM87.9,318a1.83,1.83,0,0,0,0-2.65,2.31,2.31,0,0,0-1.54-.49,2.49,2.49,0,0,0-1.12.24,1.89,1.89,0,0,0-.76.66,1.62,1.62,0,0,0-.28.94,1.68,1.68,0,0,0,.26.89,1.9,1.9,0,0,0,.76.66,2.79,2.79,0,0,0,1.2.25A2.17,2.17,0,0,0,87.9,318Z"/><path class="cls-1" d="M93.28,318.71a3.35,3.35,0,0,1-1.19-1.48,5.64,5.64,0,0,1-.42-2.27,5.73,5.73,0,0,1,.42-2.28,3.47,3.47,0,0,1,1.19-1.48,3.21,3.21,0,0,1,3.47,0,3.54,3.54,0,0,1,1.19,1.48,5.55,5.55,0,0,1,.43,2.28,5.47,5.47,0,0,1-.43,2.27,3.42,3.42,0,0,1-1.19,1.48,3.15,3.15,0,0,1-3.47,0Zm3-.68a2.66,2.66,0,0,0,.87-1.19,5.71,5.71,0,0,0,0-3.77,2.63,2.63,0,0,0-.87-1.18,2.23,2.23,0,0,0-2.58,0,2.63,2.63,0,0,0-.87,1.18,5.89,5.89,0,0,0,0,3.77,2.66,2.66,0,0,0,.87,1.19,2.23,2.23,0,0,0,2.58,0Z"/><path class="cls-1" d="M110.31,315.07a2.19,2.19,0,0,1,.69,1.68,2.35,2.35,0,0,1-.35,1.27,2.38,2.38,0,0,1-1,.89,4,4,0,0,1-1.67.32,5.13,5.13,0,0,1-1.72-.29,3.58,3.58,0,0,1-1.31-.79l.42-.68a3.35,3.35,0,0,0,1.12.7,4.07,4.07,0,0,0,1.49.27,2.47,2.47,0,0,0,1.59-.45,1.5,1.5,0,0,0,.57-1.24,1.48,1.48,0,0,0-.57-1.23,2.74,2.74,0,0,0-1.7-.44h-.6v-.64l2.33-2.91h-4.3v-.77h5.4v.61l-2.37,3A3.11,3.11,0,0,1,110.31,315.07Z"/><path class="cls-1" d="M118.72,311.78a4.8,4.8,0,0,1,.89,3.11,5.33,5.33,0,0,1-.48,2.37,3.37,3.37,0,0,1-1.34,1.47,4,4,0,0,1-2,.5,3.74,3.74,0,0,1-2-.46l.35-.69a3,3,0,0,0,1.63.39,2.75,2.75,0,0,0,2.18-.88,3.7,3.7,0,0,0,.8-2.56c0-.21,0-.44,0-.68a2.28,2.28,0,0,1-1,1.06,3.2,3.2,0,0,1-1.57.38,3.31,3.31,0,0,1-1.47-.32,2.32,2.32,0,0,1-1-.88,2.42,2.42,0,0,1-.36-1.32,2.45,2.45,0,0,1,.37-1.36,2.53,2.53,0,0,1,1-.91,3.31,3.31,0,0,1,1.47-.31A3.08,3.08,0,0,1,118.72,311.78Zm-1.33,3a2,2,0,0,0,.76-.66,1.68,1.68,0,0,0,.27-.93,1.64,1.64,0,0,0-.25-.89,1.93,1.93,0,0,0-.77-.66,2.6,2.6,0,0,0-1.2-.25,2.14,2.14,0,0,0-1.48.5,1.81,1.81,0,0,0,0,2.64,2.28,2.28,0,0,0,1.54.49A2.54,2.54,0,0,0,117.39,314.81Z"/><path class="cls-1" d="M123.82,318.71a3.35,3.35,0,0,1-1.19-1.48,5.64,5.64,0,0,1-.42-2.27,5.73,5.73,0,0,1,.42-2.28,3.47,3.47,0,0,1,1.19-1.48,3,3,0,0,1,1.73-.51,3.06,3.06,0,0,1,1.74.51,3.54,3.54,0,0,1,1.19,1.48,5.55,5.55,0,0,1,.43,2.28,5.47,5.47,0,0,1-.43,2.27,3.42,3.42,0,0,1-1.19,1.48,3,3,0,0,1-1.74.52A3,3,0,0,1,123.82,318.71Zm3-.68a2.66,2.66,0,0,0,.87-1.19,5.89,5.89,0,0,0,0-3.77,2.63,2.63,0,0,0-.87-1.18,2.23,2.23,0,0,0-2.58,0,2.63,2.63,0,0,0-.87,1.18,5.89,5.89,0,0,0,0,3.77,2.66,2.66,0,0,0,.87,1.19,2.23,2.23,0,0,0,2.58,0Z"/><path class="cls-1" d="M136.44,314.44a2.38,2.38,0,0,1,1,.88,2.45,2.45,0,0,1,.36,1.33,2.5,2.5,0,0,1-.37,1.36,2.48,2.48,0,0,1-1,.9,3.37,3.37,0,0,1-1.47.32,3.1,3.1,0,0,1-2.56-1.1,4.81,4.81,0,0,1-.89-3.1,5.34,5.34,0,0,1,.48-2.38,3.44,3.44,0,0,1,1.35-1.47,3.94,3.94,0,0,1,2-.49,3.81,3.81,0,0,1,2,.45l-.34.7a2.91,2.91,0,0,0-1.64-.4,2.82,2.82,0,0,0-2.18.88,3.73,3.73,0,0,0-.79,2.57c0,.2,0,.42,0,.68a2.23,2.23,0,0,1,1-1.06,3.23,3.23,0,0,1,1.57-.38A3.31,3.31,0,0,1,136.44,314.44Zm-.06,3.56a1.83,1.83,0,0,0,0-2.65,2.31,2.31,0,0,0-1.54-.49,2.49,2.49,0,0,0-1.12.24,1.82,1.82,0,0,0-.76.66,1.62,1.62,0,0,0-.28.94,1.68,1.68,0,0,0,.26.89,1.84,1.84,0,0,0,.76.66,2.79,2.79,0,0,0,1.2.25A2.17,2.17,0,0,0,136.38,318Z"/><path class="cls-1" d="M145.09,314.44a2.41,2.41,0,0,1,1,.88,2.45,2.45,0,0,1,.36,1.33,2.51,2.51,0,0,1-.38,1.36,2.41,2.41,0,0,1-1,.9,3.37,3.37,0,0,1-1.47.32,3.11,3.11,0,0,1-2.56-1.1,4.81,4.81,0,0,1-.89-3.1,5.34,5.34,0,0,1,.48-2.38,3.44,3.44,0,0,1,1.35-1.47,4,4,0,0,1,2-.49,3.85,3.85,0,0,1,2,.45l-.35.7a2.89,2.89,0,0,0-1.63-.4,2.82,2.82,0,0,0-2.19.88,3.73,3.73,0,0,0-.79,2.57,5.83,5.83,0,0,0,0,.68,2.21,2.21,0,0,1,1-1.06,3.53,3.53,0,0,1,3-.07ZM145,318a1.83,1.83,0,0,0,0-2.65,2.31,2.31,0,0,0-1.54-.49,2.49,2.49,0,0,0-1.12.24,1.89,1.89,0,0,0-.76.66,1.62,1.62,0,0,0-.28.94,1.68,1.68,0,0,0,.26.89,1.9,1.9,0,0,0,.76.66,2.79,2.79,0,0,0,1.2.25A2.17,2.17,0,0,0,145,318Z"/><path class="cls-1" d="M150.41,318.71a3.35,3.35,0,0,1-1.19-1.48,5.64,5.64,0,0,1-.42-2.27,5.73,5.73,0,0,1,.42-2.28,3.47,3.47,0,0,1,1.19-1.48,3.21,3.21,0,0,1,3.47,0,3.47,3.47,0,0,1,1.19,1.48,5.55,5.55,0,0,1,.43,2.28,5.47,5.47,0,0,1-.43,2.27,3.35,3.35,0,0,1-1.19,1.48,3.15,3.15,0,0,1-3.47,0Zm3-.68a2.52,2.52,0,0,0,.87-1.19,5.71,5.71,0,0,0,0-3.77,2.49,2.49,0,0,0-.87-1.18,2.07,2.07,0,0,0-1.29-.41,2.11,2.11,0,0,0-1.29.41,2.63,2.63,0,0,0-.87,1.18,5.89,5.89,0,0,0,0,3.77,2.66,2.66,0,0,0,.87,1.19,2.18,2.18,0,0,0,1.29.41A2.13,2.13,0,0,0,153.43,318Z"/><path class="cls-1" d="M164.19,318.71a3.28,3.28,0,0,1-1.19-1.48,5.47,5.47,0,0,1-.43-2.27,5.55,5.55,0,0,1,.43-2.28,3.39,3.39,0,0,1,1.19-1.48,3.19,3.19,0,0,1,3.46,0,3.49,3.49,0,0,1,1.2,1.48,5.55,5.55,0,0,1,.43,2.28,5.47,5.47,0,0,1-.43,2.27,3.37,3.37,0,0,1-1.2,1.48,3.14,3.14,0,0,1-3.46,0Zm3-.68a2.66,2.66,0,0,0,.87-1.19,5.89,5.89,0,0,0,0-3.77,2.63,2.63,0,0,0-.87-1.18,2.23,2.23,0,0,0-2.58,0,2.63,2.63,0,0,0-.87,1.18,5.89,5.89,0,0,0,0,3.77,2.66,2.66,0,0,0,.87,1.19,2.23,2.23,0,0,0,2.58,0Z"/><path class="cls-1" d="M177.69,310.76v.61l-3.51,7.79h-.94l3.46-7.63h-4.32v1.57h-.86v-2.34Z"/><path class="cls-1" d="M182.62,310.76v8.4h-.86v-7.63h-2v-.77Z"/><path class="cls-1" d="M192,315.55a1.92,1.92,0,0,1,.43,1.27,2.1,2.1,0,0,1-.4,1.28,2.53,2.53,0,0,1-1.13.84,4.8,4.8,0,0,1-1.74.29,3.88,3.88,0,0,1-2.37-.65,2.08,2.08,0,0,1-.87-1.76,2,2,0,0,1,.42-1.28,2.51,2.51,0,0,1,1.2-.79,2.05,2.05,0,0,1-1-.72,2,2,0,0,1,.46-2.74,3.48,3.48,0,0,1,2.14-.6,4.14,4.14,0,0,1,1.56.27,2.35,2.35,0,0,1,1,.77,2,2,0,0,1,.37,1.18,1.87,1.87,0,0,1-.35,1.12,2.11,2.11,0,0,1-1,.72A2.51,2.51,0,0,1,192,315.55ZM190.91,318a1.52,1.52,0,0,0,0-2.46,3.59,3.59,0,0,0-3.48,0,1.43,1.43,0,0,0-.63,1.23,1.46,1.46,0,0,0,.62,1.24,3,3,0,0,0,1.74.45A2.89,2.89,0,0,0,190.91,318Zm-3.27-4a3,3,0,0,0,3.05,0,1.26,1.26,0,0,0,.56-1.09,1.29,1.29,0,0,0-.57-1.11,2.49,2.49,0,0,0-1.52-.41,2.44,2.44,0,0,0-1.51.41,1.28,1.28,0,0,0-.56,1.1A1.29,1.29,0,0,0,187.64,314Z"/><path class="cls-1" d="M201,315.55a1.92,1.92,0,0,1,.43,1.27,2.1,2.1,0,0,1-.4,1.28,2.53,2.53,0,0,1-1.13.84,4.8,4.8,0,0,1-1.74.29,3.88,3.88,0,0,1-2.37-.65,2.08,2.08,0,0,1-.87-1.76,2,2,0,0,1,.42-1.28,2.51,2.51,0,0,1,1.2-.79,2.05,2.05,0,0,1-1-.72,2,2,0,0,1,.46-2.74,3.48,3.48,0,0,1,2.14-.6,4.14,4.14,0,0,1,1.56.27,2.35,2.35,0,0,1,1,.77,2,2,0,0,1,.37,1.18,1.87,1.87,0,0,1-.35,1.12,2.11,2.11,0,0,1-1,.72A2.51,2.51,0,0,1,201,315.55ZM199.91,318a1.52,1.52,0,0,0,0-2.46,3.59,3.59,0,0,0-3.48,0,1.43,1.43,0,0,0-.63,1.23,1.46,1.46,0,0,0,.62,1.24,3,3,0,0,0,1.74.45A2.89,2.89,0,0,0,199.91,318Zm-3.27-4a3,3,0,0,0,3.05,0,1.26,1.26,0,0,0,.56-1.09,1.29,1.29,0,0,0-.57-1.11,2.49,2.49,0,0,0-1.52-.41,2.44,2.44,0,0,0-1.51.41,1.28,1.28,0,0,0-.56,1.1A1.29,1.29,0,0,0,196.64,314Z"/><path class="cls-1" d="M213.41,314.44a2.38,2.38,0,0,1,1,.88,2.45,2.45,0,0,1,.36,1.33,2.5,2.5,0,0,1-.37,1.36,2.44,2.44,0,0,1-1,.9,3.31,3.31,0,0,1-1.47.32,3.09,3.09,0,0,1-2.55-1.1,4.81,4.81,0,0,1-.89-3.1,5.34,5.34,0,0,1,.48-2.38,3.48,3.48,0,0,1,1.34-1.47,4,4,0,0,1,2-.49,3.81,3.81,0,0,1,2,.45l-.35.7a2.87,2.87,0,0,0-1.63-.4,2.8,2.8,0,0,0-2.18.88,3.73,3.73,0,0,0-.79,2.57c0,.2,0,.42,0,.68a2.23,2.23,0,0,1,1-1.06,3.2,3.2,0,0,1,1.57-.38A3.31,3.31,0,0,1,213.41,314.44Zm-.06,3.56a1.83,1.83,0,0,0,0-2.65,2.31,2.31,0,0,0-1.54-.49,2.46,2.46,0,0,0-1.12.24,1.91,1.91,0,0,0-.77.66,1.69,1.69,0,0,0-.27.94,1.59,1.59,0,0,0,.26.89,1.84,1.84,0,0,0,.76.66,2.73,2.73,0,0,0,1.2.25A2.17,2.17,0,0,0,213.35,318Z"/><path class="cls-1" d="M68.07,332.76l-3.72,8.4h-.87l-3.72-8.4h1l3.21,7.29,3.24-7.29Z"/><path class="cls-1" d="M74.07,335.42a2.38,2.38,0,0,1,.66,1.83v3.91h-.81v-1a1.93,1.93,0,0,1-.85.77,2.86,2.86,0,0,1-1.32.28,2.55,2.55,0,0,1-1.68-.51,1.61,1.61,0,0,1-.63-1.33,1.59,1.59,0,0,1,.58-1.29,2.85,2.85,0,0,1,1.86-.5h2v-.38a1.59,1.59,0,0,0-.46-1.24,1.84,1.84,0,0,0-1.33-.43,3.43,3.43,0,0,0-1.15.2,2.79,2.79,0,0,0-1,.55l-.38-.64a3.45,3.45,0,0,1,1.15-.63,4.44,4.44,0,0,1,1.42-.22A2.63,2.63,0,0,1,74.07,335.42Zm-1,4.8a2,2,0,0,0,.77-1v-1h-2c-1.08,0-1.62.38-1.62,1.13a1,1,0,0,0,.42.87,1.93,1.93,0,0,0,1.18.32A2.22,2.22,0,0,0,73.11,340.22Z"/><path class="cls-1" d="M78.39,332.25h.86v8.91h-.86Z"/><path class="cls-1" d="M88.46,338.27H83.18a2.27,2.27,0,0,0,.76,1.59,2.51,2.51,0,0,0,1.73.6,2.74,2.74,0,0,0,1.08-.21,2.33,2.33,0,0,0,.85-.62l.48.56a2.68,2.68,0,0,1-1,.76,3.52,3.52,0,0,1-1.39.27,3.45,3.45,0,0,1-1.72-.42,2.92,2.92,0,0,1-1.17-1.14,3.28,3.28,0,0,1-.42-1.66,3.33,3.33,0,0,1,.4-1.65,2.9,2.9,0,0,1,1.11-1.14,3.21,3.21,0,0,1,3.14,0,2.91,2.91,0,0,1,1.1,1.13,3.45,3.45,0,0,1,.39,1.66Zm-4.58-2.16a2.33,2.33,0,0,0-.7,1.52h4.48a2.33,2.33,0,0,0-.7-1.52,2.18,2.18,0,0,0-1.55-.58A2.13,2.13,0,0,0,83.88,336.11Z"/><path class="cls-1" d="M91.78,341a3.22,3.22,0,0,1-1.1-.56l.39-.67a3.53,3.53,0,0,0,1,.51,4,4,0,0,0,1.25.19,2.42,2.42,0,0,0,1.28-.27.86.86,0,0,0,.41-.76.68.68,0,0,0-.23-.54,1.3,1.3,0,0,0-.57-.3,7.21,7.21,0,0,0-.93-.2,11.13,11.13,0,0,1-1.23-.3,1.78,1.78,0,0,1-.8-.51,1.41,1.41,0,0,1-.33-1,1.57,1.57,0,0,1,.66-1.3,3,3,0,0,1,1.83-.5,4.72,4.72,0,0,1,1.23.16,3.37,3.37,0,0,1,1,.43l-.38.68a3.14,3.14,0,0,0-1.86-.54,2.19,2.19,0,0,0-1.23.29.88.88,0,0,0-.41.75.74.74,0,0,0,.24.58,1.41,1.41,0,0,0,.58.32,8.23,8.23,0,0,0,1,.21,9.45,9.45,0,0,1,1.21.29,1.79,1.79,0,0,1,.78.49,1.33,1.33,0,0,1,.32,1,1.52,1.52,0,0,1-.69,1.31,3.21,3.21,0,0,1-1.91.49A5.13,5.13,0,0,1,91.78,341Z"/><path class="cls-1" d="M101.11,338l-1.49,1.37v1.8h-.85v-8.91h.85v6l3.77-3.44h1l-2.69,2.58,3,3.73h-1Z"/><path class="cls-1" d="M111.31,335.42a2.38,2.38,0,0,1,.66,1.83v3.91h-.82v-1a1.91,1.91,0,0,1-.84.77,2.93,2.93,0,0,1-1.33.28,2.59,2.59,0,0,1-1.68-.51,1.73,1.73,0,0,1,0-2.62,2.82,2.82,0,0,1,1.85-.5h2v-.38a1.63,1.63,0,0,0-.46-1.24,1.85,1.85,0,0,0-1.33-.43,3.39,3.39,0,0,0-1.15.2,2.7,2.7,0,0,0-1,.55l-.39-.64A3.6,3.6,0,0,1,108,335a4.38,4.38,0,0,1,1.41-.22A2.64,2.64,0,0,1,111.31,335.42Zm-1,4.8a2,2,0,0,0,.77-1v-1h-2c-1.08,0-1.62.38-1.62,1.13a1,1,0,0,0,.42.87,1.91,1.91,0,0,0,1.17.32A2.27,2.27,0,0,0,110.35,340.22Z"/><path class="cls-1" d="M126.21,337h.85v3.2a3.88,3.88,0,0,1-1.39.79,5,5,0,0,1-1.69.28,4.62,4.62,0,0,1-2.27-.55,4.08,4.08,0,0,1-1.58-1.53,4.42,4.42,0,0,1,0-4.38,4.08,4.08,0,0,1,1.58-1.53,4.63,4.63,0,0,1,2.28-.55,5.06,5.06,0,0,1,1.77.3,3.62,3.62,0,0,1,1.35.91l-.55.56a3.47,3.47,0,0,0-2.53-1,3.74,3.74,0,0,0-1.84.45,3.23,3.23,0,0,0-1.29,1.25,3.45,3.45,0,0,0-.47,1.78,3.42,3.42,0,0,0,.47,1.77,3.34,3.34,0,0,0,1.28,1.25,4,4,0,0,0,4-.19Z"/><path class="cls-1" d="M131.67,340.8a2.93,2.93,0,0,1-1.15-1.14,3.28,3.28,0,0,1-.42-1.66,3.24,3.24,0,0,1,.42-1.65,2.93,2.93,0,0,1,1.15-1.14,3.51,3.51,0,0,1,3.29,0,2.93,2.93,0,0,1,1.15,1.14,3.34,3.34,0,0,1,.41,1.65,3.38,3.38,0,0,1-.41,1.66A2.93,2.93,0,0,1,135,340.8a3.43,3.43,0,0,1-3.29,0Zm2.85-.64a2.2,2.2,0,0,0,.84-.87,2.73,2.73,0,0,0,.3-1.29,2.66,2.66,0,0,0-.3-1.28,2.07,2.07,0,0,0-.84-.87,2.31,2.31,0,0,0-1.2-.31,2.34,2.34,0,0,0-1.21.31,2.07,2.07,0,0,0-.84.87A2.66,2.66,0,0,0,131,338a2.73,2.73,0,0,0,.31,1.29,2.2,2.2,0,0,0,.84.87,2.44,2.44,0,0,0,1.21.3A2.4,2.4,0,0,0,134.52,340.16Z"/><path class="cls-1" d="M144.71,335.49a2.69,2.69,0,0,1,.7,2v3.66h-.85v-3.58a2.1,2.1,0,0,0-.49-1.5,1.87,1.87,0,0,0-1.4-.51,2.17,2.17,0,0,0-1.62.6,2.28,2.28,0,0,0-.59,1.68v3.31h-.86v-6.31h.82V336a2.32,2.32,0,0,1,1-.89,3,3,0,0,1,1.43-.32A2.59,2.59,0,0,1,144.71,335.49Z"/><path class="cls-1" d="M153.52,340.45v.71h-5.13v-.57l4-5h-3.9v-.72h5v.56l-4,5Z"/><path class="cls-1" d="M160.65,335.42a2.38,2.38,0,0,1,.66,1.83v3.91h-.81v-1a2,2,0,0,1-.85.77,2.87,2.87,0,0,1-1.33.28,2.59,2.59,0,0,1-1.68-.51,1.63,1.63,0,0,1-.62-1.33,1.59,1.59,0,0,1,.58-1.29,2.85,2.85,0,0,1,1.86-.5h2v-.38A1.59,1.59,0,0,0,160,336a1.84,1.84,0,0,0-1.33-.43,3.43,3.43,0,0,0-1.15.2,2.79,2.79,0,0,0-1,.55l-.38-.64a3.45,3.45,0,0,1,1.15-.63,4.44,4.44,0,0,1,1.42-.22A2.63,2.63,0,0,1,160.65,335.42Zm-1,4.8a2,2,0,0,0,.77-1v-1h-2c-1.08,0-1.62.38-1.62,1.13a1,1,0,0,0,.42.87,1.93,1.93,0,0,0,1.18.32A2.22,2.22,0,0,0,159.69,340.22Zm-.05-7.85h1.14l-1.94,1.49H158Z"/><path class="cls-1" d="M165,332.25h.85v8.91H165Z"/><path class="cls-1" d="M175,338.27h-5.28a2.27,2.27,0,0,0,.76,1.59,2.5,2.5,0,0,0,1.72.6,2.67,2.67,0,0,0,1.08-.21,2.29,2.29,0,0,0,.86-.62l.48.56a2.68,2.68,0,0,1-1,.76,3.52,3.52,0,0,1-1.39.27,3.45,3.45,0,0,1-1.72-.42,2.92,2.92,0,0,1-1.17-1.14,3.28,3.28,0,0,1-.42-1.66,3.33,3.33,0,0,1,.4-1.65,2.94,2.94,0,0,1,1.1-1.14,3,3,0,0,1,1.58-.41,2.94,2.94,0,0,1,1.57.41,2.91,2.91,0,0,1,1.1,1.13,3.45,3.45,0,0,1,.39,1.66Zm-4.58-2.16a2.33,2.33,0,0,0-.7,1.52h4.48a2.29,2.29,0,0,0-.71-1.52,2.32,2.32,0,0,0-3.07,0Z"/><path class="cls-1" d="M182.53,340.45v.71h-5.14v-.57l4-5h-3.9v-.72h5v.56l-4,5Z"/><path class="cls-1" d="M73.13,362.68a4.08,4.08,0,0,1-1.58-1.53,4.49,4.49,0,0,1,0-4.38,4.08,4.08,0,0,1,1.58-1.53,4.61,4.61,0,0,1,2.26-.55,4.67,4.67,0,0,1,1.73.31,3.67,3.67,0,0,1,1.34.91l-.56.56a3.38,3.38,0,0,0-2.49-1,3.68,3.68,0,0,0-1.81.45,3.55,3.55,0,0,0-1.28,4.8A3.34,3.34,0,0,0,73.6,362a3.58,3.58,0,0,0,1.81.46,3.32,3.32,0,0,0,2.49-1l.56.56a3.65,3.65,0,0,1-1.35.92,4.67,4.67,0,0,1-1.73.32A4.52,4.52,0,0,1,73.13,362.68Z"/><path class="cls-1" d="M81.32,363a.67.67,0,0,1-.18-.47.64.64,0,0,1,1.09-.46.59.59,0,0,1,.19.46.64.64,0,0,1-.19.47.64.64,0,0,1-.91,0Z"/><path class="cls-1" d="M85.75,354.76h.89v8.4h-.89Z"/><path class="cls-1" d="M90.18,357.91a.6.6,0,0,1-.19-.46.63.63,0,0,1,.19-.47.61.61,0,0,1,.45-.18.63.63,0,0,1,.64.65.67.67,0,0,1-.64.66A.59.59,0,0,1,90.18,357.91Zm0,5.12a.64.64,0,0,1-.19-.47.59.59,0,0,1,.19-.46.58.58,0,0,1,.45-.19.6.6,0,0,1,.45.19.59.59,0,0,1,.19.46.65.65,0,0,1-.64.66A.62.62,0,0,1,90.18,363Z"/><path class="cls-1" d="M104.09,362.39v.77H98.2v-.61l3.49-3.42a4.76,4.76,0,0,0,.9-1.13,2.18,2.18,0,0,0,.23-.95,1.41,1.41,0,0,0-.51-1.16,2.31,2.31,0,0,0-1.46-.41,2.88,2.88,0,0,0-2.29.93l-.61-.52A3.1,3.1,0,0,1,99.2,355a4.47,4.47,0,0,1,1.72-.31,3.18,3.18,0,0,1,2,.6,2,2,0,0,1,.75,1.66,2.86,2.86,0,0,1-.29,1.25,5.3,5.3,0,0,1-1.09,1.38l-2.86,2.81Z"/><path class="cls-1" d="M113.38,361H111.7v2.21h-.86V361h-4.75v-.62l4.46-5.57h1l-4.3,5.42h3.65v-1.94h.84v1.94h1.68Z"/><path class="cls-1" d="M116,363a.67.67,0,0,1-.18-.47.64.64,0,0,1,1.09-.46.59.59,0,0,1,.19.46.64.64,0,0,1-.19.47.64.64,0,0,1-.91,0Z"/><path class="cls-1" d="M124.51,358.86a2.19,2.19,0,0,1,.83,1.83A2.47,2.47,0,0,1,125,362a2.3,2.3,0,0,1-1,.91,3.81,3.81,0,0,1-1.68.33,5.12,5.12,0,0,1-1.71-.29,3.53,3.53,0,0,1-1.3-.79l.42-.68a3.2,3.2,0,0,0,1.11.7,3.92,3.92,0,0,0,1.47.27,2.5,2.5,0,0,0,1.62-.47,1.53,1.53,0,0,0,.57-1.25,1.5,1.5,0,0,0-.65-1.31,4,4,0,0,0-2.16-.44h-1.79l.43-4.21h4.6v.77h-3.84l-.29,2.67h1.08A4.3,4.3,0,0,1,124.51,358.86Z"/><path class="cls-1" d="M132.73,358.44a2.38,2.38,0,0,1,1,.88,2.45,2.45,0,0,1,.36,1.33,2.5,2.5,0,0,1-.37,1.36,2.44,2.44,0,0,1-1,.9,3.31,3.31,0,0,1-1.47.32,3.09,3.09,0,0,1-2.55-1.1,4.75,4.75,0,0,1-.89-3.1,5.34,5.34,0,0,1,.48-2.38,3.48,3.48,0,0,1,1.34-1.47,4,4,0,0,1,2-.49,3.83,3.83,0,0,1,2,.45l-.35.7a2.87,2.87,0,0,0-1.63-.4,2.79,2.79,0,0,0-2.18.88,3.73,3.73,0,0,0-.8,2.57c0,.2,0,.42,0,.68a2.23,2.23,0,0,1,1-1.06,3.2,3.2,0,0,1,1.57-.38A3.31,3.31,0,0,1,132.73,358.44Zm-.06,3.56a1.83,1.83,0,0,0,0-2.65,2.33,2.33,0,0,0-1.54-.49,2.54,2.54,0,0,0-1.13.24,2,2,0,0,0-.76.66,1.69,1.69,0,0,0-.27.94,1.67,1.67,0,0,0,.25.89,1.93,1.93,0,0,0,.77.66,2.73,2.73,0,0,0,1.2.25A2.19,2.19,0,0,0,132.67,362Z"/><path class="cls-1" d="M138,362.71a3.33,3.33,0,0,1-1.18-1.48,5.47,5.47,0,0,1-.43-2.27,5.55,5.55,0,0,1,.43-2.28A3.45,3.45,0,0,1,138,355.2a3.06,3.06,0,0,1,1.74-.51,3,3,0,0,1,1.73.51,3.49,3.49,0,0,1,1.2,1.48,5.72,5.72,0,0,1,.43,2.28,5.64,5.64,0,0,1-.43,2.27,3.37,3.37,0,0,1-1.2,1.48,3,3,0,0,1-1.73.52A3,3,0,0,1,138,362.71Zm3-.68a2.66,2.66,0,0,0,.87-1.19,5.89,5.89,0,0,0,0-3.77,2.63,2.63,0,0,0-.87-1.18,2.23,2.23,0,0,0-2.58,0,2.63,2.63,0,0,0-.87,1.18,5.89,5.89,0,0,0,0,3.77,2.66,2.66,0,0,0,.87,1.19,2.23,2.23,0,0,0,2.58,0Z"/><path class="cls-1" d="M145.78,363a.67.67,0,0,1-.18-.47.64.64,0,0,1,1.09-.46.59.59,0,0,1,.19.46.64.64,0,0,1-.19.47.64.64,0,0,1-.91,0Z"/><path class="cls-1" d="M154.65,355.78a4.86,4.86,0,0,1,.88,3.11,5.33,5.33,0,0,1-.48,2.37,3.31,3.31,0,0,1-1.34,1.47,4,4,0,0,1-2,.5,3.74,3.74,0,0,1-2-.46l.35-.69a3,3,0,0,0,1.63.39,2.79,2.79,0,0,0,2.19-.88,3.75,3.75,0,0,0,.79-2.56,5.49,5.49,0,0,0,0-.68,2.31,2.31,0,0,1-1,1.06,3.24,3.24,0,0,1-1.58.38,3.31,3.31,0,0,1-1.47-.32,2.38,2.38,0,0,1-1-.88,2.42,2.42,0,0,1-.36-1.32,2.43,2.43,0,0,1,1.4-2.27,3.37,3.37,0,0,1,1.47-.31A3.12,3.12,0,0,1,154.65,355.78Zm-1.34,3a1.89,1.89,0,0,0,.76-.66,1.69,1.69,0,0,0,.28-.93,1.65,1.65,0,0,0-.26-.89,1.9,1.9,0,0,0-.76-.66,2.65,2.65,0,0,0-1.2-.25,2.15,2.15,0,0,0-1.49.5,1.81,1.81,0,0,0,0,2.64,2.29,2.29,0,0,0,1.55.49A2.52,2.52,0,0,0,153.31,358.81Z"/><path class="cls-1" d="M164,354.76v.61l-3.52,7.79h-.93l3.45-7.63h-4.32v1.57h-.85v-2.34Z"/><path class="cls-1" d="M171.08,358.86a2.16,2.16,0,0,1,.83,1.83,2.47,2.47,0,0,1-.34,1.3,2.33,2.33,0,0,1-1,.91,3.87,3.87,0,0,1-1.68.33,5.12,5.12,0,0,1-1.71-.29,3.58,3.58,0,0,1-1.31-.79l.42-.68a3.2,3.2,0,0,0,1.11.7,4,4,0,0,0,1.47.27,2.5,2.5,0,0,0,1.62-.47,1.66,1.66,0,0,0-.07-2.56,4,4,0,0,0-2.17-.44h-1.79l.43-4.21h4.6v.77h-3.84l-.29,2.67h1.08A4.3,4.3,0,0,1,171.08,358.86Z"/><path class="cls-1" d="M79.53,384.71a3.28,3.28,0,0,1-1.19-1.48,5.47,5.47,0,0,1-.43-2.27,5.55,5.55,0,0,1,.43-2.28,3.39,3.39,0,0,1,1.19-1.48,3,3,0,0,1,1.73-.51,3.06,3.06,0,0,1,1.74.51,3.54,3.54,0,0,1,1.19,1.48,5.55,5.55,0,0,1,.43,2.28,5.47,5.47,0,0,1-.43,2.27A3.42,3.42,0,0,1,83,384.71a3,3,0,0,1-1.74.52A3,3,0,0,1,79.53,384.71Zm3-.68a2.66,2.66,0,0,0,.87-1.19,5.89,5.89,0,0,0,0-3.77,2.63,2.63,0,0,0-.87-1.18,2.23,2.23,0,0,0-2.58,0,2.63,2.63,0,0,0-.87,1.18,5.89,5.89,0,0,0,0,3.77A2.66,2.66,0,0,0,80,384a2.23,2.23,0,0,0,2.58,0Z"/><path class="cls-1" d="M94.34,383H92.66v2.21H91.8V383H87.06v-.62l4.45-5.57h1l-4.3,5.42h3.65v-1.94h.84v1.94h1.68Z"/><path class="cls-1" d="M102.17,384.39v.77h-5.9v-.61l3.49-3.42a4.51,4.51,0,0,0,.9-1.13,2,2,0,0,0,.23-.95,1.41,1.41,0,0,0-.51-1.16,2.29,2.29,0,0,0-1.46-.41,2.9,2.9,0,0,0-2.29.93l-.61-.52a3.25,3.25,0,0,1,1.25-.89,4.52,4.52,0,0,1,1.73-.31,3.17,3.17,0,0,1,2,.6,2,2,0,0,1,.75,1.66,2.86,2.86,0,0,1-.29,1.25,5.1,5.1,0,0,1-1.09,1.38l-2.86,2.81Z"/><path class="cls-1" d="M109.49,380.44a2.38,2.38,0,0,1,1,.88,2.45,2.45,0,0,1,.36,1.33,2.5,2.5,0,0,1-.37,1.36,2.48,2.48,0,0,1-1,.9,3.38,3.38,0,0,1-1.48.32,3.09,3.09,0,0,1-2.55-1.1,4.81,4.81,0,0,1-.89-3.1,5.34,5.34,0,0,1,.48-2.38,3.48,3.48,0,0,1,1.34-1.47,4,4,0,0,1,2-.49,3.81,3.81,0,0,1,2,.45l-.35.7a2.87,2.87,0,0,0-1.63-.4,2.8,2.8,0,0,0-2.18.88,3.73,3.73,0,0,0-.79,2.57c0,.2,0,.42,0,.68a2.23,2.23,0,0,1,1-1.06,3.2,3.2,0,0,1,1.57-.38A3.31,3.31,0,0,1,109.49,380.44Zm-.06,3.56a1.83,1.83,0,0,0,0-2.65,2.31,2.31,0,0,0-1.54-.49,2.46,2.46,0,0,0-1.12.24,1.91,1.91,0,0,0-.77.66,1.69,1.69,0,0,0-.27.94,1.59,1.59,0,0,0,.26.89,1.84,1.84,0,0,0,.76.66,2.76,2.76,0,0,0,1.2.25A2.17,2.17,0,0,0,109.43,384Z"/><path class="cls-1" d="M118.06,380.86a2.19,2.19,0,0,1,.83,1.83,2.47,2.47,0,0,1-.34,1.3,2.3,2.3,0,0,1-1,.91,3.81,3.81,0,0,1-1.68.33,5.16,5.16,0,0,1-1.71-.29,3.53,3.53,0,0,1-1.3-.79l.42-.68a3.2,3.2,0,0,0,1.11.7,3.92,3.92,0,0,0,1.47.27,2.5,2.5,0,0,0,1.62-.47,1.66,1.66,0,0,0-.07-2.56,4,4,0,0,0-2.17-.44h-1.79l.43-4.21h4.6v.77h-3.84l-.29,2.67h1.08A4.3,4.3,0,0,1,118.06,380.86Z"/><path class="cls-1" d="M123.66,376.76v8.4h-.87v-7.63h-2v-.77Z"/><path class="cls-1" d="M134.14,383h-1.68v2.21h-.86V383h-4.74v-.62l4.45-5.57h1L128,382.18h3.64v-1.94h.84v1.94h1.68Z"/><path class="cls-1" d="M138.31,376.76v8.4h-.87v-7.63h-2v-.77Z"/><path class="cls-1" d="M147.39,384.39v.77H141.5v-.61l3.49-3.42a4.76,4.76,0,0,0,.9-1.13,2.18,2.18,0,0,0,.23-.95,1.41,1.41,0,0,0-.51-1.16,2.31,2.31,0,0,0-1.46-.41,2.88,2.88,0,0,0-2.29.93l-.61-.52a3.17,3.17,0,0,1,1.25-.89,4.47,4.47,0,0,1,1.72-.31,3.18,3.18,0,0,1,2,.6A2,2,0,0,1,147,379a2.86,2.86,0,0,1-.29,1.25,5.3,5.3,0,0,1-1.09,1.38l-2.86,2.81Z"/><path class="cls-1" d="M154.72,380.44a2.38,2.38,0,0,1,1,.88,2.45,2.45,0,0,1,.36,1.33,2.5,2.5,0,0,1-.37,1.36,2.44,2.44,0,0,1-1,.9,3.31,3.31,0,0,1-1.47.32,3.09,3.09,0,0,1-2.55-1.1,4.75,4.75,0,0,1-.89-3.1,5.34,5.34,0,0,1,.48-2.38,3.48,3.48,0,0,1,1.34-1.47,4,4,0,0,1,2-.49,3.83,3.83,0,0,1,2,.45l-.35.7a2.87,2.87,0,0,0-1.63-.4,2.79,2.79,0,0,0-2.18.88,3.73,3.73,0,0,0-.8,2.57c0,.2,0,.42,0,.68a2.23,2.23,0,0,1,1-1.06,3.2,3.2,0,0,1,1.57-.38A3.31,3.31,0,0,1,154.72,380.44Zm-.06,3.56a1.83,1.83,0,0,0,0-2.65,2.33,2.33,0,0,0-1.54-.49,2.54,2.54,0,0,0-1.13.24,2,2,0,0,0-.76.66,1.69,1.69,0,0,0-.27.94,1.67,1.67,0,0,0,.25.89,1.93,1.93,0,0,0,.77.66,2.73,2.73,0,0,0,1.2.25A2.19,2.19,0,0,0,154.66,384Z"/><path class="cls-1" d="M164.45,381.55a2,2,0,0,1,.43,1.27,2.16,2.16,0,0,1-.4,1.28,2.53,2.53,0,0,1-1.13.84,4.84,4.84,0,0,1-1.74.29,3.86,3.86,0,0,1-2.37-.65,2.08,2.08,0,0,1-.87-1.76,2,2,0,0,1,.42-1.28,2.46,2.46,0,0,1,1.2-.79,2.05,2.05,0,0,1-1-.72,1.86,1.86,0,0,1-.34-1.12,1.93,1.93,0,0,1,.8-1.62,3.48,3.48,0,0,1,2.14-.6,4.18,4.18,0,0,1,1.56.27,2.27,2.27,0,0,1,1,.77,1.94,1.94,0,0,1,.38,1.18,1.87,1.87,0,0,1-.35,1.12,2.16,2.16,0,0,1-1,.72A2.51,2.51,0,0,1,164.45,381.55ZM163.36,384a1.52,1.52,0,0,0,0-2.46,3.59,3.59,0,0,0-3.48,0,1.43,1.43,0,0,0-.63,1.23,1.46,1.46,0,0,0,.62,1.24,3,3,0,0,0,1.74.45A2.89,2.89,0,0,0,163.36,384Zm-3.27-4a2.45,2.45,0,0,0,1.52.41,2.48,2.48,0,0,0,1.53-.41,1.35,1.35,0,0,0,0-2.2,3,3,0,0,0-3,0,1.38,1.38,0,0,0,0,2.2Z"/><path class="cls-1" d="M96.3,417.73a2.19,2.19,0,0,1,.76,1.77,2.15,2.15,0,0,1-.76,1.75,3.17,3.17,0,0,1-2.1.63H92.32v2.21h-.74v-7H94.2A3.17,3.17,0,0,1,96.3,417.73Zm-.53,3a1.55,1.55,0,0,0,.55-1.28,1.59,1.59,0,0,0-.55-1.31,2.43,2.43,0,0,0-1.59-.46H92.32v3.5h1.86A2.43,2.43,0,0,0,95.77,420.78Z"/><path class="cls-1" d="M100.93,419.06a2.53,2.53,0,0,1,1.22-.27v.69H102a1.69,1.69,0,0,0-1.3.51,2.08,2.08,0,0,0-.47,1.44v2.67H99.5v-5.26h.68v1A1.81,1.81,0,0,1,100.93,419.06Z"/><path class="cls-1" d="M105.28,423.8a2.6,2.6,0,0,1-1-1,2.72,2.72,0,0,1-.35-1.38,2.77,2.77,0,0,1,.35-1.38,2.65,2.65,0,0,1,1-.95,2.87,2.87,0,0,1,1.37-.34,2.81,2.81,0,0,1,1.37.34,2.5,2.5,0,0,1,1,.95,2.77,2.77,0,0,1,.34,1.38,2.72,2.72,0,0,1-.34,1.38,2.46,2.46,0,0,1-1,1,2.7,2.7,0,0,1-1.37.34A2.76,2.76,0,0,1,105.28,423.8Zm2.38-.54a1.77,1.77,0,0,0,.69-.72,2.26,2.26,0,0,0,.25-1.08,2.22,2.22,0,0,0-.25-1.07,1.77,1.77,0,0,0-.69-.72,2,2,0,0,0-1-.25,2,2,0,0,0-1,.25,1.8,1.8,0,0,0-.7.72,2.23,2.23,0,0,0-.26,1.07,2.27,2.27,0,0,0,.26,1.08,1.8,1.8,0,0,0,.7.72,2,2,0,0,0,1,.25A2,2,0,0,0,107.66,423.26Z"/><path class="cls-1" d="M116.16,418.83l-2.34,5.26h-.73l-2.33-5.26h.74l2,4.48,2-4.48Z"/><path class="cls-1" d="M118.27,417.54a.53.53,0,0,1-.15-.37.45.45,0,0,1,.15-.34.49.49,0,0,1,.37-.16.5.5,0,0,1,.37.15.47.47,0,0,1,.15.35.5.5,0,0,1-.52.51A.55.55,0,0,1,118.27,417.54Zm0,1.29H119v5.26h-.71Z"/><path class="cls-1" d="M126.35,419.37a2.23,2.23,0,0,1,.58,1.67v3h-.71v-3a1.73,1.73,0,0,0-.41-1.25,1.56,1.56,0,0,0-1.17-.43,1.79,1.79,0,0,0-1.34.51,1.91,1.91,0,0,0-.5,1.39v2.76h-.71v-5.26h.68v1a2,2,0,0,1,.81-.74,2.52,2.52,0,0,1,1.19-.27A2.18,2.18,0,0,1,126.35,419.37Z"/><path class="cls-1" d="M130.79,423.8a2.46,2.46,0,0,1-1-.95,2.92,2.92,0,0,1,0-2.77,2.6,2.6,0,0,1,1-.95,2.89,2.89,0,0,1,1.39-.34,2.67,2.67,0,0,1,1.22.27,2.08,2.08,0,0,1,.84.77l-.53.36a1.6,1.6,0,0,0-.66-.58,1.92,1.92,0,0,0-.87-.19,2,2,0,0,0-1,.25,1.76,1.76,0,0,0-.71.72,2.35,2.35,0,0,0,0,2.15,1.76,1.76,0,0,0,.71.72,2,2,0,0,0,1,.25,2.05,2.05,0,0,0,.87-.18,1.68,1.68,0,0,0,.66-.58l.53.35a2,2,0,0,1-.85.78,2.65,2.65,0,0,1-1.21.26A2.78,2.78,0,0,1,130.79,423.8Z"/><path class="cls-1" d="M136.74,417.54a.53.53,0,0,1-.15-.37.45.45,0,0,1,.15-.34.49.49,0,0,1,.37-.16.5.5,0,0,1,.37.15.47.47,0,0,1,.15.35.5.5,0,0,1-.52.51A.55.55,0,0,1,136.74,417.54Zm0,1.29h.71v5.26h-.71Z"/><path class="cls-1" d="M144,419.31a2,2,0,0,1,.55,1.52v3.26h-.68v-.82a1.64,1.64,0,0,1-.7.65,2.53,2.53,0,0,1-1.11.22,2.18,2.18,0,0,1-1.4-.42,1.36,1.36,0,0,1-.52-1.11,1.31,1.31,0,0,1,.49-1.07,2.32,2.32,0,0,1,1.54-.42h1.67v-.32a1.32,1.32,0,0,0-.38-1,1.54,1.54,0,0,0-1.11-.35,2.85,2.85,0,0,0-1,.16,2.38,2.38,0,0,0-.79.46l-.32-.54a3,3,0,0,1,1-.52,3.89,3.89,0,0,1,1.18-.19A2.23,2.23,0,0,1,144,419.31Zm-.8,4a1.61,1.61,0,0,0,.64-.8v-.86h-1.65c-.9,0-1.35.32-1.35.94a.88.88,0,0,0,.35.73,1.58,1.58,0,0,0,1,.26A1.88,1.88,0,0,0,143.18,423.31Z"/><path class="cls-1" d="M147.58,416.67h.71v7.42h-.71Z"/><path class="cls-1" d="M151.09,419.72a.5.5,0,0,1-.16-.39.49.49,0,0,1,.16-.38.52.52,0,0,1,.37-.16.53.53,0,0,1,.38.16.49.49,0,0,1,.16.38.5.5,0,0,1-.16.39.49.49,0,0,1-.38.16A.49.49,0,0,1,151.09,419.72Zm0,4.26a.5.5,0,0,1-.16-.39.49.49,0,0,1,.16-.38.52.52,0,0,1,.37-.16.53.53,0,0,1,.38.16.49.49,0,0,1,.16.38.5.5,0,0,1-.16.39.49.49,0,0,1-.38.16A.49.49,0,0,1,151.09,424Z"/><path class="cls-1" d="M29.92,446.37a3.35,3.35,0,0,1-1.19-1.48,5.64,5.64,0,0,1-.42-2.27,5.73,5.73,0,0,1,.42-2.28,3.47,3.47,0,0,1,1.19-1.48,3.21,3.21,0,0,1,3.47,0,3.47,3.47,0,0,1,1.19,1.48,5.55,5.55,0,0,1,.43,2.28,5.47,5.47,0,0,1-.43,2.27,3.35,3.35,0,0,1-1.19,1.48,3.15,3.15,0,0,1-3.47,0Zm3-.68a2.52,2.52,0,0,0,.87-1.19,5.71,5.71,0,0,0,0-3.77,2.57,2.57,0,0,0-.87-1.19,2.13,2.13,0,0,0-1.29-.4,2.17,2.17,0,0,0-1.29.4,2.72,2.72,0,0,0-.87,1.19,5.89,5.89,0,0,0,0,3.77,2.66,2.66,0,0,0,.87,1.19,2.18,2.18,0,0,0,1.29.41A2.13,2.13,0,0,0,32.94,445.69Z"/><path class="cls-1" d="M39.9,438.42v8.4H39v-7.63h-2v-.77Z"/><path class="cls-1" d="M44.86,446.37a3.35,3.35,0,0,1-1.19-1.48,5.64,5.64,0,0,1-.42-2.27,5.73,5.73,0,0,1,.42-2.28,3.47,3.47,0,0,1,1.19-1.48,3.21,3.21,0,0,1,3.47,0,3.47,3.47,0,0,1,1.19,1.48,5.55,5.55,0,0,1,.43,2.28,5.47,5.47,0,0,1-.43,2.27,3.35,3.35,0,0,1-1.19,1.48,3.15,3.15,0,0,1-3.47,0Zm3-.68a2.66,2.66,0,0,0,.87-1.19,5.71,5.71,0,0,0,0-3.77,2.72,2.72,0,0,0-.87-1.19,2.28,2.28,0,0,0-2.58,0,2.72,2.72,0,0,0-.87,1.19,5.89,5.89,0,0,0,0,3.77,2.66,2.66,0,0,0,.87,1.19,2.23,2.23,0,0,0,2.58,0Z"/><path class="cls-1" d="M58.56,443.21a1.92,1.92,0,0,1,.43,1.27,2.1,2.1,0,0,1-.4,1.28,2.53,2.53,0,0,1-1.13.84,4.8,4.8,0,0,1-1.74.29,3.88,3.88,0,0,1-2.37-.65,2.08,2.08,0,0,1-.87-1.76,2,2,0,0,1,.42-1.28,2.49,2.49,0,0,1,1.21-.79,2,2,0,0,1-1-.72,2.06,2.06,0,0,1,.46-2.74,3.5,3.5,0,0,1,2.14-.6,4.11,4.11,0,0,1,1.56.27,2.28,2.28,0,0,1,1,.77,2,2,0,0,1,.37,1.18,1.87,1.87,0,0,1-.35,1.12,2.11,2.11,0,0,1-1,.72A2.51,2.51,0,0,1,58.56,443.21Zm-1.09,2.49a1.52,1.52,0,0,0,0-2.46,3.59,3.59,0,0,0-3.48,0,1.43,1.43,0,0,0-.63,1.23,1.46,1.46,0,0,0,.62,1.24,3,3,0,0,0,1.74.45A2.89,2.89,0,0,0,57.47,445.7Zm-3.27-4a3,3,0,0,0,3,0,1.26,1.26,0,0,0,.56-1.09,1.29,1.29,0,0,0-.57-1.11,2.49,2.49,0,0,0-1.52-.41,2.46,2.46,0,0,0-1.51.41,1.37,1.37,0,0,0,0,2.2Z"/><path class="cls-1" d="M67.63,446.37a3.33,3.33,0,0,1-1.18-1.48,5.47,5.47,0,0,1-.43-2.27,5.55,5.55,0,0,1,.43-2.28,3.45,3.45,0,0,1,1.18-1.48,3.06,3.06,0,0,1,1.74-.51,3,3,0,0,1,1.73.51,3.49,3.49,0,0,1,1.2,1.48,5.55,5.55,0,0,1,.43,2.28,5.47,5.47,0,0,1-.43,2.27,3.37,3.37,0,0,1-1.2,1.48,3,3,0,0,1-1.73.52A3,3,0,0,1,67.63,446.37Zm3-.68a2.66,2.66,0,0,0,.87-1.19,5.89,5.89,0,0,0,0-3.77,2.72,2.72,0,0,0-.87-1.19,2.28,2.28,0,0,0-2.58,0,2.72,2.72,0,0,0-.87,1.19,5.89,5.89,0,0,0,0,3.77,2.66,2.66,0,0,0,.87,1.19,2.23,2.23,0,0,0,2.58,0Z"/><path class="cls-1" d="M76.92,446.37a3.35,3.35,0,0,1-1.19-1.48,5.64,5.64,0,0,1-.42-2.27,5.73,5.73,0,0,1,.42-2.28,3.47,3.47,0,0,1,1.19-1.48,3.21,3.21,0,0,1,3.47,0,3.39,3.39,0,0,1,1.19,1.48,5.55,5.55,0,0,1,.44,2.28,5.47,5.47,0,0,1-.44,2.27,3.28,3.28,0,0,1-1.19,1.48,3.15,3.15,0,0,1-3.47,0Zm3-.68a2.66,2.66,0,0,0,.87-1.19,5.89,5.89,0,0,0,0-3.77,2.72,2.72,0,0,0-.87-1.19,2.17,2.17,0,0,0-1.29-.4,2.13,2.13,0,0,0-1.29.4,2.57,2.57,0,0,0-.87,1.19,5.71,5.71,0,0,0,0,3.77,2.52,2.52,0,0,0,.87,1.19,2.13,2.13,0,0,0,1.29.41A2.18,2.18,0,0,0,80,445.69Z"/><path class="cls-1" d="M90.63,443.21a2,2,0,0,1,.42,1.27,2.16,2.16,0,0,1-.39,1.28,2.62,2.62,0,0,1-1.14.84,4.78,4.78,0,0,1-1.73.29,3.91,3.91,0,0,1-2.38-.65,2.09,2.09,0,0,1-.86-1.76A2,2,0,0,1,85,443.2a2.54,2.54,0,0,1,1.21-.79,2.13,2.13,0,0,1-1-.72,2,2,0,0,1,.47-2.74,3.46,3.46,0,0,1,2.14-.6,4.09,4.09,0,0,1,1.55.27,2.23,2.23,0,0,1,1,.77,1.93,1.93,0,0,1,.37,1.18,1.8,1.8,0,0,1-.35,1.12,2.13,2.13,0,0,1-1,.72A2.56,2.56,0,0,1,90.63,443.21Zm-1.1,2.49a1.52,1.52,0,0,0,0-2.46,3.59,3.59,0,0,0-3.48,0,1.43,1.43,0,0,0-.63,1.23,1.45,1.45,0,0,0,.63,1.24,2.91,2.91,0,0,0,1.74.45A2.88,2.88,0,0,0,89.53,445.7Zm-3.27-4a3.06,3.06,0,0,0,3.06,0,1.35,1.35,0,0,0,0-2.2,2.51,2.51,0,0,0-1.52-.41,2.47,2.47,0,0,0-1.52.41,1.3,1.3,0,0,0-.56,1.1A1.32,1.32,0,0,0,86.26,441.69Z"/><path class="cls-1" d="M99.63,443.21a2,2,0,0,1,.42,1.27,2.16,2.16,0,0,1-.39,1.28,2.62,2.62,0,0,1-1.14.84,4.78,4.78,0,0,1-1.73.29,3.91,3.91,0,0,1-2.38-.65,2.09,2.09,0,0,1-.86-1.76A2,2,0,0,1,94,443.2a2.54,2.54,0,0,1,1.21-.79,2.13,2.13,0,0,1-1-.72,2,2,0,0,1,.47-2.74,3.46,3.46,0,0,1,2.14-.6,4.09,4.09,0,0,1,1.55.27,2.23,2.23,0,0,1,1,.77,1.93,1.93,0,0,1,.37,1.18,1.8,1.8,0,0,1-.35,1.12,2.13,2.13,0,0,1-1,.72A2.56,2.56,0,0,1,99.63,443.21Zm-1.1,2.49a1.52,1.52,0,0,0,0-2.46,3.59,3.59,0,0,0-3.48,0,1.43,1.43,0,0,0-.63,1.23,1.45,1.45,0,0,0,.63,1.24,2.91,2.91,0,0,0,1.74.45A2.88,2.88,0,0,0,98.53,445.7Zm-3.27-4a3.06,3.06,0,0,0,3.06,0,1.35,1.35,0,0,0,0-2.2,2.51,2.51,0,0,0-1.52-.41,2.47,2.47,0,0,0-1.52.41,1.3,1.3,0,0,0-.56,1.1A1.32,1.32,0,0,0,95.26,441.69Z"/><path class="cls-1" d="M112.26,439.44a4.85,4.85,0,0,1,.88,3.1,5.34,5.34,0,0,1-.48,2.38,3.31,3.31,0,0,1-1.34,1.47,4,4,0,0,1-2,.5,3.74,3.74,0,0,1-2-.46l.35-.69a3,3,0,0,0,1.63.39,2.79,2.79,0,0,0,2.19-.88,3.75,3.75,0,0,0,.79-2.56,5.49,5.49,0,0,0,0-.68,2.31,2.31,0,0,1-1,1.06,3.24,3.24,0,0,1-1.58.38,3.31,3.31,0,0,1-1.47-.32,2.38,2.38,0,0,1-1-.88,2.42,2.42,0,0,1-.36-1.32,2.54,2.54,0,0,1,.37-1.36,2.46,2.46,0,0,1,1-.91,3.37,3.37,0,0,1,1.47-.31A3.12,3.12,0,0,1,112.26,439.44Zm-1.34,3a1.89,1.89,0,0,0,.76-.66,1.69,1.69,0,0,0,.28-.93,1.65,1.65,0,0,0-.26-.89,1.9,1.9,0,0,0-.76-.66,2.65,2.65,0,0,0-1.2-.25,2.15,2.15,0,0,0-1.49.5,1.81,1.81,0,0,0,0,2.64,2.29,2.29,0,0,0,1.55.49A2.52,2.52,0,0,0,110.92,442.47Z"/><path class="cls-1" d="M120.48,442.73a2.19,2.19,0,0,1,.69,1.68,2.27,2.27,0,0,1-.35,1.27,2.32,2.32,0,0,1-1,.89,4,4,0,0,1-1.67.32,5.18,5.18,0,0,1-1.72-.29,3.53,3.53,0,0,1-1.3-.79l.42-.69a3,3,0,0,0,1.12.71,4.05,4.05,0,0,0,1.48.27,2.52,2.52,0,0,0,1.6-.45,1.49,1.49,0,0,0,.56-1.24,1.47,1.47,0,0,0-.56-1.23,2.76,2.76,0,0,0-1.7-.44h-.6v-.64l2.32-2.91h-4.29v-.77h5.4V439l-2.38,3A3.11,3.11,0,0,1,120.48,442.73Z"/><path class="cls-1" d="M125.34,446.37a3.35,3.35,0,0,1-1.19-1.48,5.64,5.64,0,0,1-.42-2.27,5.73,5.73,0,0,1,.42-2.28,3.47,3.47,0,0,1,1.19-1.48,3.21,3.21,0,0,1,3.47,0,3.39,3.39,0,0,1,1.19,1.48,5.55,5.55,0,0,1,.44,2.28,5.47,5.47,0,0,1-.44,2.27,3.28,3.28,0,0,1-1.19,1.48,3.15,3.15,0,0,1-3.47,0Zm3-.68a2.66,2.66,0,0,0,.87-1.19,5.89,5.89,0,0,0,0-3.77,2.72,2.72,0,0,0-.87-1.19,2.17,2.17,0,0,0-1.29-.4,2.13,2.13,0,0,0-1.29.4,2.57,2.57,0,0,0-.87,1.19,5.71,5.71,0,0,0,0,3.77,2.52,2.52,0,0,0,.87,1.19,2.13,2.13,0,0,0,1.29.41A2.18,2.18,0,0,0,128.37,445.69Z"/><path class="cls-1" d="M135.32,438.42v8.4h-.86v-7.63h-2v-.77Z"/><path class="cls-1" d="M140.28,446.37a3.35,3.35,0,0,1-1.19-1.48,5.64,5.64,0,0,1-.42-2.27,5.73,5.73,0,0,1,.42-2.28,3.47,3.47,0,0,1,1.19-1.48,3.21,3.21,0,0,1,3.47,0,3.39,3.39,0,0,1,1.19,1.48,5.55,5.55,0,0,1,.44,2.28,5.47,5.47,0,0,1-.44,2.27,3.28,3.28,0,0,1-1.19,1.48,3.15,3.15,0,0,1-3.47,0Zm3-.68a2.66,2.66,0,0,0,.87-1.19,5.89,5.89,0,0,0,0-3.77,2.72,2.72,0,0,0-.87-1.19,2.17,2.17,0,0,0-1.29-.4,2.13,2.13,0,0,0-1.29.4,2.57,2.57,0,0,0-.87,1.19,5.71,5.71,0,0,0,0,3.77,2.52,2.52,0,0,0,.87,1.19,2.13,2.13,0,0,0,1.29.41A2.18,2.18,0,0,0,143.31,445.69Z"/><path class="cls-1" d="M149.57,446.37a3.35,3.35,0,0,1-1.19-1.48,5.64,5.64,0,0,1-.42-2.27,5.73,5.73,0,0,1,.42-2.28,3.47,3.47,0,0,1,1.19-1.48,3.21,3.21,0,0,1,3.47,0,3.47,3.47,0,0,1,1.19,1.48,5.55,5.55,0,0,1,.43,2.28,5.47,5.47,0,0,1-.43,2.27,3.35,3.35,0,0,1-1.19,1.48,3.15,3.15,0,0,1-3.47,0Zm3-.68a2.52,2.52,0,0,0,.87-1.19,5.71,5.71,0,0,0,0-3.77,2.57,2.57,0,0,0-.87-1.19,2.13,2.13,0,0,0-1.29-.4,2.17,2.17,0,0,0-1.29.4,2.72,2.72,0,0,0-.87,1.19,5.89,5.89,0,0,0,0,3.77,2.66,2.66,0,0,0,.87,1.19,2.18,2.18,0,0,0,1.29.41A2.13,2.13,0,0,0,152.59,445.69Z"/><path class="cls-1" d="M166.6,442.52a2.19,2.19,0,0,1,.83,1.83,2.47,2.47,0,0,1-.34,1.3,2.3,2.3,0,0,1-1,.91,3.81,3.81,0,0,1-1.68.33,5.12,5.12,0,0,1-1.71-.29,3.53,3.53,0,0,1-1.3-.79l.42-.69a3.08,3.08,0,0,0,1.11.71,3.92,3.92,0,0,0,1.47.27,2.5,2.5,0,0,0,1.62-.47,1.53,1.53,0,0,0,.57-1.25,1.5,1.5,0,0,0-.65-1.31,4,4,0,0,0-2.16-.44H162l.43-4.21H167v.77h-3.84l-.29,2.67h1.08A4.3,4.3,0,0,1,166.6,442.52Z"/><path class="cls-1" d="M174.67,442.73a2.19,2.19,0,0,1,.69,1.68,2.34,2.34,0,0,1-.34,1.27,2.41,2.41,0,0,1-1,.89,3.93,3.93,0,0,1-1.66.32,5.19,5.19,0,0,1-1.73-.29,3.53,3.53,0,0,1-1.3-.79l.42-.69a3,3,0,0,0,1.12.71,4.07,4.07,0,0,0,1.49.27,2.49,2.49,0,0,0,1.59-.45,1.5,1.5,0,0,0,.57-1.24,1.48,1.48,0,0,0-.57-1.23,2.74,2.74,0,0,0-1.7-.44h-.6v-.64l2.33-2.91h-4.3v-.77H175V439l-2.38,3A3.11,3.11,0,0,1,174.67,442.73Z"/><path class="cls-1" d="M185.06,444.61h-1.68v2.21h-.86v-2.21h-4.74V444l4.45-5.57h1l-4.3,5.42h3.65V441.9h.84v1.94h1.68Z"/><path class="cls-1" d="M192.27,439.44a4.85,4.85,0,0,1,.89,3.1,5.34,5.34,0,0,1-.48,2.38,3.37,3.37,0,0,1-1.34,1.47,4,4,0,0,1-2,.5,3.71,3.71,0,0,1-2-.46l.35-.69a3,3,0,0,0,1.63.39,2.77,2.77,0,0,0,2.18-.88,3.7,3.7,0,0,0,.79-2.56c0-.21,0-.44,0-.68a2.28,2.28,0,0,1-1,1.06,3.2,3.2,0,0,1-1.57.38,3.31,3.31,0,0,1-1.47-.32,2.32,2.32,0,0,1-1-.88,2.42,2.42,0,0,1-.36-1.32,2.43,2.43,0,0,1,1.4-2.27,3.31,3.31,0,0,1,1.47-.31A3.08,3.08,0,0,1,192.27,439.44Zm-1.34,3a1.91,1.91,0,0,0,.77-.66,1.68,1.68,0,0,0,.27-.93,1.57,1.57,0,0,0-.26-.89,1.84,1.84,0,0,0-.76-.66,2.6,2.6,0,0,0-1.2-.25,2.12,2.12,0,0,0-1.48.5,1.81,1.81,0,0,0,0,2.64,2.26,2.26,0,0,0,1.54.49A2.46,2.46,0,0,0,190.93,442.47Z"/><path class="cls-1" d="M200.62,442.52a2.19,2.19,0,0,1,.83,1.83,2.47,2.47,0,0,1-.34,1.3,2.3,2.3,0,0,1-1,.91,3.81,3.81,0,0,1-1.68.33,5.12,5.12,0,0,1-1.71-.29,3.53,3.53,0,0,1-1.3-.79l.42-.69a3.08,3.08,0,0,0,1.11.71,3.92,3.92,0,0,0,1.47.27,2.45,2.45,0,0,0,1.61-.47,1.54,1.54,0,0,0,.58-1.25,1.5,1.5,0,0,0-.65-1.31,4,4,0,0,0-2.16-.44H196l.43-4.21H201v.77h-3.84l-.29,2.67H198A4.32,4.32,0,0,1,200.62,442.52Z"/><path class="cls-1" d="M213.55,439.44a4.85,4.85,0,0,1,.89,3.1,5.34,5.34,0,0,1-.48,2.38,3.33,3.33,0,0,1-1.35,1.47,4,4,0,0,1-2,.5,3.75,3.75,0,0,1-2-.46l.35-.69a3,3,0,0,0,1.63.39,2.79,2.79,0,0,0,2.19-.88,3.75,3.75,0,0,0,.79-2.56,5.49,5.49,0,0,0,0-.68,2.26,2.26,0,0,1-1,1.06,3.48,3.48,0,0,1-3,.06,2.34,2.34,0,0,1-1-.88,2.42,2.42,0,0,1-.36-1.32,2.47,2.47,0,0,1,1.4-2.27,3.37,3.37,0,0,1,1.47-.31A3.11,3.11,0,0,1,213.55,439.44Zm-1.34,3a1.89,1.89,0,0,0,.76-.66,1.62,1.62,0,0,0,.28-.93A1.65,1.65,0,0,0,213,440a1.9,1.9,0,0,0-.76-.66,2.65,2.65,0,0,0-1.2-.25,2.15,2.15,0,0,0-1.49.5,1.84,1.84,0,0,0,0,2.64,2.29,2.29,0,0,0,1.55.49A2.49,2.49,0,0,0,212.21,442.47Z"/><path class="cls-1" d="M89.94,466.57H85.26l-1,2.25h-.93l3.84-8.4H88l3.84,8.4h-.94Zm-.33-.72-2-4.51-2,4.51Z"/><path class="cls-1" d="M99.3,462.86a2.9,2.9,0,0,1,1.12,1.13,3.61,3.61,0,0,1,0,3.34,2.86,2.86,0,0,1-1.12,1.14,3.24,3.24,0,0,1-1.61.41,2.9,2.9,0,0,1-1.42-.34,2.64,2.64,0,0,1-1-1v1.25h-.81v-8.91h.85v3.8a2.57,2.57,0,0,1,1-.93,2.91,2.91,0,0,1,1.39-.32A3.23,3.23,0,0,1,99.3,462.86Zm-.47,5a2.2,2.2,0,0,0,.84-.87,2.62,2.62,0,0,0,.31-1.29,2.55,2.55,0,0,0-.31-1.28,2.07,2.07,0,0,0-.84-.87,2.5,2.5,0,0,0-2.41,0,2.2,2.2,0,0,0-.84.87,2.66,2.66,0,0,0-.3,1.28,2.73,2.73,0,0,0,.3,1.29,2.34,2.34,0,0,0,.84.87,2.57,2.57,0,0,0,2.41,0Z"/><path class="cls-1" d="M109.41,465.93h-5.28a2.27,2.27,0,0,0,.76,1.59,2.51,2.51,0,0,0,1.73.6,2.74,2.74,0,0,0,1.08-.21,2.33,2.33,0,0,0,.85-.62l.48.56a2.68,2.68,0,0,1-1,.76,3.72,3.72,0,0,1-3.11-.15,2.92,2.92,0,0,1-1.17-1.14,3.28,3.28,0,0,1-.42-1.66,3.33,3.33,0,0,1,.4-1.65,2.9,2.9,0,0,1,1.11-1.14,3,3,0,0,1,1.57-.41,3,3,0,0,1,1.58.41A3,3,0,0,1,109,464a3.45,3.45,0,0,1,.39,1.66Zm-4.58-2.16a2.33,2.33,0,0,0-.7,1.52h4.48a2.33,2.33,0,0,0-.7-1.52,2.33,2.33,0,0,0-3.08,0Z"/><path class="cls-1" d="M112.51,459.91h.85v8.91h-.85Z"/><path class="cls-1" d="M127.41,461.19a2.89,2.89,0,0,1,0,4.21,3.81,3.81,0,0,1-2.52.77h-2.25v2.65h-.89v-8.4h3.14A3.76,3.76,0,0,1,127.41,461.19Zm-.63,3.65a1.89,1.89,0,0,0,.66-1.54,1.93,1.93,0,0,0-.66-1.57,3,3,0,0,0-1.91-.54h-2.23v4.2h2.23A3,3,0,0,0,126.78,464.84Z"/><path class="cls-1" d="M136.87,465.93h-5.28a2.31,2.31,0,0,0,.75,1.59,2.55,2.55,0,0,0,1.73.6,2.74,2.74,0,0,0,1.08-.21,2.25,2.25,0,0,0,.85-.62l.48.56a2.68,2.68,0,0,1-1,.76,3.7,3.7,0,0,1-3.1-.15,2.92,2.92,0,0,1-1.17-1.14,3.28,3.28,0,0,1-.42-1.66,3.33,3.33,0,0,1,.4-1.65,2.87,2.87,0,0,1,1.1-1.14,3,3,0,0,1,1.58-.41,3,3,0,0,1,1.57.41,2.82,2.82,0,0,1,1.09,1.13,3.34,3.34,0,0,1,.4,1.66Zm-4.58-2.16a2.28,2.28,0,0,0-.7,1.52h4.47a2.28,2.28,0,0,0-.7-1.52,2.32,2.32,0,0,0-3.07,0Zm2.39-3.74h1.14l-1.94,1.49H133Z"/><path class="cls-1" d="M141.67,462.78a3.13,3.13,0,0,1,1.47-.32v.83l-.2,0a2,2,0,0,0-1.56.62,2.4,2.4,0,0,0-.56,1.71v3.22H140v-6.31h.82v1.23A2.13,2.13,0,0,1,141.67,462.78Z"/><path class="cls-1" d="M151.46,465.93h-5.28a2.27,2.27,0,0,0,.76,1.59,2.5,2.5,0,0,0,1.72.6,2.67,2.67,0,0,0,1.08-.21,2.29,2.29,0,0,0,.86-.62l.48.56a2.68,2.68,0,0,1-1.05.76,3.52,3.52,0,0,1-1.39.27,3.45,3.45,0,0,1-1.72-.42,2.92,2.92,0,0,1-1.17-1.14,3.28,3.28,0,0,1-.42-1.66,3.33,3.33,0,0,1,.4-1.65,2.94,2.94,0,0,1,1.1-1.14,3,3,0,0,1,1.58-.41,2.94,2.94,0,0,1,1.57.41,2.91,2.91,0,0,1,1.1,1.13,3.45,3.45,0,0,1,.39,1.66Zm-4.58-2.16a2.33,2.33,0,0,0-.7,1.52h4.48a2.29,2.29,0,0,0-.71-1.52,2.32,2.32,0,0,0-3.07,0Z"/><path class="cls-1" d="M159,468.11v.71h-5.14v-.57l4-5h-3.9v-.72h5v.56l-4,5Z"/><path class="cls-1" d="M75.83,490.34a4.08,4.08,0,0,1-1.58-1.53,4.49,4.49,0,0,1,0-4.38,4.08,4.08,0,0,1,1.58-1.53,4.58,4.58,0,0,1,2.26-.55,4.67,4.67,0,0,1,1.73.31,3.67,3.67,0,0,1,1.34.91l-.57.56a3.34,3.34,0,0,0-2.48-1,3.68,3.68,0,0,0-1.81.45A3.34,3.34,0,0,0,75,484.84a3.45,3.45,0,0,0-.46,1.78,3.41,3.41,0,0,0,.46,1.77,3.27,3.27,0,0,0,1.28,1.25,3.58,3.58,0,0,0,1.81.46,3.29,3.29,0,0,0,2.48-1l.57.56a3.65,3.65,0,0,1-1.35.92,4.67,4.67,0,0,1-1.73.32A4.52,4.52,0,0,1,75.83,490.34Z"/><path class="cls-1" d="M84,490.69a.67.67,0,0,1-.18-.47.62.62,0,0,1,.18-.46.6.6,0,0,1,.45-.19.65.65,0,0,1,.65.65.68.68,0,0,1-.19.47.66.66,0,0,1-.46.19A.64.64,0,0,1,84,490.69Z"/><path class="cls-1" d="M88.46,482.42h.88v8.4h-.88Z"/><path class="cls-1" d="M92.88,485.57a.6.6,0,0,1-.19-.46.63.63,0,0,1,.19-.47.61.61,0,0,1,.45-.18.64.64,0,0,1,.45.18.63.63,0,0,1,.19.47.6.6,0,0,1-.19.46.62.62,0,0,1-.45.2A.59.59,0,0,1,92.88,485.57Zm0,5.12a.64.64,0,0,1-.19-.47.59.59,0,0,1,.19-.46.58.58,0,0,1,.45-.19.61.61,0,0,1,.45.19.59.59,0,0,1,.19.46.64.64,0,0,1-.19.47.65.65,0,0,1-.45.19A.62.62,0,0,1,92.88,490.69Z"/><path class="cls-1" d="M106.79,490.05v.77H100.9v-.61l3.49-3.42a4.43,4.43,0,0,0,.89-1.13,2.06,2.06,0,0,0,.24-1,1.41,1.41,0,0,0-.51-1.16,2.31,2.31,0,0,0-1.46-.41,2.88,2.88,0,0,0-2.29.93l-.61-.53a3.18,3.18,0,0,1,1.25-.88,4.47,4.47,0,0,1,1.72-.31,3.18,3.18,0,0,1,2,.6,2,2,0,0,1,.75,1.66,2.9,2.9,0,0,1-.29,1.25,5.3,5.3,0,0,1-1.09,1.38l-2.86,2.81Z"/><path class="cls-1" d="M111.54,482.42v8.4h-.86v-7.63h-2v-.77Z"/><path class="cls-1" d="M115.09,490.69a.64.64,0,0,1-.19-.47.59.59,0,0,1,.19-.46.58.58,0,0,1,.45-.19.67.67,0,0,1,.65.65.65.65,0,0,1-.2.47.64.64,0,0,1-.45.19A.62.62,0,0,1,115.09,490.69Z"/><path class="cls-1" d="M124.63,490.05v.77h-5.89v-.61l3.49-3.42a4.76,4.76,0,0,0,.9-1.13,2.18,2.18,0,0,0,.23-1,1.41,1.41,0,0,0-.51-1.16,2.29,2.29,0,0,0-1.46-.41,2.9,2.9,0,0,0-2.29.93l-.61-.53a3.33,3.33,0,0,1,1.25-.88,4.52,4.52,0,0,1,1.73-.31,3.17,3.17,0,0,1,2,.6,2,2,0,0,1,.75,1.66,2.9,2.9,0,0,1-.29,1.25,5.1,5.1,0,0,1-1.09,1.38L120,490.05Z"/><path class="cls-1" d="M133.92,488.61h-1.68v2.21h-.86v-2.21h-4.74V488l4.45-5.57h1l-4.3,5.42h3.65V485.9h.84v1.94h1.68Z"/><path class="cls-1" d="M142.21,487.21a2,2,0,0,1,.42,1.27,2.16,2.16,0,0,1-.39,1.28,2.56,2.56,0,0,1-1.14.84,4.78,4.78,0,0,1-1.73.29,3.91,3.91,0,0,1-2.38-.65,2.09,2.09,0,0,1-.86-1.76,2,2,0,0,1,.41-1.28,2.54,2.54,0,0,1,1.21-.79,2.05,2.05,0,0,1-1-.72,1.86,1.86,0,0,1-.34-1.12,1.93,1.93,0,0,1,.8-1.62,3.46,3.46,0,0,1,2.14-.6,4.09,4.09,0,0,1,1.55.27,2.23,2.23,0,0,1,1,.77,1.93,1.93,0,0,1,.37,1.18,1.86,1.86,0,0,1-.34,1.12,2.21,2.21,0,0,1-1,.72A2.56,2.56,0,0,1,142.21,487.21Zm-1.09,2.49a1.52,1.52,0,0,0,0-2.46,3,3,0,0,0-1.75-.45,2.91,2.91,0,0,0-1.73.45,1.53,1.53,0,0,0,0,2.47,3,3,0,0,0,1.74.45A2.91,2.91,0,0,0,141.12,489.7Zm-3.27-4a2.43,2.43,0,0,0,1.52.41,2.48,2.48,0,0,0,1.53-.41,1.35,1.35,0,0,0,0-2.2,2.51,2.51,0,0,0-1.52-.41,2.47,2.47,0,0,0-1.52.41,1.36,1.36,0,0,0,0,2.2Z"/><path class="cls-1" d="M145.5,490.69a.64.64,0,0,1-.19-.47.59.59,0,0,1,.19-.46.58.58,0,0,1,.45-.19.61.61,0,0,1,.45.19.59.59,0,0,1,.19.46.64.64,0,0,1-.19.47.65.65,0,0,1-.45.19A.62.62,0,0,1,145.5,490.69Z"/><path class="cls-1" d="M154.36,483.44a4.85,4.85,0,0,1,.89,3.1,5.34,5.34,0,0,1-.48,2.38,3.33,3.33,0,0,1-1.35,1.47,4,4,0,0,1-2,.5,3.75,3.75,0,0,1-2-.46l.35-.69a3,3,0,0,0,1.63.39,2.79,2.79,0,0,0,2.19-.88,3.7,3.7,0,0,0,.79-2.56,5.49,5.49,0,0,0,0-.68,2.26,2.26,0,0,1-1,1.06,3.48,3.48,0,0,1-3,.06,2.34,2.34,0,0,1-1-.88,2.42,2.42,0,0,1-.36-1.32,2.47,2.47,0,0,1,1.4-2.27,3.37,3.37,0,0,1,1.47-.31A3.11,3.11,0,0,1,154.36,483.44Zm-1.34,3a1.89,1.89,0,0,0,.76-.66,1.62,1.62,0,0,0,.28-.93,1.65,1.65,0,0,0-.26-.89,1.9,1.9,0,0,0-.76-.66,2.65,2.65,0,0,0-1.2-.25,2.12,2.12,0,0,0-1.48.5,1.81,1.81,0,0,0,0,2.64,2.26,2.26,0,0,0,1.54.49A2.49,2.49,0,0,0,153,486.47Z"/><path class="cls-1" d="M163.55,490.05v.77h-5.89v-.61l3.49-3.42a4.43,4.43,0,0,0,.89-1.13,2.06,2.06,0,0,0,.24-1,1.41,1.41,0,0,0-.51-1.16,2.31,2.31,0,0,0-1.46-.41,2.88,2.88,0,0,0-2.29.93l-.61-.53a3.18,3.18,0,0,1,1.25-.88,4.47,4.47,0,0,1,1.72-.31,3.18,3.18,0,0,1,2,.6,2,2,0,0,1,.75,1.66,2.9,2.9,0,0,1-.29,1.25,5.3,5.3,0,0,1-1.09,1.38l-2.86,2.81Z"/><path class="cls-1" d="M168.3,482.42v8.4h-.86v-7.63h-2v-.77Z"/><path class="cls-1" d="M77.49,512.37a3.28,3.28,0,0,1-1.19-1.48,5.47,5.47,0,0,1-.43-2.27,5.55,5.55,0,0,1,.43-2.28,3.39,3.39,0,0,1,1.19-1.48,3.19,3.19,0,0,1,3.46,0,3.49,3.49,0,0,1,1.2,1.48,5.55,5.55,0,0,1,.43,2.28,5.47,5.47,0,0,1-.43,2.27,3.37,3.37,0,0,1-1.2,1.48,3.14,3.14,0,0,1-3.46,0Zm3-.68a2.66,2.66,0,0,0,.87-1.19,5.89,5.89,0,0,0,0-3.77,2.72,2.72,0,0,0-.87-1.19,2.28,2.28,0,0,0-2.58,0,2.72,2.72,0,0,0-.87,1.19,5.89,5.89,0,0,0,0,3.77,2.66,2.66,0,0,0,.87,1.19,2.23,2.23,0,0,0,2.58,0Z"/><path class="cls-1" d="M92.3,510.61H90.62v2.21h-.86v-2.21H85V510l4.45-5.57h1l-4.3,5.42h3.65V507.9h.84v1.94H92.3Z"/><path class="cls-1" d="M96.46,504.42v8.4H95.6v-7.63h-2v-.77Z"/><path class="cls-1" d="M107,510.61h-1.68v2.21h-.86v-2.21H99.67V510l4.45-5.57h1l-4.3,5.42h3.65V507.9h.84v1.94H107Z"/><path class="cls-1" d="M113.77,508.73a2.19,2.19,0,0,1,.69,1.68,2.34,2.34,0,0,1-.34,1.27,2.41,2.41,0,0,1-1,.89,3.93,3.93,0,0,1-1.66.32,5.19,5.19,0,0,1-1.73-.29,3.53,3.53,0,0,1-1.3-.79l.42-.69a3,3,0,0,0,1.12.71,4.07,4.07,0,0,0,1.49.27,2.49,2.49,0,0,0,1.59-.45,1.5,1.5,0,0,0,.57-1.24,1.48,1.48,0,0,0-.57-1.23,2.74,2.74,0,0,0-1.7-.44h-.6v-.64l2.33-2.91h-4.3v-.77h5.4V505l-2.38,3A3.11,3.11,0,0,1,113.77,508.73Z"/><path class="cls-1" d="M123.05,509.21a2,2,0,0,1,.43,1.27,2.16,2.16,0,0,1-.4,1.28,2.53,2.53,0,0,1-1.13.84,4.84,4.84,0,0,1-1.74.29,3.86,3.86,0,0,1-2.37-.65,2.08,2.08,0,0,1-.87-1.76,2,2,0,0,1,.42-1.28,2.46,2.46,0,0,1,1.2-.79,2.05,2.05,0,0,1-1-.72,1.86,1.86,0,0,1-.34-1.12,1.93,1.93,0,0,1,.8-1.62,3.48,3.48,0,0,1,2.14-.6,4.18,4.18,0,0,1,1.56.27,2.2,2.2,0,0,1,1,.77,1.94,1.94,0,0,1,.38,1.18,1.87,1.87,0,0,1-.35,1.12,2.16,2.16,0,0,1-1,.72A2.51,2.51,0,0,1,123.05,509.21ZM122,511.7a1.52,1.52,0,0,0,0-2.46,3.59,3.59,0,0,0-3.48,0,1.43,1.43,0,0,0-.63,1.23,1.46,1.46,0,0,0,.62,1.24,3,3,0,0,0,1.74.45A2.89,2.89,0,0,0,122,511.7Zm-3.27-4a2.45,2.45,0,0,0,1.52.41,2.48,2.48,0,0,0,1.53-.41,1.35,1.35,0,0,0,0-2.2,3,3,0,0,0-3,0,1.37,1.37,0,0,0,0,2.2Z"/><path class="cls-1" d="M131,508.1a2.38,2.38,0,0,1,1,.88,2.45,2.45,0,0,1,.36,1.33,2.5,2.5,0,0,1-.37,1.36,2.44,2.44,0,0,1-1,.9,3.31,3.31,0,0,1-1.47.32,3.09,3.09,0,0,1-2.55-1.1,4.81,4.81,0,0,1-.89-3.1,5.34,5.34,0,0,1,.48-2.38,3.48,3.48,0,0,1,1.34-1.47,4,4,0,0,1,2-.49,3.81,3.81,0,0,1,2,.45l-.35.7a2.87,2.87,0,0,0-1.63-.4,2.8,2.8,0,0,0-2.18.88,3.72,3.72,0,0,0-.79,2.56c0,.21,0,.43,0,.69a2.23,2.23,0,0,1,1-1.06,3.2,3.2,0,0,1,1.57-.38A3.31,3.31,0,0,1,131,508.1Zm-.06,3.56a1.83,1.83,0,0,0,0-2.65,2.31,2.31,0,0,0-1.54-.49,2.46,2.46,0,0,0-1.12.24,1.91,1.91,0,0,0-.77.66,1.69,1.69,0,0,0-.27.94,1.59,1.59,0,0,0,.26.89,1.84,1.84,0,0,0,.76.66,2.73,2.73,0,0,0,1.2.25A2.17,2.17,0,0,0,130.91,511.66Z"/><path class="cls-1" d="M140.41,512.05v.77h-5.89v-.61l3.49-3.42a4.43,4.43,0,0,0,.89-1.13,2.06,2.06,0,0,0,.24-1,1.41,1.41,0,0,0-.51-1.16,2.31,2.31,0,0,0-1.46-.41,2.87,2.87,0,0,0-2.29.93l-.62-.53a3.29,3.29,0,0,1,1.26-.88,4.47,4.47,0,0,1,1.72-.31,3.15,3.15,0,0,1,2,.6,2,2,0,0,1,.75,1.66,2.89,2.89,0,0,1-.28,1.25,5.38,5.38,0,0,1-1.1,1.38l-2.85,2.81Z"/><path class="cls-1" d="M144.4,512.37a3.28,3.28,0,0,1-1.19-1.48,5.64,5.64,0,0,1-.43-2.27,5.72,5.72,0,0,1,.43-2.28,3.39,3.39,0,0,1,1.19-1.48,3,3,0,0,1,1.73-.51,3.06,3.06,0,0,1,1.74.51,3.54,3.54,0,0,1,1.19,1.48,5.55,5.55,0,0,1,.43,2.28,5.47,5.47,0,0,1-.43,2.27,3.42,3.42,0,0,1-1.19,1.48,3,3,0,0,1-1.74.52A3,3,0,0,1,144.4,512.37Zm3-.68a2.66,2.66,0,0,0,.87-1.19,5.89,5.89,0,0,0,0-3.77,2.72,2.72,0,0,0-.87-1.19,2.28,2.28,0,0,0-2.58,0,2.72,2.72,0,0,0-.87,1.19,5.89,5.89,0,0,0,0,3.77,2.66,2.66,0,0,0,.87,1.19,2.23,2.23,0,0,0,2.58,0Z"/><path class="cls-1" d="M159.21,510.61h-1.68v2.21h-.86v-2.21h-4.74V510l4.45-5.57h1l-4.3,5.42h3.65V507.9h.84v1.94h1.68Z"/><path class="cls-1" d="M167,512.05v.77h-5.9v-.61l3.5-3.42a4.67,4.67,0,0,0,.89-1.13,2,2,0,0,0,.23-1,1.41,1.41,0,0,0-.51-1.16,2.28,2.28,0,0,0-1.45-.41,2.91,2.91,0,0,0-2.3.93l-.61-.53a3.29,3.29,0,0,1,1.26-.88,4.43,4.43,0,0,1,1.72-.31,3.17,3.17,0,0,1,2,.6,2,2,0,0,1,.75,1.66,2.76,2.76,0,0,1-.29,1.25,5.1,5.1,0,0,1-1.09,1.38l-2.85,2.81Z"/><path class="cls-2" d="M4.47,259.33H1.13l.23-1.22H9.47l-.25,1.22H5.88l-1.73,8.59H2.77Z"/><path class="cls-2" d="M15.73,260.42l-.25,1.3h-.35a2.66,2.66,0,0,0-2.8,2.49l-.74,3.72H10.24l1.47-7.43H13l-.21,1.11A3.44,3.44,0,0,1,15.73,260.42Z"/><path class="cls-2" d="M25.84,260.49l-1.47,7.43H23.08l.18-.92a3.68,3.68,0,0,1-2.62,1,3.06,3.06,0,0,1-3.27-3.21,4.15,4.15,0,0,1,4.2-4.37,2.81,2.81,0,0,1,2.67,1.33l.26-1.26Zm-2,3.19a2,2,0,0,0-2.22-2.08,2.93,2.93,0,0,0-2.9,3.14,2,2,0,0,0,2.22,2.08A2.92,2.92,0,0,0,23.84,263.68Z"/><path class="cls-2" d="M36.45,262.89a5.4,5.4,0,0,1-.08.86l-.83,4.17H34.2l.82-4.17a2.79,2.79,0,0,0,.07-.61c0-1-.56-1.51-1.72-1.51A2.61,2.61,0,0,0,30.63,264l-.79,3.93H28.5L30,260.49h1.29l-.19.95a3.66,3.66,0,0,1,2.69-1C35.44,260.42,36.45,261.3,36.45,262.89Z"/><path class="cls-2" d="M38.88,267.14l.61-1.06a4.31,4.31,0,0,0,2.57.76c1.29,0,1.95-.41,1.95-1.1,0-1.44-4.12-.4-4.12-2.91,0-1.47,1.33-2.41,3.36-2.41a4.89,4.89,0,0,1,2.6.67l-.54,1.07a3.91,3.91,0,0,0-2.18-.59c-1.25,0-1.89.46-1.89,1.11,0,1.49,4.1.44,4.1,2.91,0,1.54-1.39,2.41-3.4,2.41A5.25,5.25,0,0,1,38.88,267.14Z"/><path class="cls-2" d="M51.29,259.9l-.13.59h2.16l-.22,1.11H51l-1.27,6.32H48.36l1.28-6.32H48.36l.21-1.11h1.29l.14-.7a2.62,2.62,0,0,1,2.75-2.35,2.55,2.55,0,0,1,1.55.46l-.56,1a1.47,1.47,0,0,0-1-.35C51.93,258.54,51.49,259,51.29,259.9Z"/><path class="cls-2" d="M55.88,264.62v.09c0,1.36.76,2.11,2.35,2.11a3.31,3.31,0,0,0,2.3-.85l.58,1a4.41,4.41,0,0,1-3,1.07c-2.2,0-3.56-1.26-3.56-3.22a4.15,4.15,0,0,1,4.19-4.36,3,3,0,0,1,3.32,3.21,5.11,5.11,0,0,1-.1,1Zm.14-1h4.79a1.89,1.89,0,0,0-2.11-2.1A2.67,2.67,0,0,0,56,263.64Z"/><path class="cls-2" d="M70.19,260.42l-.25,1.3h-.35a2.66,2.66,0,0,0-2.8,2.49L66,267.92H64.7l1.47-7.43h1.29l-.21,1.11A3.44,3.44,0,0,1,70.19,260.42Z"/><path class="cls-2" d="M73.14,264.62v.09c0,1.36.76,2.11,2.36,2.11a3.3,3.3,0,0,0,2.29-.85l.58,1a4.41,4.41,0,0,1-3,1.07c-2.2,0-3.55-1.26-3.55-3.22A4.14,4.14,0,0,1,76,260.42a3,3,0,0,1,3.32,3.21,6.07,6.07,0,0,1-.09,1Zm.14-1h4.79a1.89,1.89,0,0,0-2.11-2.1A2.67,2.67,0,0,0,73.28,263.64Z"/><path class="cls-2" d="M89.92,262.89a4.49,4.49,0,0,1-.09.86L89,267.92H87.66l.83-4.17a3.57,3.57,0,0,0,.07-.61c0-1-.56-1.51-1.72-1.51A2.62,2.62,0,0,0,84.09,264l-.78,3.93H82l1.47-7.43h1.29l-.18.95a3.64,3.64,0,0,1,2.69-1C88.91,260.42,89.92,261.3,89.92,262.89Z"/><path class="cls-2" d="M93.09,264.79a4.23,4.23,0,0,1,4.37-4.37,3.19,3.19,0,0,1,3.06,1.61l-1.14.63a2.1,2.1,0,0,0-2-1.06,2.92,2.92,0,0,0-2.91,3.14,2,2,0,0,0,2.23,2.08,2.68,2.68,0,0,0,2.21-1.05l1,.7A4,4,0,0,1,96.62,268C94.46,268,93.09,266.72,93.09,264.79Z"/><path class="cls-2" d="M104.14,260.49h1.34L104,267.92h-1.34Zm.22-2.24a.93.93,0,0,1,1-.94.82.82,0,0,1,.85.79.92.92,0,0,1-1,1A.81.81,0,0,1,104.36,258.25Z"/><path class="cls-2" d="M116.6,260.49l-1.47,7.43h-1.29L114,267a3.67,3.67,0,0,1-2.61,1,3.06,3.06,0,0,1-3.28-3.21,4.15,4.15,0,0,1,4.2-4.37,2.81,2.81,0,0,1,2.67,1.33l.26-1.26Zm-2,3.19a2,2,0,0,0-2.21-2.08,2.92,2.92,0,0,0-2.9,3.14,2,2,0,0,0,2.21,2.08A2.92,2.92,0,0,0,114.6,263.68Z"/><path class="cls-2" d="M118.54,267.14l.61-1.06a4.31,4.31,0,0,0,2.57.76c1.29,0,2-.41,2-1.1,0-1.44-4.12-.4-4.12-2.91,0-1.47,1.33-2.41,3.36-2.41a4.82,4.82,0,0,1,2.59.67l-.53,1.07a3.91,3.91,0,0,0-2.18-.59c-1.25,0-1.89.46-1.89,1.11,0,1.49,4.1.44,4.1,2.91,0,1.54-1.39,2.41-3.4,2.41A5.25,5.25,0,0,1,118.54,267.14Z"/><path class="cls-2" d="M141.21,260.49,136,268.73c-1,1.51-1.73,2-2.89,2a2.67,2.67,0,0,1-1.86-.66l.7-1a1.73,1.73,0,0,0,1.26.51c.62,0,1.06-.28,1.6-1.11l.37-.59-1.79-7.38h1.35l1.42,5.94,3.74-5.94Z"/><path class="cls-2" d="M157.29,261c0,2.51-1.77,4-4.6,4h-2.62l-.59,3h-1.4l2-9.81h3.65C156,258.11,157.29,259.16,157.29,261Zm-1.4.13c0-1.18-.85-1.78-2.33-1.78h-2.35l-.89,4.4h2.4C154.72,263.73,155.89,262.83,155.89,261.11Z"/><path class="cls-2" d="M167.87,260.49l-1.47,7.43h-1.29l.18-.92a3.7,3.7,0,0,1-2.62,1,3.07,3.07,0,0,1-3.28-3.21,4.16,4.16,0,0,1,4.21-4.37,2.81,2.81,0,0,1,2.67,1.33l.25-1.26Zm-2,3.19a2,2,0,0,0-2.22-2.08,2.93,2.93,0,0,0-2.9,3.14,2,2,0,0,0,2.22,2.08A2.92,2.92,0,0,0,165.87,263.68Zm-1.14-4.27h-1.31l2.11-1.82h1.75Z"/><path class="cls-2" d="M179.1,260.49l-1.28,6.42c-.53,2.69-2,3.81-4.44,3.81a5.24,5.24,0,0,1-3.39-1.05l.74-1a4.17,4.17,0,0,0,2.75.9,2.67,2.67,0,0,0,3-2.41l.11-.54a3.75,3.75,0,0,1-2.69,1,3,3,0,0,1-3.31-3,4.08,4.08,0,0,1,4.23-4.16,2.92,2.92,0,0,1,2.78,1.43l.26-1.36Zm-2.06,3c0-1.19-.81-1.92-2.21-1.92a2.81,2.81,0,0,0-2.92,2.9c0,1.2.83,1.93,2.22,1.93A2.81,2.81,0,0,0,177,263.52Z"/><path class="cls-2" d="M181.74,264.79a4.22,4.22,0,0,1,4.35-4.37c2.12,0,3.48,1.25,3.48,3.19a4.22,4.22,0,0,1-4.34,4.39A3.16,3.16,0,0,1,181.74,264.79Zm6.47-1.11A2,2,0,0,0,186,261.6a2.92,2.92,0,0,0-2.9,3.14,2,2,0,0,0,2.21,2.08A2.92,2.92,0,0,0,188.21,263.68Z"/><path class="cls-2" d="M210.78,262.87a4.84,4.84,0,0,1-.1.88l-.82,4.17h-1.35l.83-4.17a3.79,3.79,0,0,0,.07-.64c0-.95-.53-1.48-1.64-1.48a2.53,2.53,0,0,0-2.61,2.32l-.79,4H203l.84-4.17a3.57,3.57,0,0,0,.07-.63c0-.95-.53-1.49-1.65-1.49a2.54,2.54,0,0,0-2.61,2.36l-.78,3.93h-1.35l1.48-7.43h1.28l-.18.93a3.47,3.47,0,0,1,2.58-1,2.39,2.39,0,0,1,2.38,1.32,3.83,3.83,0,0,1,3-1.32C209.79,260.42,210.78,261.3,210.78,262.87Z"/><path class="cls-2" d="M213.94,264.79a4.22,4.22,0,0,1,4.35-4.37c2.12,0,3.48,1.25,3.48,3.19a4.22,4.22,0,0,1-4.34,4.39A3.16,3.16,0,0,1,213.94,264.79Zm6.47-1.11a2,2,0,0,0-2.21-2.08,2.92,2.92,0,0,0-2.9,3.14,2,2,0,0,0,2.21,2.08A2.92,2.92,0,0,0,220.41,263.68Zm-.6-6.09h1.75L219,259.41h-1.32Z"/><path class="cls-2" d="M232.24,260.49l-4.72,7.43h-1.37l-1.78-7.43h1.34l1.39,5.95,3.78-5.95Z"/><path class="cls-2" d="M235.06,260.49h1.35l-1.47,7.43h-1.35Zm.23-2.24a.93.93,0,0,1,1-.94.82.82,0,0,1,.85.79.93.93,0,0,1-1,1A.81.81,0,0,1,235.29,258.25Z"/><path class="cls-2" d="M241.14,257.52h1.35l-2.08,10.4h-1.34Z"/></svg>